<?xml version="1.0" encoding="UTF-8"?>
<svg id="Livello_1" xmlns="http://www.w3.org/2000/svg" version="1.1" viewBox="0 0 226.8 226.8">
  <!-- Generator: Adobe Illustrator 29.3.0, SVG Export Plug-In . SVG Version: 2.1.0 Build 146)  -->
  <defs>
    <style>
      .st0 {
        fill: #231f20;
      }

      .st1 {
        stroke: #808285;
        stroke-width: 1.9px;
      }

      .st1, .st2, .st3 {
        fill: none;
      }

      .st2 {
        stroke-width: .6px;
      }

      .st2, .st3 {
        stroke: #231f20;
      }

      .st3 {
        stroke-width: 1.3px;
      }
    </style>
  </defs>
  <g>
    <path class="st0" d="M63.2,101.6h12.4v3.5h-4.2v21.2h-4v-21.2h-4.2v-3.5Z"/>
    <path class="st0" d="M80.3,112h5.5v3.5h-5.5v7.2h6.9v3.5h-10.9v-24.7h10.9v3.5h-6.9v6.9Z"/>
    <path class="st0" d="M101.6,126.3h-4l-.7-4.5h-4.9l-.7,4.5h-3.7l4.1-24.7h5.9l4.1,24.7ZM92.5,118.5h3.9l-1.9-12.5-1.9,12.5Z"/>
    <path class="st0" d="M101.3,101.6h12.4v3.5h-4.2v21.2h-4v-21.2h-4.2v-3.5Z"/>
    <path class="st0" d="M122.7,126.3c-.2-.6-.4-1-.4-3v-3.9c0-2.3-.8-3.1-2.6-3.1h-1.4v10.1h-4v-24.7h6.1c4.2,0,5.9,1.9,5.9,5.7v1.9c0,2.5-.8,4.2-2.6,5,2,.8,2.7,2.7,2.7,5.3v3.8c0,1.2,0,2.1.4,3h-4.1ZM118.4,105.1v7.6h1.6c1.5,0,2.4-.6,2.4-2.6v-2.4c0-1.8-.6-2.5-2-2.5h-1.9Z"/>
    <path class="st0" d="M141,126.3h-4l-.7-4.5h-4.9l-.7,4.5h-3.7l4.1-24.7h5.9l4.1,24.7ZM131.8,118.5h3.9l-1.9-12.5-1.9,12.5Z"/>
    <path class="st0" d="M141.8,101.6h4v21.2h6.6v3.5h-10.6v-24.7Z"/>
    <path class="st0" d="M157.1,112h5.5v3.5h-5.5v7.2h6.9v3.5h-10.9v-24.7h10.9v3.5h-6.9v6.9Z"/>
  </g>
  <g>
    <path class="st0" d="M80.7,87.4v4.6c0,5.5-2.9,8.6-8.5,8.6s-8.5-3.1-8.5-8.6v-17.9c0-5.5,2.9-8.7,8.5-8.7s8.5,3.1,8.5,8.7v3.3h-5.4v-3.7c0-2.5-1.1-3.4-3-3.4s-3,.9-3,3.4v18.6c0,2.5,1.1,3.3,3,3.3s3-.9,3-3.3v-4.9h5.4Z"/>
    <path class="st0" d="M101.2,100.2h-5.8l-1-6.2h-7l-1,6.2h-5.2l5.8-34.4h8.4l5.8,34.4ZM88.2,89.3h5.5l-2.8-17.4-2.8,17.4Z"/>
    <path class="st0" d="M114.4,90.2l3.9-24.4h7.9v34.4h-5.4v-24.7l-3.9,24.7h-5.4l-4.3-24.3v24.3h-5v-34.4h7.9l4.2,24.4Z"/>
    <path class="st0" d="M145.8,74.3v4.5c0,5.5-2.8,8.5-8.5,8.5h-2.7v12.9h-5.7v-34.4h8.4c5.7,0,8.5,3,8.5,8.5ZM134.6,70.7v11.6h2.7c1.8,0,2.8-.8,2.8-3.2v-5.2c0-2.5-1-3.2-2.8-3.2h-2.7Z"/>
    <path class="st0" d="M146.8,74c0-5.5,3.1-8.7,8.7-8.7s8.7,3.1,8.7,8.7v17.9c0,5.5-3.1,8.6-8.7,8.6s-8.7-3.1-8.7-8.6v-17.9ZM152.5,92.3c0,2.5,1.1,3.4,3,3.4s3-.9,3-3.4v-18.6c0-2.5-1.1-3.4-3-3.4s-3,.9-3,3.4v18.6Z"/>
  </g>
  <g>
    <path class="st0" d="M69.5,128.4c2.2,0,3.4,1.4,3.4,3.7v.5h-2.2v-.6c0-1.1-.4-1.5-1.1-1.5s-1.1.4-1.1,1.5c0,3,4.5,3.6,4.5,7.8s-1.2,3.7-3.4,3.7-3.4-1.4-3.4-3.7v-.9h2.2v1.1c0,1.1.5,1.4,1.2,1.4s1.2-.4,1.2-1.4c0-3-4.5-3.6-4.5-7.8s1.1-3.7,3.4-3.7Z"/>
    <path class="st0" d="M75.6,132.6v10.7h-2.1v-14.8h2.9l2.4,8.8v-8.8h2v14.8h-2.4l-2.9-10.7Z"/>
    <path class="st0" d="M81.7,132.1c0-2.4,1.2-3.7,3.5-3.7s3.5,1.4,3.5,3.7v7.7c0,2.4-1.2,3.7-3.5,3.7s-3.5-1.4-3.5-3.7v-7.7ZM83.9,139.9c0,1.1.5,1.5,1.2,1.5s1.2-.4,1.2-1.5v-8c0-1.1-.5-1.5-1.2-1.5s-1.2.4-1.2,1.5v8Z"/>
    <path class="st0" d="M89.5,128.5h3.6c2.3,0,3.4,1.3,3.4,3.7v7.5c0,2.4-1.1,3.7-3.4,3.7h-3.6v-14.8ZM91.8,130.7v10.6h1.3c.7,0,1.2-.4,1.2-1.4v-7.7c0-1.1-.4-1.4-1.2-1.4h-1.3Z"/>
    <path class="st0" d="M97.2,132.1c0-2.4,1.2-3.7,3.5-3.7s3.5,1.4,3.5,3.7v7.7c0,2.4-1.2,3.7-3.5,3.7s-3.5-1.4-3.5-3.7v-7.7ZM99.5,139.9c0,1.1.5,1.5,1.2,1.5s1.2-.4,1.2-1.5v-8c0-1.1-.5-1.5-1.2-1.5s-1.2.4-1.2,1.5v8Z"/>
    <path class="st0" d="M114.3,137.8v2c0,2.4-1.2,3.7-3.4,3.7s-3.4-1.4-3.4-3.7v-7.7c0-2.4,1.2-3.7,3.4-3.7s3.4,1.4,3.4,3.7v1.4h-2.2v-1.6c0-1.1-.5-1.5-1.2-1.5s-1.2.4-1.2,1.5v8c0,1.1.5,1.4,1.2,1.4s1.2-.4,1.2-1.4v-2.1h2.2Z"/>
    <path class="st0" d="M119.8,143.3c-.1-.4-.2-.6-.2-1.8v-2.3c0-1.4-.5-1.9-1.5-1.9h-.8v6h-2.3v-14.8h3.5c2.4,0,3.4,1.1,3.4,3.4v1.2c0,1.5-.5,2.5-1.5,3,1.1.5,1.5,1.6,1.5,3.1v2.3c0,.7,0,1.2.2,1.8h-2.3ZM117.4,130.7v4.5h.9c.9,0,1.4-.4,1.4-1.6v-1.5c0-1.1-.4-1.5-1.2-1.5h-1.1Z"/>
    <path class="st0" d="M125.1,134.8h3.1v2.1h-3.1v4.3h4v2.1h-6.2v-14.8h6.2v2.1h-4v4.1Z"/>
    <path class="st0" d="M137.3,143.3h-2.3l-.4-2.7h-2.8l-.4,2.7h-2.1l2.3-14.8h3.4l2.3,14.8ZM132.1,138.6h2.2l-1.1-7.5-1.1,7.5Z"/>
    <path class="st0" d="M137.1,128.5h7.1v2.1h-2.4v12.7h-2.3v-12.7h-2.4v-2.1Z"/>
    <path class="st0" d="M144.6,128.5h2.3v14.8h-2.3v-14.8Z"/>
    <path class="st0" d="M151.4,140.6l1.7-12h2.1l-2.2,14.8h-3.4l-2.2-14.8h2.3l1.7,12Z"/>
    <path class="st0" d="M155.5,132.1c0-2.4,1.2-3.7,3.5-3.7s3.5,1.4,3.5,3.7v7.7c0,2.4-1.2,3.7-3.5,3.7s-3.5-1.4-3.5-3.7v-7.7ZM157.8,139.9c0,1.1.5,1.5,1.2,1.5s1.2-.4,1.2-1.5v-8c0-1.1-.5-1.5-1.2-1.5s-1.2.4-1.2,1.5v8Z"/>
  </g>
  <g>
    <path class="st1" d="M132.4,27.6c-41.7-13.2-72.6,13.9-98.2,53.3-20.7,31.9-.7,82.9,36.5,94,0-1.8,1.2-3.7,3.5-3.7,3.7,0,4.4,4.8,2.2,6.7,3.4,1.6,6.9,3.1,10.6,4.2,41.7,13.2,85.7-10.6,98.2-53.3,12.5-42.7-11.1-88-52.8-101.2Z"/>
    <path class="st2" d="M134.5,25.4c-43.3-13.2-89,10.6-102.1,53.3-11.2,36.8-.7,82.9,38,94,0-1.8,1.2-3.7,3.6-3.7,3.9,0,4.6,4.8,2.3,6.7,3.5,1.6,7.2,3.1,11,4.2,43.3,13.2,72.2-20.2,102.1-53.3,27.7-30.7-11.5-88-54.9-101.2Z"/>
    <path class="st3" d="M139.4,33.3c-30.1-23.8-87.8,11-100.9,53.7-10.7,35,3.6,71.7,32.6,90.9-.7-2.2.4-5.1,3.4-5.1,4.7,0,4.8,7,.4,7.4,5.4,3.1,11.9,4.1,17.3,7.6,38.4,24.9,87.8-11,100.9-53.7,13-42.7-18.7-73.2-53.7-100.9Z"/>
    <path class="st3" d="M137.2,24.8C107.2,1,49.4,35.8,36.3,78.5c-10.7,35,3.6,71.7,32.6,90.9-.7-2.2.4-5.1,3.4-5.1,4.7,0,4.8,7,.4,7.4,5.4,3.1,11.9,4.1,17.3,7.6,38.4,24.9,87.8-11,100.9-53.7,13-42.7-18.7-73.2-53.7-100.9Z"/>
    <path class="st2" d="M131.6,23.9c-45,4-122.4,10.6-102.2,54.4,16.4,35.6,7.1,80.9,43.4,98-.8-2.2.4-5.1,3.4-5.1,4.3,0,4.7,5.9,1.4,7.2,2,.8,4.8.5,6.3,2.2,30.6,34.4,89-11.2,102.2-54.4,13.2-43.2,6.3-107.6-54.4-102.2Z"/>
    <path class="st0" d="M75.5,175.7c-.4-2.5-.3-4.6,1.5-6.6,3.4-3.9,5.9,2.4,6.6,4,.7,1.8,1.1,3.8.6,5.6-1.1,4.1-6.8,1.9-9,.5-3.6-2.2-5.5-6.2-5.7-10.3-.1-3.1,1-6.5,2.9-8.8,3.1-3.7,8.3-.3,10.8,2,10.1,8.9,7.4,27.1-7.7,27-6.5,0-13.6-4.4-14.4-11.3-1.2-10.1,17.3-9.7,18.2.3.3,3.2-5,1.6-6.5,1.2-1.9-.6-3.4-2.1-4-4-1.1-3.2.9-6.9,3-9.1,2.6-2.7,6.4-3.1,9.3-.7,5.8,4.7,1.7,13-2.1,17.5-4,4.7-11.6,7.9-17,3.4-3.7-3.1.8-8.1,3.5-9.9,2.4-1.6,5.1-2.6,7.8-3.5,3.7-1.2,8.1-1.8,9.8,2.9,2.3,6.6-8.1,8.9-11.8,5.8-5-4.1-5.5-13.9-.2-17.6,5-3.5,9,3,10.6,6.8,1.5,3.7,1.6,7.7.9,11.6-1.3,7-7.4,8.9-13.4,6.6-5.7-2.1-10.3-7.3-12.3-12.9-2.2-6.2.2-14.9,8.1-13.5,5.8,1,11.2,5.6,15,9.8,2.3,2.5,9.7,13.9,1.3,13.4-5.6-.3-11.9-5.6-14-10.6-4.3-10.3,17.6-13.1,15.8-4.3-.1.7.9,1,1.1.3,2.4-11.6-23.8-7.1-17.6,5.1,2.6,5.2,8.3,9.4,14,10.5,4.3.9,6.3-2.2,5.5-6.2-1.7-9-17.4-23.4-27-18.4-5,2.6-4.5,10.6-3,15,1.9,5.5,6.8,10.3,12.1,12.6,14.5,6.1,18.8-10.6,13.7-21.4-2.5-5.2-9.7-9.6-13.9-3.2-3.6,5.5-1.5,14.9,4.1,18.4,5.3,3.3,15.4-3,11.7-9.4-3.8-6.6-13.9-1.7-18.8,1.3-4.7,2.9-8.3,11.2-.8,13.4,8.4,2.4,15.3-2.9,19.2-10.1,2.5-4.6,2.8-11.4-2-14.6-3.5-2.4-7.2-1.5-10.2,1.3-2.7,2.5-4.2,6.6-3.3,10.2,1.2,5.1,7.6,5.7,11.9,5.4.2,0,.5-.2.5-.4,1.5-7.8-5.8-12.4-12.9-11.2-8.4,1.4-8.5,10.1-4,15.4,5.2,6.2,15.6,7,22,2.5,6.4-4.6,5.9-14.1,2.9-20.5-2.1-4.5-10.5-13.1-16-8.3-5.1,4.5-5.1,13.1-1.3,18.4,2.3,3.1,7.5,6.5,11.5,4.8,4.7-2,2.9-9.5.3-12.6-5.1-5.9-9.2,1.7-8.5,6.8.1.7,1.2.4,1.1-.3h0Z"/>
  </g>
</svg>