<?xml version="1.0" encoding="UTF-8"?>
<svg id="Livello_1" data-name="Livello 1" xmlns="http://www.w3.org/2000/svg" viewBox="0 0 461.45 190.4">
  <defs>
    <style>
      .cls-1 {
        fill: none;
        stroke: #000;
        stroke-width: 3.35px;
      }
    </style>
  </defs>
  <polygon class="cls-1" points="1.68 1.68 1.68 188.72 459.77 188.72 459.77 1.68 1.68 1.68 1.68 1.68"/>
  <path d="M56.83,156.13c.8,0,1.69-.06,2.68-.18.98-.12,2.02-.31,3.1-.57s2.2-.62,3.34-1.08c1.14-.46,2.26-1.03,3.34-1.72,1.04-.64,2.11-1.48,3.19-2.53,1.08-1.04,2.06-2.33,2.92-3.85.86-1.53,1.57-3.31,2.14-5.36.56-2.05.84-4.41.84-7.1s-.28-5.06-.84-7.1c-.56-2.05-1.27-3.82-2.14-5.33s-1.84-2.77-2.92-3.79c-1.08-1.02-2.15-1.86-3.19-2.5-2.21-1.4-4.43-2.34-6.65-2.8-2.23-.46-4.16-.71-5.81-.75h-9.27v44.67h9.27ZM54.97,118.74h1.69c1.64.04,3.32.27,5.03.69,1.71.42,3.26,1.19,4.67,2.31,1.4,1.12,2.55,2.64,3.43,4.57.88,1.92,1.33,4.39,1.33,7.39s-.44,5.53-1.33,7.45c-.88,1.92-2.03,3.45-3.43,4.57-1.41,1.12-2.96,1.9-4.67,2.34-1.71.44-3.38.68-5.03.72-.04,0-.17.01-.39.03-.22.02-.69.03-1.41.03v-30.1h.12ZM113.6,118.08v-6.62h-24.08v16.86h-3.97v6.44h3.97v21.37h24.08v-6.62h-16.8v-14.75h12.82v-6.44h-12.82v-10.23h16.8ZM144.37,156.13v-6.68h-11.8v-37.99h-7.29v44.67h19.09ZM188.98,158.06l19.26-46.6h-7.58l-11.68,28.24-11.62-28.24h-7.59l19.2,46.6h0ZM239.49,156.13h7.71l-20.89-46.66-20.89,46.66h7.71l5-11.08h16.26l5.12,11.08h0ZM221.07,138.61l5.24-11.44,5.24,11.44h-10.48ZM261.35,150.95c0-.48,0-1.09.03-1.84.02-.74.07-1.49.15-2.26.08-.76.23-1.51.45-2.26.22-.74.51-1.35.87-1.84,1.16-1.61,2.52-2.78,4.06-3.52,1.54-.74,3.18-1.44,4.91-2.08,1.08-.4,2.21-.84,3.37-1.32,1.16-.48,2.28-1.09,3.34-1.84,1.06-.74,2.01-1.67,2.83-2.8.82-1.12,1.43-2.51,1.84-4.15.44-1.93.49-3.77.15-5.54-.34-1.77-1.03-3.35-2.08-4.76-.4-.56-.91-1.13-1.53-1.72-.62-.58-1.37-1.12-2.23-1.62-.86-.5-1.88-.92-3.04-1.27-1.16-.34-2.51-.57-4.03-.69h-16.37v44.67h7.28v-5.18h0ZM270.07,118.74c2.57.2,4.34.96,5.3,2.29.52.68.82,1.5.9,2.44.08.94.04,1.71-.12,2.32-.16.64-.4,1.18-.72,1.63-.32.44-.75.84-1.29,1.2-.54.36-1.2.7-1.99,1.02-.78.32-1.74.68-2.86,1.08-1.24.44-2.55.95-3.91,1.54-1.36.58-2.71,1.34-4.03,2.26v-15.77h8.73ZM322.66,155.26c2.83-1.22,5.3-2.89,7.4-5,2.11-2.11,3.77-4.59,5-7.44,1.22-2.85,1.84-5.88,1.84-9.09s-.61-6.23-1.84-9.06c-1.22-2.83-2.89-5.3-5-7.4-2.11-2.11-4.57-3.77-7.4-5-2.83-1.22-5.85-1.84-9.06-1.84s-6.24.61-9.09,1.84c-2.85,1.22-5.33,2.89-7.43,5-2.11,2.11-3.77,4.58-5,7.4-1.22,2.83-1.84,5.85-1.84,9.06s.61,6.24,1.84,9.09c1.23,2.85,2.89,5.33,5,7.44,2.11,2.11,4.59,3.77,7.43,5,2.85,1.22,5.88,1.84,9.09,1.84s6.23-.61,9.06-1.84h0ZM319.83,118.98c1.95.84,3.64,1.99,5.09,3.43,1.44,1.45,2.59,3.14,3.43,5.09.84,1.95,1.26,4.02,1.26,6.23s-.42,4.35-1.26,6.29c-.84,1.95-1.99,3.64-3.43,5.09-1.45,1.45-3.14,2.59-5.09,3.43-1.95.84-4.02,1.26-6.23,1.26s-4.35-.42-6.29-1.26c-1.95-.84-3.64-1.99-5.09-3.43-1.44-1.45-2.59-3.14-3.43-5.09-.84-1.95-1.27-4.04-1.27-6.29s.42-4.28,1.27-6.23c.84-1.95,1.99-3.64,3.43-5.09,1.45-1.45,3.14-2.59,5.09-3.43,1.95-.84,4.04-1.26,6.29-1.26s4.28.42,6.23,1.26h0ZM379.46,156.13l-14.03-19.81c.96-.36,1.92-.79,2.86-1.29.94-.5,1.84-1.11,2.68-1.84.84-.72,1.6-1.59,2.26-2.59.66-1,1.15-2.19,1.48-3.55.44-1.93.48-3.78.12-5.57-.36-1.79-1.06-3.38-2.11-4.79-.4-.52-.91-1.07-1.54-1.66-.62-.58-1.36-1.12-2.23-1.62-.86-.5-1.89-.93-3.07-1.3-1.18-.36-2.52-.6-4-.72h-16.44v44.73h7.28v-5.18c0-.48,0-1.09.03-1.84.02-.74.08-1.51.18-2.29.1-.78.25-1.54.45-2.26.2-.72.48-1.34.84-1.87.6-.8,1.25-1.49,1.96-2.05.7-.56,1.45-1.06,2.26-1.51l12.04,16.98h8.97ZM352.73,134.33v-15.65h8.79c2.57.2,4.33.96,5.3,2.29.52.68.79,1.42.81,2.2.02.78-.05,1.48-.21,2.08-.16.64-.39,1.18-.69,1.63-.3.44-.7.84-1.2,1.2-.5.36-1.14.7-1.93,1.02-.78.32-1.74.68-2.86,1.08-1.24.44-2.55.95-3.91,1.54-1.37.58-2.73,1.35-4.09,2.32v.3h0ZM411.49,118.08v-6.62h-24.08v16.86h-3.97v6.44h3.97v21.37h24.08v-6.62h-16.8v-14.75h12.82v-6.44h-12.82v-10.23h16.8Z"/>
  <path d="M80.65,43.34v-8.48h-30.62v21.53h-4.51v8.17h4.51v26.95h9.24v-26.95h16.95v-8.17h-16.95v-13.06h21.38ZM124.71,91.52h9.77l-26.5-59.18-26.5,59.18h9.77l6.34-14.05h20.62l6.49,14.05h0ZM101.34,69.3l6.64-14.51,6.64,14.51h-13.29ZM173.73,63.04c-.46-.56-.93-1.12-1.41-1.68-.48-.56-.85-1.02-1.11-1.37,1.17-1.37,2.09-3.08,2.75-5.12.76-2.34.95-4.72.57-7.14-.38-2.42-1.31-4.65-2.79-6.68-1.48-1.99-3.28-3.51-5.42-4.58-2.14-1.07-4.53-1.6-7.18-1.6h-18.25v56.66h23.37c3.16-.25,5.89-1.18,8.21-2.79,2.32-1.6,4.06-3.73,5.23-6.38,1.22-2.75,1.63-5.69,1.22-8.82-.41-3.13-1.58-5.94-3.51-8.44-.56-.71-1.12-1.4-1.68-2.06h0ZM165.06,47.5c.18.59.3,1.18.38,1.79.08.61.09,1.21.04,1.79-.05.59-.15,1.11-.3,1.57-.51,1.53-1.3,2.72-2.37,3.59-1.07.87-2.65,1.71-4.74,2.52-.97.41-1.81.79-2.52,1.15-.71.36-1.35.75-1.91,1.18-.56.43-1.12.88-1.68,1.34-.56.46-1.17.97-1.83,1.53v-20.31h9.01c1.42,0,2.54.25,3.36.76.81.51,1.42,1.04,1.83,1.6.3.41.55.9.73,1.49h0ZM163.65,82.28h-13.13c.05-1.37.18-2.85.38-4.43.2-1.58.61-2.87,1.22-3.89,1.37-2.09,2.91-3.67,4.62-4.73,1.7-1.07,3.47-2.04,5.31-2.9.31-.15.61-.29.92-.42.31-.13.59-.27.84-.42.61.71,1.27,1.5,1.99,2.37.71.87,1.5,1.83,2.37,2.9.87,1.12,1.41,2.4,1.64,3.86.23,1.45.06,2.79-.5,4.01-.97,2.14-2.85,3.36-5.65,3.67h0ZM222.52,63.04c-.46-.56-.93-1.12-1.41-1.68-.48-.56-.85-1.02-1.11-1.37,1.17-1.37,2.09-3.08,2.75-5.12.76-2.34.95-4.72.57-7.14-.38-2.42-1.31-4.65-2.79-6.68-1.48-1.99-3.28-3.51-5.42-4.58-2.14-1.07-4.53-1.6-7.18-1.6h-18.25v56.66h23.36c3.16-.25,5.89-1.18,8.21-2.79,2.32-1.6,4.06-3.73,5.23-6.38,1.22-2.75,1.63-5.69,1.22-8.82-.41-3.13-1.58-5.94-3.51-8.44-.56-.71-1.12-1.4-1.68-2.06h0ZM213.85,47.5c.18.59.31,1.18.38,1.79.08.61.09,1.21.04,1.79-.05.59-.15,1.11-.31,1.57-.51,1.53-1.3,2.72-2.37,3.59-1.07.87-2.65,1.71-4.74,2.52-.97.41-1.81.79-2.52,1.15-.71.36-1.35.75-1.91,1.18-.56.43-1.12.88-1.68,1.34-.56.46-1.17.97-1.83,1.53v-20.31h9.01c1.43,0,2.55.25,3.36.76.81.51,1.42,1.04,1.83,1.6.31.41.55.9.72,1.49h0ZM212.44,82.28h-13.13c.05-1.37.18-2.85.38-4.43.2-1.58.61-2.87,1.22-3.89,1.37-2.09,2.91-3.67,4.62-4.73,1.7-1.07,3.47-2.04,5.31-2.9.31-.15.61-.29.92-.42.31-.13.58-.27.84-.42.61.71,1.27,1.5,1.98,2.37.71.87,1.5,1.83,2.37,2.9.86,1.12,1.41,2.4,1.64,3.86.23,1.45.06,2.79-.5,4.01-.97,2.14-2.85,3.36-5.65,3.67h0ZM281.62,91.52l-17.79-25.12c1.22-.46,2.43-1,3.63-1.64,1.19-.64,2.33-1.41,3.4-2.33,1.07-.92,2.02-2.01,2.86-3.28.84-1.27,1.46-2.77,1.87-4.51.56-2.44.61-4.8.15-7.06-.46-2.26-1.35-4.29-2.67-6.07-.51-.66-1.16-1.36-1.95-2.1-.79-.74-1.73-1.42-2.83-2.06-1.1-.64-2.39-1.18-3.89-1.64-1.5-.46-3.2-.76-5.08-.92h-20.85v56.73h9.24v-6.57c0-.61.01-1.39.04-2.33.02-.94.1-1.91.23-2.9.13-.99.32-1.95.57-2.86.25-.92.61-1.71,1.07-2.37.76-1.02,1.59-1.88,2.48-2.6.89-.71,1.84-1.35,2.86-1.91l15.27,21.53h11.38ZM247.71,63.88v-19.85h11.15c3.26.25,5.5,1.22,6.72,2.9.66.87,1,1.79,1.03,2.79.02.99-.07,1.87-.27,2.63-.2.82-.5,1.5-.88,2.06-.38.56-.89,1.07-1.53,1.53-.64.46-1.45.89-2.44,1.3-.99.41-2.2.87-3.63,1.38-1.58.56-3.23,1.21-4.96,1.95-1.73.74-3.46,1.72-5.19,2.94v.38h0ZM299.71,91.52v-56.66h-9.24v56.66h9.24ZM350.41,90.41c3.51-1.55,6.64-3.83,9.39-6.83l-6.8-6.18c-1.83,1.98-3.93,3.5-6.3,4.54-2.37,1.04-4.88,1.57-7.52,1.57s-5.22-.53-7.56-1.6c-2.34-1.07-4.38-2.52-6.11-4.35-1.73-1.83-3.11-3.98-4.12-6.45-1.02-2.47-1.53-5.1-1.53-7.9s.51-5.45,1.53-7.94c1.02-2.49,2.39-4.66,4.12-6.49,1.73-1.83,3.77-3.28,6.11-4.35,2.34-1.07,4.86-1.6,7.56-1.6s5.17.53,7.56,1.6c2.39,1.07,4.51,2.6,6.34,4.58l6.8-6.19c-2.75-3-5.89-5.29-9.43-6.87-3.54-1.58-7.29-2.37-11.26-2.37s-7.61.78-11.07,2.33c-3.46,1.55-6.49,3.66-9.09,6.34-2.6,2.67-4.65,5.82-6.15,9.43-1.5,3.62-2.25,7.46-2.25,11.53s.75,7.9,2.25,11.49c1.5,3.59,3.55,6.72,6.15,9.39,2.6,2.67,5.62,4.79,9.09,6.34,3.46,1.55,7.15,2.33,11.07,2.33s7.71-.78,11.22-2.33h0ZM406.15,91.52h9.77l-26.5-59.18-26.49,59.18h9.77l6.34-14.05h20.62l6.49,14.05h0ZM382.79,69.3l6.64-14.51,6.64,14.51h-13.29Z"/>
</svg>