<?xml version="1.0" encoding="UTF-8"?>
<svg id="Livello_2" data-name="Livello 2" xmlns="http://www.w3.org/2000/svg" viewBox="0 0 323.11 187.87">
  <defs>
    <style>
      .cls-1 {
        fill: #1e1f1d;
      }
    </style>
  </defs>
  <g id="sfondo">
    <g id="scuola_design" data-name="scuola design">
      <g>
        <path class="cls-1" d="M.14,143.13c.12-.15.25-.32.37-.47.25-.32.52-.52.87-.22.17.15,1.98,1.88,4.18,1.88,2,0,3.32-1.27,3.32-2.72,0-1.71-1.49-2.72-4.33-3.91-2.72-1.19-4.36-2.3-4.36-5.12,0-1.68,1.34-4.41,5.27-4.41,2.43,0,4.23,1.27,4.23,1.27.15.07.45.37.15.84-.1.15-.2.32-.3.47-.22.35-.47.44-.87.22-.17-.1-1.73-1.14-3.24-1.14-2.62,0-3.42,1.68-3.42,2.72,0,1.66,1.26,2.62,3.34,3.49,3.34,1.36,5.5,2.62,5.5,5.5,0,2.57-2.45,4.46-5.35,4.46s-4.9-1.71-5.22-2.01c-.2-.17-.45-.37-.15-.84Z"/>
        <path class="cls-1" d="M22.62,128.16c2.5,0,4.31.87,5.99,2.3.2.2.22.5.03.7l-.67.67c-.2.25-.4.22-.64-.02-1.29-1.12-3.04-1.86-4.73-1.86-3.91,0-6.91,3.29-6.91,7.13s2.99,7.1,6.91,7.1c2.15,0,3.42-.87,4.73-1.85.25-.2.44-.17.59-.07l.74.67c.2.15.15.5-.02.67-1.68,1.64-3.81,2.41-6.02,2.41-4.95,0-8.94-3.94-8.94-8.89s3.99-8.94,8.94-8.94Z"/>
        <path class="cls-1" d="M32.73,128.87c0-.24.22-.47.47-.47h.94c.27,0,.47.23.47.47v10.32c0,2.82,1.76,5.02,4.66,5.02s4.7-2.15,4.7-4.98v-10.37c0-.24.2-.47.47-.47h.94c.25,0,.47.23.47.47v10.47c0,3.76-2.67,6.64-6.59,6.64s-6.54-2.87-6.54-6.64v-10.47Z"/>
        <path class="cls-1" d="M58.81,128.16c4.95,0,8.91,3.99,8.91,8.94s-3.96,8.89-8.91,8.89-8.89-3.94-8.89-8.89,3.94-8.94,8.89-8.94ZM58.81,144.25c3.94,0,7.18-3.22,7.18-7.16s-3.24-7.2-7.18-7.2-7.16,3.27-7.16,7.2,3.22,7.16,7.16,7.16Z"/>
        <path class="cls-1" d="M72.01,128.87c0-.24.2-.47.47-.47h.97c.25,0,.47.23.47.47v15.2h7.13c.27,0,.47.22.47.47v.72c0,.24-.2.47-.47.47h-8.57c-.27,0-.47-.22-.47-.47v-16.39Z"/>
        <path class="cls-1" d="M83.06,145.09l7.53-16.66c.07-.15.2-.27.42-.27h.25c.22,0,.35.13.42.27l7.48,16.66c.15.33-.05.64-.42.64h-.99c-.22,0-.37-.15-.42-.27l-1.83-4.08h-8.79l-1.81,4.08c-.05.12-.2.27-.42.27h-.99c-.37,0-.57-.32-.42-.64ZM94.82,139.84c-1.21-2.7-2.4-5.42-3.61-8.12h-.2l-3.61,8.12h7.43Z"/>
        <path class="cls-1" d="M108.35,128.87c0-.24.2-.47.45-.47h5.55c4.78,0,8.69,3.89,8.69,8.64s-3.91,8.69-8.69,8.69h-5.55c-.25,0-.45-.22-.45-.47v-16.39ZM113.94,144.03c4.06,0,7.01-2.9,7.01-6.98s-2.95-6.96-7.01-6.96h-3.71v13.94h3.71Z"/>
        <path class="cls-1" d="M127.34,128.87c0-.24.2-.47.47-.47h9.75c.27,0,.47.23.47.47v.72c0,.25-.2.47-.47.47h-8.32v6.04h7.11c.25,0,.47.22.47.47v.72c0,.27-.22.47-.47.47h-7.11v6.31h8.32c.27,0,.47.22.47.47v.72c0,.24-.2.47-.47.47h-9.75c-.27,0-.47-.22-.47-.47v-16.39Z"/>
        <path class="cls-1" d="M142.5,128.87c0-.24.2-.47.47-.47h.97c.25,0,.47.23.47.47v15.2h7.13c.27,0,.47.22.47.47v.72c0,.24-.2.47-.47.47h-8.57c-.27,0-.47-.22-.47-.47v-16.39Z"/>
        <path class="cls-1" d="M161.15,128.87c0-.24.2-.47.45-.47h5.55c4.78,0,8.69,3.89,8.69,8.64s-3.91,8.69-8.69,8.69h-5.55c-.25,0-.45-.22-.45-.47v-16.39ZM166.75,144.03c4.06,0,7.01-2.9,7.01-6.98s-2.94-6.96-7.01-6.96h-3.71v13.94h3.71Z"/>
        <path class="cls-1" d="M180.15,128.87c0-.24.2-.47.47-.47h9.75c.27,0,.47.23.47.47v.72c0,.25-.2.47-.47.47h-8.32v6.04h7.11c.25,0,.47.22.47.47v.72c0,.27-.22.47-.47.47h-7.11v6.31h8.32c.27,0,.47.22.47.47v.72c0,.24-.2.47-.47.47h-9.75c-.27,0-.47-.22-.47-.47v-16.39Z"/>
        <path class="cls-1" d="M194.19,143.13c.12-.15.25-.32.37-.47.25-.32.52-.52.87-.22.17.15,1.98,1.88,4.18,1.88,2.01,0,3.32-1.27,3.32-2.72,0-1.71-1.49-2.72-4.33-3.91-2.72-1.19-4.36-2.3-4.36-5.12,0-1.68,1.34-4.41,5.27-4.41,2.42,0,4.23,1.27,4.23,1.27.15.07.45.37.15.84-.1.15-.2.32-.3.47-.22.35-.47.44-.87.22-.17-.1-1.73-1.14-3.24-1.14-2.62,0-3.41,1.68-3.41,2.72,0,1.66,1.26,2.62,3.34,3.49,3.34,1.36,5.5,2.62,5.5,5.5,0,2.57-2.45,4.46-5.35,4.46s-4.9-1.71-5.22-2.01c-.2-.17-.45-.37-.15-.84Z"/>
        <path class="cls-1" d="M209,128.87c0-.24.22-.47.47-.47h.99c.25,0,.47.23.47.47v16.39c0,.24-.22.47-.47.47h-.99c-.25,0-.47-.22-.47-.47v-16.39Z"/>
        <path class="cls-1" d="M224.16,128.16c2.5,0,4.31.87,5.99,2.3.2.2.22.5.03.7-.23.22-.5.47-.69.69-.22.25-.37.22-.64-.03-1.27-1.11-3.05-1.93-4.7-1.93-3.91,0-6.88,3.27-6.88,7.11s2.97,7.15,6.88,7.15c2.72,0,4.46-1.04,4.46-1.04v-3.46h-2.85c-.27,0-.47-.2-.47-.45v-.91c0-.27.2-.47.47-.47h4.28c.25,0,.45.22.45.47v5.67c0,.12-.1.32-.2.4,0,0-2.52,1.64-6.12,1.64-4.95,0-8.94-3.94-8.94-8.89s3.98-8.94,8.94-8.94Z"/>
        <path class="cls-1" d="M235.11,128.6c0-.25.22-.45.47-.45h.62l11.16,13.92h.05v-13.2c0-.24.2-.47.47-.47h.87c.25,0,.47.23.47.47v16.66c0,.25-.22.45-.47.45h-.45l-11.36-14.19h-.03v13.47c0,.24-.2.47-.47.47h-.87c-.25,0-.47-.22-.47-.47v-16.66Z"/>
      </g>
      <path class="cls-1" d="M323.1,116.29h0c0,.3-.24.54-.54.54H1.04c-.3,0-.54-.24-.54-.54H.5c0-.3.24-.54.54-.54h321.52c.3,0,.54.24.54.54Z"/>
      <g>
        <g>
          <g>
            <path class="cls-1" d="M115.58,24c0-.33.26-.62.62-.62h7.72c4.04,0,7.36,3.29,7.36,7.26s-3.32,7.39-7.33,7.39h-4.11v7.72c0,.33-.3.62-.63.62h-3.02c-.36,0-.62-.3-.62-.62v-21.75ZM123.66,34.02c1.84,0,3.38-1.48,3.38-3.42,0-1.81-1.54-3.19-3.38-3.19h-3.81v6.6h3.81Z"/>
            <path class="cls-1" d="M144.86,23.05c6.57,0,11.83,5.29,11.83,11.86s-5.26,11.79-11.83,11.79-11.8-5.22-11.8-11.79,5.22-11.86,11.8-11.86ZM144.86,42.44c4.14,0,7.56-3.38,7.56-7.52s-3.42-7.59-7.56-7.59-7.53,3.45-7.53,7.59,3.38,7.52,7.53,7.52Z"/>
            <path class="cls-1" d="M160.66,24c0-.33.26-.62.63-.62h3.02c.33,0,.62.3.62.62v18.43h8.38c.36,0,.62.3.62.62v2.69c0,.33-.26.62-.62.62h-12.03c-.36,0-.63-.3-.63-.62v-21.75Z"/>
            <path class="cls-1" d="M176.92,24c0-.33.29-.62.62-.62h3.06c.33,0,.63.3.63.62v21.75c0,.33-.3.62-.63.62h-3.06c-.33,0-.62-.3-.62-.62v-21.75Z"/>
            <path class="cls-1" d="M189.97,27.32h-5.03c-.36,0-.62-.3-.62-.62v-2.69c0-.33.26-.62.62-.62h14.36c.36,0,.62.3.62.62v2.69c0,.33-.26.62-.62.62h-5.03v18.43c0,.33-.29.62-.62.62h-3.06c-.33,0-.63-.3-.63-.62v-18.43Z"/>
            <path class="cls-1" d="M203.01,24c0-.33.26-.62.62-.62h13.37c.36,0,.63.3.63.62v2.69c0,.33-.26.62-.63.62h-9.72v5.39h8.11c.33,0,.63.3.63.62v2.73c0,.36-.29.62-.63.62h-8.11v5.75h9.72c.36,0,.63.3.63.62v2.69c0,.33-.26.62-.63.62h-13.37c-.36,0-.62-.3-.62-.62v-21.75Z"/>
            <path class="cls-1" d="M232.09,23.05c3.32,0,5.72,1.05,7.95,3.06.3.26.3.66.03.92l-2,2.07c-.23.26-.56.26-.82,0-1.38-1.22-3.22-1.94-5.06-1.94-4.21,0-7.32,3.52-7.32,7.66s3.15,7.59,7.36,7.59c1.97,0,3.65-.76,5.03-1.87.26-.23.63-.2.82,0l2.04,2.1c.26.23.2.66-.03.89-2.24,2.17-5.06,3.19-7.98,3.19-6.57,0-11.86-5.22-11.86-11.79s5.29-11.86,11.86-11.86Z"/>
            <path class="cls-1" d="M244.05,23.64c0-.33.3-.59.63-.59h.82l13.67,14.52h.03v-13.57c0-.33.26-.62.63-.62h3.02c.33,0,.62.3.62.62v22.11c0,.33-.29.59-.62.59h-.79l-13.73-15.08h-.03v14.13c0,.33-.26.62-.63.62h-2.99c-.33,0-.63-.3-.63-.62v-22.11Z"/>
            <path class="cls-1" d="M269.12,24c0-.33.29-.62.62-.62h3.06c.33,0,.63.3.63.62v21.75c0,.33-.3.62-.63.62h-3.06c-.33,0-.62-.3-.62-.62v-21.75Z"/>
            <path class="cls-1" d="M289.26,23.05c3.32,0,5.72,1.05,7.95,3.06.29.26.29.66.03.92l-2,2.07c-.23.26-.56.26-.82,0-1.38-1.22-3.22-1.94-5.06-1.94-4.21,0-7.33,3.52-7.33,7.66s3.16,7.59,7.36,7.59c1.97,0,3.65-.76,5.03-1.87.26-.23.62-.2.82,0l2.04,2.1c.26.23.2.66-.03.89-2.23,2.17-5.06,3.19-7.98,3.19-6.57,0-11.86-5.22-11.86-11.79s5.29-11.86,11.86-11.86Z"/>
            <path class="cls-1" d="M311.28,23.05c6.57,0,11.83,5.29,11.83,11.86s-5.26,11.79-11.83,11.79-11.79-5.22-11.79-11.79,5.22-11.86,11.79-11.86ZM311.28,42.44c4.14,0,7.56-3.38,7.56-7.52s-3.42-7.59-7.56-7.59-7.52,3.45-7.52,7.59,3.38,7.52,7.52,7.52Z"/>
          </g>
          <g>
            <path class="cls-1" d="M118.85,58.04c.07-.26.33-.46.59-.46h.52c.23,0,.49.16.56.36l6.5,18.1h.16l6.41-18.1c.07-.2.33-.36.56-.36h.52c.26,0,.53.2.59.46l4.24,22.08c.1.46-.1.79-.59.79h-1.32c-.26,0-.52-.23-.59-.46l-2.93-16.92h-.13l-6.05,17.35c-.07.2-.36.36-.56.36h-.59c-.2,0-.49-.16-.56-.36l-6.11-17.35h-.13l-2.86,16.92c-.03.23-.33.46-.59.46h-1.31c-.49,0-.69-.33-.59-.79l4.24-22.08Z"/>
            <path class="cls-1" d="M145.56,58.53c0-.33.3-.62.63-.62h1.31c.33,0,.63.3.63.62v21.75c0,.33-.3.62-.63.62h-1.31c-.33,0-.63-.3-.63-.62v-21.75Z"/>
            <path class="cls-1" d="M155.81,58.53c0-.33.26-.62.63-.62h1.28c.33,0,.62.3.62.62v20.17h9.46c.36,0,.62.3.62.63v.95c0,.33-.26.62-.62.62h-11.37c-.36,0-.63-.3-.63-.62v-21.75Z"/>
            <path class="cls-1" d="M170.8,80.05l9.99-22.11c.1-.2.26-.36.56-.36h.33c.3,0,.46.16.56.36l9.92,22.11c.2.43-.07.85-.56.85h-1.31c-.3,0-.49-.2-.56-.36l-2.43-5.42h-11.66l-2.4,5.42c-.07.16-.26.36-.56.36h-1.31c-.49,0-.76-.43-.56-.85ZM186.41,73.09c-1.61-3.58-3.19-7.2-4.8-10.78h-.26l-4.8,10.78h9.86Z"/>
            <path class="cls-1" d="M196.72,58.17c0-.33.3-.59.63-.59h.82l14.82,18.47h.07v-17.51c0-.33.26-.62.63-.62h1.15c.33,0,.63.3.63.62v22.11c0,.33-.3.59-.63.59h-.59l-15.08-18.83h-.03v17.87c0,.33-.26.62-.63.62h-1.15c-.33,0-.63-.3-.63-.62v-22.11Z"/>
            <path class="cls-1" d="M233.26,57.58c6.57,0,11.83,5.29,11.83,11.86s-5.26,11.79-11.83,11.79-11.8-5.22-11.8-11.79,5.22-11.86,11.8-11.86ZM233.26,78.94c5.22,0,9.53-4.27,9.53-9.5s-4.3-9.56-9.53-9.56-9.5,4.34-9.5,9.56,4.27,9.5,9.5,9.5Z"/>
            <path class="cls-1" d="M260.93,62.64l-2.37,1.84c-.26.2-.53.23-.76-.03l-.63-.69c-.23-.26-.1-.56.07-.72l4.6-4.47h.89c.33,0,.59.3.59.62v21.09c0,.33-.26.62-.59.62h-1.18c-.36,0-.62-.3-.62-.62v-17.64Z"/>
            <path class="cls-1" d="M273.74,69.41v-.1c-1.48-.69-3.38-2.53-3.38-5.06,0-3.61,2.86-6.01,6.77-6.01s6.83,2.4,6.83,6.01c0,2.53-1.91,4.37-3.38,5.06v.1c1.55.66,3.98,2.66,3.98,5.49,0,3.58-2.79,6.34-7.46,6.34s-7.32-2.76-7.32-6.34c0-2.83,2.43-4.83,3.97-5.49ZM277.09,79.26c2.83,0,5-1.54,5-4.14,0-2.04-1.81-4.11-4.93-4.44-3.16.33-4.93,2.4-4.93,4.44,0,2.53,2.27,4.14,4.86,4.14ZM281.53,64.35c0-2.46-1.91-4.14-4.5-4.14-2.37,0-4.24,1.68-4.24,4.14,0,2.04,1.31,3.61,4.37,3.91,3.02-.3,4.37-1.87,4.37-3.91Z"/>
            <path class="cls-1" d="M300.09,57.81c.33-.13.59.03.72.33l.36.79c.16.39.03.76-.59.95-1.48.49-7.29,3.75-8.44,8.18,0,0,2.17-1.48,4.99-1.48,3.71,0,7.06,2.76,7.06,7.13,0,4.14-3.32,7.52-7.26,7.52-5.32,0-7.66-4.14-7.66-9.36,0-8.74,7.49-12.75,10.81-14.06ZM301.87,73.84c0-2.86-2.2-5.13-4.96-5.13-3.06,0-5.19,2.14-5.19,2.14-.56,3.29.72,8.21,5.22,8.21,2.76,0,4.93-2.4,4.93-5.22Z"/>
            <path class="cls-1" d="M307.94,77.52l.89-.76c.36-.26.63-.2.89.17.29.36,2.07,2.27,4.9,2.27,2.5,0,4.73-1.51,4.73-4.11,0-2.23-1.74-4.3-5.81-4.3h-1.84c-.36,0-.62-.2-.62-.72v-.79c0-.53.16-.72.69-.72h1.81c3.52,0,5.22-1.81,5.22-3.98,0-2.6-1.97-4.17-4.3-4.17s-3.58,1.31-4.3,2.14c-.2.23-.52.36-.85.07l-.79-.62c-.26-.23-.23-.62,0-.85,0,0,2.37-2.89,5.95-2.89,3.98,0,6.77,2.33,6.77,6.01,0,2.53-1.91,4.5-3.38,5.19v.1c1.54.66,3.94,2.5,3.94,5.32,0,3.58-2.76,6.37-7.29,6.37-4.04,0-5.88-2.1-6.61-2.92-.2-.23-.23-.59.03-.79Z"/>
          </g>
        </g>
        <g>
          <g>
            <path class="cls-1" d="M90.36,74.35c-.72-.1-1.72-2.56-1.68-4.88,0-.63.06-1.24.2-1.8.55-2.26,2.13-7.71,2.13-14.22,0-1.4-.07-2.84-.25-4.31-.5-4.32-1.08-7.48-2-9.78,0,0,0-.01,0-.02.45-.62.86-1.39.88-2.12,0-1.43-1.19-3.6-3.6-3.61-.22,0-.44.02-.67.06l-1.49.46c-1.25-.92-2.42-1.01-3.24-1.01-.19,0-.36,0-.5,0-.23,0-.4-.02-.48-.05-.02,0-.52-.22-1.18-.22-.16,0-.33.01-.51.04,0,0-.02,0-.03,0-.68-.12-1.36-.18-2.04-.18-.67,0-1.34.05-1.99.14-.1-.17-.52-.8-1.44-1.49,0-.02,0-.11,0-.31-.02-.77-.76-1.99-.76-2.02-1.89-3.13-4.78-4.31-5.15-4.45.09-.38.17-1.1.18-1.45,0-.05,0-.09-.01-.15h-.1s.1,0,.1,0c-.02-.08.17-.45.24-.81,0-.04,0-.07,0-.1-.02-.55-.61-1.6-.92-2.3-.38-.75-1.29-.87-1.59-.89-.83-.79-2.04-.87-2.64-.88-.23,0-.37.01-.38.02-.05.02-1.56.35-1.93.62-.17.14-.57.54-.95.95-.46-.26-.93-.35-1.35-.35-1.05,0-1.85.56-1.95.62,0-.02-.81.08-1.27.14-.57.07-1.04.33-2.22,1.74-.57.68-.74,1.35-.74,1.88,0,.51.15.88.22,1.02-.51.16-.95.51-1.2.73-.42.43-.45,1.39-.45,1.74-.06,0-.12.01-.18.02-.93.08-1.79.59-1.8.6,0,.06-.66.11-.82.65,0,.06.02.11.03.13.09.2.42.59,1.05.59h.03c.49.04.71-.12.77-.24.01-.01.02-.02.02-.03.21.26,1.51,1.47,1.53,1.49.05.04.53.35,1.18.36.3,0,.64-.07.97-.29.53-.4,1.19-.28,1.45-.88.23-.04.79-.16,1.12-.34.14-.07.31-.19.46-.37,0,0,.01-.01.02-.02h0s.65-.7.76-.64v.02c.48,1.19.63,2.2.63,3.04,0,1.66-.61,2.54-.6,2.55-.08.12-.45.98-.7,1.55-.15-.28-.35-.43-.48-.51-.08-.27-.26-.45-.39-.55v-.02c-.04-.8-.88-.86-.73-.9-.18-.51-.85-.75-.87-.78-.29-.49-1.11-.56-1.12-.58-.01,0-.06,0-.09,0-.39.01-1.15.31-1.38.4-.07-.01-.18-.03-.31-.03-.18,0-.42.03-.68.13-.06,0-.14-.02-.25-.02-.41,0-1.19.15-1.62,1.05-.02-.01-.57.37-.85.91-.01.04-.87,2.57-1,3.51-.14.98-.06.72-.14.95-.04.23-1.3,1.34-1.33,2.27,0,.15.05.31.13.45-.76.55-3.04,2.56-3.04,6.81,0,.42.02.86.07,1.33-.98-.39-2-.67-2.25-.74-.17-.21-.41-.28-.53-.35-.19-.07-.97-.43-1.07-.57-.3-.31-.84-.46-1.19-.49h0c-.24-.21-.84-1.41-1.14-2.39-.34-1.09-.59-2.44-.59-3.84v-.19c0-1.57-1.02-3.51-1.32-4.22-.02-.05-.04-.09-.05-.13l1.42-.71c-.02.13-.03.28-.03.44,0,.23.03.48.17.7-.02-.02.73,2.09,3.06,2.28.22.02,2.2.09,2.2.09.03,0,.06,0,.08-.01.46.26,1.05.58,1.73.59.37,0,.76-.1,1.14-.36,0,0,.6-.31.6-1.18,0-.09,0-.19-.02-.29.17-.13.46-.39.48-.81,0-.13-.04-.28-.12-.42l-.17-.27.77-.13s.63-.11.72-.66c0-.04,0-.08-.02-.13l-.18-.16s-1.02-.19-1.2-.2c-.1,0-1.26-.18-1.26-.18l-.47.05-.51-.14s0,0,0,0c-.19-.57-1.19-1.29-1.51-1.53.16-.08.29-.17.38-.34.08-.3.08-.84.08-1.12v-.14s0-.06-.02-.09c.41-.61.47-1.32.48-1.74l1.01.55s.78.44,1.26.46c.04,0,.06,0,.06,0,.45-.04.58-.46.56-.59,0-.01.17-.18.16-.19.2-.08.33-.24.4-.34.14,0,.39-.03.58-.14.09-.06.19-.16.27-.24.09.06.2.12.36.13.26,0,.47-.24.52-.57.14-.72.83-2.34.96-2.69.07-.19.14-.3.18-.35.17.06.34.1.51.1.04,0,.09,0,.14-.01.75-.06.89-.62.88-.75,0-.05.15-.54.15-1.07.01-.55-.18-1.26-.9-1.53-.17-.33-.77-1.39-1.91-1.42-.07,0-.15,0-.22.02-.33-.22-1.57-1.03-2.97-1.03-.17,0-.35.01-.53.04.07,0-.69-.14-1.54-.14-.91,0-2.06.13-2.27,1.05-.52.1-2.1.34-2.31,1.23-.1.02-.21.05-.28.08-.25.15-.72.53-.76,1.11-.87-.36-1.69-.43-2.09-.44h-.1c-.1,0-.15,0-.16,0,.04,0-1.19-.13-2.48-.13-.68,0-1.38.04-1.92.16-1.51.34-3.41.7-4.23,1.19-.81.53-1.54,1.97-2.1,2.27-.62.37-1.67.77-1.98,2.01-.04.16-.08.34-.11.53-.26.07-1.92.64-3.5,3.49.02-.03-1.05,1.24-1.39,1.55-.22.2-.25.49-.26.79.02.58.17,1.23.49,1.55.09.08.32.36.62.67-.13.18-.29.49-.29.95s.16,1.08.63,1.85c-.49.34-1.57,1.44-1.95,4.59,0,.02-.21,3.94-.69,5.43-.92,1.97-3.01,4.1-3.01,4.1-.02.02-.28.3-.29.74,0,.27.12.58.42.85l1.54,1.07s.09.04.14.04c0,.09.04.15.04.17.21.39.71.42,1.31.64.54.15,1.03.27,1.24.3.1.08.23.13.38.13.92.05,1.33,0,1.67.39.19.21.4.43.66.56.05.02.31.08.7.11-.63.39-1.27.99-1.38,1.71-.04.38-.2,1.07-.2,1.76,0,.97.41,2.06,1.94,2.06h.04l.13-.03s.85-.46,1.34-.88c.06.41.23,1.42.7,2.01.02.03.05.06.07.08-.02.13-.1.54-.1,1.09,0,.87.19,2.12,1.11,3.08-.13.15-.38.46-.41.89-.03.48-.04,1.33-.39,2.11-.37.81-1.09,2.52-1.11,3.16,0,.02,0,.07.01.13.05.28.32.79.59,1.31.13.25.27.5.36.68.05.09.09.17.12.22.02.03.02.05.03.06h0c.12.3.27.41.49.55.12.03.42.07.61.08h.04l.02-.11v.1c.06,0,.24.02.39.03.05,0,.09,0,.13-.01.13-.07.48-.02.6-.45,0-.09,0-.17,0-.21h0c.23-.18.51-.49.58-.87.01-.09-.06-.25-.2-.28-.18-.06-.51-.17-.68-.23-.26-.08-.35-.08-.36-.15-.09-.18-.13-.27-.13-.32,0-.03,0-.05.02-.07.04-.15.28-.35.43-.45.11-.11,2.01-1.37,2.29-1.43.02,0,.02,0,.02,0h0c.39.08,1.06.26,1.26.47.35.33,3.01,2.57,3.68,2.89.56.25,2.91,1.7,4.2,1.83,1.14.12,3.22.57,4.08.81.46.13,1.18.29,1.92.29.71,0,1.46-.15,1.95-.71.79-.92,1.23-1,1.31-1.75.03-.32.14-1.02.14-1.73,0-.55-.06-1.12-.32-1.55-.51-.85-.99-1.45-.99-1.46-.02-.02-.04-.04-.06-.05,0-.01,0-.02,0-.03.04-.2.05-.38.05-.55,0-.93-.5-1.57-.54-1.72-.04-.12-.29-.88-.58-1.78-.16-.51-.34-1.07-.5-1.59.17-.15.68-.6,1.23-1.16.33.32,3.69,3.93,5.15,4.26.04.02.07.03.12.03.01,0,1.57-.05,3.05-.54,1.14-.39,1.92-1.09,2.7-1.07.23,0,.48.05.75.2.01.03.03.06.05.09.08.15.2.3.35.43l.18,2.92s0,.03,0,.05c0,.13,0,.68.46.84l-.41,2.92-7.2,1.69s-.1.02-.14.06c-.05.04-.08.1-.08.17v1.84l.15.22,7.1,2.39h.14s12.99-3.81,12.99-3.81c.1-.03.17-.12.17-.22v-1.84h0c0-.12-.08-.2-.18-.23l-7.46-1.53-1.16.27-.81-5.38s.02-.02.03-.03c.32-.43.67-1.09.67-1.95,0-.24-.03-.5-.09-.76-.25-1.05-.34-1.64-.33-2.03,0-.31.05-.49.13-.73.04-.21,2.47-3.15,4.09-6.11,0,0,0,0,0,0-.01,1.04-.03,2.71-.03,3.48,0,.21,0,.34,0,.42.01.12.02.39.02.7,0,.55-.07,1.26-.28,1.53-.41.6-.84,1.54-.85,2.11,0,.03,0,.06,0,.12.02.15.03.4.03.63,0,.28-.03.57-.05.63-.09.23-.52,1.57-.52,1.58,0,.04-.03.13-.03.26-.02.35.14,1.18,1.07,1.3.46.06.98.09,1.48.09.67,0,1.28-.06,1.67-.25.53-.28.97-.73.99-1.24,0-.08-.02-.17-.05-.24-.21-.47-.64-.71-.86-1.02-.22-.27-.48-.81-.47-1.12,0-.05,0-.09,0-.12,0-.01.16-.51.18-.84,0-.01,0-.02,0-.02h0s0,0,0,0v-.03c0-.08,0-.24,0-.44,0-.37.05-.88.15-.99.25-.36,2.02-3.05,2.02-3.06.02-.04.89-1.34,1.18-5.04v-.02c.96-.08,1.64-.1,1.98-.1l-.05.21-.87,1.85s-1.46,2.82-1.73,3.51c-.16.42-.78,1.62-.78,3.32,0,.84.15,1.8.56,2.86l.48,1.76c.79,2.57,1.22,2.99,2.25,3.14.02,0,.04,0,.06,0-.09.35-.19.67-.25.79-.1.21-.31.61-.43,1.05-.05.19-.09.41-.09.62,0,.05,0,.12.01.19.07.62.06,1.36.79,1.5.09,0,.19.01.29.01.39,0,.81-.08.97-.11.18.06.7.24,1.04.26.16.01.35.03.54.03.21,0,.42-.02.62-.14.22-.15.72-.32,1-.52.22-.19.86-.67.93-1.26,0-.02,0-.04,0-.05h0s0,0,0,0h0c-.05-.63-1.09-2-1.09-2.04.02.04,0,0-.01-.09.95.19,3.79.29,6.72.44.95.05,1.05.03,1.91.06.14,0,.3,0,.47,0,2.22,0,6.29-.45,6.3-.45.11-.01.2-.1.2-.21,0-.11-.06-.21-.18-.24ZM79.66,33.6s.03-.03.04-.04c.13.02.28.02.44.03.16,0,.32,0,.5,0,.81,0,1.87.08,3.06.99l.21.04,1.57-.49c.18-.02.38-.04.57-.04,2.09,0,3.14,1.94,3.14,3.15.03,1.25-1.88,3.08-1.88,3.09l-1.99,1.62c-.5.88-2.36,1.91-3.12,2.39-4.5-1.23-5.75-3.1-5.76-4.92-.02-2.55,2.59-5.21,3.24-5.8ZM78.48,33.31c.29,0,.54.05.72.1-.84.82-3.21,3.32-3.23,5.99,0,2.02,1.43,4.01,5.68,5.25-.5.26-1.02.37-1.54.37-.28,0-.56-.04-.84-.09-2.97-.6-5.83-4.32-5.87-4.36-.03-.44-.11-.8-.24-1.11.05-.04.08-.1.08-.16-.01-.05,1.49-4.64,4.16-5.7.37-.21.73-.28,1.07-.28ZM72.96,41.21c0,.14,0,.21,0,.22,0,.01-.6,2.01-1.98,2.5-.2.07-.64.36-.74.4-.02.03-.03.05-.05.08.02-.11.03-.18.03-.19.02-.12-.06-.24-.19-.26-.12-.02-.24.06-.26.19h0s-.2,1.22-.5,2.13c-.11.26-.18.43-.18.43-.13.24-.28.47-.42.68-.85,1.2-1.56,1.4-1.98,1.41-.2,0-.34-.04-.41-.07l.26-.16c.11-.07.14-.21.08-.32-.07-.11-.21-.14-.32-.08l-.46.28s-.05.04-.06.06c-.24-.1-.47-.19-.47-.19l-.24.05-.49.46s0-.01-.01-.01h-.02c-.33.07-.74-.93-.86-1.29-.22-.42-.57-.57-.8-.59-.07,0-.51-.08-.56-.09,0-.03-1.13-.91-1.23-1.04-.52-.62-.63-1.49-.64-1.49-.07-.42-.09-.81-.09-1.16,0-.11,0-.22,0-.32.09-1.98,1.02-2.83,1.01-2.84l.81-.69s.6-.55.71-.63c.08-.06.84-.36,1.16-.55.08-.06.4-.11.69-.1.16,0,.3,0,.42,0h.09s0,0,0,0c.22-.01,1.4.25,1.44.28.1.04,1.07.6,1.07.61,0,0,.08.15.07.33,0,.09-.01.18-.05.27-.11.32-.84,1.68-1.16,2-.14.14-.21.31-.21.47.01.39.33.63.36.68,0,0,.02.04.01.12,0,.06-.01.13-.03.16,0,.07-.29.27-.41.59-.05.14-.06.31-.06.52,0,.27.03.57.14.83.08.19.28.26.42.25.37-.01.88-.3.98-.33.04,0,.07,0,.1,0,.31-.05.85-.14,1.09-.57h0c.1-.05.41-.02.68-.19.26-.2.59-.78.68-.87.15-.18.33-.49.39-.54.14-.15.21-.32.22-.52,0-.07,0-.16-.06-.24.03-.03.08-.07.12-.11.15-.15.18-.32.18-.48s-.03-.3-.07-.43c-.1-.26-.53-.88-.54-.96-.01-.05.14-.3.2-.5l-.07-.07h.08c-.09-.38-.38-.48-.56-.57.03-.07.08-.19.12-.32,0-.05.01-.06.02-.11,0,0,0-.02,0-.03.06,0,.12,0,.19,0,.84.03,2.26.23,2.37,2.46h0c0,.2.01.37.01.49ZM67.7,48.97c-.43.66-.88,1.34-1.12,1.61-.24.28-.75.53-1.16.69-.36.14-.66.21-.66.21l-4.46.53-.29.03c-.14-.47-.5-1.73-.67-2.52-.01-.07-.02-.14-.02-.22-.04-.83.99-2.18,1.13-2.24.24-.19.4-.56.49-.79.4.36,1.19.96,1.2.97.11.04.57.14.72.15.01,0,.32.11.41.33.15.23.37,1.47,1.28,1.55.07,0,.15-.01.22-.03l.51-.44c.22.09.67.27.76.31.05.03.31.15.68.15.28,0,.62-.07,1-.28ZM59.83,41.35s0-.02,0-.02c-.02-.1-.04-.19-.03-.25,0-.07,0-.07,0-.07.42-.31.35-.85.6-1.21.1-.17.23-.29.45-.34,1.06-.29.77-1.21,1.18-1.19.61-.19,1.22-.62,1.34-.65,0,0,.01,0,.02,0,.02,0,.03,0,.03,0,.36-.01,1.13-.36,1.32-.39.1-.02.37-.06.66-.09.18-.02.36-.03.49-.03.05,0,.09,0,.12,0,.03,0,.05.01.06,0,.15.1.56.29.98.45.31.12.56.22.76.23.21,0,1.28.44,1.58.47.09,0,.28.02.43.05.05.01.1.03.13.04-.04.11-.12.23-.14.43-.02.09.07.26.19.3.06.03.18.09.28.16.05.04.09.07.11.09h0s-.2.25-.21.54c0,.02,0,.07.03.14.08.25.49.83.54.98.03.08.05.19.05.27,0,.09-.03.14-.03.14-.1.11-.27.15-.31.44,0,.08.04.18.1.24,0,0,0,.01,0,.01,0,.05-.05.17-.07.19-.17.16-.32.46-.41.56-.15.17-.51.75-.62.81,0,.1-.58-.07-.85.42t-.05.04c-.16.12-.6.24-.66.23h0s0,0,0,0h0s-.03,0-.07,0c-.3.06-.73.33-.94.32v.02c-.07-.16-.1-.42-.1-.64,0-.17.02-.33.03-.37.03-.12.27-.29.41-.57.04-.11.06-.22.06-.33,0-.15-.02-.28-.13-.42-.08-.09-.25-.27-.24-.37,0-.04,0-.08.07-.15.43-.45,1.11-1.75,1.28-2.16.06-.15.08-.3.08-.43,0-.28-.07-.49-.18-.63-.19-.19-1.02-.63-1.21-.73-.23-.1-1.25-.31-1.64-.32h0s0,0-.01,0c0,0,0,0-.02,0h-.05c-.09,0-.25,0-.42,0-.31,0-.66,0-.94.17-.26.16-.97.41-1.19.56-.18.13-.74.66-.75.66l-.81.69s-.95.93-1.13,2.81c-.04-.06-.06-.12-.06-.18,0-.03,0-.05,0-.07.03-.09.03-.16.03-.23,0-.21-.05-.43-.09-.61ZM75.9,33.18c.39,0,.79.02,1.18.06-2.48,1.16-3.84,4.57-4.2,5.69-.63-.93-1.67-1.14-2.3-1.13-.35,0-.58.05-.59.05,0,0,0,.01-.02.01-.23-.06-.47-.03-.58-.07-.09,0-1.2-.44-1.57-.47-.05,0-.34-.09-.62-.2-.38-.15-.82-.36-.89-.41-.15-.09-.27-.08-.43-.08-.06,0-.13,0-.2,0,.27-.29.86-.87,1.65-1.22.25-.11,4.34-2.25,8.57-2.25ZM71.31,29.27s.69,1.24.7,1.76c-.5-.33-1.07-.65-1.69-.9-.12-.05-.25.01-.3.13-.05.12,0,.25.13.3.71.29,1.36.67,1.9,1.06.76.55,1.16,1.05,1.35,1.31-2.96.49-5.43,1.67-6.1,1.99-2.08-1.49-2.31-2.95-2.32-3.6,0-.18.02-.29.03-.33.09-.08.18-.18.27-.3.19-.27.22-.59.23-.9,0-.38-.07-.76-.07-.8.03-.13.12-.34.29-.46.39-.38.31-1.14.34-1.3-.03-.02.18-.18.37-.38.1-.13.1-.25.1-.36,0-.38-.16-.95-.18-1.12,0-.03,0-.05,0-.08,0-.08.02-.17.04-.27.4.15,3.13,1.29,4.91,4.25ZM58.73,20.08s.07-.05.09-.09c0,0,.01-.02.02-.03.37-.42.83-.87.96-.97.11-.11,1.64-.5,1.73-.53,0,0,.12,0,.31,0,.57,0,1.71.11,2.37.8l.16.07s1.06.09,1.28.64c.32.68.9,1.85.88,2.11v.03c-.05.27-.24.57-.25.89,0,.01,0,.06.01.11,0,0,0,.02,0,.05,0,.3-.1,1.2-.18,1.4,0,.03-.03.07-.04.11-.07.21-.14.41-.14.64,0,.04,0,.09,0,.15.03.23.18.78.17,1.05,0,.07,0,.06,0,.07-.09.15-.4.26-.47.64.02.16-.08.96-.17.97-.3.26-.43.58-.45.8v.02c0,.15.06.46.06.8,0,.26-.05.51-.13.62-.08.1-.15.19-.22.25-.09,0-.28,0-.45.14l-.24.18-.1.14s-.06.25-.13.5c-.02.08-.05.17-.08.24-.11-.15-.26-.39-.34-.51l.46-1.6.22-2.14v-.1s1.62-2.58,1.62-2.58c.03-.12.03-.15.03-.18-.02-.36-.14-1.12-.45-1.45-.17-.12-.76-.86-.73-.91-.04-.27-.22-1.04-.23-1.05-.02-.07-.07-.14-.15-.16-.08-.03-.16-.01-.22.04,0,0-1.23.99-1.45,1.11,0,0-.12.03-.25.03-.34,0-.81-.09-1-.09,0,0,0,0-.04,0-.32.02-.86.12-1.1.55-.12.25-.61,1.11-.71,1.26-.2.32-.3,1.13-.32,1.62,0,.14-.07.28-.17.44-.1.14-.22.29-.3.49-.04.1-.06.21-.06.31,0,.29.1.53.14.86.01.1.02.22.02.35,0,.41-.06.92-.11,1.06,0,0,0,0-.06.03-.06.02-.16.03-.21.03-.01,0-.01,0-.04,0,0,0,0,0,0,0-.09.01-.2.05-.3.1.03-.15.05-.28.06-.34,0-.05,0-.06,0-.07-.02-.36-.43-1.18-.51-1.46-.08-.24-.39-2.47-.39-3,0,0,0-.02,0-.02h0s0-.01,0-.01h0c0-.41.52-1.83.58-2.15.02-.19.4-1.31.64-1.71.07-.12.22-.32.39-.52ZM62.98,25.94h0s.12.07.31.16l-.03.14c-.03.12.05.25.17.27.12.03.25-.05.27-.17l.02-.08c.16.05.34.09.53.11l-.62,1h0s-.02.01-.04.02c-1.13.86-2.54.91-2.77.9-.03,0-.05,0-.06,0-.76-.16-1.37-2.09-1.37-2.09,0-.01,0-.02-.01-.03.07-.14.13-.3.13-.48-.01-.37.18-1.32.24-1.36.15-.21.61-1.04.76-1.33,0-.11.51-.31.68-.29h0c.13,0,.64.1,1.03.1.17,0,.33,0,.48-.08.22-.13.85-.63,1.23-.93.06.24.12.53.13.65.09.42.65.97.88,1.2.06,0,.32.92.29,1.1v.03l-.71,1.14s-.03,0-.04,0c-.62,0-1.27-.4-1.28-.39-.11-.06-.25-.03-.32.08-.07.11-.03.25.08.32ZM53.42,29.28c.03.26-.5.23-1.3.71-.24.16-.48.21-.71.21-.24,0-.47-.06-.63-.13-.16-.07-.26-.13-.27-.13.03.03-1.41-1.35-1.44-1.41-.08-.11-.21-.2-.35-.19-.16,0-.29.08-.39.2-.03.04-.06.07-.06.07h0s-.16,0-.37.01c0,0-.02,0-.02,0-.32,0-.49-.14-.58-.24.16-.1.51-.26.51-.26.03-.02.85-.49,1.63-.55.14-.01.28-.03.39-.03.22-.03.4-.04.56-.04.3,0,.53.05.88.26l.8.47s.02,0,.02.01c.14.23.27.46.27.46.06.11.2.15.31.08.11-.07.15-.21.08-.32,0,0-.19-.32-.34-.58-.08-.15-.17-.3-.17-.3-.03-.06-.04-.1-.04-.12,0-.03,0-.05.04-.11,0,0,.03,0,.03,0,.03,0,.06,0,.09.02.04.01.06.03.07.02,0,0,.23.28.53.51.32.29.1-.18.39.93.03.14.05.26.05.35,0,.03,0,.07,0,.12ZM55.06,28.47c-.09.13-.22.22-.33.28-.2.1-.6.2-.85.26-.01-.1-.03-.2-.05-.31-.18-.98-.32-1.02-.55-1.18-.27-.21-.43-.42-.52-.5-.11-.07-.24-.13-.46-.14h0c-.13,0-.29.05-.39.2-.09.12-.13.26-.13.38,0,.02,0,.04,0,.05l-.25-.15c-.4-.25-.76-.33-1.12-.33-.11,0-.23,0-.35.02.02-.38.11-1.24.3-1.35.26-.23.76-.6,1.2-.68.07,0,.13-.02.18-.02.1,0,.19.01.27.05.68.26,2.6,1.19,3.01,2.19.14.31.18.56.18.75,0,.22-.06.37-.14.49ZM56.58,33.99s.68-1.03.68-2.81c0-.79-.13-1.72-.5-2.78,0-.02,0-.04,0-.06l-.69-2.65c-.03-.12-.16-.2-.28-.16-.12.03-.2.16-.17.28l.49,1.86c-.17.03-.32.11-.46.21-.02-.25-.08-.52-.22-.83-.58-1.27-2.55-2.12-3.26-2.42-.15-.06-.3-.09-.45-.09h-.03s-.01-.06-.03-.08h0s-.19-.33-.19-.86c0-.43.13-.99.63-1.58,1.2-1.41,1.51-1.52,1.93-1.58.5-.06,1.38-.18,1.38-.18.1-.04.86-.58,1.79-.58.33,0,.69.06,1.05.25-.14.16-.24.31-.32.44-.28.5-.64,1.55-.7,1.87-.02.2-.57,1.63-.58,2.2h0s0,.01,0,.01c0,.58.3,2.78.42,3.16.1.29.48,1.17.5,1.31h0c-.03.16-.14.81-.14.81-.02.09.02.17.1.23.07.05.17.05.24,0,0,0,.12-.07.26-.14.06-.03.13-.07.19-.09.05-.02.05-.01.05-.03h0s.05,0,.05,0h0c.15-.01.56.03.72-.39.05-.22.12-.71.12-1.18,0-.14,0-.28-.02-.41-.06-.38-.14-.64-.14-.8,0-.06,0-.1.03-.15.01-.03.03-.07.06-.11.21.59.71,1.8,1.65,2.08.07,0,.1,0,.1,0,.25,0,1.53-.04,2.73-.78l-.17,1.68-.48,1.66.02.18s.37.73.74.92c.04.01.06.01.09.01.44-.15.34-.41.48-.69.05-.18.09-.35.12-.45l.18-.13s0,0,.01,0c0,.05,0,.1,0,.16,0,.75.3,2.31,2.31,3.83-1.03.55-1.66,1.38-1.68,1.39-.04.05-.05.1-.04.15-.21.03-.39.06-.47.07-.28.06-1.1.39-1.23.38h0s0,0,0,0c0,0,0,0,0,0-.44.05-.89.5-1.5.67-.87.4-.47,1.13-1.14,1.18-.36.07-.61.31-.75.56-.25.49-.36,1.07-.41,1.04-.17.08-.23.26-.25.4l-2.61-1.25c-.01-.08-.02-.15-.02-.21,0-.05,0-.1.02-.13.03-.11.05-.2.05-.28,0-.28-.12-.51-.22-.67.04-.05.06-.12.08-.21v-.02c-.07-.37-.38-.59-.57-.72,0-.03,0-.08,0-.12,0-.1-.02-.24-.09-.37-.09-.16-.22-.8-.22-.8,0-.04-.03-.14-.05-.25.07-.16.85-1.94.88-1.98ZM51.81,32.4h0s.76.14.92.45c.11.08.73.45.71.58.31.57.77.38.72.78,0,.04,0,.07,0,.1l.1.22s.34.25.32.41l.16.21s.3.08.42.57c.02.05.13.54.12.56.01.04.12.65.28.95.02.05.03.1.03.16,0,.06-.01.11-.01.18,0,.05,0,.17.14.26,0,0,.14.1.25.21.05.05.1.1.13.14,0,0-.01,0-.02,0-.07.03-.11.09-.12.17-.01.07,0,.15.06.2,0,0,.27.3.26.57,0,.05,0,.1-.02.14-.03.09-.04.19-.04.28,0,.27.08.48.08.63,0,.14-.03.22-.23.39-.03.02-.42.41-.74.53-.19.08-.39.09-.52.09-.02,0-.03,0-.04,0-.03-.05-.07-.12-.1-.18h0s-.04-.08-.06-.11c-.19-.3-.56-.35-.59-1.36,0-.03,0-.06,0-.1.33-.15.67-.32.94-.54.16-.15.18-.32.18-.48,0-.4-.21-.96-.23-1.06,0,.02,0,.03-.01.05,0-.02.01-.04.01-.06h0v-.02h0c0-.2-.23-1.55-.23-1.67,0-.02-.02-.03-.03-.05.04-.07.05-.12.05-.13l-.09-.24s-.29-.21-.66-.44c0-.03.03-.05.03-.09-.03-.16-.14-.51-.48-.82-.3-.26-.73-.53-.82-.6-.07-.06-.62-.54-.62-.54-.38-.11-.66-.16-.9-.17.26-.09.53-.16.63-.16ZM53.38,49.57s.98.61,1.05.93c.06.16.11.39.11.61-.01.37-.11.66-.53.8,0,0-.24.02-.49.05-.17.02-.36.04-.49.05-.05-.16-.15-.37-.42-.48-.1-.02-.22-.05-.34-.05-.18,0-.38.05-.57.18-.22.16-1.08.68-1.25.74-.22.11-.62.04-.86.42-.03.08-.14.34-.98.8l-3.03.68c-.62-1.09-2.36-3.51-2.37-3.53,0-.01-.02-.02-.02-.03-.08-.09-.16-.17-.26-.25v-.03s-.1-.42-.1-.84c0-.38.1-.68.23-.72.06-.03.1-.07.15-.12.12-.1.33-.3.48-.47.18-.23.71-.75.79-.71.4-.06.71-.36.93-.59.2-.23.68-.84,1.34-.83.06,0,.13,0,.19.01.93.14,3.1.28,3.17.39.33.22,1.45,1.07,1.85,1.14.09,0,.24,0,.43.04.33.06.68.2.82.6l.08.11s.18.14.17.37c0,.1-.03.23-.15.41-.04.05-.05.12-.03.18.01.06.06.11.11.15ZM50.72,54.86s-.15-.06-.27.04c-.08.11-.07.15-.07.17h0s0,.01,0,.01c.08.29.29.41.46.47-.08.12-.17.24-.18.23-.07.01-.15.04-.22.07-.02-.04-.04-.07-.08-.1l-.31-.25c-.1-.08-.24-.06-.32.04-.08.1-.07.24.03.32l.28.23s-.06.04-.08.03c-.37.12-.39.34-.63.39-.1.03-.24.05-.37.05-.65.01-1.52-.4-1.73-.67-.32-.38-.64-1.03-.64-1.03-.06-.12-.19-.16-.3-.11-.11.06-.17.19-.11.31h0s.04.08.1.2c-.03,0-.06,0-.09.03l-.23.2c-.06-.25-.12-.51-.19-.76l2.98-.68c.92-.48,1.16-.84,1.25-1.04h0c.1-.05.38-.11.58-.17.31-.11,1.11-.61,1.38-.8.1-.08.19-.1.3-.1.07,0,.14.01.22.03.01,0,.09.22.12.29-.15.74-.67,1.04-.67,1.06l-.11.19s-.02,1.17-.05,1.62c0,.07-.05.09-.26.11-.14,0-.28-.03-.28-.03,0,0,0,0,0,0-.04-.01-.14-.05-.25-.1-.07-.03-.12-.06-.16-.08h0c-.01-.07-.06-.14-.12-.17ZM50.77,55.23s-.09.06-.13.06c.05,0,.1-.03.13-.06h0ZM51.2,42.84c-.51,0-.92-.06-1.12-.1.3-.67.4-1.49.43-1.51.02-.19.03-.36.03-.54,0-.27-.04-.57-.13-.93-.05-.21-.11-.41-.19-.6.56.15,1.7.4,3.35.41-.02,1.09.67,1.52.65,1.55,0,0,0,0,0,0-.49,1.42-1.9,1.72-3.03,1.72ZM52.97,34.01c.09.06.18.13.25.19.07.06.13.14.18.22-.14-.08-.28-.15-.4-.2-.12-.06-.11-.08-.12-.08-.01-.02.04-.08.09-.14ZM51.01,33.01c.25,0,.53.03.85.11,0,.02.45.42.56.51.04.03.1.07.16.11-.08.1-.15.23-.16.4,0,.21.16.42.4.5.41.17,1.09.62,1.39.83-.08.12-.24.31-.6.49-.11.06-.16.2-.1.31.04.08.12.13.21.13.03,0,.07,0,.1-.02.2-.1.36-.21.48-.31.02.15.05.32.07.48-.04,0-.07.02-.1.04-.34.24-1.07.4-1.07.41-.12.03-.2.15-.18.27.03.12.15.2.27.18.02,0,.67-.14,1.14-.42.02.13.03.23.03.27v.02c.02.22.23.73.23,1.08,0,.11-.02.12-.02.13-.26.22-.68.41-1.01.57-2.22,0-3.47-.43-3.65-.49-.14-.44-.2-.86-.2-1.11,0-.03,0-.06,0-.06,0-.04,0-.06,0-.08,0-.46-.24-1-.5-1.35-.24-.31-.49-.56-.49-.98,0-.06,0-.11.01-.16.05-.57.66-1.52.77-1.5.26-.1.64-.36,1.4-.36ZM46,38.99c.1-.27.04-.12.16-1.04.11-.83.98-3.39.98-3.39.2-.4.76-.78.76-.79.42-.8.96-.88,1.29-.89.15,0,.22.02.22.02h.15s.08-.05.12-.06c-.1.05-.18.08-.22.1-.48.23-.92,1.12-1.06,1.86-.01.07-.02.16-.02.23,0,.63.38,1,.58,1.26.2.25.41.79.41,1.07v.04s0,.07,0,.1c0,.43.12,1.12.41,1.77.08.17.14.38.2.6.08.32.11.58.11.82,0,.16,0,.32-.02.49.01,0-.4,1.84-.74,1.91-.08.03-.32.07-.62.07-.47,0-1.08-.06-1.59-.17-.25-.05-.47-.11-.63-.18-.15-.05-.18-.1-.19-.1h0c-.21-.52-.53-.65-1.4-1.27-.01-.01-.03-.02-.04-.03-.12-.09-.14-.17-.14-.29-.03-.58,1.1-1.66,1.3-2.12ZM44.73,41.88c.82.58,1,.67,1.12.99.37.59,1.8.68,2.84.74.33,0,.6-.02.8-.11.13-.07.25-.2.35-.34,0,0,0,0,0,0,0,0,.58.13,1.35.13h.04c.27,0,.56-.02.87-.07l.09,4.05c-.11,0-.2,0-.22-.01,0,.01-.08-.03-.21-.11-.43-.25-1.2-.79-1.39-.93-.48-.3-2.43-.31-3.37-.48-.09-.02-.18-.02-.27-.02-.94,0-1.51.79-1.68.98-.18.21-.47.43-.64.44-.48.09-.86.65-1.09.87-.13.14-.33.33-.44.43-.06.05-.08.07-.08.07-.4.19-.45.7-.45,1.11,0,.19.02.38.04.53-.15-.09-.33-.17-.5-.25-.07-.54-.1-1.05-.1-1.54,0-4.27,2.38-6.1,2.94-6.49ZM39.18,49.44c.62.17,2.49.73,3.34,1.33l.05.03c.11.08.2.16.26.23,0,0,0,0,0,0,0,0,2.24,3.16,2.49,3.74-1.36-1.4-3.81-2.32-3.83-2.34-.12-.05-.25.01-.3.13-.05.12.01.25.13.3.02,0,3.75,1.53,4.3,3.15.07.3.11.51.11.51,0,.01.22.82.21.87h0c-.05.87-.49,3.44-2.37,3.92.28-.6.51-1.3.51-2.1,0-1.09-.41-2.36-1.58-3.83-.08-.1-.22-.11-.32-.04-.1.08-.12.22-.04.32,1.12,1.41,1.48,2.57,1.48,3.54,0,.86-.28,1.6-.62,2.24-.49.77-1.77,1.79-3.5,2.05-.06,0-.11,0-.16,0-.63,0-1.08-.18-1.38-.37-.29-.18-.44-.37-.45-.37h0s-.07-.07-.11-.08c.28-.58.61-1.32.71-1.81.44-.08,1.6-.31,1.73-1.2.01-.16.05-.36.05-.6,0-.88-.57-1.94-4-3.23.38-.31,1.24-.85,2.73-.85,0,0,.94-.04,1.69-.04.13,0,.23-.1.23-.23s-.1-.23-.23-.23c-.76,0-1.7.04-1.7.04-2.16,0-3.18,1.09-3.3,1.22-.14.1-1.46,1.03-2.17,2.49-.33.69-.66,1.49-.92,2.4-1.06-.69-3.27-2.96-4.26-4.01-.31-.34-.52-.55-.52-.55-.09-.09-.23-.1-.33-.01-.09.09-.1.23-.01.33h0s.12.13.32.35c-.29.15-.81.42-1.32.74-.12-.07-.43-.25-.77-.52-.18-.16-.21-.26-.21-.65,0-.18,0-.42,0-.72,0-.16,0-.34,0-.55,0-.03,0-.05,0-.05-.08-.94,1.95-1.5,2.49-1.53.62-.07,2.88-.64,2.9-.64l1-.43s.03.01.04.01c.02,0,.05,0,.07-.01.06-.02.1-.06.12-.1l.89-.38s.04.04.06.06c.21.16.47.5.73.71.22.17.48.19.71.19.14,0,.27,0,.36-.02.38-.05.79-.39.81-.39.35-.23.24-.61.28-.84,0-.21.12-.82.16-.96.03-.12.18-.53.23-.65.11-.11.44-.22.6-.3.13-.09.27-.19.29-.2,0,0,0,0,0,0,.03.01.11.05.19.08.09.05.18.09.18.09.07.03.31.1.67.1.25,0,.54-.03.86-.13.17-.06.32-.13.4-.25ZM36.07,68.34c.19.02,1.13.61,1.15.65.09.06.64.63.64.64.11.25.33.39.34.41.22.1.65.42.67.43,0,0,.96,1.19,1.07,1.32.03.03.06.09.07.12,0,0-.02,0-.03,0l-1.26-.81-1.02-.4c-.11-.04-.22,0-.28.1-.06.1-.03.23.06.3.37.27.84,1.19.85,1.2,0,0,.32.75.47,1.12.03.06.03.11.03.14,0,.04,0,.05-.14.11-.04-.02-.2-.18-.21-.18l-.53-.91-1.07-1.42s-.02-.03-.04-.05h0c-.09-.09-.24-.09-.33,0h0s0,0,0,0h0c-.07.07-.08.18-.04.26l.2.62.24.59.27.93s.19.66.25.84c.01,0,0,.01-.04.05-.03,0-.08-.02-.12-.04,0,0-.02,0-.03-.01l-1.04-2.17h0c-.02-.05-.06-.09-.11-.11,0,0,0,0,0,0,0,0,0,0,0,0-.04-.02-.1-.02-.14,0,0,0,0,0,0,0,0,0,0,0,0,0-.06.02-.11.07-.14.14,0,.03-.01.05-.01.08,0,.07-.02.26-.03.49,0,.01-.08.12-.24.21-.16.09-.36.17-.38.17-.14.02-.38.1-.57.32,0-.01,0-.03,0-.06,0-.07.04-.17.03-.17,0,0,.02,0,.02,0,.12-.09.34-.21.47-.33.08-.11.08-.19.08-.26,0-.27-.14-.58-.2-.72-.17-.31-.79-.64-.84-.71-.1-.08-.81-.68-.81-.69-.49-.37-.78-1.64-.89-3.13,0-.04,0-.08,0-.11-.08-.95-.11-1.98-.14-2.95,0-.13,0-.26,0-.38,0-1.09.15-2.06.37-2.93.26-.99.61-1.84.96-2.57.56-1.17,1.63-2.01,1.95-2.25,3.61,1.35,3.93,2.28,3.93,2.89,0,.19-.03.37-.04.57.06.49-1.51.81-1.51.81-.11.01-.19.1-.2.21,0,.34-.5,1.45-.82,2.09-.16.32-.27.54-.28.54l-.68,1.4s-.94,2.21-1.03,2.76c0,.03,0,.06,0,.08.09.73.96.7,1.2.8ZM21.28,52.06h.16c0-.91-.66-4.33-.66-6.64,0-2.14,1.24-3.52,1.37-3.68.56.03,1.12.04,1.66.04,2.53,0,4.66-.27,5.25-.35.23.83.52,1.44.77,1.9,0,.02-.02.02-.02.04h0s-.04.36-.04.96c0,.75.06,1.9.35,3.28.41,1.99.96,3.82,1.14,4.44l-.89.38s-2.27.56-2.8.61c-.57.09-2.81.46-2.9,1.98,0,0,0,.05,0,.1,0,.17,0,.34,0,.5,0,.28,0,.52,0,.72,0,.39.06.76.38,1.01.24.19.46.34.63.44-.29.21-.56.42-.74.64-.52.6-.96,1.26-1.16,1.89-.39-.26-1.37-.92-1.72-.98-.08,0-.5-.07-.94-.13,0-.03,0-.05-.02-.08-.3-.75-.4-1.48-.4-2.12,0-.83.16-1.52.25-1.94.26-1.21.46-2.43.48-2.97l-.16-.02ZM32.37,51.57l-.69.29c-.2-.66-.72-2.44-1.12-4.36-.28-1.34-.34-2.45-.34-3.18,0-.13,0-.24,0-.34.09.14.17.25.2.31.24.49,1.53,2.22,1.54,2.24.01.03.82,2.23.8,2.27h0s-.46.71-.58,1.52c-.02.12-.03.24-.03.35,0,.36.09.67.21.9ZM41.32,35.68l.67.18c.05.09.12.22.14.3-.14.07-.46.2-.62.19-.04,0-.08,0-.08-.01l-.25-.13c-.11-.06-.25-.01-.31.1-.06.11-.01.25.1.31l.25.13c.1.05.19.06.29.06.38-.01.76-.19.95-.31.11-.08.14-.2.14-.29,0-.13-.05-.26-.1-.37h.11s1.07.16,1.24.17c.06,0,.51.08.83.14,0,0,0,0-.01,0-.11.06-.22.1-.22.1l-1.07.17c-.07,0-.14.06-.17.13-.03.07-.03.15.02.21l.34.56c.04.07.05.12.05.18.03.22-.39.51-.39.51l-.11.25c.03.13.04.25.04.35,0,.63-.38.76-.37.78-.34.22-.63.29-.91.29-.58,0-1.16-.33-1.66-.61-.18-.11-.35-.2-.52-.27-.38-.17-.4-.36-.42-.78,0-.18.01-.38.01-.59,0-.03,0-.05,0-.07,0-.05,0-.07,0-.08,0-.59.25-1.13.41-1.33.06-.12.72-.39.92-.48l.69.18ZM41,35.12l-.33-.09h-.14s-.88.29-1.2.66c-.22.29-.5.89-.51,1.61,0,.03,0,.06,0,.07,0,0,0,.04,0,.08,0,.19-.01.39-.01.59-.01.36.07.79.43,1.05-.57-.02-1.25-.05-1.35-.06-2.01-.14-2.67-2.02-2.68-2.02-.08-.14-.12-.31-.11-.5,0-.3.07-.61.09-.7l1.2-.6s2.07-.72,3.24-1.24c.02,0,.03-.01.04-.02.02.04.04.07.08.09h0s.87.65,1.26,1.07ZM40.07,31.95c-.1.12-.22.23-.37.33l-1.17.78c-.11.07-.14.21-.07.32.07.11.21.14.32.07l1.17-.78c.05-.03.1-.07.15-.11,0,.25-.02.55-.05.69-.07.06-.31.18-.61.31-1.13.5-3.23,1.23-3.23,1.23l-1.44.72-1.54.77c.87-.91,1.21-2.52,1.45-3.21.23-.66.59-.71,1.15-.99.34-.17.79-.59,1.22-1.18.05.04.13.06.2.04h0l3.3-.86s0,.12,0,.21c0,.4-.08,1.14-.5,1.65ZM46.76,26.55c-.12.34-.82,1.95-.98,2.76-.06.21-.07.2-.07.2-.01,0-.07-.03-.12-.07-.05-.04-.09-.08-.09-.07h0s-.01-.02-.02-.02c-.06-.05-.14-.06-.21-.04h0s-.01,0-.02,0c0,0-.01,0-.02,0-.02,0-.04.02-.06.04-.02.01-.03.03-.04.05-.06.06-.23.26-.31.3,0,.02-.22.05-.35.06l-.38-.41c-.08-.09-.23-.1-.33-.01-.09.08-.1.23,0,.32l.32.35s-.06.07-.09.09v.02c-.27.11-.44.28-.51.6-.05.15.06.09-.15.16h-.02c-.22.02-1.04-.4-1.04-.4l-1.34-.73-.2-.1-.17-.02-3.19.83c.23-.38.44-.81.58-1.27.12-.39.19-.81.19-1.24,0-.24-.02-.48-.06-.71.06.09.11.16.12.22.11.26.37.29.53.29.25,0,.52-.06.74-.05.1,0,.19.01.22.03.17.09.37.1.59.11.58,0,1.33-.16,1.34-.16.8-.03,1.33-.6,1.57-.73.28-.19.76-.57.84-.59,0,0,0,0,.01,0h0s.08,0,.12,0c.21,0,.44-.09.7-.36.22-.23.29-.53.32-.78l.59.45c.65.41.86.43,1.17.53-.05.09-.12.21-.18.37ZM36.36,23.32s.34-.07.34-.08c.12-.02.19-.14.18-.25,0-.04,0-.06-.01-.08,0,0,0,0,0,0h0s0,0,0,0h0c-.03-.13.42-.46.99-.62.56-.18,1.12-.27,1.12-.27.11-.01.19-.11.19-.21,0-.55.86-.79,1.84-.78.8,0,1.54.13,1.54.13.23-.03.38-.04.53-.04.7,0,1.4.24,1.91.5.51.25.85.5.86.5l.18.04c.08-.02.16-.02.24-.02.94-.03,1.54,1.24,1.54,1.24l.15.13c.53.16.66.6.67,1.12,0,.46-.12.87-.15.98-.07.19.08.24-.5.38-.02,0-.05,0-.07,0-.13,0-.32-.05-.51-.14-.59-.26-.6-.12-1.34-.59l-.94-.71c-.07-.05-.17-.06-.25-.02-.08.04-.13.13-.12.22v.16c.01.22-.05.62-.19.73-.26.24-.29.22-.39.23-.01,0-.04,0-.08,0,0,0-.02,0-.04,0-.43.05-.81.52-1.09.66-.35.21-.76.65-1.39.67-.04,0-.77.16-1.28.16-.18,0-.34-.03-.36-.05-.15-.08-.3-.09-.45-.1-.27,0-.56.06-.74.06-.05,0-.09,0-.11-.01-.11-.27-.36-.6-.79-.88-.03-.07-.06-.14-.09-.2-.27-.55-.67-1.06-1.23-1.5-.21-.16-.42-.29-.63-.41,0-.02,0-.04-.01-.05-.02-.05-.03-.11-.03-.16-.02-.28.36-.65.52-.74ZM33.31,24.08s.07-.01.09-.03c.46.03,1.29.13,2.11.54.24.12.49.27.72.45.5.39.86.85,1.1,1.33.24.5.36,1.04.36,1.56,0,.38-.06.75-.17,1.11-.17.53-.44,1.03-.73,1.45-.42.61-.92,1.07-1.15,1.18-.46.23-1.1.4-1.38,1.26-.25.78-.67,2.5-1.4,3.13,0-.05-.17.12-.15.35,0,.07,0,.16.04.26.03.11.07.25.15.43.31.73,1.29,2.65,1.28,4.04,0,0,0,.03,0,.08,0,0,0,.05,0,.11,0,1.46.27,2.84.62,3.98.43,1.2.9,2.52,1.53,2.71.22,0,.77.2.87.34.29.31,1.02.59,1.25.69.08.02.22.11.3.17-.03.01-.07.03-.11.05-.26.08-.51.11-.71.11-.31,0-.49-.06-.49-.05.02.02-.27-.19-.56-.22h0s-.04,0-.08.01c-.25.06-.37.23-.44.26-.03.04-.45.13-.7.39-.03.02-.05.05-.07.08l-.03.04s-.04.09-.04.13c-.07.18-.17.46-.21.59-.05.2-.16.78-.17,1.05,0,.28-.06.47-.06.47-.03.03-.49.33-.61.32-.09,0-.21.02-.33.02-.18,0-.36-.03-.42-.09-.2-.17-.47-.5-.73-.71-.03-.02-.07-.07-.11-.12-.13-.18-.27-.46-.27-.86,0-.09,0-.18.02-.27.11-.74.53-1.21.59-1.58v-.02c-.03-.35-.85-2.46-.86-2.49-.03-.06-1.34-1.84-1.53-2.22-.21-.38-.89-1.12-1.39-2.98-.17-.63-.31-1.39-.39-2.3-.01-.06-.15-.44-.15-1.2,0-.1,0-.19,0-.29,0-.21.03-.44.06-.69.19-1.46.13-3.35.15-3.67,0-.07.02-.25.05-.47.08-.69.28-1.9.59-2.7.4-1.06,2.01-3.75,2.01-3.75.06-.11.03-.25-.08-.31-.04-.02-.08-.03-.12-.03-.08,0-.15.04-.2.11,0,0-1.61,2.68-2.04,3.82-.3.79-.49,1.87-.59,2.6-.01,0-.03,0-.04.01-.13.05-.27.07-.41.07-.83.02-1.86-.97-2.8-2.18-.33-.42-.46-.78-.46-1.15,0-.8.68-1.73,1.76-2.91,1.27-1.43,5.56-1.92,6.48-1.98ZM20.26,32.92c.02-.27.16-1.87.36-3.04.05-.26.09-.5.14-.7.24-.99,1.07-1.32,1.77-1.72.76-.47,1.47-1.9,2.11-2.27.65-.41,2.59-.8,4.09-1.13.49-.11,1.16-.15,1.83-.15.15,0,.29,0,.43,0-1.6.28-3.56.82-4.51,1.83-1.08,1.19-1.87,2.16-1.89,3.22,0,.48.18.97.56,1.44.97,1.2,1.99,2.33,3.16,2.35.13,0,.26-.01.39-.05-.01.09-.02.17-.02.22-.02.38.04,2.23-.15,3.64-.02.18-.04.36-.05.52-.01,0-.03.01-.04.02,0,0-.04.03-.13.09,0,0-.02,0-.03,0l-2.07-.69c-.33-.09-2.29-.91-2.82-.95-.33,0-1.39-.42-1.81-.71-.36-.19-1.28-1.62-1.32-1.9,0-.02,0-.02,0-.03,0,0,0,0,0,0ZM15.86,36.64c-.13-.09-.35-.75-.34-1.21,0-.25.06-.43.1-.44.41-.37,1.46-1.62,1.47-1.63,1.29-2.31,2.53-3.01,3.03-3.23-.18,1.14-.3,2.48-.31,2.76h0s0,.02,0,.02c.06.58.96,1.89,1.53,2.32.53.33,1.53.74,2.04.78.31,0,2.35.82,2.71.93l1.77.59c-.52.37-1.34.94-2.2,1.51-.34.22-.65.3-.94.3-.87.01-1.69-.78-2.27-1.21-.3-.21-.66-.27-1.06-.27-.86,0-1.91.3-2.86.43-.06.01-.14.01-.2.01-.6,0-1.17-.37-1.61-.78,0-.02-.02-.04-.03-.06-.03-.03-.06-.05-.09-.06-.34-.33-.57-.63-.73-.78ZM16.34,38.6c0-.31.09-.51.17-.63.47.41,1.08.8,1.82.81.08,0,.17,0,.27-.02,1-.14,2.04-.43,2.8-.43.35,0,.61.06.79.19.53.37,1.4,1.29,2.54,1.3.38,0,.79-.11,1.19-.38,1.06-.7,2.04-1.4,2.51-1.74.01,0,.03-.02.04-.03,0,.79.15,1.22.16,1.24.06.77.18,1.47.33,2.08-.65.09-2.71.34-5.14.34-.59,0-1.19-.02-1.8-.05-.95-.06-1.92-.16-2.84-.34-.52-.1-1.02-.22-1.5-.37-.23-.07-.46-.14-.67-.23-.51-.8-.65-1.36-.65-1.75ZM12.84,56.88s-.02-.02-.03-.03l-1.52-1.05c-.21-.19-.25-.35-.25-.49,0-.23.17-.42.16-.43,0,0,2.11-2.14,3.1-4.25.53-1.66.72-5.55.72-5.56.24-1.94.74-3.04,1.16-3.63.31-.44.56-.6.67-.66.12.04.24.09.36.13-.47.54-1.68,2.17-1.74,4.7l-.52,6.68.06.07h-.06c0,.07-.03.4-.38,1.31,0-.01-.54,1.2-.86,1.9-.23.5-.25.53-.3.61-.09.18-.47.6-.58.7ZM15.1,57.88c-.24-.05-.6-.14-.94-.24-.28-.08-.56-.17-.76-.25-.1-.04-.18-.08-.23-.11l-.02.02s-.02-.06-.02-.06h0c.16-.15.51-.54.67-.82.06-.1.09-.16.31-.65.32-.71.87-1.92.87-1.92.36-.95.42-1.31.42-1.48,0-.05,0-.08-.01-.12l.53-6.6c.06-2.77,1.59-4.37,1.77-4.57.31.09.63.17.96.24-.6.56-1.89,2.09-1.89,4.84,0,.03,0,.06,0,.1.01,1.4.11,3.02.11,4.61,0,2.13-.18,4.18-.92,5.51-.1.17-.2.34-.32.5,0,.01-.47.5-.55,1.02ZM18.14,59.04h0c-.1-.06-.3-.25-.47-.44-.52-.58-1.14-.49-1.98-.54-.14-.04-.11-.01-.14-.06-.03-.21.47-.84.47-.84.14-.19.25-.37.36-.56.81-1.48.98-3.58.98-5.73,0-1.6-.09-3.23-.11-4.62,0-.03,0-.05,0-.09,0-3.36,2-4.7,1.99-4.72,0,0,.01,0,.02-.01.76.14,1.55.23,2.32.29-.43.56-1.26,1.88-1.26,3.71,0,2.36.66,5.85.66,6.64,0,0,0,.03.01.1-.02.38-.22,1.61-.48,2.8-.09.42-.26,1.15-.26,2.04,0,.64.09,1.38.37,2.14-.22-.02-.44-.04-.62-.04h-.01s-.04,0-.06,0h0s-.1,0-.15.01c-.01,0-.03,0-.04,0-.18.02-.35.03-.52.03-.61,0-1.06-.1-1.08-.1ZM20.44,63.66s-.07.08-.12.13c-.35.31-1.08.74-1.28.86h0c-1.26-.03-1.44-.7-1.47-1.61,0-.62.15-1.28.2-1.71.02-.73,1.52-1.66,2.01-1.76.05,0,.1,0,.15-.02.02,0,.05,0,.08,0,.27,0,.67.05,1.06.1.45.06.83.13.98.14.02-.02.44.24.86.5.36.23.71.45.79.5,0,.03,0,.06,0,.09,0,.01,0,.04,0,.08.01.51.27.92.53,1.22-.52-.02-1-.01-1.11-.02.01,0,0,0,0,0,0,0-.02,0-.02,0-.56.05-2.17,1-2.61,1.5ZM20.98,63.97c0-.06-.03-.11-.08-.15.42-.37,1.87-1.18,2.11-1.21.02,0,.03,0,.03,0h0c.34.01,1.05,0,1.67.06.45.03.86.17.86.21.27.31.41,1.56.72,1.9.19.16,1.61,1.32,1.61,1.32.09.08.24.07.33-.03.07-.1.06-.24-.04-.32,0,0-1.44-1.17-1.61-1.31-.05.03-.31-1.37-.65-1.84-.23-.25-.6-.3-1.03-.36,0,0-.01-.01-.02-.02-.24-.18-.78-.73-.76-1.26,0,0,0-.02,0-.05,0-.08.01-.16.03-.25.12-.58.57-1.3,1.14-1.95.19-.22.54-.5.92-.74.61-.4,1.29-.75,1.54-.87,1.09,1.15,3.25,3.36,4.34,4.01,0,0,0,0,0,0-.2.85-.34,1.79-.34,2.83,0,.13,0,.26,0,.4.03.95.05,1.97.13,2.92-.73.63-1.81.81-3.05.81-.87,0-1.82-.08-2.76-.14-2.01-.11-3.7-1.21-4.34-1.85-.07-.07-.12-.12-.16-.17-.46-.54-.62-1.94-.63-1.94ZM42.81,74.75c.17.24.49.68.81,1.22.18.3.25.8.25,1.32,0,.67-.1,1.34-.13,1.69-.02.45-.33.49-1.21,1.49-.34.4-.95.55-1.61.55-.67,0-1.36-.15-1.79-.27-.9-.25-2.97-.69-4.16-.82-1.08-.1-3.45-1.51-4.05-1.79-.5-.21-3.28-2.53-3.56-2.8-.42-.37-1.18-.52-1.51-.59,0,0-.02,0-.04,0-.02,0-.03,0-.03,0-.6.05-2.37,1.39-2.57,1.51-.18.13-.47.33-.59.66-.03.07-.05.16-.05.24,0,.22.1.36.16.5.17.37.54.35.63.4.13.05.35.12.53.18-.03.05-.07.1-.11.15-.05.07-.11.13-.15.18-.04.04-.05.03-.04.05-.29.19-.22.41-.22.53-.05.03-.18.07-.23.08,0,0-.02,0-.05,0-.1,0-.27-.02-.38-.02-.03,0-.05,0-.06,0h0c-.08,0-.46-.06-.47-.06h0s.01,0,.01,0c-.04-.04-.1-.1-.15-.16-.02-.03-.04-.05-.05-.07h0c-.11-.31-1.05-1.92-1.09-2.26l-.02-.03h.01c-.01-.39.71-2.21,1.07-2.97.4-.88.4-1.8.43-2.27,0-.26.2-.49.29-.6,1.79,1.54,3.38,3.32,5.56,4.36,2.16,1.04,6.88,2.91,7.41,3.09.09.03.29.11.54.21.92.36,2.66,1.15,2.84,1.35.09.08.24.08.33,0,.09-.09.08-.24,0-.33-.24-.22-1-.59-1.77-.93.06,0,.13,0,.19,0,3.8.04,4.19-1.92,4.91-3.45.05-.11.1-.22.14-.33ZM42.05,72.09c.13.31.51.77.52,1.56,0,.14-.01.29-.05.46,0,.06-.03.14-.05.21-.05.18-.12.36-.21.56-.83,1.64-.87,3.15-4.49,3.19-.15,0-.31,0-.48,0l-1-.09h-.04c-.21-.08-.37-.14-.47-.18-.48-.17-5.23-2.04-7.35-3.07-2.1-1-3.67-2.76-5.52-4.35-.04-.03-.07-.06-.1-.09-.93-.86-1.13-2.05-1.13-2.91,0-.29.02-.53.05-.71.85.71,2.44,1.61,4.36,1.73.92.06,1.88.15,2.78.15,1.16,0,2.26-.15,3.1-.73.14,1.36.37,2.51,1.02,3.07,0,0,.73.61.8.67.08.07.24.17.42.31.08.06.17.13.23.18.06.05.06.07.07.07.04.08.15.4.16.52-.08.06-.37.2-.51.39-.04.08-.09.21-.1.4,0,.15.06.38.28.5-.02,0,.06.05.19.05.12,0,.25-.07.35-.19.08-.1.22-.16.32-.17.17-.08.66-.19.89-.57l.76,1.6.11.11s.21.11.44.12c.07,0,.15-.02.21-.06.08-.08.27-.19.28-.45,0-.06-.01-.11-.03-.16-.06-.14-.25-.81-.25-.81l-.23-.78.17.23.55.93c.06.04.23.33.59.37.06,0,.1-.01.13-.02.15-.05.46-.19.46-.55,0-.1-.03-.2-.06-.31-.16-.39-.48-1.14-.48-1.14,0-.02-.16-.32-.38-.65l.16.06,1.3.83.15.04s.25,0,.45-.21c.06-.08.07-.17.07-.24,0-.2-.11-.34-.2-.45-.08-.09-1.09-1.34-1.09-1.34-.05-.04-.47-.37-.74-.49,0-.01-.15-.16-.14-.17-.13-.28-.64-.69-.76-.82-.18-.14-.97-.65-1.37-.77-.33-.04-.87-.24-.84-.35h0c.06-.42,1-2.65.99-2.65l.68-1.38s.08-.15.2-.4c.18.2.88.85,2.13.86.11.23.99,2.07,1.06,2.65.07.48.62,2.24,1.07,3.66.29.91.54,1.66.59,1.8ZM41.25,68.07c-.21-.72-.38-1.31-.4-1.5-.1-.67-.79-2.14-1.03-2.64,1.64-.32,2.88-1.24,3.48-2.08,0,0,0,0,0,0,.83-.12,1.43-.52,1.88-1.03-.12.67-.28,1.47-.7,2.58,0,0-.35.96-.76,1.79-.2.76-1.87,2.34-2.47,2.88ZM42.94,67.06c.54-.58,1.05-1.22,1.21-1.72.14-.28.27-.57.38-.84.03,1.38.16,3.42.22,4.33-.94-.89-1.72-1.69-1.81-1.78ZM54.23,68.45c0,.22-.03.5-.03.78,0,.15,0,.32.03.48-.2-.06-.39-.09-.58-.09-1.04.02-1.82.76-2.85,1.1-.98.33-2.04.45-2.57.49.37-.98,1.42-3.92,1.68-6.31,0,0,.15-1.48.29-3.52,0-.13-.08-.24-.21-.24-.13-.01-.24.08-.25.21h0c-.14,2.03-.29,3.49-.29,3.5-.26,2.44-1.41,5.55-1.71,6.34-.54-.17-1.56-1.01-2.51-1.89,0,0,0-.01,0-.02,0,0-.26-3.66-.25-5.3,0-.33.01-.59.03-.67,0,0,0-.01,0-.02.6-1.68.63-2.69.84-3.49,0-.02,0-.03,0-.05.41-.91.53-1.87.56-2.33,0-.01,0-.02,0-.02,0-.25-.22-.96-.22-.98,0,0-.04-.16-.09-.42l.41-.35s0,0,0,0c.11.18.24.38.39.55.38.42,1.26.82,2.08.83.17,0,.34-.02.5-.07.42-.15.57-.43.58-.38.32-.09.55-.33.67-.33.33-.09.5-.38.59-.56.06,0,.13.01.2.01.23.01.68-.08.72-.53.02-.39.04-1.22.05-1.53.19-.15.58-.52.74-1.17.37-.03,1.06-.11,1.06-.11.69-.21.9-.79.89-1.25,0-.28-.07-.56-.13-.75-.18-.47-.76-.87-1.07-1.06.08-.16.11-.31.11-.46,0-.36-.2-.59-.3-.69-.19-.48-.61-.7-.95-.8l-.09-4.22c.78-.21,1.54-.66,1.97-1.56l.09.06s.08.01.21.01c.17,0,.42-.02.68-.12.47-.19.86-.6.87-.61.24-.17.36-.41.39-.63l2.62,1.25c.03.16.07.31.06.42,0,.04,0,.08-.01.1-.02.06-.03.14-.03.2.02.47.38.7.39.72.03.02.06.03.09.04v.12c0,.38.03.79.09,1.23,0,.01.1.81.59,1.52,0,.01-.01.03-.02.04,0,0-.26.69-.39.75-.31.25-1.29,1.48-1.32,2.62,0,.11.01.21.04.32.22,1.01.74,2.73.74,2.74.03.11.13.17.25.16l.18-.02c-.12.34-.38,1-.48,1.06-.14.12-.91.64-1.57,2.45-.14-.07-.34-.13-.59-.14-.35,0-.77.14-1.21.54-.54.5-.74.67-.79.72-.03.01-.05.03-.07.06,0,0,0,0,0,0-.22-.53-.3-1-.3-1.41-.03-2.21,2.51-3.26,2.51-3.27.12-.05.18-.18.13-.3-.05-.12-.18-.18-.3-.12h0s-.79.31-1.53.99c-.04-.54-.09-1.47-.11-2.19.04-.11.43-1.31.95-2.57.51-1.31,1.27-2.7,1.61-2.79.11-.05.18-.18.13-.3-.05-.12-.18-.17-.3-.13-.74.36-1.56,2.21-2.13,3.7.21-1.06.53-2.52.82-3.85.03-.12-.05-.25-.18-.27-.12-.03-.24.05-.27.17-.5,2.23-1.04,4.78-1.08,5.35-.01.13-.01.28-.01.44,0,1.04.13,2.71.15,2.88-.47.57-.84,1.31-.85,2.26,0,.52.11,1.1.39,1.74.02.03.04.06.07.08-.36.48-.37.5-.44.71-.09.27-.39,1.49-.4,1.8v.02s0,0,0,0c0,.08-.01.22-.03.33,0,.06-.02.11-.04.14h.01s-.16.12-.3.2c-.06.04-.12.07-.18.1-.16-.23-.46-.68-.81-.8-.09-.02-.19-.04-.29-.04-.12,0-.43.06-.45.36,0,.05,0,.09.02.13-.11.03-.34.08-.4.41.01.22.14.34.33.51l.69.6s.62.55,1.13.68c.11.03.24.04.38.04.24,0,.53-.05.79-.2-.03.12-.06.21-.07.22-.16.28-.37.89-.39,1.26,0,.07,0,.15.07.25,0-.07.04.47.58.55.2,0,.36-.13.5-.31l.1-.13c-.2.64-.39,1.17-.51,1.42-.44.98-1.08,1.76-1.11,2.59ZM56.62,59.38c-.12-.04-.25.03-.28.15-.03.13-.33.47-.36,1.06,0,.3-.28.3-.34.31-.11-.03-.16-.15-.16-.42,0-.23.05-.47.06-.61.01-.13-.08-.24-.2-.25-.13-.01-.24.08-.26.2h0c0,.1-.07.38-.07.66,0,.23.05.55.27.74,0,.09-.05.35-.09.63-.04.02-.07.05-.09.08-.18.29-.52.4-.83.4-.1,0-.2-.01-.28-.03-.29-.05-.93-.58-.93-.58l-.69-.6c-.06-.05-.1-.09-.13-.13.11-.03.31-.07.39-.39,0-.03,0-.05,0-.08.05,0,.1.01.15.02.04-.02.6.66.62.73.1.11.16.1.22.11.33-.04.69-.35.82-.43.25-.27.21-.59.24-.83v-.02h-.22s.22,0,.22,0h0c0-.16.31-1.5.36-1.64.09-.21,0-.08.67-.98.04-.03.18-.16.83-.75.37-.34.67-.42.9-.42.2,0,.35.07.44.12-.3.93-.58,2.16-.77,3.8,0,0-.37,1.29-.78,2.66-.02.01-.03.03-.04.05l-.46.75-.43.59c-.1.13-.12.12-.12.12,0,0-.04-.02-.09-.11-.05-.09-.08-.18-.08-.18l-.07-.04h.06c-.01-.18.22-.88.31-1.02.13-.21.18-.57.25-.96.05-.3.09-.59.11-.74.21-.03.66-.16.7-.73.03-.46.24-.64.34-.96.03-.12-.03-.25-.16-.28ZM54.61,83.32l-6.54-2.2v-1.36s6.55,2.15,6.55,2.15v1.42ZM67.7,79.68l-12.63,3.71v-1.48l12.63-3.59v1.36ZM59.54,79.18c.11-.03.19-.14.17-.25l-.29-1.96,1.1-.26,6.44,1.34-12.12,3.44-6.16-2.02,6.25-1.46-.38,1.99c-.02.12.05.24.16.27.11.03.24-.03.28-.14l.87-2.33,2.7-.63.69,1.88c.04.11.16.17.27.14ZM56.08,77.28l1.31-3.34,1.03,2.8-2.34.54ZM58.91,76.63h-.03s-1.26-3.41-1.26-3.41c-.04-.09-.12-.15-.22-.15-.09,0-.18.06-.22.14l-1.65,4.19h-.03s.41-2.96.41-2.96v-.03c.11-.2.28-.55.36-.92.12-.54.52-1.94.9-2.53.22-.34.58-.49.83-.55l.06.59.84,5.63ZM62.64,59.3c-1.62,2.97-3.95,5.7-4.13,6.19-.08.25-.15.51-.15.87,0,.46.09,1.07.34,2.13.06.23.08.45.08.66,0,.5-.14.92-.32,1.26l-.03-.31c-.01-.12-.12-.22-.25-.21-.02,0-.89.06-1.4.82-.45.71-.83,2.1-.96,2.67-.06.29-.2.58-.28.75-.08-.08-.12-.25-.12-.38l-.18-3.1-.09-.17c-.14-.11-.24-.23-.32-.36,0-.02-.02-.03-.03-.05,0-.04-.02-.08-.05-.12-.08-.22-.11-.48-.11-.74s.03-.53.03-.77c-.01-.57.58-1.38,1.06-2.41.22-.49.6-1.7.96-2.9.43-1.43.82-2.81.82-2.81.21-1.75.51-3.01.82-3.92.67-1.96,1.35-2.34,1.53-2.51.35-.35.66-1.44.68-1.46h0s0,0,0,0l4.28-.51s.27-.06.58-.18l-1.32,2.83-.02.12c0,.09,0,.2,0,.3,0,.97-.39,2.16-.98,3.38-.15.31-.31.62-.48.93ZM67.14,62.74s-1.77,2.71-2.01,3.04c-.23.34-.23.85-.24,1.26,0,.2,0,.38.01.46,0,.18-.16.74-.15.74-.03.09-.04.17-.04.25,0,.51.31,1.05.57,1.39.31.39.7.64.81.92,0,.02,0,.04,0,.07.02.19-.31.63-.74.84-.23.12-.83.2-1.47.19-.48,0-.99-.03-1.42-.09-.62-.08-.66-.54-.68-.84,0-.1,0-.15,0-.15,0,.03.43-1.33.51-1.53.06-.19.07-.46.07-.78,0-.25-.01-.51-.04-.71,0-.02,0-.05,0-.05-.01-.35.4-1.33.77-1.85.33-.47.36-1.21.36-1.79,0-.33-.02-.61-.02-.73,0-.04,0-.19,0-.38,0-1.04.03-3.72.04-4.26,1.85-.41,3.48-.63,4.73-.75-.29,3.58-1.12,4.74-1.1,4.76ZM68.75,71.22l-.49-1.78c-.4-1.03-.54-1.93-.54-2.71,0-1.6.57-2.7.75-3.16.23-.62,1.71-3.47,1.71-3.48l.89-1.91.14-.59c.03-.12.06-.28.1-.47.24-1.02.56-2.79.6-3.49,0-.05,0-.09,0-.13,0-.77-.31-2.16-.55-2.79-.13-.31-.16-.57-.16-.83,0-.22.03-.43.06-.65.06-.43.62-2.54.74-3.16l2.81-.14s.95-.11,1.6-.51c.11-.06.14-.21.08-.31-.06-.11-.2-.14-.31-.08-.52.33-1.4.44-1.4.44l-4.17.21c-.13,0-.22.11-.21.24,0,.12.11.22.23.22h.01l.9-.04c-.15.68-.66,2.6-.72,3.07-.03.22-.06.46-.06.71,0,.3.04.63.19,1,.22.54.53,1.96.52,2.62,0,.03,0,.07,0,.12-.03.61-.35,2.41-.59,3.4-.03.13-.06.24-.08.34-.31,0-1.14.02-2.36.13-1.24.11-2.88.32-4.74.72.51-1.14.86-2.24.86-3.23,0-.09,0-.19,0-.28l1.41-3.03.02-.02s.02-.1.02-.14c.34-.16.69-.36.94-.64.58-.67,2.13-3.23,2.14-3.24,0-.02.02-.03.02-.05.14-.21.28-.43.42-.68,0,0,.02-.04.04-.1.02-.02.04-.04.05-.07.04-.11.08-.24.12-.36.2-.46.49-1.14.81-1.74.04.03.51-.26.59-.29,1.71-.65,2.26-2.84,2.28-2.86,0-.04,0-.09,0-.17.86,1.01,3.02,3.3,5.43,3.98-2.14,2.6-3.76,5.38-4.98,8.06-.08-.87-.1-1.6-.1-2.07,0-.43.02-.66.02-.66,0-.13-.09-.24-.21-.24-.13,0-.24.09-.24.21,0,0-.02.25-.02.69,0,.62.03,1.63.17,2.86,0,.01.01.02.02.03-3.01,6.97-3.38,13.03-3.39,13.04,0,0,0,.02,0,.03-.02.08-.03.17-.03.25,0,.63.52,1.24,1.91,1.65.02,0,.04,0,.06,0,.02,0,.03-.01.05-.02-.1.51-.22.95-.33,1.22-.53,1.27-.92,2.25-.92,2.85,0,0,0,0,0,.03,0,.17-.06.49-.13.83-.03-.02-.06-.03-.09-.04-.86-.17-1.02-.2-1.88-2.82ZM70.54,67.36s.68-1,.79-1.07c.3-.23.78-.61,1.37-1.09-.08.7-.27,2.3-.52,3.6-.02-.01-.03-.04-.06-.05-1.34-.41-1.61-.89-1.61-1.25,0-.04,0-.09.02-.13,0,0,0,0,.01-.01ZM75.57,76.86h0s0,0-.01,0c.04.23-.55.83-.75.95-.16.13-.67.32-.97.5-.06.05-.2.07-.37.07s-.34-.02-.51-.03c-.28-.01-.98-.26-.98-.26h-.13s-.51.1-.93.1c-.08,0-.16,0-.23-.01-.25.01-.33-.38-.39-1.1,0-.05,0-.08,0-.14,0-.16.03-.33.07-.5.1-.39.3-.75.41-.98.18-.4.53-1.65.53-2.23v-.02s-.2,0-.2,0h.2c0-.41.36-1.42.89-2.67.55-1.36.98-5.63.98-5.65,0-.03,0-.06,0-.09,2.21-1.79,5.39-4.43,6.24-5.6.11-.16.24-.3.38-.42,0,.05,0,.1,0,.15,0,5.04-4.89,11.91-5.38,12.88-.17.32-.21.71-.21,1.11,0,.6.12,1.22.21,1.64.06.28.12.46.12.46.05.07,1.07,1.6,1.04,1.83ZM84.03,74.79c-.16,0-.32,0-.46,0-.86-.03-.95-.02-1.9-.06-.47-.02-.93-.04-1.39-.06-.01,0-.03-.01-.04-.02-1.47-.33-3.46-2.54-3.46-2.54-.08-.1-.23-.1-.32-.02-.1.08-.1.23-.02.32h0s1.22,1.38,2.56,2.18c-.69-.03-1.34-.07-1.92-.11-.64-.04-1.18-.08-1.58-.12-.2-.02-.36-.04-.47-.06-.06,0-.1-.02-.12-.02h0s-.06-.03-.1-.04c-.08-.38-.15-.87-.15-1.32,0-.36.05-.69.16-.9.28-.58,2.5-3.72,4.01-7.3.82.92,1.65,1.84,2.41,2.66-.02.03-.04.07-.04.11.11,4.73,2.25,6.58,3.54,7.27-.25,0-.48,0-.7,0ZM85.84,74.73s-.04-.01-.06-.02c0-.02-3.78-.68-4.1-6.84,1.31,1.4,2.28,2.41,2.28,2.41.04.04.1.07.16.07s.11-.02.16-.07c.09-.09.09-.23,0-.32,0,0-2.73-2.83-5.2-5.62-.02-.02-.05-.02-.08-.04.72-1.79,1.24-3.66,1.25-5.36,0-.16,0-.32-.02-.48.78-.48,1.74-.57,2.32-.57.31,0,.5.02.5.02.13.01.24-.07.26-.2.02-.12-.07-.24-.19-.26h0s-.22-.03-.55-.03c-.65,0-1.78.09-2.72.74-.29.2-.57.46-.8.77-.76,1.08-4.11,3.87-6.3,5.64-.73.59-1.34,1.07-1.69,1.35-.06.05-.13.13-.2.22-.04.03-.1.09-.18.17.36-3.02,1.99-12.89,8.7-20.91.24.04.5.07.75.07.11,0,.22,0,.33-.01l-1.68,6.58c-.03.12.04.25.17.28.12.03.25-.04.28-.16l1.73-6.76h0c.47-.1.94-.3,1.39-.61.61-.43,2.69-1.46,3.32-2.55l1.94-1.57s.4-.37.83-.89c.85,2.21,1.4,5.28,1.88,9.43.17,1.45.24,2.88.24,4.26,0,5.09-.97,9.52-1.65,12.28-.11-2.7-.54-7.31-.54-10.52,0-1.01.04-1.88.15-2.49.19-1.1.26-2.17.26-3.1,0-1.86-.26-3.19-.26-3.2-.02-.12-.14-.21-.27-.18-.13.03-.21.15-.18.27,0,0,.25,1.29.25,3.11,0,.91-.06,1.95-.25,3.02-.11.65-.16,1.54-.16,2.56,0,3.71.57,9.25.57,11.57,0,.32-.01.57-.03.75,0,0,0,.01,0,.02,0,0,0,0,0,0-.15.6-.21,1.25-.21,1.91.03,2.01.56,4.06,1.43,4.94-.84.08-2.39.23-3.81.31Z"/>
            <path class="cls-1" d="M66.08,46.16l-1.9.4c-.12.03-.21.15-.18.27.02.12.14.21.27.18l.66-.13.18.2c.04.05.11.08.17.08.06,0,.11-.02.15-.06.09-.08.1-.23.02-.33h0s.73-.15.73-.15c.13-.02.21-.15.18-.27-.02-.12-.15-.21-.27-.18Z"/>
            <polygon class="cls-1" points="53.29 37.45 53.29 37.45 53.29 37.45 53.29 37.45"/>
            <path class="cls-1" d="M50.36,35.51c.07,0,.14-.03.19-.09h0s.2-.26.42-.46c0,0,0,.02.02.03l.08.13c.07.11.21.14.32.07.1-.07.13-.21.06-.32l-.09-.13s-.03-.03-.04-.05c.03-.01.05-.01.07,0h.02c.1.08.24.07.33-.03.08-.1.06-.24-.03-.32-.1-.08-.22-.11-.31-.11-.66.06-1.17.92-1.21.92-.08.1-.05.25.05.32.04.03.08.05.13.05Z"/>
            <path class="cls-1" d="M60.6,25.16c-.02.12.07.24.2.26.01,0,.02,0,.03,0,.11,0,.21-.08.23-.2l.02-.11c.17.04.36.07.55.07.12,0,.23-.1.23-.22s-.09-.23-.22-.23c-.62,0-1.27-.39-1.28-.39-.11-.07-.25-.03-.32.08-.06.11-.03.25.08.31,0,0,.2.13.51.24l-.03.18Z"/>
            <path class="cls-1" d="M44.35,26.82c-.07.11-.04.25.07.32l.37.25-.11.17c-.07.11-.05.25.06.32.11.07.25.04.32-.06l.11-.17.41.27s.08.04.13.04c.07,0,.15-.04.19-.1.07-.11.05-.25-.06-.32l-1.16-.78c-.1-.07-.24-.04-.32.06Z"/>
            <path class="cls-1" d="M61.54,27.51c-.35-.01-.59-.23-.59-.22-.1-.08-.24-.07-.32.03-.08.1-.07.24.03.32.02.01.35.3.86.33.01,0,.01,0,.02,0,.12,0,.22-.09.23-.22,0-.12-.09-.23-.21-.24Z"/>
            <path class="cls-1" d="M51.33,54.13c.12.03.25-.04.28-.16.04-.12-.04-.25-.16-.28-.01,0-.78-.25-.84-.43-.06-.11-.2-.14-.31-.08-.11.06-.15.21-.08.32.08.12.2.23.32.31l-.04.03c-.1.08-.11.23-.03.32.05.06.11.08.18.08.05,0,.1-.02.15-.05l.19-.16c.19.07.33.1.33.11Z"/>
            <path class="cls-1" d="M61.71,26.76c-.13,0-.21-.03-.25-.04-.01-.02-.02-.03-.04-.05-.09-.09-.23-.09-.32,0h0s-.06.09-.06.17c.03.25.24.36.65.38h.01c.12,0,.22-.09.23-.21,0-.13-.08-.23-.21-.25Z"/>
            <path class="cls-1" d="M81.38,38.23c.06,0,.12-.02.16-.07l1.84-1.84c.09-.09.09-.23,0-.33-.09-.09-.24-.09-.32,0l-1.84,1.84c-.09.09-.09.23,0,.32.04.05.1.07.16.07Z"/>
          </g>
          <g>
            <g id="_Ripetizione_radiale_" data-name="&amp;lt;Ripetizione radiale&amp;gt;">
              <rect class="cls-1" x="51.44" y="98.22" width="2.31" height="5.97" transform="translate(105.19 202.42) rotate(180)"/>
            </g>
            <g id="_Ripetizione_radiale_-2" data-name="&amp;lt;Ripetizione radiale&amp;gt;">
              <rect class="cls-1" x="43.75" y="97.62" width="2.31" height="5.97" transform="translate(73.53 207) rotate(-171)"/>
            </g>
            <g id="_Ripetizione_radiale_-3" data-name="&amp;lt;Ripetizione radiale&amp;gt;">
              <rect class="cls-1" x="36.26" y="95.82" width="2.31" height="5.97" transform="translate(42.47 204.33) rotate(-162)"/>
            </g>
            <g id="_Ripetizione_radiale_-4" data-name="&amp;lt;Ripetizione radiale&amp;gt;">
              <rect class="cls-1" x="29.14" y="92.87" width="2.31" height="5.97" transform="translate(13.77 195.02) rotate(-153)"/>
            </g>
            <g id="_Ripetizione_radiale_-5" data-name="&amp;lt;Ripetizione radiale&amp;gt;">
              <rect class="cls-1" x="22.57" y="88.84" width="2.31" height="5.97" transform="translate(-11.06 180.07) rotate(-144)"/>
            </g>
            <g id="_Ripetizione_radiale_-6" data-name="&amp;lt;Ripetizione radiale&amp;gt;">
              <rect class="cls-1" x="16.71" y="83.84" width="2.31" height="5.97" transform="translate(-30.89 160.86) rotate(-135)"/>
            </g>
            <g id="_Ripetizione_radiale_-7" data-name="&amp;lt;Ripetizione radiale&amp;gt;">
              <rect class="cls-1" x="11.7" y="77.98" width="2.31" height="5.97" transform="translate(-45.08 138.96) rotate(-126)"/>
            </g>
            <g id="_Ripetizione_radiale_-8" data-name="&amp;lt;Ripetizione radiale&amp;gt;">
              <rect class="cls-1" x="7.68" y="71.41" width="2.31" height="5.97" transform="translate(-53.44 116.04) rotate(-117)"/>
            </g>
            <g id="_Ripetizione_radiale_-9" data-name="&amp;lt;Ripetizione radiale&amp;gt;">
              <rect class="cls-1" x="4.73" y="64.29" width="2.31" height="5.97" transform="translate(-56.28 93.66) rotate(-108)"/>
            </g>
            <g id="_Ripetizione_radiale_-10" data-name="&amp;lt;Ripetizione radiale&amp;gt;">
              <rect class="cls-1" x="2.93" y="56.79" width="2.31" height="5.97" transform="translate(-54.32 73.17) rotate(-99)"/>
            </g>
            <g id="_Ripetizione_radiale_-11" data-name="&amp;lt;Ripetizione radiale&amp;gt;">
              <rect class="cls-1" x="2.32" y="49.11" width="2.31" height="5.97" transform="translate(-48.62 55.58) rotate(-90)"/>
            </g>
            <g id="_Ripetizione_radiale_-12" data-name="&amp;lt;Ripetizione radiale&amp;gt;">
              <rect class="cls-1" x="2.93" y="41.43" width="2.31" height="5.97" transform="translate(-40.42 41.5) rotate(-81)"/>
            </g>
            <g id="_Ripetizione_radiale_-13" data-name="&amp;lt;Ripetizione radiale&amp;gt;">
              <rect class="cls-1" x="4.73" y="33.93" width="2.31" height="5.97" transform="translate(-31.05 31.11) rotate(-72)"/>
            </g>
            <g id="_Ripetizione_radiale_-14" data-name="&amp;lt;Ripetizione radiale&amp;gt;">
              <rect class="cls-1" x="7.68" y="26.82" width="2.31" height="5.97" transform="translate(-21.73 24.14) rotate(-63)"/>
            </g>
            <g id="_Ripetizione_radiale_-15" data-name="&amp;lt;Ripetizione radiale&amp;gt;">
              <rect class="cls-1" x="11.7" y="20.24" width="2.31" height="5.97" transform="translate(-13.49 19.98) rotate(-54)"/>
            </g>
            <g id="_Ripetizione_radiale_-16" data-name="&amp;lt;Ripetizione radiale&amp;gt;">
              <rect class="cls-1" x="16.71" y="14.38" width="2.31" height="5.97" transform="translate(-7.05 17.72) rotate(-45)"/>
            </g>
            <g id="_Ripetizione_radiale_-17" data-name="&amp;lt;Ripetizione radiale&amp;gt;">
              <rect class="cls-1" x="22.57" y="9.38" width="2.31" height="5.97" transform="translate(-2.74 16.31) rotate(-36)"/>
            </g>
            <g id="_Ripetizione_radiale_-18" data-name="&amp;lt;Ripetizione radiale&amp;gt;">
              <rect class="cls-1" x="29.14" y="5.35" width="2.31" height="5.97" transform="translate(-.48 14.66) rotate(-27)"/>
            </g>
            <g id="_Ripetizione_radiale_-19" data-name="&amp;lt;Ripetizione radiale&amp;gt;">
              <rect class="cls-1" x="36.26" y="2.4" width="2.31" height="5.97" transform="translate(.17 11.83) rotate(-18)"/>
            </g>
            <g id="_Ripetizione_radiale_-20" data-name="&amp;lt;Ripetizione radiale&amp;gt;">
              <rect class="cls-1" x="43.75" y=".61" width="2.31" height="5.97" transform="translate(0 7.07) rotate(-9)"/>
            </g>
            <g id="_Ripetizione_radiale_-21" data-name="&amp;lt;Ripetizione radiale&amp;gt;">
              <rect class="cls-1" x="51.44" width="2.31" height="5.97"/>
            </g>
            <g id="_Ripetizione_radiale_-22" data-name="&amp;lt;Ripetizione radiale&amp;gt;">
              <rect class="cls-1" x="59.12" y=".6" width="2.31" height="5.97" transform="translate(1.3 -9.39) rotate(9)"/>
            </g>
            <g id="_Ripetizione_radiale_-23" data-name="&amp;lt;Ripetizione radiale&amp;gt;">
              <rect class="cls-1" x="66.61" y="2.4" width="2.31" height="5.97" transform="translate(4.98 -20.68) rotate(18)"/>
            </g>
            <g id="_Ripetizione_radiale_-24" data-name="&amp;lt;Ripetizione radiale&amp;gt;">
              <rect class="cls-1" x="73.73" y="5.35" width="2.31" height="5.97" transform="translate(11.95 -33.09) rotate(27)"/>
            </g>
            <g id="_Ripetizione_radiale_-25" data-name="&amp;lt;Ripetizione radiale&amp;gt;">
              <rect class="cls-1" x="80.3" y="9.38" width="2.31" height="5.97" transform="translate(22.83 -45.52) rotate(36)"/>
            </g>
            <g id="_Ripetizione_radiale_-26" data-name="&amp;lt;Ripetizione radiale&amp;gt;">
              <rect class="cls-1" x="86.16" y="14.38" width="2.31" height="5.97" transform="translate(37.86 -56.66) rotate(45)"/>
            </g>
            <g id="_Ripetizione_radiale_-27" data-name="&amp;lt;Ripetizione radiale&amp;gt;">
              <rect class="cls-1" x="91.17" y="20.24" width="2.31" height="5.97" transform="translate(56.85 -65.12) rotate(54)"/>
            </g>
            <g id="_Ripetizione_radiale_-28" data-name="&amp;lt;Ripetizione radiale&amp;gt;">
              <rect class="cls-1" x="95.19" y="26.82" width="2.31" height="5.97" transform="translate(79.16 -69.58) rotate(63)"/>
            </g>
            <g id="_Ripetizione_radiale_-29" data-name="&amp;lt;Ripetizione radiale&amp;gt;">
              <rect class="cls-1" x="98.14" y="33.94" width="2.31" height="5.97" transform="translate(103.73 -68.93) rotate(72)"/>
            </g>
            <g id="_Ripetizione_radiale_-30" data-name="&amp;lt;Ripetizione radiale&amp;gt;">
              <rect class="cls-1" x="99.94" y="41.43" width="2.31" height="5.97" transform="translate(129.15 -62.39) rotate(81)"/>
            </g>
            <g id="_Ripetizione_radiale_-31" data-name="&amp;lt;Ripetizione radiale&amp;gt;">
              <rect class="cls-1" x="100.55" y="49.11" width="2.31" height="5.97" transform="translate(153.8 -49.61) rotate(90)"/>
            </g>
            <g id="_Ripetizione_radiale_-32" data-name="&amp;lt;Ripetizione radiale&amp;gt;">
              <rect class="cls-1" x="99.95" y="56.79" width="2.31" height="5.97" transform="translate(175.96 -30.72) rotate(99)"/>
            </g>
            <g id="_Ripetizione_radiale_-33" data-name="&amp;lt;Ripetizione radiale&amp;gt;">
              <rect class="cls-1" x="98.14" y="64.29" width="2.31" height="5.97" transform="translate(193.97 -6.38) rotate(108)"/>
            </g>
            <g id="_Ripetizione_radiale_-34" data-name="&amp;lt;Ripetizione radiale&amp;gt;">
              <rect class="cls-1" x="95.2" y="71.41" width="2.31" height="5.97" transform="translate(206.38 22.32) rotate(117)"/>
            </g>
            <g id="_Ripetizione_radiale_-35" data-name="&amp;lt;Ripetizione radiale&amp;gt;">
              <rect class="cls-1" x="91.17" y="77.98" width="2.31" height="5.97" transform="translate(212.09 53.86) rotate(126)"/>
            </g>
            <g id="_Ripetizione_radiale_-36" data-name="&amp;lt;Ripetizione radiale&amp;gt;">
              <rect class="cls-1" x="86.17" y="83.84" width="2.31" height="5.97" transform="translate(210.46 86.47) rotate(135)"/>
            </g>
            <g id="_Ripetizione_radiale_-37" data-name="&amp;lt;Ripetizione radiale&amp;gt;">
              <rect class="cls-1" x="80.3" y="88.84" width="2.31" height="5.97" transform="translate(201.34 118.24) rotate(144)"/>
            </g>
            <g id="_Ripetizione_radiale_-38" data-name="&amp;lt;Ripetizione radiale&amp;gt;">
              <rect class="cls-1" x="73.73" y="92.87" width="2.31" height="5.97" transform="translate(185.13 147.27) rotate(153)"/>
            </g>
            <g id="_Ripetizione_radiale_-39" data-name="&amp;lt;Ripetizione radiale&amp;gt;">
              <rect class="cls-1" x="66.61" y="95.82" width="2.31" height="5.97" transform="translate(162.76 171.83) rotate(162)"/>
            </g>
            <g id="_Ripetizione_radiale_-40" data-name="&amp;lt;Ripetizione radiale&amp;gt;">
              <rect class="cls-1" x="59.12" y="97.62" width="2.31" height="5.97" transform="translate(135.55 190.54) rotate(171)"/>
            </g>
          </g>
        </g>
      </g>
      <g>
        <path class="cls-1" d="M323.1,158.16h0c0,.3-.24.54-.54.54H1.04c-.3,0-.54-.24-.54-.54H.5c0-.3.24-.54.54-.54h321.52c.3,0,.54.24.54.54Z"/>
        <g>
          <path class="cls-1" d="M0,170.74c0-.25.2-.47.45-.47h5.55c4.78,0,8.7,3.89,8.7,8.65s-3.92,8.7-8.7,8.7H.45c-.25,0-.45-.22-.45-.47v-16.41ZM5.6,185.91c4.07,0,7.02-2.9,7.02-6.99s-2.95-6.97-7.02-6.97H1.89v13.96h3.72Z"/>
          <path class="cls-1" d="M19.03,170.74c0-.25.22-.47.47-.47h.99c.25,0,.47.22.47.47v16.41c0,.25-.22.47-.47.47h-.99c-.25,0-.47-.22-.47-.47v-16.41Z"/>
          <path class="cls-1" d="M26.52,170.74c0-.25.2-.47.47-.47h5.48c3.05,0,5.55,2.48,5.55,5.48s-2.5,5.58-5.53,5.58h-4.09v5.83c0,.25-.22.47-.47.47h-.94c-.27,0-.47-.22-.47-.47v-16.41ZM32.34,179.49c2.03,0,3.77-1.66,3.77-3.79,0-2.01-1.74-3.55-3.77-3.55h-3.94v7.34h3.94Z"/>
          <path class="cls-1" d="M38.67,186.98l7.54-16.69c.07-.15.2-.27.42-.27h.25c.22,0,.35.12.42.27l7.49,16.69c.15.32-.05.65-.42.65h-.99c-.22,0-.37-.15-.42-.27l-1.83-4.09h-8.8l-1.81,4.09c-.05.12-.2.27-.42.27h-.99c-.37,0-.57-.32-.42-.65ZM50.45,181.72c-1.21-2.7-2.4-5.43-3.62-8.13h-.2l-3.62,8.13h7.44Z"/>
          <path class="cls-1" d="M58,170.74c0-.25.2-.47.47-.47h6.42c2.98,0,5.41,2.33,5.41,5.28,0,2.28-1.51,4.19-3.67,5.06l3.4,6.3c.17.32,0,.72-.42.72h-1.26c-.22,0-.35-.12-.4-.22l-3.3-6.57h-4.74v6.32c0,.25-.22.47-.47.47h-.97c-.27,0-.47-.22-.47-.47v-16.41ZM64.77,179.19c1.91,0,3.57-1.59,3.57-3.62,0-1.89-1.66-3.5-3.57-3.5h-4.81v7.12h4.81Z"/>
          <path class="cls-1" d="M77.34,171.93h-4.31c-.27,0-.47-.22-.47-.47v-.72c0-.25.2-.47.47-.47h10.51c.27,0,.47.22.47.47v.72c0,.25-.2.47-.47.47h-4.31v15.22c0,.25-.22.47-.47.47h-.94c-.25,0-.47-.22-.47-.47v-15.22Z"/>
          <path class="cls-1" d="M87.24,170.74c0-.25.22-.47.47-.47h.99c.25,0,.47.22.47.47v16.41c0,.25-.22.47-.47.47h-.99c-.25,0-.47-.22-.47-.47v-16.41Z"/>
          <path class="cls-1" d="M96.69,170.36c.05-.2.25-.35.45-.35h.4c.17,0,.37.12.42.27l4.91,13.66h.12l4.83-13.66c.05-.15.25-.27.42-.27h.4c.2,0,.4.15.44.35l3.2,16.66c.07.35-.07.6-.45.6h-.99c-.2,0-.4-.17-.45-.35l-2.21-12.77h-.1l-4.56,13.09c-.05.15-.27.27-.42.27h-.45c-.15,0-.37-.12-.42-.27l-4.61-13.09h-.1l-2.16,12.77c-.02.17-.25.35-.45.35h-.99c-.37,0-.52-.25-.44-.6l3.2-16.66Z"/>
          <path class="cls-1" d="M116.61,170.74c0-.25.2-.47.47-.47h9.77c.27,0,.47.22.47.47v.72c0,.25-.2.47-.47.47h-8.33v6.05h7.12c.25,0,.47.22.47.47v.72c0,.27-.22.47-.47.47h-7.12v6.32h8.33c.27,0,.47.22.47.47v.72c0,.25-.2.47-.47.47h-9.77c-.27,0-.47-.22-.47-.47v-16.41Z"/>
          <path class="cls-1" d="M131.8,170.46c0-.25.22-.45.47-.45h.62l11.18,13.93h.05v-13.22c0-.25.2-.47.47-.47h.87c.25,0,.47.22.47.47v16.69c0,.25-.22.45-.47.45h-.45l-11.38-14.21h-.02v13.49c0,.25-.2.47-.47.47h-.87c-.25,0-.47-.22-.47-.47v-16.69Z"/>
          <path class="cls-1" d="M153.94,171.93h-4.31c-.27,0-.47-.22-.47-.47v-.72c0-.25.2-.47.47-.47h10.51c.27,0,.47.22.47.47v.72c0,.25-.2.47-.47.47h-4.31v15.22c0,.25-.22.47-.47.47h-.94c-.25,0-.47-.22-.47-.47v-15.22Z"/>
          <path class="cls-1" d="M171.18,170.02c4.96,0,8.93,3.99,8.93,8.95s-3.97,8.9-8.93,8.9-8.9-3.94-8.9-8.9,3.94-8.95,8.9-8.95ZM171.18,186.13c3.94,0,7.19-3.22,7.19-7.16s-3.25-7.21-7.19-7.21-7.17,3.27-7.17,7.21,3.22,7.16,7.17,7.16Z"/>
          <path class="cls-1" d="M190.41,170.74c0-.25.2-.47.45-.47h5.55c4.79,0,8.7,3.89,8.7,8.65s-3.92,8.7-8.7,8.7h-5.55c-.25,0-.45-.22-.45-.47v-16.41ZM196.01,185.91c4.07,0,7.01-2.9,7.01-6.99s-2.95-6.97-7.01-6.97h-3.72v13.96h3.72Z"/>
          <path class="cls-1" d="M209.44,170.74c0-.25.23-.47.47-.47h.99c.25,0,.47.22.47.47v16.41c0,.25-.22.47-.47.47h-.99c-.25,0-.47-.22-.47-.47v-16.41Z"/>
          <path class="cls-1" d="M222.93,170.74c0-.25.2-.47.44-.47h5.55c4.79,0,8.71,3.89,8.71,8.65s-3.92,8.7-8.71,8.7h-5.55c-.24,0-.44-.22-.44-.47v-16.41ZM228.54,185.91c4.06,0,7.01-2.9,7.01-6.99s-2.95-6.97-7.01-6.97h-3.72v13.96h3.72Z"/>
          <path class="cls-1" d="M241.96,170.74c0-.25.2-.47.47-.47h9.77c.27,0,.47.22.47.47v.72c0,.25-.2.47-.47.47h-8.33v6.05h7.11c.25,0,.47.22.47.47v.72c0,.27-.23.47-.47.47h-7.11v6.32h8.33c.27,0,.47.22.47.47v.72c0,.25-.2.47-.47.47h-9.77c-.27,0-.47-.22-.47-.47v-16.41Z"/>
          <path class="cls-1" d="M256.02,185.02c.13-.15.25-.32.37-.47.25-.32.52-.52.87-.22.18.15,1.99,1.89,4.19,1.89,2.01,0,3.32-1.27,3.32-2.73,0-1.71-1.49-2.73-4.34-3.92-2.73-1.19-4.36-2.31-4.36-5.13,0-1.69,1.33-4.41,5.28-4.41,2.43,0,4.24,1.26,4.24,1.26.15.07.44.37.15.84-.1.15-.2.32-.3.47-.23.35-.47.44-.87.22-.18-.1-1.74-1.14-3.25-1.14-2.63,0-3.43,1.69-3.43,2.73,0,1.66,1.27,2.63,3.35,3.5,3.35,1.36,5.51,2.63,5.51,5.5,0,2.58-2.45,4.46-5.35,4.46s-4.91-1.71-5.23-2.01c-.2-.17-.44-.37-.15-.84Z"/>
          <path class="cls-1" d="M270.86,170.74c0-.25.23-.47.47-.47h.99c.24,0,.47.22.47.47v16.41c0,.25-.23.47-.47.47h-.99c-.24,0-.47-.22-.47-.47v-16.41Z"/>
          <path class="cls-1" d="M286.04,170.02c2.5,0,4.31.87,6,2.31.2.2.23.49.03.69-.22.22-.5.47-.7.7-.22.25-.37.22-.65-.03-1.26-1.12-3.05-1.93-4.71-1.93-3.92,0-6.89,3.27-6.89,7.12s2.98,7.16,6.89,7.16c2.73,0,4.46-1.04,4.46-1.04v-3.47h-2.85c-.27,0-.47-.2-.47-.45v-.92c0-.27.2-.47.47-.47h4.29c.24,0,.44.22.44.47v5.68c0,.12-.1.32-.2.4,0,0-2.53,1.64-6.12,1.64-4.96,0-8.95-3.94-8.95-8.9s3.99-8.95,8.95-8.95Z"/>
          <path class="cls-1" d="M297,170.46c0-.25.23-.45.47-.45h.62l11.18,13.93h.05v-13.22c0-.25.2-.47.47-.47h.87c.25,0,.47.22.47.47v16.69c0,.25-.22.45-.47.45h-.44l-11.38-14.21h-.02v13.49c0,.25-.2.47-.47.47h-.87c-.24,0-.47-.22-.47-.47v-16.69Z"/>
        </g>
      </g>
    </g>
  </g>
</svg>