<?xml version="1.0" encoding="UTF-8"?>
<svg id="Livello_2" data-name="Livello 2" xmlns="http://www.w3.org/2000/svg" viewBox="0 0 515.2 252.66">
  <defs>
    <style>
      .cls-1, .cls-2 {
        fill: #231f20;
      }

      .cls-2 {
        fill-rule: evenodd;
      }
    </style>
  </defs>
  <g>
    <g>
      <path class="cls-1" d="M334.28,120.23v-2.07c-3.5,0-4.93.17-7.31.17-2.53,0-4.2-.17-7.31-.17l-16.44,39.97-16.61-39.97c-3.09,0-4.28.17-7.48.17s-4.67-.17-7.46-.17v2.07l3.35.08c2.93.08,3.34.24,3.34,2.07v48.94h2.53v-46.55l18.2,43.69h2.39l18.18-43.69v38.44c0,6.99,2.22,8.83,7.08,8.83h.87v-49.65c0-1.98.64-1.98,3.34-2.07l3.33-.08Z"/>
      <path class="cls-1" d="M352.59,171.92v-36.08c0-.64-.15-.79-.96-.79-.72,0-6.66.47-11.97.47v1.9l4.53.08c.94,0,1.19.39,1.19,1.35v25.44c0,4.52,1.65,7.61,5.87,7.61h1.35Z"/>
      <path class="cls-1" d="M467.43,171.99v-27.36c0-6.03-4.76-10.47-11.82-10.47-5.79,0-10,3.02-12.07,7.85v-6.1c0-.66-.16-.8-.95-.8-.71,0-6.65.49-11.96.49v1.9l4.53.08c.95,0,1.18.38,1.18,1.34v32.35h7.21v-21.89c0-6.17,4.13-12.05,9.85-12.05,4.04,0,6.82,2.46,6.82,8.24v18.8c0,4.53,1.67,7.61,5.87,7.61h1.35Z"/>
      <path class="cls-1" d="M377.25,164.3v-45.74c0-.65-.15-.8-.95-.8-.72,0-6.67.48-11.98.48v1.89l4.53.08c.96,0,1.19.4,1.19,1.35v50.35h1.35c4.19,0,5.87-3.09,5.87-7.61"/>
      <path class="cls-2" d="M412.48,158.99c0,5.24-3.27,11.02-8.26,11.02-4.51,0-7.06-2.13-7.06-7.77s4.28-9.52,12.38-9.91l1.73-.08c1.12-.08,1.2.08,1.2,1.18v5.56ZM420.01,171.92c0-1.75-.46-5.48-.46-7.61v-20.93c0-5.95-5.64-9.28-12.64-9.28-9.19,0-14.89,5.15-14.89,7.46s1.35,3,3.17,3c5.23,0,3.24-8.41,10.77-8.41,4.13,0,6.52,2.15,6.52,6.27v6.66c0,1.1-.08,1.19-1.2,1.19l-2.22.08c-11.16.39-19.75,5.31-19.75,11.96s4.54,9.83,14.15,9.83c4.97,0,8.3-3.49,9.11-6.43.39,4.76,2.77,6.19,6.25,6.19h1.2Z"/>
      <path class="cls-2" d="M507.03,152.65c0,10.87-1.75,17.37-10,17.37s-9.99-6.5-9.99-17.37c0-9.05,1.58-16.42,9.99-16.42s10,7.36,10,16.42M515.2,152.65c0-9.83-7.45-18.55-18.17-18.55s-18.15,8.72-18.15,18.55c0,11.11,7.28,19.5,18.15,19.5s18.17-8.4,18.17-19.5"/>
      <path class="cls-2" d="M499.43,93.29c0,4.62-1.54,7.82-4.62,7.82-3.63,0-4.63-3.31-4.63-7.82,0-4.15.84-7.38,4.63-7.38,3.44,0,4.62,3.67,4.62,7.38M502.73,102.2v-24.66c0-.28-.07-.37-.44-.37-.32,0-3.1.22-5.55.22v.89l2.1.04c.44,0,.55.18.55.62v8.72c-.46-1.27-2.02-2.96-4.81-2.96-4.66,0-8.17,4.07-8.17,8.59,0,5.17,2.8,9.02,7.92,9.02,2.64,0,4.42-1.31,5.24-3.67,0,2.21.74,3.57,2.72,3.57h.44Z"/>
      <path class="cls-2" d="M513,102.2v-16.69c0-.3-.08-.37-.44-.37-.33,0-3.09.21-5.54.21v.88l2.08.04c.44,0,.57.19.57.63v11.78c0,2.08.76,3.52,2.72,3.52h.61Z"/>
      <path class="cls-1" d="M300.24,97.71v-2.59c-2.58,3.46-6.84,6.11-11.84,6.11-7.43,0-9.97-4.86-9.97-17.35,0-10.61,2.48-16.41,10.35-16.41,5.82,0,9.63,3.33,10.06,8.39h1.4c0-1.12-.11-2.74-.11-3.97,0-1.42.11-2.71.11-4-1.22,0-5.9-2.03-11.46-2.03-8.67,0-16.37,6.5-16.37,18.03,0,12.92,6.94,19.17,15.99,19.17,4.7,0,9.05-1.88,11.84-5.33"/>
      <path class="cls-2" d="M325.48,89.79c0,7.38-1.18,11.79-6.79,11.79s-6.77-4.42-6.77-11.79c0-6.14,1.07-11.14,6.77-11.14s6.79,5,6.79,11.14M331.02,89.79c0-6.69-5.04-12.6-12.33-12.6s-12.33,5.91-12.33,12.6c0,7.54,4.96,13.24,12.33,13.24s12.33-5.7,12.33-13.24"/>
      <path class="cls-1" d="M376.39,102.9v-18.6c0-4.07-3.07-7.1-7.71-7.1-3.81,0-6.71,2.37-7.97,5.33-.43-1.84-2.42-5.33-7.59-5.33-3.62,0-6.46,2.04-7.86,5.33v-4.15c0-.44-.12-.55-.64-.55-.5,0-4.52.33-8.13.33v1.29l3.06.05c.65,0,.81.27.81.91v21.99h4.91v-14.88c0-4.19,2.96-8.18,6.35-8.18,2.7,0,4.31,1.68,4.31,5.59v12.77c0,3.08,1.13,5.19,3.98,5.19h.93v-15.37c0-4.13,2.9-8.18,6.36-8.18,2.68,0,4.29,1.68,4.29,5.59v12.77c0,3.08,1.15,5.19,4,5.19h.92Z"/>
      <path class="cls-1" d="M408.23,102.9v-24.73h-4.9v14.54c0,4.2-2.7,8.18-6.53,8.18-2.67,0-4.45-1.67-4.45-5.61v-16.9c0-.44-.12-.55-.65-.55-.49,0-4.53.33-8.15.33v1.29l3.1.05c.63,0,.79.27.79.91v15.51c0,4.09,3.12,7.1,7.86,7.1,3.88,0,6.63-2.03,8.03-5.33,0,3.08,1.13,5.19,3.99,5.19h.91Z"/>
      <path class="cls-1" d="M440.37,102.9v-18.6c0-4.07-3.22-7.1-8.01-7.1-3.94,0-6.79,2.04-8.21,5.33v-4.15c0-.44-.11-.55-.64-.55-.48,0-4.53.33-8.14.33v1.29l3.08.05c.64,0,.81.27.81.91v21.99h4.89v-14.88c0-4.19,2.81-8.18,6.69-8.18,2.74,0,4.62,1.68,4.62,5.59v12.77c0,3.08,1.14,5.19,3.99,5.19h.91Z"/>
      <path class="cls-2" d="M465.91,87.92c0,.81,0,.9-.81.9h-9.58q-.81,0-.81-.8c0-5.29,1.77-9.37,5.83-9.37s5.37,4.15,5.37,9.26M471.36,88.99c0-5.82-4.43-11.8-10.82-11.8s-11.38,5.81-11.38,12.6c0,7.64,4.04,13.24,11.75,13.24,5,0,8.06-2.15,9.6-3.98v-2.31c-2.39,3.17-5.56,4.74-9.29,4.74-5.11,0-6.61-4.19-6.61-10.29,0-.82.1-.91.9-.91h15.08c.48,0,.76-.29.76-1.29"/>
    </g>
    <g>
      <polygon class="cls-1" points="169.82 103.37 134.72 103.37 134.72 55.49 107.15 55.49 107.15 103.37 71.45 103.37 71.45 130.93 107.15 130.93 107.15 182.19 120.93 187.06 134.72 182.19 134.72 130.93 169.82 130.93 169.82 103.37"/>
      <path class="cls-1" d="M50.43,42.46c3.82,5.9,2.39,14.89-1.34,20.38-1.63,2.27-3.33,4.63-5.6,6.3-3.79,3.72-8.11,7.43-10.11,12.4-.05.04-.19.14-.27.04l-.09-.12c1.11-4.56,2.45-9.02,4.37-13.23,1.88-5.15,5.64-9.01,8.15-13.65.36-.97.91-2.01.59-3.11-.14-.18-.37-.18-.59-.18-1.91,1.25-3.2,3.48-4.63,5.15-2.21,3.24-4.57,6.53-6.27,10.11l.05.19-.19.05c-1.89,3.94-3.5,8.08-4.66,12.33-.13.19.08.66-.24.66-.37-3.58-2.08-6.6-2.54-10.12,1.71-7.9,5.58-15.55,12.39-20.16,3.09-2.32,6.22-5.42,7.79-8.85.29-.38.83-.38,1.29-.33.92.46,1.33,1.35,1.9,2.14"/>
      <path class="cls-1" d="M24.93,56.8c.43.65-.14,1.34-.08,2.05-2.36,6.48-1.21,14.37.96,20.61,1.21,4.63,1.42,10.16.37,14.93-.13.14-.37-.05-.42-.23-.4-.79-.97-1.49-1.29-2.36-2.99-4.83-5.21-10.02-5.9-15.83-.33-2.51.43-4.98-.05-7.38-.03-.24-.22-.46-.41-.59-.82-.15-.91.83-1.35,1.28-2.99,8.73.98,17.28,5.1,24.33.95,1.8,2.05,3.53,2.72,5.51,2.34,5.39,4,11.42,3.28,17.83,0,1.21-.47,2.28-.76,3.38h-.07c-1.07-2.33-2.45-4.77-4.67-6.17l-1.02-.42c-.19-3.08-.94-5.84-1.75-8.62-1.58-6.13-5.42-10.95-7.44-16.89-.21-.09-.21-.29-.21-.51-1.69-4.51-2.52-9.75-1.56-14.86,1.3-6.53,5.1-12.29,10.95-15.77,1.02-.33,2.68-1.63,3.6-.28"/>
      <path class="cls-1" d="M53.75,69.66c2.59,7.71.33,16.15-3.92,22.28-3.18,5.16-8.78,8.16-12.84,12.61-2.08,2.13-4.1,4.23-5.5,6.72-.27-.22-.05-.88-.18-1.34-.06-2.04-.65-3.86-1.06-5.75.59-.56.87-1.26,1.33-1.85,4.12-5.54,10.44-8.87,13.99-14.73,1.66-2.54,3.19-5.08,3.66-8.15-.14-.47.08-1.08-.46-1.31-.97.05-1.44,1.06-1.98,1.71-2.6,5.29-6.84,9.66-11.24,13.38-2.4,2.31-4.85,4.39-6.5,7.28h-.14c-.14-.88.14-1.8.09-2.7,1.38-10.06,8.48-18.28,16.15-23.93,2.22-2,4.16-4.23,5.08-7.02.23-.28.41-.6.83-.55,1.62.18,2.08,2.03,2.67,3.34"/>
      <path class="cls-1" d="M9.75,91.18c.31.48.5,1.13.5,1.67.38,5.02,1.9,9.56,3.69,13.93.18.26.32.55.42.88,2.26,4.55,5.32,8.58,6.94,13.41.5,1.16.77,2.36,1.19,3.53.6,2.37,1.43,4.68,1.43,7.25h-.13c-3.46-4.1-8.21-7.07-10.76-11.66-2.26-3.52-3.78-7.55-4.48-11.84-.33-1.29-.26-2.67-.74-3.9-.18-.36-.43-.69-.78-.92-.88.18-.83,1.29-1.06,2-.5,3.75.4,7.42,1.32,10.87.43.69.52,1.52.92,2.26,2,5.11,5.96,9.2,9.99,12.9,2.67,2.52,5.12,5.38,7.2,8.55-1.29,2.46-2.26,5.05-3.09,7.7l-.09.09c-.97-1.66-2.04-3.33-3.13-4.92-3.34-5.06-7.57-8.4-11.61-12.93C2.78,124.51.05,117.36,0,109.46c.13-6.81,2.67-12.94,7.16-17.58.59-.74,1.74-1.43,2.59-.7"/>
      <path class="cls-1" d="M51.35,100.43c.79.97-.04,2.18-.27,3.21-1.98,5.1-.83,11.4-2.82,16.51-2.21,7.48-7.39,12.91-11.74,19.22-.32.84-1.05,1.57-1.47,2.49-2.09,4.1-3.8,8.42-3.93,13.39l-.1.04c-1.42-1.87-3.23-4.03-5.76-4.49-.19-.3.05-.57.1-.88,1.84-6.17,4.8-11.76,8.72-16.76,4.76-5.99,9.64-12.39,10.67-20.43.05-.83.19-1.85-.56-2.32-1.06.24-1.43,1.48-1.79,2.36-.83,2.71-2.08,5.16-3.33,7.66-1.29,1.91-2.35,3.94-3.78,5.81-2.32,3.39-5.37,6.44-7.58,9.93-.05.05-.25.19-.25,0-.77-12.72,5.74-23.5,14.56-31.19,2.08-1.76,4.29-3.24,6.75-4.5.77-.22,1.79-.59,2.58-.05"/>
      <path class="cls-1" d="M7.53,135.05c2.85,6.54,7.95,11.97,13.56,16.01,5,4.36,9.61,9.42,11.87,15.63-.2.18-.5-.1-.74-.13-8.53-3.95-17.27-8.87-21.84-17.5-.59-.83-.91-1.81-2.03-2.01-.59.38-.4,1.26-.31,1.88,1.29,5.42,5.16,9.21,9.42,12.66,5.77,4.86,13.34,6.64,19.35,11.28,3.75,2.73,7.25,6.13,9.47,10.25,0,.19-.29.19-.38.14-.96-.56-2.13-.88-3.19-1.16-1.56-.29-3.22-.38-4.66.22l-.22-.06c-2.51-2.78-5.87-5.13-9.19-7-1.6-.97-3.31-1.85-5.07-2.55-3.42-1.71-7.03-3.37-9.93-5.89-7.95-6.35-12.71-16.53-10.3-27.19.33-1.96.85-3.96,2.07-5.38.32-.33.7-.38,1.16-.28.47.22.7.7.97,1.07"/>
      <path class="cls-1" d="M50.52,135.05c3.05,8.03,1.2,17.91-2.4,25.1-1.94,4.66-3.98,9.47-3.28,14.94-.65-.32-1.07-.96-1.68-1.46-1.33-1.08-2.72-2.34-4.19-3.36.3-.51.19-1.2.37-1.76.43-1.67.79-3.39,1.53-4.92.08-.84.59-1.44.82-2.23,1.13-2.68,2.6-5.24,3.61-7.98,1.2-3.34,2.62-7.01,1.74-10.77-.09-.18-.21-.31-.4-.4-.69-.16-.88.7-1.21,1.12-.91,3.28-1.94,6.48-3.41,9.55-2.11,4.36-4.71,8.54-5.5,13.51-.18,0-.18-.28-.27-.42-.87-2.65-1.34-5.42-1.44-8.35-.13-6.32,2.64-11.52,6.09-16.09,2.12-3.06,4.31-6.51,4.99-10.42.19-.36.51-.65.94-.79,2.12.46,2.95,2.93,3.68,4.74"/>
      <path class="cls-1" d="M19.87,174.91c4.04,4.31,9.83,6.78,15.14,9.13,1.92.7,3.73,1.69,5.55,2.61.55.14.95.51,1.41.74,2.58,1.52,5.04,3.34,7.44,5.48.42.57,1.1,1.07,1.42,1.71-1.75-.18-3.55-.5-5.37-.54-.39-.1-.87,0-1.22-.19-6.76-.87-12.84-3.75-17.69-8.22-.7-.41-1.34-1.06-2.23-.88-.55.84.28,1.63.56,2.37,4.56,5.99,11.83,8.92,19.22,10.07,4.16.46,8.17,1.21,12.01,2.42.31.18.17.55.31.83.65,2.32,1.72,4.55,2.78,6.68-.33.15-.65-.04-.92-.27-5.17-1.9-10.7-3.02-16.33-3.9-2.33-.46-4.55-1.07-6.7-1.87-6.52-2.59-11.83-7.1-15.37-13.17-1.72-3.07-2.76-6.54-3.15-10.22-.11-1.38-.24-3.15.96-3.9,1.02-.42,1.62.61,2.19,1.12"/>
      <path class="cls-1" d="M56.34,159.46c.61,1.34.45,3,.83,4.45,1.07,4.6,4.11,8.4,4.94,13.09,1.57,6.95,1.85,14.34,3.75,21.11,1.05,3.71,2.8,7.29,4.94,10.36-1.63-.38-3.29-1.02-5.09-.84-.69.04-1.34.22-1.94.43-4.99-7.05-5.72-16.2-6.38-25.2-.42-3.72-1.11-7.34-1.98-10.87-.24-.59-.46-1.33-1.02-1.71-.82-.09-.72.79-1.04,1.26-.52,4.5,1.01,8.59,1.11,13.04.37,3.29.18,6.68.69,9.93-.19-.09-.32-.27-.42-.48-.7-.69-1.2-1.38-1.65-2.08-3.62-5.38-5.64-11.83-4.81-18.89.36-2.7,1.06-5.2,1.94-7.61.24-.19.24-.48.32-.75,1.12-1.95,2.08-3.9,3.87-5.35.51-.36,1.62-.59,1.95.11"/>
      <path class="cls-1" d="M49.23,208.42c4.39,1.63,9.23,2.36,14.17,2.5,5.21.75,10.45,2.09,14.51,5.15l-.17.14c-7.7-.59-15.97,1.45-22.94-1.49-.64-.19-1.43-.61-2.09-.19-.08.14-.21.27-.18.46.8,1.26,2.13,1.74,3.33,2.42,4.72,1.95,10.31,2.01,15.61,1.71,8.02-.23,15.65,1.21,22.44,4.5v.11c-3.37.69-6.56,1.65-9.61,3-4.08-1.02-8.53-1.39-12.92-1.29-.74-.06-1.52.14-2.32,0-1.79.04-3.5-.33-5.26-.42-1.75-.32-3.55-.75-5.23-1.35-6.74-2.27-12.64-7.37-15.46-14-.31-.89-.59-1.96-.28-2.93.15-.32.46-.46.74-.61,2.08.33,3.69,1.52,5.64,2.28"/>
      <path class="cls-1" d="M71.17,186.66c6.78,1.48,11.88,7.15,14.68,13.12,4.06,7.84,8.97,16.25,16.56,20.98.52.19.81.43,1.2.7-.13.29-.63.37-1.03.37-7.67.97-13.41-4.79-16.59-10.54-1.98-3.67-3.54-7.56-5.74-11.08-1.33-1.85-2.63-4.28-4.79-5.44-.32,0-.46.19-.59.43-.09,1.11.64,1.98,1.01,2.91,3.74,5.3,4.98,12.02,9.1,17.08,0,.09,0,.19-.11.24-5.72-1.86-10.24-6.13-12.37-11.88-2.03-5.03-2.3-10.76-5.16-15.36-.09-.46-.29-1.08.18-1.45.96-.74,2.36-.37,3.52-.18l.14.09Z"/>
      <path class="cls-1" d="M193.01,186.54c.04-.94.04-2.01,0-2.93.45.05.96-.08,1.3-.51,2.4-3.09.77-7.79,2.72-11.03.36-.94,1.29-1.64,2.35-1.65,1.45.38,2.46,1.89,3.09,3.12.25.65.61,1.44,1.29,1.58.11-.08.28-.08.39,0,2.27-1.22,2.68-3.87,3.47-6.06.45-1.77,1.01-3.49,1.88-5.12.65-1.03,1.39-1.91,2.54-2.24.2-.23.52.06.69-.04,1.2.4,1.67,1.71,1.71,2.87.11.37.42.76.75.92,1.39.23,2.11-1.07,2.95-1.87,1.72-3.03,3.98-6.16,7.59-6.95,1.06-.05,2.21.21,2.67,1.16,1.52,2.84-.24,5.87-1.07,8.52-.14.64-.29,1.63.24,2.19.83.27,1.8.04,2.69.32.61.23,1.14.89,1.14,1.57-.31,3.09-3.23,4.95-5.44,6.45-1.76,1.16-3.84,1.91-5.05,3.87-.04.27,0,.55,0,.84.34.45.9.37,1.29.56.97.08,1.91.63,2.18,1.57.21,1.87-1.63,2.75-2.68,3.68-2.51,1.35-5.31,2.07-8.03,2.9-1.31.62-2.64,1.13-3.55,2.33-.1.28-.29.71,0,.98.77.88,2.25.32,3.23.88.96.22,2.11.87,2.22,2.04-.25,2.15-2.51,3.09-4.26,3.79-.27.08-.55.13-.83.27-.69.23-1.44.38-2.16.46-1.34.28-2.87.33-4.26.2.97-2.62.84-6.2-1.14-8.15l-1.26-.97c2.96-2.52,5.72-5.23,8.47-7.89,0-.23.36-.37.51-.56,1.52-1.72,3.08-3.45,4.56-5.12.7-.71,1.15-1.5,1.7-2.15.99-1.18,1.77-2.47,2.7-3.78,0-.19.17-.38.27-.47.96-1.44,1.84-2.97,2.21-4.69-.04-.19.05-.47-.13-.65-.13-.2-.38-.3-.61-.2-1.07.48-1.85,1.56-2.53,2.44-6.44,8.35-14.29,15.25-22.13,22.07-.46.08-.97.19-1.44.33-.97,0-1.65.55-2.54.69-.59-1.44-.22-3.3.2-4.74l.13-.84Z"/>
      <path class="cls-1" d="M206.62,102.83c1.64-.62,4.57,1.93,4.76-1.13-.55-3.72-3.74-6.2-4.85-9.55-.58-1.21-.97-2.73-.64-4.08.08-.46.46-.82.82-1.1.59-.44,2.21-.1,2.54.07.78.37,1.52.43,1.81.24.37-.24.51-.67.45-1.12-.45-1.91-1.84-3.17-2.72-4.87-.83-1.94-2.12-4.2-.96-6.34.19-.33.42-.48.77-.57.75-.2,1.37-.16,1.99.12.79.34,1.88.99,2.82-.53,1.53-2.5-.14-5.82.37-8.77.29-1.63.93-3.58,2.59-4.18.64-.24,1.38.05,1.89.32,3.01,1.79,3.34,5.58,5.55,8.09.32.37.83.69,1.34.75,1.06-.56,1.66-1.88,2.99-1.97.74-.08,1.44.51,1.81,1.15,1.95,4.62-.83,9.18-.51,13.93.14.59.28,1.26.89,1.59.64.26,1.09-.2,1.57-.52.64-.89,1.66-1.59,2.9-1.56.66.19.97.67,1.2,1.27.65,4.32-2.4,7.48-3.82,11.16-.16.75-.46,1.74.03,2.39.37.37.99.46,1.48.22.88-.43,2.03-.94,3-.24,1.12,1.02.56,2.87.1,4.1-.42.97-.93,1.9-1.52,2.74-1.9-1.16-4.86-.97-6.58.39-3.18,2.38-4.56,6.01-4.88,9.78-.82-.46-1.76-.78-2.67-.97.51-3.03.78-6.24,1.29-9.35-.08-.14-.08-.27,0-.44.18-2.69.4-5.7.45-8.5,0-5.9-.36-12.15-1.52-17.88-.65-1.48-.65-3.44-2.22-4.34-.56.09-.59.67-.74,1.09-.14,1.87.55,5.94.55,5.94.78,7.23.47,14.99-.38,22.07-.32,1.69-.4,3.54-.77,5.26-.98,6.49-2.26,12.76-3.61,19.1-.05.04-.13.09-.23.09-.78-.51-1.84-.65-2.8-.8-.11-.55-.07-1.2-.16-1.8-.5-4.61-1.53-9.04-3.9-12.79-.99-2.01-1.94-4.1-1.78-6.56.13-.75.51-1.69,1.28-1.91"/>
      <path class="cls-1" d="M217.27,134.63c-.19-.12.07-.27.02-.45.14-1.4-.18-2.62-.42-3.87.61.24,1.34.84,2.09.42.31-.24.47-.6.5-.99.38-.93,0-2-.14-2.93-.63-2.17-1.43-4.37-1.31-6.75.02-1.15.44-2.55,1.69-2.93,1.84-.27,2.67,1.21,3.93,2.23.41.08.87.27,1.3-.05,1.57-1.32,1.84-3.25,2.24-5.18.66-2.54,1.67-5.31,4.03-6.81.88-.29,1.89-.45,2.67.19,2.08,1.58,2.23,4.42,2.38,6.97-.11.32-.11.82-.11,1.21-.04.79.13,1.64.78,2.15.97.31,1.39-.75,2.17-.75.37-.33.94-.24,1.44-.24,1.07.19,1.32,1.29,1.51,2.22,0,4.53-2.99,7.83-5.18,11.37-.21.63-.59,1.5-.11,2.1.81.7,1.88,0,2.71.08.37-.05.74.14,1.07.27.69.47.82,1.32.73,2.15-.27,1.34-1.06,2.58-1.98,3.53-.5.85-1.33,1.41-1.89,2.11-.26.18-.52.48-.78.61-1.38,1.67-3.66,2.65-4.06,4.94,0,.32.24.65.51.75,1.15.17,2.27-.39,3.55-.19.75.18,1.47.36,1.94,1.04.8,2.12-1.19,3.75-2.59,4.95-1.47,1.12-3.14,1.87-4.75,2.6-.13.06-.27-.08-.27-.17-1.34-1.73-3.42-2.38-5.58-2.17-1.58.32-3.16.83-4.35,1.9-.31-1.07-1.05-2.09-2.03-2.69,1.75-2.48,3.59-5.13,5.14-7.6.87-1.18,1.52-2.61,2.35-3.78.96-2.23,2.24-4.24,3.09-6.58.37-1.2.96-2.42,1.31-3.72.78-3.21,1.7-6.7,1.09-10.24-.08-.37-.19-.83-.59-1.07-.75.05-.93.93-1.2,1.45-.56,1.9-.84,3.9-1.54,5.77-1.79,5.54-4.23,10.8-7.33,15.75-.46-1.55-1.81-2.75-3.37-3.02-.56-.09-1.2-.09-1.75,0-.18-.51.31-.88.38-1.4.34-1.02.63-2.11.74-3.22"/>
      <path class="cls-1" d="M187.94,52.7c.74-.47,1.94-.28,2.72-.2.22.06.65.06.92-.08,1.48-.39,1.71-2.35,1.32-3.36-.81-2.08-3.77-4.31-3.35-6.97.22-.83.77-1.53,1.62-1.87,3.36-1.33,7.14,3.2,9.76,4.93,1.12.64,2.13,1.62,3.55,1.32.98-.68,1.01-2.14,2.22-2.51,1.2-.09,2.22.59,2.77,1.57,1.77,3.12,2.18,6.76,2.54,10.43.14,1.39.19,2.8.24,4.19-.69,1.21-1.28,2.6-1.53,4.1-.37,2.14,0,4.33.25,6.33-.62-.05-1.26-.27-2.04-.18-1.44-6.71-4.04-13.18-7.87-18.77-.78-.93-1.67-2.27-2.97-2.36-.32.19-.32.56-.27.84.11.47.13.93.43,1.26.03.41.32.7.4,1.11,3.23,5.87,5.56,12.57,7.01,19.27.05.65-.64.93-.82,1.55-.3.86-.38,1.79-.52,2.67l-.13.11c-2.17-3.22-7.89-3.76-10.04-7.02-.57-.6-.84-1.68-.52-2.54.64-1.18,2.17-.71,3.28-1.03.32-.2.56-.51.56-.89-.56-1.77-2.36-2.85-3.84-3.78-2.59-1.39-5.45-3.28-6.32-6.26-.2-.7,0-1.48.64-1.87"/>
      <path class="cls-1" d="M188.73,72.06c.7-.46,1.52-.24,2.35-.19.33.09.65.24.94.32,2.82,1.3,8.01,5.81,11.14,6.41.55.13,1.02-.2,1.38-.47.38,1.53.94,2.93,1.82,4.23.18.13.27.38.36.56-1.38.32-2.72,1.35-3.31,2.72l-.27.49c-1.4-2.09-3.97-4.19-5.54-4.88-.27-.12-.73.23-.73.48-.06,1.77,1.52,3.1,2.42,4.41,2.79,4.06,5.02,8.94,6.05,13.33-.74.4-1.57.93-2.09,1.72-1.56,2.56-1,6.14.2,8.71.69,1.57,1.78,3.06,2.4,4.69,1.14,2.61,1.79,5.42,2.26,8.24-.05,1.21-.14,2.46,0,3.62-.19.09-.05.32-.23.37-.24-.19-.14-.46-.32-.63-1.66-5.61-10.24-11.18-13.84-15.45-1.76-2.51-3.68-5.25-2.99-8.52.29-.79.97-1.31,1.79-1.31.88-.08,1.89.32,2.82.29.47-.09.88-.29,1.06-.71.38-1.44-.63-2.59-1.33-3.67-1.11-1.5-2.54-2.52-3.82-3.95-.16-.08-.16-.31-.29-.37-1.34-1.54-2.86-2.83-2.27-5.11.51-.99,1.63-.88,2.56-1.03.31-.24.64-.46.72-.88.06-2.75-1.98-4.61-3.08-6.75-.8-1.49-1.5-3.17-1.26-5.07.29-.56.46-1.2,1.11-1.58"/>
      <path class="cls-1" d="M187.16,157.01c.14-1.07.19-2.2.46-3.17.32-1.11.74-2.37,2.03-2.71,1.66-.19,3.04,3.03,4.39.83.64-1.54.11-3.29-.27-4.8-.46-1.66-1.39-3.15-1.76-4.93-.8-1.49-1.01-3.24-1.21-4.98.09-.88.2-1.9.97-2.46.77-.85,1.8.22,2.67-.33.41.06.61-.33.84-.56.56-2.98-1.43-5.25-1.03-8.29.06-1.67.66-3.35,2.04-4.25,1.57-.99,3.99-.07,4.96,1.19,1.21,1.59,2.26,3.35,3.05,5.18,1.16,2.58,1.82,4.92,4.83,2.8.93-.65,1.67-1.69,3-1.63.79.12,1.35.78,1.58,1.57.37,1.83.21,3.81-.38,5.54-.32,1.22-.77,2.39-.82,3.69-.15,1.02,0,1.66.23,2.54.23.3.32.67.69.71.74.04,1.29-.66,2.04-.75.74-.37,1.7-.43,2.48-.06.59.42.75,1.16.75,1.87-.37,3.48-3.65,5.5-5.04,8.54-.13.45-.24.92-.05,1.38.14.28.37.38.65.42.05-.14.18-.08.29,0,.34-.14.82-.08,1.19-.32.98,0,2.13.09,2.64,1.02.64,1.88-.83,3.35-1.89,4.61h-.19c-1.09-1.39-2.76-1.9-4.51-1.76-4.73,1.19-6.19,6.13-7.48,11.12-.32-.52-.99-1.31-1.8-1.78,3.62-11.62,3.38-20.21,1.41-29.66-.46-1.87-.64-3.87-2.11-5.2-.28,0-.55.13-.7.36-.42.88-.15,1.96-.18,2.98,1.58,13.65.68,22-1.88,30.69-.76,0-2,.27-2.75.88-2.65,2.16-3.68,5.59-3.45,9.17-.05,1.13-.21,1.84-.71,2.77-2.14-5.88-5.06-6.5-7.14-5.39,3.28-5.12,2.42-10.5,2.14-16.82"/>
      <path class="cls-1" d="M161.48,192.13c1.02-1.13,2.41-2.64,3.93-1.82,1.46.8.52,2.97,1.94,3.8,1.54.9,2.4-1.95,2.93-3.46.98-2.79,1.27-5.67,2.39-7.67.7-1.26,1.38-2.7,3.12-2.19,1.26.36,1.1,3.42,2.97,3.19,2.55-.31,3.71-7.49,7.42-6.69,1.83.4,3.54,3.6,3.6,7.79.03,2.71-1.08,5.43-.3,7.99.13.18.32.38.32.64-1.01.94-2.16,1.77-3.29,2.61-.32-.75-.77-1.68-1.53-2.23-.45-.42-1.09-.74-1.6-1.06.91-2.05,1.7-4.73,1.45-6.54-.14-.25-.64-.34-.87-.2-1.39,1.03-2.23,4.15-3.68,6.56-4.34.99-6.75,4.62-8.59,8.3-.18-.04-.14-.33-.27-.46-1.11-1.26-2.77-2.1-4.61-1.67-4.63.95-6.98,5.77-9.65,9.79-.71-1.92-2.11-2.21-3.83-2.8,4.06-4.92,4.92-10.25,8.13-13.88"/>
      <path class="cls-1" d="M145.41,216.59c2.16-2.72,3.62-5.78,6.43-7.42.52-.31,1.57-.38,2.15-.06.92.5,1.01,2.87,2.48,2.79,1.96-.13,4.7-3.72,6.06-5.68,1.19-1.78,2.71-3.54,4.88-4,.74-.12,1.44.07,1.82.69.74,1.2-.14,3.16,1.01,4.15,1.2.08,1.92-.84,2.64-1.64.91-.94,1.42-2.34,2.21-3.27.04-.43.37-.79.61-1.16,1.47-2.04,3.12-4.25,5.69-4.81.83-.14,1.6.19,1.97.93.32.54.43,1.29.43,1.96-.2.15.08.29,0,.48.04.4.2.82.59.93.91.27,1.84-.11,2.63-.48,3.37-1.27,5.23-4.53,8.79-5.42,1.37-.48,3.37-.48,4.56.4,1.28.99,1.15,2.98.78,4.37-.22.09-.05.34-.14.48-.88,2.28-2.45,4.29-3.46,6.47.09.33-.14.51-.18.84,0,.69,0,1.39.5,1.85.33.24.83.37,1.15.52.79.32,1.49.78,1.84,1.57.24,1.31-.78,2.29-1.79,2.94-3.79,2.38-8.86,1.5-12.87,3.37-1.12.32-2.64.93-2.86,2.2-.11.56.26.83.59,1.1.74.32,1.75.97,1.85,1.91.04,1.63-1.58,2.33-2.83,2.84-.32.09-.69.19-1.07.33-6.08,1.37-12.73-.63-18.88.44-1.52.25-3.14.49-4.53,1.09-.51.05-.83-.32-1.28-.43-2.4-.87-4.75-1.85-7.34-2.36,1.65-.36,3.36-.74,4.99-1.07.23-.13.59-.1.82-.19,1.2-.51,2.46-.43,3.56-.99.5.05.88-.38,1.33-.32,1.85-.66,3.74-1.22,5.68-1.84,1.53-.64,3.13-1.25,4.76-1.82.19-.22.52-.22.65-.26.37-.16.63-.43,1.06-.44.56-.32,1.25-.56,1.84-.84,2.41-1.16,4.94-2.23,7.16-3.63.69-.28,1.52-.8,2.22-1.21,3.05-2.05,6.37-3.98,8.49-7.14.13-.29.32-.76.05-1.03-.65-.36-1.39.1-2.04.29-3.27,2.24-6.32,4.06-9.73,5.83-1.79.85-3.52,1.68-5.32,2.53-.45.19-.96.32-1.43.52-1.8.84-3.69,1.48-5.55,2.2-1.28.41-2.72.79-4.01,1.21-.88.28-1.71.53-2.58.8-5.53,1.59-13.34,3.48-17.87,4.36-1.55.28-3.14.65-4.72.84-.09-.05,0-.14.04-.21,3.24-1.67,4.88-3.9,6.18-5.51"/>
      <path class="cls-2" d="M110.53,222.93c3.84-1.37,7.25-3.28,10.39-5.83,3.36,3.07,7.71,4.78,11.87,6.39v.09c-3.63,3.55-7.61,6.44-11.91,8.73-.32,0-.4-.24-.69-.32-3.38-1.97-6.97-4.21-9.83-7.07-.51-.32-.97-.88-1.44-1.35.51-.27,1.1-.38,1.62-.64"/>
      <path class="cls-1" d="M85.94,230.48c.32-.27.83-.18,1.2-.46,3.92-1.31,7.89-2.15,11.96-3.05,2-.5,4.02-1.02,5.95-1.64,1.26,1.44,2.53,2.42,3.88,3.59-1.48.69-3.14,1.08-4.71,1.54-5.17,1.68-10.76,2.34-15.88,4.12-3.55,1.27-7.02,2.8-9.56,5.65-1.25,1.16-2.13,2.7-2.8,4.29-1.1-1.54-1.86-3.22-3.02-4.67,2.83-4.74,8.18-7.4,12.98-9.37"/>
      <path class="cls-1" d="M128.7,231.66c.05-.18.23-.27.37-.18,1.02.55,2.21.83,3.28,1.25,3.18,1.21,6.6,1.95,9.99,2.74.86.04,1.66.4,2.58.45,2.22.51,4.61.96,6.7,1.66.4.28.96.18,1.34.56,4.29,1.49,8.3,4.55,10.06,8.78l.14.5c-1.21,1.78-2.17,3.37-3.32,5.18-.33-.26-.2-.83-.39-1.26-1.46-6.56-8.54-9-14.3-10.44-7.29-1.39-14.42-3.28-21.02-6.29,1.62-.8,3.1-1.95,4.57-2.95"/>
      <path class="cls-1" d="M136.13,225.24c5.36,1.84,11.26,2.39,16.62,4.16,4.71,1.44,9.06,3.69,12.7,6.85.94,1.13,2.04,2.14,2.55,3.5-.56.51-.74,1.16-1.19,1.72-.62.88-1.17,1.96-1.83,2.84-.14-.09-.09-.32-.17-.42-1.02-2.39-2.87-4.28-4.81-5.95-.17-.05-.37-.28-.61-.43-6.01-4.03-13.66-4.67-20.74-6.46-2.21-.65-4.43-1.21-6.56-2.09,1.32-1.21,2.72-2.42,4.03-3.73"/>
      <path class="cls-1" d="M81.81,242.14c3.84-3.45,9.06-4.91,14.16-5.94.26-.19.58-.08.9-.24.52-.04,1.07-.23,1.62-.32,1.53-.43,3.19-.65,4.71-1.14,3-.84,5.95-1.77,8.81-2.99,1.48,1.08,2.97,2.23,4.57,3.16-7.05,3.14-14.58,5.24-22.38,6.65-3.6,1.08-7.21,2.48-10.01,5.14-1.61,1.77-2.64,3.87-3.05,6.2h-.11c-1.01-1.67-2.08-3.43-3.09-4.98.59-2.09,2.27-4,3.87-5.54"/>
      <path class="cls-1" d="M106.48,201.42c-.5-.49-4.42-1.79-7.05-1.79,3.78,4.96,9.87,13.02,14.88,17.66,1.49-.7,2.6-1.43,3.83-2.51-4.15-4.17-8.03-8.63-11.65-13.36"/>
      <path class="cls-1" d="M94.29,198.3c-.53-.76-3.81-1.56-6.56-1.56,4.87,7.54,12.42,17.78,18.55,24.05,1.6-.52,3.04-1.1,4.51-1.82-7.66-8.22-11.34-13.19-16.51-20.68"/>
      <path class="cls-1" d="M135.36,201.42c.49-.49,4.42-1.79,7.06-1.79-3.77,4.96-9.87,13.02-14.88,17.66-1.48-.7-2.58-1.43-3.84-2.51,4.16-4.17,8.05-8.63,11.66-13.36"/>
      <path class="cls-1" d="M147.58,198.3c.52-.76,3.8-1.56,6.53-1.56-4.86,7.54-12.44,17.78-18.54,24.05-1.62-.52-3.08-1.1-4.54-1.82,7.66-8.22,11.36-13.19,16.54-20.68"/>
      <path class="cls-2" d="M120.93,185.64c7.84-4.83,17.58-5.42,26.8-6.82,12.26-1.84,21.51-10.18,21.51-23.04V56.69h-96.62v99.08c0,12.86,9.25,21.2,21.52,23.04,9.2,1.4,18.96,1.98,26.79,6.82M120.93,191.21c-.74-.91-1.92-1.76-3.66-2.75-6.69-3.6-17.65-4.46-23.72-5.38-15.01-2.27-25.21-12.76-25.21-27.43V52.42h105.18v103.23c0,14.67-10.23,25.16-25.23,27.43-6.06.92-17.03,1.78-23.71,5.38-1.74,1-2.92,1.84-3.65,2.75"/>
      <rect class="cls-1" x="80.38" y="8.94" width="4.26" height="8.74"/>
      <polygon class="cls-1" points="114.92 0 119.18 0 119.18 4.48 122.66 4.48 122.66 0 126.92 0 126.92 8.75 114.92 8.75 114.92 0"/>
      <polygon class="cls-1" points="88.13 14.49 88.13 4.48 92.41 4.48 92.41 13.22 96.69 19.81 96.69 33.4 92.41 33.4 92.41 21.07 88.13 14.49"/>
      <polygon class="cls-1" points="100.17 8.94 103.66 8.94 103.66 13.22 95.9 13.22 95.9 4.48 100.17 4.48 100.17 8.94"/>
      <polygon class="cls-1" points="107.54 41.17 76.88 41.17 76.88 25.55 72.61 18.96 72.61 8.94 76.88 8.94 76.88 17.69 81.16 24.27 81.16 36.89 107.54 36.89 107.54 41.17"/>
      <rect class="cls-1" x="157.2" y="8.94" width="4.26" height="8.74"/>
      <polygon class="cls-1" points="153.71 14.49 153.71 4.48 149.43 4.48 149.43 13.22 145.17 19.81 145.17 33.4 149.43 33.4 149.43 21.07 153.71 14.49"/>
      <polygon class="cls-1" points="141.67 8.94 138.18 8.94 138.18 13.22 145.94 13.22 145.94 4.48 141.67 4.48 141.67 8.94"/>
      <path class="cls-1" d="M76.88,48.94v-4.3h34.14v-7.75c0-5.48,4.43-9.91,9.91-9.91s9.89,4.43,9.89,9.91v7.75h34.14v4.3h-38.41v-12.04c0-3.1-2.52-5.62-5.62-5.62s-5.64,2.52-5.64,5.62v12.04h-38.4Z"/>
      <polygon class="cls-1" points="134.3 41.17 164.96 41.17 164.96 25.55 169.23 18.96 169.23 8.94 164.96 8.94 164.96 17.69 160.68 24.27 160.68 36.89 134.3 36.89 134.3 41.17"/>
      <path class="cls-1" d="M115.29,24.73v-10l-3.87-5.97V0h-4.26v10.01l3.87,5.98v11.89c1.2-1.32,2.65-2.39,4.26-3.15"/>
      <path class="cls-1" d="M126.55,24.73v-10l3.87-5.97V0h4.3v10.01l-3.9,5.98v11.89c-1.2-1.32-2.64-2.39-4.28-3.15"/>
    </g>
  </g>
  <g>
    <path class="cls-1" d="M293.06,8.63c0,2.38-1.15,4.29-3.46,5.71-2.16,1.32-4.92,1.97-8.26,1.97-.51,0-1.17-.05-2-.15-.83-.1-1.26-.15-1.28-.15v9.33c0,1.79-.29,3.02-.87,3.68-.58.66-1.54.99-2.87.99h-.42V3.67c0-.48-.1-.77-.29-.88-.2-.11-.69-.18-1.47-.21h-1.76v-1.05h12.31c2.86,0,5.24.59,7.14,1.76,2.16,1.29,3.24,3.07,3.24,5.34ZM288.35,8.63c0-1.9-.62-3.39-1.86-4.45-1.12-.98-2.55-1.47-4.26-1.47-.37,0-1.01.01-1.94.04-.93.03-1.48.04-1.64.04-.31,0-.49.02-.53.06-.04.04-.06.23-.06.57v10.84c0,.39.2.6.59.63,1.94.17,2.76.25,2.45.25,2.25,0,4.02-.57,5.31-1.7,1.29-1.13,1.94-2.74,1.94-4.81Z"/>
    <path class="cls-1" d="M320.2,30.01h-.71c-2.58,0-4.34-1.22-5.29-3.66l-2.18-5.59c-.11-.25-.27-.38-.46-.38h-10.96c-.2,0-.35.13-.46.38l-3.57,8.87h-1.26l9.71-24.24c.34-.84.5-1.39.5-1.64,0-.7-.57-1.06-1.72-1.09l-1.77-.04v-1.09h6.93l11.26,28.48ZM311.42,19.17c0-.22-1.75-4.78-5.25-13.65l-5.38,13.65c0,.11.1.17.29.17h10c.22,0,.34-.06.34-.17Z"/>
    <path class="cls-1" d="M345.66,8.34h-1.01c-.17-2.13-.87-3.62-2.1-4.48-1.09-.77-2.84-1.15-5.25-1.15h-.76c-.31,0-.48.02-.53.06-.04.04-.06.23-.06.57v22c0,1.8-.29,3.03-.88,3.69-.59.66-1.55.99-2.9.99h-.42V3.34c0-.34-.02-.53-.06-.57s-.22-.06-.52-.06h-.76c-2.41,0-4.16.38-5.25,1.15-1.23.85-1.93,2.35-2.1,4.48h-1.01V1.53h23.61v6.81Z"/>
    <path class="cls-1" d="M370.61,30.01h-.46c-2.89,0-4.33-1.55-4.33-4.66,0-3.5-.41-5.9-1.22-7.18-1.01-1.6-3.02-2.39-6.03-2.39h-2.07c-.31,0-.49.02-.53.06s-.06.23-.06.57v8.95c0,1.79-.29,3.02-.87,3.68-.58.66-1.54.99-2.87.99h-.42V3.67c0-.48-.1-.77-.29-.88-.2-.11-.69-.18-1.47-.21h-1.76v-1.05h12.1c2.83,0,5.15.56,6.97,1.68,2.04,1.26,3.07,2.98,3.07,5.17,0,2.04-.84,3.68-2.52,4.92-1.34.98-3.05,1.6-5.12,1.85,2.35.31,4.09,1.08,5.21,2.31,1.46,1.62,2.18,4.26,2.18,7.9,0,1.82.17,3.37.5,4.66ZM365.74,8.38c0-1.88-.58-3.32-1.73-4.33-1.01-.9-2.39-1.34-4.13-1.34-.37,0-.98.01-1.84.04-.86.03-1.37.04-1.54.04-.31,0-.49.02-.53.06-.04.04-.06.23-.06.57v10.59c0,.31.03.49.08.55.06.06.23.08.51.08h2.36c2.56,0,4.39-.59,5.49-1.76.93-.98,1.39-2.48,1.39-4.5Z"/>
    <path class="cls-1" d="M400.73,15.18c0,4.85-1.22,8.6-3.65,11.26-2.24,2.47-5.18,3.7-8.82,3.7s-6.65-1.23-8.86-3.7c-2.41-2.66-3.61-6.41-3.61-11.26,0-4.31,1.26-7.79,3.78-10.42,2.35-2.44,5.25-3.66,8.7-3.66s6.5,1.23,8.82,3.7c2.44,2.61,3.65,6.06,3.65,10.38ZM396.03,15.18c0-4.48-.53-7.69-1.6-9.62-1.18-2.18-3.24-3.28-6.18-3.28s-5,1.09-6.18,3.28c-1.07,1.93-1.6,5.14-1.6,9.62,0,5.01.57,8.54,1.72,10.59,1.15,2.13,3.17,3.19,6.05,3.19s4.9-1.06,6.05-3.19c1.15-2.04,1.72-5.57,1.72-10.59Z"/>
    <path class="cls-1" d="M427.46,25.98c-2.23,2.77-5.3,4.16-9.21,4.16-3.68,0-6.63-1.23-8.83-3.7-2.4-2.66-3.6-6.41-3.6-11.26,0-4.31,1.28-7.79,3.85-10.42,2.37-2.44,5.33-3.66,8.87-3.66,1.73,0,3.64.27,5.73.8,2.09.53,3.15.8,3.18.8v6.22h-1.01c-.17-1.99-.96-3.58-2.37-4.77-1.41-1.19-3.24-1.79-5.48-1.79-2.94,0-5.06,1.11-6.34,3.32-1.15,1.99-1.72,5.15-1.72,9.5,0,4.93.57,8.42,1.71,10.46,1.14,2.04,3.15,3.07,6.02,3.07,3.76,0,6.83-1.58,9.2-4.75v2.02Z"/>
    <path class="cls-1" d="M442.71,2.58h-1.79c-.85.03-1.36.09-1.53.19-.17.1-.25.4-.25.91v21.66c0,1.8-.29,3.03-.87,3.69-.58.66-1.54.99-2.87.99h-.42V3.67c0-.48-.1-.77-.29-.88-.2-.11-.69-.18-1.47-.21h-1.77v-1.05h11.26v1.05Z"/>
    <path class="cls-1" d="M472.03,2.58h-1.76c-.79.03-1.28.09-1.47.19-.2.1-.29.4-.29.91v26.34h-1.26l-17.31-25.5v25.12h-1.34V3.67c0-.48-.1-.77-.29-.88-.2-.11-.69-.18-1.47-.21h-1.76v-1.05h7.9l14.2,20.96V3.68c0-.48-.1-.77-.29-.89-.2-.11-.69-.18-1.47-.21h-1.77v-1.05h8.4v1.05Z"/>
    <path class="cls-1" d="M485.64,2.58h-1.79c-.85.03-1.36.09-1.53.19-.17.1-.26.4-.26.91v21.66c0,1.8-.29,3.03-.87,3.69-.58.66-1.54.99-2.87.99h-.42V3.67c0-.48-.1-.77-.29-.88-.2-.11-.69-.18-1.47-.21h-1.76v-1.05h11.26v1.05Z"/>
    <path class="cls-1" d="M514.38,15.18c0,4.85-1.22,8.6-3.66,11.26-2.24,2.47-5.18,3.7-8.82,3.7s-6.65-1.23-8.87-3.7c-2.41-2.66-3.61-6.41-3.61-11.26,0-4.31,1.26-7.79,3.78-10.42,2.35-2.44,5.25-3.66,8.7-3.66s6.5,1.23,8.82,3.7c2.44,2.61,3.66,6.06,3.66,10.38ZM509.67,15.18c0-4.48-.53-7.69-1.6-9.62-1.18-2.18-3.23-3.28-6.18-3.28s-5,1.09-6.18,3.28c-1.06,1.93-1.6,5.14-1.6,9.62,0,5.01.57,8.54,1.72,10.59,1.15,2.13,3.16,3.19,6.05,3.19s4.9-1.06,6.05-3.19c1.15-2.04,1.72-5.57,1.72-10.59Z"/>
  </g>
</svg>