<?xml version="1.0" encoding="UTF-8"?>
<svg id="Livello_2" xmlns="http://www.w3.org/2000/svg" version="1.1" viewBox="0 0 606.6 187.9">
  <!-- Generator: Adobe Illustrator 29.3.0, SVG Export Plug-In . SVG Version: 2.1.0 Build 146)  -->
  <defs>
    <style>
      .st0 {
        fill: #1e1f1d;
      }
    </style>
  </defs>
  <g id="sfondo">
    <g id="scuola_design">
      <g>
        <path class="st0" d="M.1,143.1c.1-.1.2-.3.4-.5.2-.3.5-.5.9-.2.2.1,2,1.9,4.2,1.9s3.3-1.3,3.3-2.7-1.5-2.7-4.3-3.9c-2.7-1.2-4.4-2.3-4.4-5.1s1.3-4.4,5.3-4.4,4.2,1.3,4.2,1.3c.1,0,.4.4.1.8-.1.1-.2.3-.3.5-.2.4-.5.4-.9.2-.2-.1-1.7-1.1-3.2-1.1-2.6,0-3.4,1.7-3.4,2.7,0,1.7,1.3,2.6,3.3,3.5,3.3,1.4,5.5,2.6,5.5,5.5s-2.4,4.5-5.3,4.5-4.9-1.7-5.2-2c-.2-.2-.4-.4-.2-.8h0v-.2h.1Z"/>
        <path class="st0" d="M22.6,128.2c2.5,0,4.3.9,6,2.3.2.2.2.5,0,.7l-.7.7c-.2.2-.4.2-.6,0-1.3-1.1-3-1.9-4.7-1.9-3.9,0-6.9,3.3-6.9,7.1s3,7.1,6.9,7.1,3.4-.9,4.7-1.9c.2-.2.4-.2.6,0l.7.7c.2.1.1.5,0,.7-1.7,1.6-3.8,2.4-6,2.4-4.9,0-8.9-3.9-8.9-8.9s4-8.9,8.9-8.9h0Z"/>
        <path class="st0" d="M32.7,128.9c0-.2.2-.5.5-.5h.9c.3,0,.5.2.5.5v10.3c0,2.8,1.8,5,4.7,5s4.7-2.1,4.7-5v-10.4c0-.2.2-.5.5-.5h.9c.2,0,.5.2.5.5v10.5c0,3.8-2.7,6.6-6.6,6.6s-6.5-2.9-6.5-6.6v-10.5h-.1Z"/>
        <path class="st0" d="M58.8,128.2c5,0,8.9,4,8.9,8.9s-4,8.9-8.9,8.9-8.9-3.9-8.9-8.9,3.9-8.9,8.9-8.9ZM58.8,144.2c3.9,0,7.2-3.2,7.2-7.2s-3.2-7.2-7.2-7.2-7.2,3.3-7.2,7.2,3.2,7.2,7.2,7.2Z"/>
        <path class="st0" d="M72,128.9c0-.2.2-.5.5-.5h1c.2,0,.5.2.5.5v15.2h7.1c.3,0,.5.2.5.5v.7c0,.2-.2.5-.5.5h-8.6c-.3,0-.5-.2-.5-.5v-16.4Z"/>
        <path class="st0" d="M83.1,145.1l7.5-16.7c0-.1.2-.3.4-.3h.2c.2,0,.3.1.4.3l7.5,16.7c.2.3,0,.6-.4.6h-1c-.2,0-.4-.1-.4-.3l-1.8-4.1h-8.8l-1.8,4.1c0,.1-.2.3-.4.3h-1c-.4,0-.6-.3-.4-.6h0ZM94.8,139.8c-1.2-2.7-2.4-5.4-3.6-8.1h-.2l-3.6,8.1h7.4,0Z"/>
        <path class="st0" d="M108.3,128.9c0-.2.2-.5.4-.5h5.6c4.8,0,8.7,3.9,8.7,8.6s-3.9,8.7-8.7,8.7h-5.6c-.2,0-.4-.2-.4-.5v-16.4h0ZM113.9,144c4.1,0,7-2.9,7-7s-2.9-7-7-7h-3.7v13.9h3.7Z"/>
        <path class="st0" d="M127.3,128.9c0-.2.2-.5.5-.5h9.8c.3,0,.5.2.5.5v.7c0,.2-.2.5-.5.5h-8.3v6h7.1c.2,0,.5.2.5.5v.7c0,.3-.2.5-.5.5h-7.1v6.3h8.3c.3,0,.5.2.5.5v.7c0,.2-.2.5-.5.5h-9.8c-.3,0-.5-.2-.5-.5v-16.4Z"/>
        <path class="st0" d="M142.5,128.9c0-.2.2-.5.5-.5h1c.2,0,.5.2.5.5v15.2h7.1c.3,0,.5.2.5.5v.7c0,.2-.2.5-.5.5h-8.6c-.3,0-.5-.2-.5-.5v-16.4Z"/>
        <path class="st0" d="M161.1,128.9c0-.2.2-.5.4-.5h5.6c4.8,0,8.7,3.9,8.7,8.6s-3.9,8.7-8.7,8.7h-5.6c-.2,0-.4-.2-.4-.5v-16.4h0ZM166.8,144c4.1,0,7-2.9,7-7s-2.9-7-7-7h-3.7v13.9h3.7Z"/>
        <path class="st0" d="M180.1,128.9c0-.2.2-.5.5-.5h9.8c.3,0,.5.2.5.5v.7c0,.2-.2.5-.5.5h-8.3v6h7.1c.2,0,.5.2.5.5v.7c0,.3-.2.5-.5.5h-7.1v6.3h8.3c.3,0,.5.2.5.5v.7c0,.2-.2.5-.5.5h-9.8c-.3,0-.5-.2-.5-.5v-16.4Z"/>
        <path class="st0" d="M194.2,143.1c.1-.1.2-.3.4-.5.2-.3.5-.5.9-.2.2.1,2,1.9,4.2,1.9s3.3-1.3,3.3-2.7-1.5-2.7-4.3-3.9c-2.7-1.2-4.4-2.3-4.4-5.1s1.3-4.4,5.3-4.4,4.2,1.3,4.2,1.3c.1,0,.4.4.1.8-.1.1-.2.3-.3.5-.2.4-.5.4-.9.2-.2-.1-1.7-1.1-3.2-1.1-2.6,0-3.4,1.7-3.4,2.7,0,1.7,1.3,2.6,3.3,3.5,3.3,1.4,5.5,2.6,5.5,5.5s-2.4,4.5-5.4,4.5-4.9-1.7-5.2-2-.4-.4-.1-.8h0v-.2h0Z"/>
        <path class="st0" d="M209,128.9c0-.2.2-.5.5-.5h1c.2,0,.5.2.5.5v16.4c0,.2-.2.5-.5.5h-1c-.2,0-.5-.2-.5-.5v-16.4Z"/>
        <path class="st0" d="M224.2,128.2c2.5,0,4.3.9,6,2.3.2.2.2.5,0,.7l-.7.7c-.2.2-.4.2-.6,0-1.3-1.1-3.1-1.9-4.7-1.9-3.9,0-6.9,3.3-6.9,7.1s3,7.1,6.9,7.1,4.5-1,4.5-1v-3.5h-2.9c-.3,0-.5-.2-.5-.4v-.9c0-.3.2-.5.5-.5h4.3c.2,0,.4.2.4.5v5.7c0,.1-.1.3-.2.4,0,0-2.5,1.6-6.1,1.6s-8.9-3.9-8.9-8.9,4-8.9,8.9-8.9h0Z"/>
        <path class="st0" d="M235.1,128.6c0-.2.2-.4.5-.4h.6l11.2,13.9h0v-13.2c0-.2.2-.5.5-.5h.9c.2,0,.5.2.5.5v16.7c0,.2-.2.4-.5.4h-.4l-11.4-14.2h0v13.5c0,.2-.2.5-.5.5h-.9c-.2,0-.5-.2-.5-.5v-16.7h0Z"/>
      </g>
      <path class="st0" d="M323.1,116.3h0c0,.3-.2.5-.5.5H1c-.3,0-.5-.2-.5-.5h0c0-.3.2-.5.5-.5h321.5c.3,0,.5.2.5.5h.1Z"/>
      <g>
        <g>
          <g>
            <path class="st0" d="M115.6,24c0-.3.3-.6.6-.6h7.7c4,0,7.4,3.3,7.4,7.3s-3.3,7.4-7.3,7.4h-4.1v7.7c0,.3-.3.6-.6.6h-3c-.4,0-.6-.3-.6-.6v-21.8h0ZM123.7,34c1.8,0,3.4-1.5,3.4-3.4s-1.5-3.2-3.4-3.2h-3.8v6.6h3.8Z"/>
            <path class="st0" d="M144.9,23c6.6,0,11.8,5.3,11.8,11.9s-5.3,11.8-11.8,11.8-11.8-5.2-11.8-11.8,5.2-11.9,11.8-11.9ZM144.9,42.4c4.1,0,7.6-3.4,7.6-7.5s-3.4-7.6-7.6-7.6-7.5,3.5-7.5,7.6,3.4,7.5,7.5,7.5Z"/>
            <path class="st0" d="M160.7,24c0-.3.3-.6.6-.6h3c.3,0,.6.3.6.6v18.4h8.4c.4,0,.6.3.6.6v2.7c0,.3-.3.6-.6.6h-12c-.4,0-.6-.3-.6-.6v-21.8h0Z"/>
            <path class="st0" d="M176.9,24c0-.3.3-.6.6-.6h3.1c.3,0,.6.3.6.6v21.8c0,.3-.3.6-.6.6h-3.1c-.3,0-.6-.3-.6-.6v-21.8Z"/>
            <path class="st0" d="M190,27.3h-5c-.4,0-.6-.3-.6-.6v-2.7c0-.3.3-.6.6-.6h14.4c.4,0,.6.3.6.6v2.7c0,.3-.3.6-.6.6h-5v18.4c0,.3-.3.6-.6.6h-3.1c-.3,0-.6-.3-.6-.6v-18.4h0Z"/>
            <path class="st0" d="M203,24c0-.3.3-.6.6-.6h13.4c.4,0,.6.3.6.6v2.7c0,.3-.3.6-.6.6h-9.7v5.4h8.1c.3,0,.6.3.6.6v2.7c0,.4-.3.6-.6.6h-8.1v5.8h9.7c.4,0,.6.3.6.6v2.7c0,.3-.3.6-.6.6h-13.4c-.4,0-.6-.3-.6-.6v-21.8h0Z"/>
            <path class="st0" d="M232.1,23c3.3,0,5.7,1,7.9,3.1.3.3.3.7,0,.9l-2,2.1c-.2.3-.6.3-.8,0-1.4-1.2-3.2-1.9-5.1-1.9-4.2,0-7.3,3.5-7.3,7.7s3.1,7.6,7.4,7.6,3.6-.8,5-1.9c.3-.2.6-.2.8,0l2,2.1c.3.2.2.7,0,.9-2.2,2.2-5.1,3.2-8,3.2-6.6,0-11.9-5.2-11.9-11.8s5.3-11.9,11.9-11.9h.1Z"/>
            <path class="st0" d="M244.1,23.6c0-.3.3-.6.6-.6h.8l13.7,14.5h0v-13.6c0-.3.3-.6.6-.6h3c.3,0,.6.3.6.6v22.1c0,.3-.3.6-.6.6h-.8l-13.7-15.1h0v14.1c0,.3-.3.6-.6.6h-3c-.3,0-.6-.3-.6-.6v-22.1h0Z"/>
            <path class="st0" d="M269.1,24c0-.3.3-.6.6-.6h3.1c.3,0,.6.3.6.6v21.8c0,.3-.3.6-.6.6h-3.1c-.3,0-.6-.3-.6-.6v-21.8Z"/>
            <path class="st0" d="M289.3,23c3.3,0,5.7,1,8,3.1.3.3.3.7,0,.9l-2,2.1c-.2.3-.6.3-.8,0-1.4-1.2-3.2-1.9-5.1-1.9-4.2,0-7.3,3.5-7.3,7.7s3.2,7.6,7.4,7.6,3.6-.8,5-1.9c.3-.2.6-.2.8,0l2,2.1c.3.2.2.7,0,.9-2.2,2.2-5.1,3.2-8,3.2-6.6,0-11.9-5.2-11.9-11.8s5.3-11.9,11.9-11.9h0Z"/>
            <path class="st0" d="M311.3,23c6.6,0,11.8,5.3,11.8,11.9s-5.3,11.8-11.8,11.8-11.8-5.2-11.8-11.8,5.2-11.9,11.8-11.9ZM311.3,42.4c4.1,0,7.6-3.4,7.6-7.5s-3.4-7.6-7.6-7.6-7.5,3.5-7.5,7.6,3.4,7.5,7.5,7.5Z"/>
          </g>
          <g>
            <path class="st0" d="M118.8,58c0-.3.3-.5.6-.5h.5c.2,0,.5.2.6.4l6.5,18.1h.2l6.4-18.1c0-.2.3-.4.6-.4h.5c.3,0,.5.2.6.5l4.2,22.1c.1.5-.1.8-.6.8h-1.3c-.3,0-.5-.2-.6-.5l-2.9-16.9h-.1l-6.1,17.3c0,.2-.4.4-.6.4h-.6c-.2,0-.5-.2-.6-.4l-6.1-17.3h0l-2.9,16.9c0,.2-.3.5-.6.5h-1.3c-.5,0-.7-.3-.6-.8l4.2-22.1h0,0Z"/>
            <path class="st0" d="M145.6,58.5c0-.3.3-.6.6-.6h1.3c.3,0,.6.3.6.6v21.8c0,.3-.3.6-.6.6h-1.3c-.3,0-.6-.3-.6-.6v-21.8Z"/>
            <path class="st0" d="M155.8,58.5c0-.3.3-.6.6-.6h1.3c.3,0,.6.3.6.6v20.2h9.5c.4,0,.6.3.6.6v.9c0,.3-.3.6-.6.6h-11.4c-.4,0-.6-.3-.6-.6v-21.8h0Z"/>
            <path class="st0" d="M170.8,80.1l10-22.1c.1-.2.3-.4.6-.4h.3c.3,0,.5.2.6.4l9.9,22.1c.2.4,0,.8-.6.8h-1.3c-.3,0-.5-.2-.6-.4l-2.4-5.4h-11.7l-2.4,5.4c0,.2-.3.4-.6.4h-1.3c-.5,0-.8-.4-.6-.8h.1ZM186.4,73.1c-1.6-3.6-3.2-7.2-4.8-10.8h-.3l-4.8,10.8h9.9Z"/>
            <path class="st0" d="M196.7,58.2c0-.3.3-.6.6-.6h.8l14.8,18.5h0v-17.5c0-.3.3-.6.6-.6h1.1c.3,0,.6.3.6.6v22.1c0,.3-.3.6-.6.6h-.6l-15.1-18.8h0v17.9c0,.3-.3.6-.6.6h-1.1c-.3,0-.6-.3-.6-.6v-22.1h.1Z"/>
            <path class="st0" d="M233.3,57.6c6.6,0,11.8,5.3,11.8,11.9s-5.3,11.8-11.8,11.8-11.8-5.2-11.8-11.8,5.2-11.9,11.8-11.9ZM233.3,78.9c5.2,0,9.5-4.3,9.5-9.5s-4.3-9.6-9.5-9.6-9.5,4.3-9.5,9.6,4.3,9.5,9.5,9.5Z"/>
            <path class="st0" d="M260.9,62.6l-2.4,1.8c-.3.2-.5.2-.8,0l-.6-.7c-.2-.3-.1-.6,0-.7l4.6-4.5h.9c.3,0,.6.3.6.6v21.1c0,.3-.3.6-.6.6h-1.2c-.4,0-.6-.3-.6-.6v-17.6h.1Z"/>
            <path class="st0" d="M273.7,69.4h0c-1.5-.8-3.4-2.6-3.4-5.2s2.9-6,6.8-6,6.8,2.4,6.8,6-1.9,4.4-3.4,5.1h0c1.5.8,4,2.8,4,5.6s-2.8,6.3-7.5,6.3-7.3-2.8-7.3-6.3,2.4-4.8,4-5.5h0ZM277.1,79.3c2.8,0,5-1.5,5-4.1s-1.8-4.1-4.9-4.4c-3.2.3-4.9,2.4-4.9,4.4s2.3,4.1,4.9,4.1h-.1ZM281.5,64.3c0-2.5-1.9-4.1-4.5-4.1s-4.2,1.7-4.2,4.1,1.3,3.6,4.4,3.9c3-.3,4.4-1.9,4.4-3.9h0Z"/>
            <path class="st0" d="M300.1,57.8c.3,0,.6,0,.7.3l.4.8c.2.4,0,.8-.6,1-1.5.5-7.3,3.8-8.4,8.2,0,0,2.2-1.5,5-1.5s7.1,2.8,7.1,7.1-3.3,7.5-7.3,7.5-7.7-4.1-7.7-9.4c0-8.7,7.5-12.8,10.8-14.1h0ZM301.9,73.8c0-2.9-2.2-5.1-5-5.1s-5.2,2.1-5.2,2.1c-.6,3.3.7,8.2,5.2,8.2s4.9-2.4,4.9-5.2h.1Z"/>
            <path class="st0" d="M307.9,77.5l.9-.8c.4-.3.6-.2.9.2.3.4,2.1,2.3,4.9,2.3s4.7-1.5,4.7-4.1-1.7-4.3-5.8-4.3h-1.8c-.4,0-.6-.2-.6-.7v-.8c0-.5.2-.7.7-.7h1.8c3.5,0,5.2-1.8,5.2-4s-2-4.2-4.3-4.2-3.6,1.3-4.3,2.1c-.2.2-.5.4-.9,0l-.8-.6c-.3-.2-.2-.6,0-.8,0,0,2.4-2.9,6-2.9s6.8,2.3,6.8,6-1.9,4.5-3.4,5.2h0c1.5.8,3.9,2.6,3.9,5.4s-2.8,6.4-7.3,6.4-5.9-2.1-6.6-2.9c-.2-.2-.2-.6,0-.8h0Z"/>
          </g>
        </g>
        <g>
          <g>
            <path class="st0" d="M90.4,74.3c-.7,0-1.7-2.6-1.7-4.9s0-1.2.2-1.8c.6-2.3,2.1-7.7,2.1-14.2s0-2.8-.2-4.3c-.5-4.3-1.1-7.5-2-9.8h0c.4-.6.9-1.4.9-2.1,0-1.4-1.2-3.6-3.6-3.6h-.7l-1.5.5c-1.2-.9-2.4-1-3.2-1h-1s-.5-.2-1.2-.2-.3,0-.5,0h0c-.7,0-1.4-.2-2-.2h-2c0-.2-.5-.8-1.4-1.5v-.3c0-.8-.8-2-.8-2-1.9-3.1-4.8-4.3-5.2-4.5,0-.4.2-1.1.2-1.5h0c0-.1.2-.6.2-.9h0c0-.6-.6-1.7-.9-2.4-.4-.8-1.3-.9-1.6-.9-.8-.8-2-.9-2.6-.9h-.4s-1.6.4-1.9.6c-.2.1-.6.5-1,1-.5-.3-.9-.4-1.3-.4-1,0-1.8.6-2,.6,0,0-.8,0-1.3.1-.6,0-1,.3-2.2,1.7-.6.7-.7,1.4-.7,1.9s.2.9.2,1c-.5.2-1,.5-1.2.7-.4.4-.5,1.4-.5,1.7h-.2c-.9,0-1.8.6-1.8.6,0,0-.7.1-.8.6h0c0,.3.4.7,1,.7h0c.5,0,.7-.1.8-.2h0c.2.3,1.5,1.5,1.5,1.5,0,0,.5.4,1.2.4s.6,0,1-.3c.5-.4,1.2-.3,1.5-.9.2,0,.8-.2,1.1-.3,0,0,.3-.2.5-.4h0s.7-.7.8-.6h0c.5,1.2.6,2.2.6,3.1,0,1.7-.6,2.5-.6,2.5,0,0-.5,1-.7,1.5-.2-.3-.3-.4-.5-.5,0-.3-.3-.5-.4-.5h0c0-.8-.9-.9-.7-.9-.2-.5-.8-.8-.9-.8-.3-.5-1.1-.6-1.1-.6h0c-.4,0-1.2.3-1.4.4h-1.2c-.4,0-1.2.2-1.6,1,0,0-.6.4-.8.9,0,0-.9,2.6-1,3.5v1c0,.2-1.3,1.3-1.3,2.3s0,.3,0,.5c-.8.5-3,2.6-3,6.8s0,.9,0,1.3c-1-.4-2-.7-2.2-.7-.2-.2-.4-.3-.5-.3-.2,0-1-.4-1.1-.6-.3-.3-.8-.5-1.2-.5h0c-.2-.2-.8-1.4-1.1-2.4-.3-1.1-.6-2.4-.6-3.8v-.2c0-1.6-1-3.5-1.3-4.2h0l1.4-.8v.4c0,.2,0,.5.2.7,0,0,.7,2.1,3.1,2.3h2.2c.5.3,1,.6,1.7.6s.8,0,1.1-.4c0,0,.6-.3.6-1.2s0-.2,0-.3c.2,0,.5-.4.5-.8v-.4l-.2-.3h.8s.6-.2.7-.8h0l-.2-.3s-1-.2-1.2-.2l-1.3-.2h-1c-.2-.6-1.2-1.3-1.5-1.5.2,0,.3-.2.4-.3v-1.1h0v-.2c.4-.6.5-1.3.5-1.7l1,.5s.8.4,1.3.5h0c.5,0,.6-.5.6-.6l.2-.2c.2,0,.3-.2.4-.3,0,0,.4,0,.6-.1,0,0,.2-.2.3-.2,0,0,.2.1.4.1.3,0,.5-.2.5-.6,0-.7.8-2.3,1-2.7,0-.2,0-.3.2-.4.2,0,.3.1.5.1s0,0,0,0c.8,0,.9-.6.9-.8,0,0,.2-.5.2-1.1s-.2-1.3-.9-1.5c-.2-.3-.8-1.4-1.9-1.4h-.2c-.3-.2-1.6-1-3-1s-.3,0-.5,0c0,0-.7-.1-1.5-.1s-2.1.1-2.3,1c-.5.1-2.1.3-2.3,1.2h-.3c-.2.1-.7.5-.8,1.1-.9-.4-1.7-.4-2.1-.4h-.3s-1.2-.1-2.5-.1-1.4,0-1.9.2c-1.5.3-3.4.7-4.2,1.2s-1.5,2-2.1,2.3c-.6.4-1.7.8-2,2,0,.2,0,.3-.1.5-.3,0-1.9.6-3.5,3.5,0,0-1.1,1.2-1.4,1.5-.2.2-.2.5-.3.8,0,.6.2,1.2.5,1.5,0,0,.3.4.6.7-.1.2-.3.5-.3,1s.2,1.1.6,1.8c-.5.3-1.6,1.4-1.9,4.6,0,0-.2,3.9-.7,5.4-.9,2-3,4.1-3,4.1,0,0-.3.3-.3.7s.1.6.4.8l1.5,1.1h.1v.2c.2.4.7.4,1.3.6.5.2,1,.3,1.2.3h.4c.9,0,1.3,0,1.7.4s.4.4.7.6h.7c-.6.4-1.3,1-1.4,1.7,0,.4-.2,1.1-.2,1.8s.4,2.1,1.9,2.1h.2s.9-.5,1.3-.9c0,.4.2,1.4.7,2h0s-.1.5-.1,1.1c0,.9.2,2.1,1.1,3.1-.1.2-.4.5-.4.9s0,1.3-.4,2.1c-.4.8-1.1,2.5-1.1,3.2h0c0,.4.3.9.6,1.4.1.2.3.5.4.7,0,0,0,.2.1.2h0c.1.3.3.4.5.6h1.1c.1,0,.5,0,.6-.4v-.2h0c.2-.2.5-.5.6-.9,0,0,0-.2-.2-.3-.2,0-.5-.2-.7-.2-.3,0-.4,0-.4-.2s-.1-.3-.1-.3h0c0-.2.3-.3.4-.4s2-1.4,2.3-1.4h0c.4,0,1.1.3,1.3.5.4.3,3,2.6,3.7,2.9.6.2,2.9,1.7,4.2,1.8,1.1,0,3.2.6,4.1.8.5,0,1.2.3,1.9.3s1.5-.2,2-.7c.8-.9,1.2-1,1.3-1.8v-1.7c0-.7,0-1.1-.3-1.6-.5-.8-1-1.4-1-1.5h0v-.6c0-.9-.5-1.6-.5-1.7s-.3-.9-.6-1.8c-.2-.5-.3-1.1-.5-1.6.2-.2.7-.6,1.2-1.2.3.3,3.7,3.9,5.2,4.3h0s1.6,0,3-.5c1.1-.4,1.9-1.1,2.7-1.1s.5,0,.8.2h0c0,.2.2.3.3.4l.2,2.9h0c0,.2,0,.7.5.9l-.4,2.9-7.2,1.7h0v2l.2.2,7.1,2.4h0l13-3.8s.2,0,.2-.2v-1.8h0s0-.2-.2-.2l-7.5-1.5-1.2.3-.8-5.4h0c.3-.4.7-1.1.7-1.9v-.8c-.2-1.1-.3-1.6-.3-2v-.7c0-.2,2.5-3.2,4.1-6.1h0v4.6c0,.6,0,1.3-.3,1.5-.4.6-.8,1.5-.8,2.1h0v1.4c0,.2-.5,1.6-.5,1.6v.3c0,.3,0,1.2,1.1,1.3h1.5c.5,0,1.3,0,1.7-.2.5-.3,1-.7,1-1.2v-.2c-.2-.5-.6-.7-.9-1-.2-.3-.5-.8-.5-1.1h0s.2-.6.2-1h0v-.5c0-.4,0-.9.2-1,.2-.4,2-3,2-3.1,0,0,.9-1.3,1.2-5h2v.2l-.9,1.8s-1.5,2.8-1.7,3.5c-.2.4-.8,1.6-.8,3.3s.2,1.8.6,2.9l.5,1.8c.8,2.6,1.2,3,2.2,3.1h0c0,.3-.2.7-.2.8,0,.2-.3.6-.4,1.1v.8c0,.6,0,1.4.8,1.5h1.3c.2,0,.7.2,1,.3h1.1c.2-.2.7-.3,1-.5.2-.2.9-.7.9-1.3h0c0-.7-1.1-2.1-1.1-2.1h0c.9.2,3.8.3,6.7.4h2.4c2.2,0,6.3-.4,6.3-.4,0,0,.2,0,.2-.2s0-.2-.2-.2h-.4.3ZM79.7,33.6h.9c.8,0,1.9,0,3.1,1h.2l1.6-.5h.6c2.1,0,3.1,1.9,3.1,3.2s-1.9,3.1-1.9,3.1l-2,1.6c-.5.9-2.4,1.9-3.1,2.4-4.5-1.2-5.8-3.1-5.8-4.9s2.6-5.2,3.2-5.8h.1ZM78.5,33.3h.7c-.8.8-3.2,3.3-3.2,6s1.4,4,5.7,5.2c-.5.3-1,.4-1.5.4h-.8c-3-.6-5.8-4.3-5.9-4.4,0-.4,0-.8-.2-1.1v-.2s1.5-4.6,4.2-5.7c.4-.2.7-.3,1.1-.3h0ZM73,41.2v.2s-.6,2-2,2.5c-.2,0-.6.4-.7.4h0v-.2s0-.2-.2-.3c0,0-.2,0-.3.2h0s-.2,1.2-.5,2.1c0,.3-.2.4-.2.4,0,.2-.3.5-.4.7-.8,1.2-1.6,1.4-2,1.4h-.4l.3-.2v-.3h-.3l-.5.3h0c-.2,0-.5-.2-.5-.2h-.2l-.5.5h0c-.3,0-.7-.9-.9-1.3-.2-.4-.6-.6-.8-.6h-.6s-1.1-.9-1.2-1c-.5-.6-.6-1.5-.6-1.5v-1.5c0-2,1-2.8,1-2.8l.8-.7s.6-.5.7-.6c0,0,.8-.4,1.2-.5h1.2c.2,0,1.4.2,1.4.3l1.1.6v.6c0,.3-.8,1.7-1.2,2,0,0-.2.3-.2.5,0,.4.3.6.4.7h0v.3s-.3.3-.4.6v1.3c0,.2.3.3.4.2.4,0,.9-.3,1-.3h0c.3,0,.8,0,1.1-.6h0s.4,0,.7-.2c.3-.2.6-.8.7-.9.2-.2.3-.5.4-.5,0-.2.2-.3.2-.5v-.2h0c.2-.3.2-.4.2-.6v-.4c0-.3-.5-.9-.5-1,0,0,0-.3.2-.5h0c0-.4-.4-.5-.6-.6v-.3h.2c.8,0,2.3.2,2.4,2.5h0v.5h0l-.2-.4h.3ZM67.7,49c-.4.7-.9,1.3-1.1,1.6s-.8.5-1.2.7c-.4,0-.7.2-.7.2l-4.5.5h-.3c0-.4-.5-1.7-.7-2.5v-.2c0-.8,1-2.2,1.1-2.2.2-.2.4-.6.5-.8.4.4,1.2,1,1.2,1,0,0,.6,0,.7.2,0,0,.3,0,.4.3.2.2.4,1.5,1.3,1.5h.2l.5-.4c.2,0,.7.3.8.3,0,0,.3.2.7.2s.6,0,1-.3h0ZM59.8,41.3h0v-.3h0c.4-.4.3-.9.6-1.3,0-.2.2-.3.5-.3,1.1-.3.8-1.2,1.2-1.2.6-.2,1.2-.6,1.3-.7h0c.4,0,1.1-.4,1.3-.4h1.3c.2,0,.6.3,1,.5.3,0,.6.2.8.2s1.3.4,1.6.5h.5v.4s0,.3.2.3c0,0,.2,0,.3.2h0s-.2.2-.2.5h0c0,.3.5.9.5,1.1v.3h0c0,.2-.3.3-.3.5v.2h0v.2c-.2.2-.3.5-.4.6-.2.2-.5.8-.6.8,0,0-.6,0-.8.4q-.1.2,0,0c-.2,0-.6.2-.7.2h0c-.3,0-.7.3-.9.3h0v-1s.3-.3.4-.6v-.7s-.2-.3-.2-.4v-.2c.4-.5,1.1-1.8,1.3-2.2v-.4c0-.3,0-.5-.2-.6-.2-.2-1-.6-1.2-.7-.2,0-1.2-.3-1.6-.3h-.5c-.3,0-.7,0-.9.2-.3.2-1,.4-1.2.6-.2,0-.7.7-.8.7l-.8.7s-1,.9-1.1,2.8v-.2h0v-.9h0l-.3.2h-.1ZM75.9,33.2h1.2c-2.5,1.2-3.8,4.6-4.2,5.7-.6-.9-1.7-1.1-2.3-1.1h-1.2s-1.2-.4-1.6-.5c0,0-.3,0-.6-.2-.4-.2-.8-.4-.9-.4h-.6c.3-.3.9-.9,1.7-1.2.2,0,4.3-2.2,8.6-2.2h0ZM71.3,29.3s.7,1.2.7,1.8c-.5-.3-1.1-.6-1.7-.9,0,0-.2,0-.3.1v.3c.7.3,1.4.7,1.9,1.1.8.5,1.2,1,1.3,1.3-3,.5-5.4,1.7-6.1,2-2.1-1.5-2.3-3-2.3-3.6v-.3s.2-.2.3-.3c.2-.3.2-.6.2-.9v-.8c0-.1,0-.3.3-.5.4-.4.3-1.1.3-1.3,0,0,.2-.2.4-.4v-.4c0-.4-.2-1-.2-1.1h0v-.4c.4.1,3.1,1.3,4.9,4.2h.3ZM58.7,20.1h0c.4-.4.8-.9,1-1,0-.1,1.6-.5,1.7-.5h.3c.6,0,1.7.1,2.4.8h.2s1.1.2,1.3.7c.3.7.9,1.9.9,2.1h0c0,.3-.2.6-.2.9h0c0,.4,0,1.3-.2,1.5h0v.7h0c0,.4.2.9.2,1.2h0c0,.2-.4.3-.5.7,0,.2,0,1-.2,1-.3.3-.4.6-.4.8h0v1.4c0,.1-.2.2-.2.2,0,0-.3,0-.4.1l-.2.2h0v.8c0-.1-.3-.4-.3-.5l.5-1.6.2-2.1h0c0-.1,1.6-2.7,1.6-2.7v-.2c0-.4,0-1.1-.4-1.5-.2-.1-.8-.9-.7-.9,0-.3-.2-1-.2-1,0,0,0-.1-.2-.2h-.2s-1.2,1-1.5,1.1h-1.2c-.3,0-.9.1-1.1.5,0,.2-.6,1.1-.7,1.3-.2.3-.3,1.1-.3,1.6s0,.3-.2.4c0,.1-.2.3-.3.5v2.7h-.2s-.2,0-.3.1v-.3h0c0-.4-.4-1.2-.5-1.5,0-.2-.4-2.5-.4-3h0c0-.4.5-1.9.6-2.2,0-.2.4-1.3.6-1.7,0-.1.2-.3.4-.5h-.9ZM63,25.9h0l.3.2h0c0,.3,0,.4.2.4s.2,0,.3-.2h.5l-.6,1h0c-1.1.9-2.5.9-2.8.9h0c-.8-.2-1.4-2.1-1.4-2.1h0v-.5c0-.4.2-1.3.2-1.4.2-.2.6-1,.8-1.3,0-.1.5-.3.7-.3h0s.6.1,1,.1h.5c.2-.1.8-.6,1.2-.9v.6c0,.4.7,1,.9,1.2,0,0,.3.9.3,1.1h0l-.7,1.2h0c-.6,0-1.3-.4-1.3-.4h-.3v.3h.2ZM53.4,29.3c0,.3-.5.2-1.3.7-.2.2-.5.2-.7.2s-.5,0-.6-.1-.3-.1-.3-.1l-1.4-1.4c0-.1-.2-.2-.3-.2-.2,0-.3,0-.4.2h-.4c-.3,0-.5-.1-.6-.2.2-.1.5-.3.5-.3,0,0,.8-.5,1.6-.5h1c.3,0,.5,0,.9.3l.8.5h0c0,.2.3.5.3.5,0,.1.2.1.3,0s.2-.2,0-.3c0,0-.2-.3-.3-.6,0-.1-.2-.3-.2-.3h0v-.2h0s.2.3.5.5c.3.3,0-.2.4.9v.4h0c0,.1.2,0,.2,0ZM55.1,28.5c0,.1-.2.2-.3.3-.2.1-.6.2-.8.3v-.3c-.2-1-.3-1-.5-1.2-.3-.2-.4-.4-.5-.5,0,0-.2-.1-.5-.1h0s-.3,0-.4.2v.4h-.2c-.4-.3-.8-.4-1.1-.4h-.3c0-.4,0-1.2.3-1.4.3-.2.8-.6,1.2-.7h.5c.7.3,2.6,1.2,3,2.2,0,.3.2.6.2.8v.5h-.6ZM56.6,34s.7-1,.7-2.8,0-1.7-.5-2.8h0l-.7-2.7c0-.1-.2-.2-.3-.2s-.2.2-.2.3l.5,1.9c-.2,0-.3.1-.5.2,0-.2,0-.5-.2-.8-.6-1.3-2.5-2.1-3.3-2.4h-.5s-.2-.3-.2-.9,0-1,.6-1.6c1.2-1.4,1.5-1.5,1.9-1.6.5,0,1.4-.2,1.4-.2,0,0,.9-.6,1.8-.6s.7,0,1,.2c0,.2-.2.3-.3.4-.3.5-.6,1.5-.7,1.9,0,.2-.6,1.6-.6,2.2h0c0,.6.3,2.8.4,3.2,0,.3.5,1.2.5,1.3h0v1h.5c.3-.2,0-.1.2-.1h0c.2,0,.6,0,.7-.4v-1.2c0-.5,0-.3,0-.4v-.8c0-.2,0-.1,0-.1h0c.2.5.7,1.7,1.7,2h0c.2,0,1.5,0,2.7-.8l-.2,1.7-.5,1.7v.2s.4.7.8.9h0c.4-.2.3-.4.5-.7v-.5h.2c0-.1,0,.1,0,.1,0,.8.3,2.3,2.3,3.8-1,.5-1.7,1.4-1.7,1.4v.2h-.5c-.3,0-1.1.4-1.2.4h0c-.4,0-.9.5-1.5.7-.9.4-.5,1.1-1.1,1.2-.4,0-.6.3-.8.6-.2.5-.4,1.1-.4,1-.2,0-.2.3-.2.4l-2.6-1.2v-.2h0v-.4c0-.3,0-.5-.2-.7v-.2h0c0-.4-.4-.6-.6-.7h0v-.5c0-.2-.2-.8-.2-.8v-.2c0-.2.8-1.9.9-2h0l.4-.4h0ZM51.8,32.4h0s.8,0,.9.5c0,0,.7.5.7.6.3.6.8.4.7.8h0v.3s.3.2.3.4l.2.2s.3,0,.4.6v.6s0,.7.3,1v.7l.2.2c.2.2,0,0,0,0h0v.4s.3.3.3.6h0v1s0,.2-.2.4c0,0-.4.4-.7.5h-.5v-.2h0c-.2-.4-.6-.4-.6-1.5h0c.3-.2.7-.4.9-.6.2-.2.2-.3.2-.5,0-.4-.2-1-.2-1.1h0c0-.2-.2-1.6-.2-1.7s0,0,0,0h0v-.3s-.4-.2-.8-.4h0c0-.2,0-.5-.5-.8-.3-.3-.7-.5-.8-.6l-.6-.5c-.4,0-.7-.2-.9-.2.3,0,.5-.2.6-.2h0v-.3h.3ZM53.4,49.6s1,.6,1,.9v.6c0,.4,0,.7-.5.8h-1c0-.2-.2-.4-.4-.5h-.3c-.2,0-.4,0-.6.2-.2.2-1.1.7-1.2.7-.2,0-.6,0-.9.4,0,0,0,.3-1,.8l-3,.7c-.6-1.1-2.4-3.5-2.4-3.5h0s-.2-.2-.3-.2h0v-.9c0-.5,0-.7.2-.7h.2s.3-.4.5-.6.7-.8.8-.7c.4,0,.7-.4.9-.6.2-.2.7-.8,1.3-.8h.2c.9,0,3.1.3,3.2.4.3.2,1.5,1.1,1.8,1.1h.4c.3,0,.7.2.8.6h0s.2.2.2.5c0,0,0,.2-.2.4v.4h.3ZM50.7,54.9h-.3v.2h0c0,.3.3.4.5.5l-.2.2h-.2l-.3-.2h-.3v.3l.3.2h0c-.4,0-.4.3-.6.4h-.4c-.7,0-1.5-.4-1.7-.7-.3-.4-.6-1-.6-1,0,0-.2-.2-.3,0,0,0-.2.2,0,.3h0v.2h0l-.2.2c0-.2,0-.5-.2-.8l3-.7c.9-.5,1.2-.8,1.2-1h0s.4,0,.6-.2c.3,0,1.1-.6,1.4-.8h.5v.3c-.2.7-.7,1-.7,1.1v.2s0,1.2-.2,1.6h-1v-.2h-.3ZM50.8,55.2h0ZM51.2,42.8h-1.1c.3-.7.4-1.5.4-1.5v-1.4c0-.2,0-.4-.2-.6.6.2,1.7.4,3.3.4,0,1.1.7,1.5.7,1.5h0c-.5,1.4-1.9,1.7-3,1.7h-.1ZM53,34s.2,0,.2.2l.2.2s-.3-.2-.4-.2h0v-.2ZM51,33h.8s.5.4.6.5h.2s-.2.3-.2.5.2.4.4.5c.4.2,1.1.6,1.4.8,0,0-.2.3-.6.5,0,0-.2.2,0,.3h.2c.2,0,0,0,0,0,.2,0,.4-.2.5-.3v.5h0c-.3.2-1.1.4-1.1.4,0,0-.2.2-.2.3s.2.2.3.2c0,0,.7,0,1.1-.4v.3h0c0,.2.2.8.2,1.1s0,0,0,0c-.3.2-.7.4-1,.6-2.2,0-3.5-.4-3.7-.5,0-.4-.2-.9-.2-1.1h0c0-.6-.2-1.1-.5-1.5-.2-.3-.5-.6-.5-1s0,0,0-.2c0-.6.7-1.5.8-1.5.3,0,.6-.4,1.4-.4h0v.4ZM46,39c0-.3,0,0,.2-1,0-.8,1-3.4,1-3.4.2-.4.8-.8.8-.8.4-.8,1-.9,1.3-.9h.5-.2c-.5.2-.9,1.1-1.1,1.9v.2c0,.6.4,1,.6,1.3.2.2.4.8.4,1.1h0c0,.6,0,1.3.4,1.9,0,.2,0,.4.2.6v1.3s-.4,1.8-.7,1.9h-.6c-.5,0-1.1,0-1.6-.2-.2,0-.5,0-.6-.2h-.2c-.2-.5-.5-.7-1.4-1.3h0v-.3c0-.6,1.1-1.7,1.3-2.1h-.3ZM44.7,41.9c.8.6,1,.7,1.1,1,.4.6,1.8.7,2.8.7s.6,0,.8,0l.3-.3h2.2v4h-.3c-.4-.3-1.2-.9-1.4-1-.5-.3-2.4-.3-3.4-.5h-.3c-.9,0-1.5.8-1.7,1s-.5.4-.6.4c-.5,0-.9.7-1.1.9l-.4.4h0c-.4.2-.5.7-.5,1.1v.5c-.2,0-.3-.2-.5-.2v-1.5c0-4.3,2.4-6.1,2.9-6.5,0,0,0,0,.1,0ZM39.2,49.4c.6.2,2.5.7,3.3,1.3h0l.3.3h0s2.2,3.2,2.5,3.7c-1.4-1.4-3.8-2.3-3.8-2.3h-.3v.3s3.8,1.5,4.3,3.2v.5s.2.8.2.9h0c0,.9-.5,3.4-2.4,3.9.3-.6.5-1.3.5-2.1s-.4-2.4-1.6-3.8h-.3v.3c1.1,1.4,1.5,2.6,1.5,3.5s-.3,1.6-.6,2.2c-.5.8-1.8,1.8-3.5,2h-.2c-.6,0-1.1-.2-1.4-.4-.3-.2-.4-.4-.5-.4h0c.3-.6.6-1.3.7-1.8.4,0,1.6-.3,1.7-1.2v-.6c0-.9-.6-1.9-4-3.2.4-.3,1.2-.8,2.7-.8h1.7c.8,0,.2,0,.2-.2s0-.2-.2-.2h-1.7c-2.2,0-3.2,1.1-3.3,1.2,0,0-1.5,1-2.2,2.5-.3.7-.7,1.5-.9,2.4-1.1-.7-3.3-3-4.3-4l-.5-.5h-.3s-.1.2,0,.3h0s.1,0,.3.3c-.3.2-.8.4-1.3.7-.1,0-.4-.2-.8-.5-.2-.2-.2-.3-.2-.7v-1.3h0c0-1,2-1.5,2.5-1.6.6,0,2.9-.6,2.9-.6l1-.4h.1l.9-.4h0c.2.2.5.6.7.8s.5.2.7.2h.4c.4,0,.8-.4.8-.4.3-.2.2-.6.3-.8,0-.2,0-.8.2-1,0,0,.2-.5.2-.7l.6-.3.3-.2h2c.2,0,.3,0,.4-.2h.4ZM36.1,68.3c.2,0,1.1.6,1.2.7l.6.6c0,.2.3.4.3.4.2,0,.7.4.7.4,0,0,1,1.2,1.1,1.3h0l-1.3-.7-1-.4h-.3v.3c.4.3.8,1.2.8,1.2,0,0,.3.8.5,1.1h0v.2l-.2-.2-.5-.9-1.1-1.4h-.3v.3l.2.6.2.6.3.9s.2.7.2.8h0l-1-2.2h0v.5l-.2.2-.4.2s-.4,0-.6.3h0v-.2h0s.3-.2.5-.3v-.3c0-.3,0-.6-.2-.7-.2-.3-.8-.6-.8-.7l-.8-.7c-.5-.4-.8-1.6-.9-3.1h0v-3.5c0-1.1.2-2.1.4-2.9.3-1,.6-1.8,1-2.6.6-1.2,1.6-2,2-2.2,3.6,1.3,3.9,2.3,3.9,2.9s0,.4,0,.6c0,.5-1.5.8-1.5.8,0,0-.2,0-.2.2,0,.3-.5,1.5-.8,2.1s-.3.5-.3.5l-.7,1.4s-.9,2.2-1,2.8h0c0,.8,1,.8,1.2.9h0l-.4.2h-.6ZM21.3,52.1h.2c0-.9-.7-4.3-.7-6.6s1.2-3.5,1.4-3.7h1.7c2.5,0,4.7-.3,5.2-.3.2.8.5,1.4.8,1.9h0v1c0,.6,0,1.9.4,3.3.4,2,1,3.8,1.1,4.4l-.9.4s-2.3.6-2.8.6-2.8.5-2.9,2h0v1.3c0,.4,0,.8.4,1,.2.2.5.3.6.4-.3.2-.6.4-.7.6-.5.6-1,1.3-1.2,1.9-.4-.3-1.4-.9-1.7-1h-.9c-.3-.8-.4-1.5-.4-2.1s.2-1.5.2-1.9c.3-1.2.5-2.4.5-3h-.3v-.2ZM32.4,51.6l-.7.3c-.2-.7-.7-2.4-1.1-4.4-.3-1.3-.3-2.5-.3-3.2v-.3s.2.2.2.3c.2.5,1.5,2.2,1.5,2.2,0,0,.8,2.2.8,2.3h0s-.5.7-.6,1.5v.3c0,.4,0,.7.2.9h0ZM41.3,35.7l.7.2v.3s-.5.2-.6.2h-.2c0-.2-.2,0-.3,0v.3h.2c0,.2.2.2.3.2.4,0,.8-.2,1-.3v-.7h0s1.1.2,1.2.2h.8-.2l-1.1.2h-.2c-.2,0,0,.2,0,.2l.3.6v.2c0,.2-.4.5-.4.5v.5c0,.6-.4.8-.4.8-.3.2-.6.3-.9.3-.6,0-1.2-.3-1.7-.6-.2,0-.3-.2-.5-.3-.4-.2-.4-.4-.4-.8v-.6h0v-.2c0-.6.2-1.1.4-1.3,0,0,.7-.4.9-.5l.7.2h0v.2l.4.2ZM41,35.1h-.4s-.9.3-1.2.7c-.2.3-.5.9-.5,1.6h0v.8c0,.4,0,.8.4,1h-1.3c-2,0-2.7-2-2.7-2v-1.2l1.2-.6s2.1-.7,3.2-1.2h0s.9.7,1.3,1.1h0s0-.2,0-.2ZM40.1,32s-.2.2-.4.3l-1.2.8v.3c0,0,.2,0,.3,0l1.2-.8h.2v.6s-.3.2-.6.3c-1.1.5-3.2,1.2-3.2,1.2l-1.4.7-1.5.8c.9-.9,1.2-2.5,1.5-3.2.2-.7.6-.7,1.2-1,.3-.2.8-.6,1.2-1.2h.2l3.3-.9v.2c0,.4,0,1.1-.5,1.6h0s-.3.3-.3.3ZM46.8,26.5c0,.3-.8,2-1,2.8v.2h-.3s-.2.3-.3.3h-.3l-.4-.4s-.2-.1-.3,0v.3l.3.4h0c-.3.1-.4.3-.5.6,0,.1,0,0-.2.2h0c-.2,0-1-.4-1-.4l-1.3-.7h-.2c0-.1-.2-.1-.2-.1l-3.2.8c.2-.4.4-.8.6-1.3,0-.4.2-.8.2-1.2v-.7.2c.2.3.5.3.6.3h.9c.2,0,.4.1.6.1.6,0,1.3-.2,1.3-.2.8,0,1.3-.6,1.6-.7.3-.2.8-.6.8-.6h0c.2,0,.4,0,.7-.4.2-.2.3-.5.3-.8l.6.5c.7.4.9.4,1.2.5,0,0,0,.2-.2.4h-.4.1ZM36.4,23.3h.3s.2-.1.2-.2h0c0-.1.4-.5,1-.6.6-.2,1.1-.3,1.1-.3,0,0,.2-.1.2-.2,0-.5.9-.8,1.8-.8s1.5.1,1.5.1h.5c.7,0,1.4.2,1.9.5.5.2.8.5.9.5h.4c.9,0,1.5,1.2,1.5,1.2h.2c.5.3.7.7.7,1.2s0,.9-.2,1c0,.1-.2.3-.5.4h0s-.3,0-.5-.1c-.6-.3-.6-.1-1.3-.6l-.9-.7h-.2v.4c0,.2,0,.6-.2.7-.2.1-.3.2-.4.2h0c-.4,0-.8.5-1.1.7s-.8.6-1.4.7c0,0-.8.2-1.3.2s-.3,0-.4,0c-.2,0-.3,0-.5-.1h-.7c0,0,0,0,0,0,0-.3-.4-.6-.8-.9v-.2c-.3-.5-.7-1.1-1.2-1.5-.2-.2-.4-.3-.6-.4h0v-.2c0-.3.4-.6.5-.7h0l-.2-.3h-.3ZM33.3,24.1h0c.5,0,1.3.1,2.1.5s.5.3.7.5c.5.4.9.9,1.1,1.3.2.5.4,1,.4,1.6s0,.8-.2,1.1c-.2.5-.4,1-.7,1.5-.4.6-.9,1.1-1.2,1.2-.5.2-1.1.4-1.4,1.3-.2.8-.7,2.5-1.4,3.1,0,0-.2,0-.2.3v.3s0,.2.2.4c.3.7,1.3,2.7,1.3,4h0v.2c0,1.5.3,2.8.6,4,.4,1.2.9,2.5,1.5,2.7.2,0,.8.2.9.3.3.3,1,.6,1.2.7,0,0,.2,0,.3.2h-1.2s-.3-.2-.6-.2h0c-.2,0-.4.2-.4.3,0,0-.5,0-.7.4h0v.2c0,.2-.2.5-.2.6,0,.2-.2.8-.2,1v.5s-.5.3-.6.3h-.7l-.7-.7h0c0-.3-.3-.6-.3-1s0-.2,0-.3c0-.7.5-1.2.6-1.6h0c0-.4-.8-2.5-.9-2.5,0,0-1.3-1.8-1.5-2.2s-.9-1.1-1.4-3c-.2-.6-.3-1.4-.4-2.3,0,0-.1-.4-.1-1.2v-1c.2-1.5.1-3.3.1-3.7v-.5c0-.7.3-1.9.6-2.7.4-1.1,2-3.8,2-3.8v-.3h-.1s-.1,0-.2.1c0,0-1.6,2.7-2,3.8-.3.8-.5,1.9-.6,2.6h-.4c-.8,0-1.9-1-2.8-2.2-.3-.4-.5-.8-.5-1.1,0-.8.7-1.7,1.8-2.9,1.3-1.4,5.6-1.9,6.5-2h0l-.3.2ZM20.3,32.9c0-.3.2-1.9.4-3,0-.3,0-.5.1-.7.2-1,1.1-1.3,1.8-1.7.8-.5,1.5-1.9,2.1-2.3s2.6-.8,4.1-1.1,1.2-.1,1.8-.1h.4c-1.6.3-3.6.8-4.5,1.8-1.1,1.2-1.9,2.2-1.9,3.2s.2,1,.6,1.4c1,1.2,2,2.3,3.2,2.3h.4v.2c0,.4,0,2.2-.1,3.6v.5h-.1l-2.1-.7c-.3,0-2.3-.9-2.8-1-.3,0-1.4-.4-1.8-.7-.4-.2-1.3-1.6-1.3-1.9h0s-.3.2-.3.2ZM15.9,36.6c-.1,0-.4-.8-.3-1.2,0-.2,0-.4.1-.4.4-.4,1.5-1.6,1.5-1.6,1.3-2.3,2.5-3,3-3.2-.2,1.1-.3,2.5-.3,2.8h0c0,.6,1,1.9,1.5,2.3.5.3,1.5.7,2,.8.3,0,2.4.8,2.7.9l1.8.6c-.5.4-1.3.9-2.2,1.5-.3.2-.6.3-.9.3-.9,0-1.7-.8-2.3-1.2s-.7-.3-1.1-.3c-.9,0-1.9.3-2.9.4h-.2c-.6,0-1.2-.4-1.6-.8h0c-.3-.3-.6-.6-.7-.8h-.1ZM16.3,38.6c0-.3,0-.5.2-.6.5.4,1.1.8,1.8.8h.3c1,0,2-.4,2.8-.4s.6,0,.8.2c.5.4,1.4,1.3,2.5,1.3s.8,0,1.2-.4c1.1-.7,2-1.4,2.5-1.7h0c0,.8.1,1.2.2,1.2,0,.8.2,1.5.3,2.1-.6,0-2.7.3-5.1.3s-1.2,0-1.8,0c-1,0-1.9-.2-2.8-.3-.5,0-1-.2-1.5-.4-.2,0-.5,0-.7-.2-.5-.8-.6-1.4-.6-1.8h0ZM12.8,56.9h0l-1.5-1c-.2-.2-.2-.3-.2-.5s.2-.4.2-.4c0,0,2.1-2.1,3.1-4.2.5-1.7.7-5.5.7-5.6.2-1.9.7-3,1.2-3.6.3-.4.6-.6.7-.7h.4c-.5.5-1.7,2.2-1.7,4.7l-.5,6.7h0s0,.4-.4,1.3c0,0-.5,1.2-.9,1.9-.1.3-.2.5-.3.6,0,.2-.5.6-.6.7h-.2ZM15.1,57.9c-.2,0-.6,0-.9-.2-.3,0-.6-.2-.8-.2h-.2c.2-.2.5-.5.7-.8,0,0,0-.2.3-.7.3-.7.9-1.9.9-1.9.4-1,.4-1.3.4-1.5s0,0,0,0l.5-6.6c0-2.8,1.6-4.4,1.8-4.6.3,0,.6.2,1,.2-.6.6-1.9,2.1-1.9,4.8h0c0,1.5.1,3.1.1,4.7s-.2,4.2-.9,5.5c-.1.2-.2.3-.3.5,0,0-.5.5-.6,1h0v-.2ZM18.1,59h0c-.1,0-.3-.2-.5-.4-.5-.6-1.1-.5-2-.5h-.1c0-.2.5-.8.5-.8.1-.2.2-.4.4-.6.8-1.5,1-3.6,1-5.7s0-3.2-.1-4.6h0c0-3.5,2-4.8,2-4.8h0c.8,0,1.5.2,2.3.3-.4.6-1.3,1.9-1.3,3.7s.7,5.8.7,6.6h0c0,.4-.2,1.6-.5,2.8,0,.4-.3,1.2-.3,2s0,1.4.4,2.1h-2.5ZM20.4,63.7h-.1c-.4.4-1.1.8-1.3,1h0c-1.3,0-1.4-.7-1.5-1.6,0-.6.1-1.3.2-1.7,0-.7,1.5-1.7,2-1.8h2.2s.4.2.9.5c.4.2.7.5.8.5h0v.2c0,.5.3.9.5,1.2h-1.1c-.6,0-2.2,1-2.6,1.5h0v.2ZM21,64v-.2c.4-.4,1.9-1.2,2.1-1.2h1.7c.5,0,.9.2.9.2.3.3.4,1.6.7,1.9s1.6,1.3,1.6,1.3h.3v-.3s-1.4-1.2-1.6-1.3c0,0-.3-1.4-.6-1.8-.2-.2-.6-.3-1-.4h0c-.2-.2-.8-.7-.8-1.3h0v-.3c.1-.6.6-1.3,1.1-2,.2-.2.5-.5.9-.7.6-.4,1.3-.8,1.5-.9,1.1,1.2,3.2,3.4,4.3,4h0c-.2.8-.3,1.8-.3,2.8v.4c0,.9,0,2,.1,2.9-.7.6-1.8.8-3,.8h-2.8c-2,0-3.7-1.2-4.3-1.8s-.1,0-.2-.2c-.5-.5-.6-1.9-.6-1.9h0ZM42.8,74.8c.2.2.5.7.8,1.2.2.3.2.8.2,1.3v1.7c0,.4-.3.5-1.2,1.5-.3.4-1,.6-1.6.6s-1.4-.2-1.8-.3c-.9-.2-3-.7-4.2-.8-1.1,0-3.5-1.5-4-1.8-.5-.2-3.3-2.5-3.6-2.8-.4-.4-1.2-.5-1.5-.6h0c-.6,0-2.4,1.4-2.6,1.5s-.5.3-.6.7v.2c0,.2.1.4.2.5.2.4.5.3.6.4.1,0,.4,0,.5.2v.2c-.1,0-.2,0-.2.2h0c-.3.2-.2.4-.2.5h-1.1s-.1,0-.1-.2h0c-.1-.3-1-1.9-1.1-2.3h0c0-.4.7-2.2,1.1-3,.4-.9.4-1.8.4-2.3s.2-.5.3-.6c1.8,1.5,3.4,3.3,5.6,4.4,2.2,1,6.9,2.9,7.4,3.1,0,0,.3,0,.5.2.9.4,2.7,1.2,2.8,1.3h.3v-.3c-.2-.2-1-.6-1.8-.9h.2c3.8,0,4.2-1.9,4.9-3.4v-.3h-.2ZM42,72.1c0,.3.5.8.5,1.6v.7c0,.2,0,.4-.2.6-.8,1.6-.9,3.2-4.5,3.2h-1.5c-.2,0-.4,0-.5-.2-.5-.2-5.2-2-7.4-3.1-2.1-1-3.7-2.8-5.5-4.3h-.1c-.9-.9-1.1-2.1-1.1-2.9s0-.5,0-.7c.9.7,2.4,1.6,4.4,1.7.9,0,1.9.2,2.8.2s2.3-.2,3.1-.7c.1,1.4.4,2.5,1,3.1,0,0,.7.6.8.7,0,0,.2.2.4.3,0,0,.2,0,.2.2s0,0,0,0c0,0,.2.4.2.5,0,0-.4.2-.5.4v.4c0,.2,0,.4.3.5h.2c.1,0,.2,0,.3-.2,0-.2.2-.2.3-.2.2,0,.7-.2.9-.6l.8,1.6h0s.2.2.4.2h.2s.3-.2.3-.4v-.2l-.2-.8-.2-.8.2.2.5.9s.2.3.6.4h0c.2,0,.5-.2.5-.6s0-.2,0-.3c-.2-.4-.5-1.1-.5-1.1,0,0-.2-.3-.4-.7h.2l1.3.9h.2s.2,0,.5-.2v-.2c0-.2,0-.3-.2-.4l-1.1-1.3s-.5-.4-.7-.5c0,0-.2-.2,0-.2,0-.3-.6-.7-.8-.8-.2,0-1-.7-1.4-.8-.3,0-.9-.2-.8-.3h0c0-.4,1-2.7,1-2.7l.7-1.4s0-.2.2-.4c.2.2.9.8,2.1.9,0,.2,1,2.1,1.1,2.7,0,.5.6,2.2,1.1,3.7.3.9.5,1.7.6,1.8h0l-.4-.4h.1ZM41.2,68.1c-.2-.7-.4-1.3-.4-1.5,0-.7-.8-2.1-1-2.6,1.6-.3,2.9-1.2,3.5-2.1h0c.8,0,1.4-.5,1.9-1,0,.7-.3,1.5-.7,2.6,0,0-.3,1-.8,1.8-.2.8-1.9,2.3-2.5,2.9h0ZM42.9,67.1c.5-.6,1-1.2,1.2-1.7,0-.3.3-.6.4-.8,0,1.4.2,3.4.2,4.3-.9-.9-1.7-1.7-1.8-1.8h0ZM54.2,68.4v1.3h-.6c-1,0-1.8.8-2.8,1.1-1,.3-2,.4-2.6.5.4-1,1.4-3.9,1.7-6.3,0,0,.2-1.5.3-3.5,0,0,0-.2-.2-.2s-.2,0-.2.2h0c0,2-.3,3.5-.3,3.5-.3,2.4-1.4,5.6-1.7,6.3-.5-.2-1.6-1-2.5-1.9h0s-.3-3.7-.2-5.3v-.7h0c.6-1.7.6-2.7.8-3.5h0c.4-1,.5-1.9.6-2.4h0c0-.3-.2-1-.2-1v-.4l.4-.3h0c0,.2.2.4.4.5.4.4,1.3.8,2.1.8h.5c.4-.2.6-.4.6-.4.3,0,.5-.3.7-.3.3,0,.5-.4.6-.6h.2c.2,0,.7,0,.7-.5v-1.5c.2-.2.6-.5.7-1.2h1.1c.7-.2.9-.8.9-1.2v-.8c-.2-.5-.8-.9-1.1-1.1v-.5c0-.4-.2-.6-.3-.7-.2-.5-.6-.7-1-.8v-4.2c.7-.2,1.5-.7,1.9-1.6h.9c.5-.2.9-.6.9-.6.2-.2.4-.4.4-.6l2.6,1.2v.4h0v.2c0,.5.4.7.4.7h0v1.3s0,.8.6,1.5h0s-.3.7-.4.8c-.3.2-1.3,1.5-1.3,2.6v.3c.2,1,.7,2.7.7,2.7,0,0,0,.2.2.2h.2c0,.3-.4,1-.5,1,0,0-.9.6-1.6,2.5h-.6c-.3,0-.8,0-1.2.5s-.7.7-.8.7h0c-.2-.5-.3-1-.3-1.4,0-2.2,2.5-3.3,2.5-3.3,0,0,.2-.2,0-.3s-.2-.2-.3,0h0s-.8.3-1.5,1v-2.2s.4-1.3,1-2.6c.5-1.3,1.3-2.7,1.6-2.8,0,0,.2-.2,0-.3s-.2-.2-.3,0c-.7.4-1.6,2.2-2.1,3.7.2-1.1.5-2.5.8-3.8,0,0,0-.2-.2-.3,0,0-.2,0-.3.2-.5,2.2-1,4.8-1.1,5.3v.4c0,1,0,2.7.2,2.9-.5.6-.8,1.3-.8,2.3s0,1.1.4,1.7h0c-.3.3-.4.6-.4.7,0,.2-.4,1.5-.4,1.8h0v.4h0l-.3.3h-.2c-.2-.2-.5-.7-.8-.8h-.3s-.4,0-.5.4h0s-.3,0-.4.5c0,.2,0,.3.3.5l.7.6s.6.5,1.1.7h.4c.2,0,.5,0,.8-.2v.2c-.2.3-.4.9-.4,1.3v.2s0,.5.6.6c.2,0,.4,0,.5-.3h0c-.2.5-.4,1-.5,1.3-.4,1-1.1,1.8-1.1,2.6h0l.2.5v-.5ZM56.6,59.4s-.2,0-.3.2c0,0-.3.5-.4,1.1,0,.3-.3.3-.3.3,0,0-.2-.2-.2-.4v-.6s0-.2-.2-.2-.2,0-.3.2h0v.7c0,.3,0,.5.3.7v.6h0c-.2.3-.5.4-.8.4h-.3c-.3,0-.9-.6-.9-.6l-.7-.6h0s.3,0,.4-.5h.2l.6.7h.2c.3,0,.7-.3.8-.4.2-.3.2-.6.2-.8h-.2.2c0-.2.3-1.5.4-1.6,0-.2,0,0,.7-1l.8-.8c.4-.3.7-.4.9-.4h.4c-.3.9-.6,2.2-.8,3.8,0,0-.4,1.3-.8,2.7h0l-.5.8-.4.6h0v-.3h0c0-.2.2-.9.3-1,0-.2.2-.6.2-1v-.7c.2,0,.7-.2.7-.7s.2-.6.3-1c0,0,0-.2-.2-.3h0l-.2-.2v.3ZM54.6,83.3l-6.5-2.2v-1.4l6.5,2.2v1.4h0ZM67.7,79.7l-12.6,3.7v-1.5l12.6-3.6v1.4ZM59.5,79.2s.2,0,.2-.2l-.3-2,1.1-.3,6.4,1.3-12.1,3.4-6.2-2,6.2-1.5-.4,2s0,.2.2.3.2,0,.3,0l.9-2.3,2.7-.6.7,1.9s.2.2.3,0h0ZM56.1,77.3l1.3-3.3,1,2.8-2.3.5ZM58.9,76.6h0l-1.3-3.4s0-.2-.2-.2h-.2l-1.7,4.2h0l.4-3h0c0-.2.3-.6.4-.9,0-.5.5-1.9.9-2.5.2-.3.6-.5.8-.6v.6l.9,5.6h0v.2ZM62.6,59.3c-1.6,3-4,5.7-4.1,6.2,0,.2-.2.5-.2.9s0,1.1.3,2.1v.7c0,.5,0,.9-.3,1.3v-.3s0-.2-.3-.2c0,0-.9,0-1.4.8-.5.7-.8,2.1-1,2.7,0,.3-.2.6-.3.8v-.4l-.2-3.1v-.2c-.2,0-.3-.2-.4-.4h0v-1.6c0-.6.6-1.4,1.1-2.4.2-.5.6-1.7,1-2.9.4-1.4.8-2.8.8-2.8.2-1.8.5-3,.8-3.9.7-2,1.3-2.3,1.5-2.5.3-.3.7-1.4.7-1.5h0l4.3-.5s.3,0,.6-.2l-1.3,2.8h0v.4c0,1-.4,2.2-1,3.4-.2.3-.3.6-.5.9h0-.2ZM67.1,62.7s-1.8,2.7-2,3c-.2.3-.2.8-.2,1.3v.5c0,.2-.2.7-.2.7v.2c0,.5.3,1.1.6,1.4.3.4.7.6.8.9h0c0,.3-.3.7-.7.9-.2,0-.8.2-1.5.2h-1.4c-.6,0-.7-.5-.7-.8v-.2s.4-1.3.5-1.5v-1.5h0c0-.4.4-1.4.8-1.9.3-.5.4-1.2.4-1.8v-5.4c1.9-.4,3.5-.6,4.7-.8-.3,3.6-1.1,4.7-1.1,4.8h0ZM68.8,71.2l-.5-1.8c-.4-1-.5-1.9-.5-2.7,0-1.6.6-2.7.8-3.2.2-.6,1.7-3.5,1.7-3.5l.9-1.9v-.6c.2,0,.2-.3.2-.5.2-1,.6-2.8.6-3.5h0c0-.9-.3-2.3-.6-2.9,0-.3-.2-.6-.2-.8v-.7c0-.4.6-2.5.7-3.2h2.8s.9-.2,1.6-.6v-.3h-.3c-.5.3-1.4.4-1.4.4l-4.2.2s-.2,0-.2.2,0,.2.2.2h.9c-.2.6-.7,2.6-.7,3v.7c0,.2,0,.6.2,1,.2.5.5,2,.5,2.6h0c0,.7-.3,2.5-.6,3.5v.3h-2.4c-1.2,0-2.9.3-4.7.7.5-1.1.9-2.2.9-3.2v-.3l1.4-3h0v-.2c.3-.2.7-.4.9-.6.6-.7,2.1-3.2,2.1-3.2h0c0-.2.3-.4.4-.7h0v-.4c.2-.5.5-1.1.8-1.7,0,0,.5-.3.6-.3,1.7-.7,2.3-2.8,2.3-2.9v-.2c.9,1,3,3.3,5.4,4-2.1,2.6-3.8,5.4-5,8.1v-2.8s0-.2-.2-.2-.2,0-.2.2v.7c0,.5,0,1.6.2,2.9h0c-3,7-3.4,13-3.4,13h0v.3c0,.6.5,1.2,1.9,1.7h0c0,.5-.2.9-.3,1.2-.5,1.3-.9,2.2-.9,2.8h0v.9h0c-.9-.2-1-.2-1.9-2.8h.2ZM70.5,67.4s.7-1,.8-1.1c.3-.2.8-.6,1.4-1.1,0,.7-.3,2.3-.5,3.6h0c-1.3-.4-1.6-.9-1.6-1.2s0,0,0,0h0v-.2ZM75.6,76.9h0c0,.2-.6.8-.8.9-.2,0-.7.3-1,.5h-.9c-.3,0-1-.3-1-.3h-1c-.4,0-.2,0-.2,0-.2,0-.3-.4-.4-1.1h0v-.6c0-.4.3-.8.4-1,.2-.4.5-1.7.5-2.2h-.2.2c0-.4.4-1.4.9-2.7.6-1.4,1-5.6,1-5.7h0c2.2-1.9,5.4-4.5,6.2-5.7,0-.2.2-.3.4-.4v.2c0,5-4.9,11.9-5.4,12.9-.2.3-.2.7-.2,1.1,0,.6,0,1.2.2,1.6s0,.5,0,.5c0,0,1.1,1.6,1,1.8h0l.2.2h.1ZM84,74.8h-3.8c-1.5-.3-3.5-2.5-3.5-2.5h-.3v.3h0s1.2,1.4,2.6,2.2h-4.1c0-.4-.2-.9-.2-1.3s0-.7.2-.9c.3-.6,2.5-3.7,4-7.3.8.9,1.7,1.8,2.4,2.7h0c0,4.8,2.2,6.7,3.5,7.4h-.7v-.6ZM85.8,74.7h0s-3.8-.7-4.1-6.8c1.3,1.4,2.3,2.4,2.3,2.4h.4v-.3s-2.7-2.8-5.2-5.6h0c.7-1.8,1.2-3.7,1.2-5.4v-.5c.8-.5,1.7-.6,2.3-.6s.5,0,.5,0c0,0,.2,0,.3-.2,0,0,0-.2-.2-.3h-.6c-.7,0-1.8,0-2.7.7-.3.2-.6.5-.8.8-.8,1.1-4.1,3.9-6.3,5.6-.7.6-1.3,1.1-1.7,1.3l-.2.2-.2.2c.4-3,2-12.9,8.7-20.9h1.1l-1.7,6.6s0,.2.2.3c0,0,.2,0,.3-.2l1.7-6.8h0c.5,0,.9-.3,1.4-.6.6-.4,2.7-1.5,3.3-2.5l1.9-1.6s.4-.4.8-.9c.8,2.2,1.4,5.3,1.9,9.4.2,1.5.2,2.9.2,4.3,0,5.1-1,9.5-1.7,12.3,0-2.7-.5-7.3-.5-10.5s0-1.9.2-2.5c.2-1.1.3-2.2.3-3.1,0-1.9-.3-3.2-.3-3.2,0,0,0-.2-.3-.2s-.2.2-.2.3c0,0,.2,1.3.2,3.1s0,2-.2,3c0,.7-.2,1.5-.2,2.6,0,3.7.6,9.2.6,11.6s0,.6,0,.8h0c-.2.6-.2,1.3-.2,1.9,0,2,.6,4.1,1.4,4.9-.8,0-2.4.2-3.8.3h-.1Z"/>
            <path class="st0" d="M66.1,46.2l-1.9.4s-.2.2-.2.3.1.2.3.2h1.3v-.3h0l.7-.2s.2-.2.2-.3-.2-.2-.3-.2h0Z"/>
            <polygon class="st0" points="53.3 37.5 53.3 37.5 53.3 37.5 53.3 37.5"/>
            <path class="st0" d="M50.4,35.5h.2s.2-.3.4-.5h0c0,.2.2.3.3.2v-.3h0v-.2h.3v-.3h-.3c-.7,0-1.2.9-1.2.9v.3h.3Z"/>
            <path class="st0" d="M60.6,25.2c0,.1,0,.2.2.3h0s.2,0,.2-.2h.5s.2-.1.2-.2,0-.2-.2-.2c-.6,0-1.3-.4-1.3-.4h-.3v.3s.2.1.5.2v.2s.2,0,.2,0Z"/>
            <path class="st0" d="M44.3,26.8v.3l.4.2v.2c-.2.1-.2.2,0,.3s.2,0,.3,0v-.2l.5.3h0s.2,0,.2-.1v-.3l-1.2-.8h-.3,0Z"/>
            <path class="st0" d="M61.5,27.5c-.3,0-.6-.2-.6-.2h-.3v.3s.3.3.9.3h0s.2,0,.2-.2,0-.2-.2-.2h0Z"/>
            <path class="st0" d="M51.3,54.1s.2,0,.3-.2c0,0,0-.2-.2-.3,0,0-.8-.2-.8-.4s-.2,0-.3,0c0,0-.2.2,0,.3l.3.3h0v.3h.4l.2-.2h.3-.2v.2Z"/>
            <path class="st0" d="M61.7,26.8h-.5v.2c0,.2.2.4.7.4h0s.2,0,.2-.2,0-.2-.2-.2h0s-.2-.2-.2-.2Z"/>
            <path class="st0" d="M81.4,38.2h.2l1.8-1.8v-.3h-.3l-1.8,1.8v.3h.2,0Z"/>
          </g>
          <g>
            <g id="_Ripetizione_radiale_">
              <rect class="st0" x="51.4" y="98.2" width="2.3" height="6"/>
            </g>
            <g id="_Ripetizione_radiale_-2">
              <rect class="st0" x="41.8" y="99.4" width="6" height="2.3" transform="translate(-61.5 129.1) rotate(-81)"/>
            </g>
            <g id="_Ripetizione_radiale_-3">
              <rect class="st0" x="34.4" y="97.6" width="6" height="2.3" transform="translate(-68.1 103.8) rotate(-72)"/>
            </g>
            <g id="_Ripetizione_radiale_-4">
              <rect class="st0" x="27.3" y="94.7" width="6" height="2.3" transform="translate(-68.9 79.3) rotate(-63)"/>
            </g>
            <g id="_Ripetizione_radiale_-5">
              <rect class="st0" x="20.7" y="90.8" width="6" height="2.3" transform="translate(-64.6 57.1) rotate(-54)"/>
            </g>
            <g id="_Ripetizione_radiale_-6">
              <rect class="st0" x="14.9" y="85.7" width="6" height="2.3" transform="translate(-56.2 38.1) rotate(-45)"/>
            </g>
            <g id="_Ripetizione_radiale_-7">
              <rect class="st0" x="9.9" y="79.8" width="6" height="2.3" transform="translate(-45.1 23) rotate(-36)"/>
            </g>
            <g id="_Ripetizione_radiale_-8">
              <rect class="st0" x="5.9" y="73.2" width="6" height="2.3" transform="translate(-32.8 12.1) rotate(-27)"/>
            </g>
            <g id="_Ripetizione_radiale_-9">
              <rect class="st0" x="2.9" y="66.1" width="6" height="2.3" transform="translate(-20.5 5.1) rotate(-18)"/>
            </g>
            <g id="_Ripetizione_radiale_-10">
              <rect class="st0" x="1.1" y="58.6" width="6" height="2.3" transform="translate(-9.3 1.4) rotate(-9)"/>
            </g>
            <g id="_Ripetizione_radiale_-11">
              <rect class="st0" x=".5" y="51" width="6" height="2.3"/>
            </g>
            <g id="_Ripetizione_radiale_-12">
              <rect class="st0" x="2.8" y="41.4" width="2.3" height="6" transform="translate(-40.5 41.4) rotate(-81)"/>
            </g>
            <g id="_Ripetizione_radiale_-13">
              <rect class="st0" x="4.7" y="33.8" width="2.3" height="6" transform="translate(-31 31) rotate(-72)"/>
            </g>
            <g id="_Ripetizione_radiale_-14">
              <rect class="st0" x="7.6" y="26.7" width="2.3" height="6" transform="translate(-21.7 24) rotate(-63)"/>
            </g>
            <g id="_Ripetizione_radiale_-15">
              <rect class="st0" x="11.7" y="20.2" width="2.3" height="6" transform="translate(-13.5 20) rotate(-54)"/>
            </g>
            <g id="_Ripetizione_radiale_-16">
              <rect class="st0" x="16.8" y="14.4" width="2.3" height="6" transform="translate(-7 17.8) rotate(-45)"/>
            </g>
            <g id="_Ripetizione_radiale_-17">
              <rect class="st0" x="22.7" y="9.4" width="2.3" height="6" transform="translate(-2.7 16.4) rotate(-36)"/>
            </g>
            <g id="_Ripetizione_radiale_-18">
              <rect class="st0" x="29.1" y="5.4" width="2.3" height="6" transform="translate(-.5 14.7) rotate(-27)"/>
            </g>
            <g id="_Ripetizione_radiale_-19">
              <rect class="st0" x="36.3" y="2.4" width="2.3" height="6" transform="translate(.2 11.8) rotate(-18)"/>
            </g>
            <g id="_Ripetizione_radiale_-20">
              <rect class="st0" x="43.8" y=".6" width="2.3" height="6" transform="translate(0 7.1) rotate(-9)"/>
            </g>
            <g id="_Ripetizione_radiale_-21">
              <rect class="st0" x="51.4" width="2.3" height="6"/>
            </g>
            <g id="_Ripetizione_radiale_-22">
              <rect class="st0" x="57.2" y="2.3" width="6" height="2.3" transform="translate(47.4 62.4) rotate(-81)"/>
            </g>
            <g id="_Ripetizione_radiale_-23">
              <rect class="st0" x="64.7" y="4.2" width="6" height="2.3" transform="translate(41.7 68.1) rotate(-72)"/>
            </g>
            <g id="_Ripetizione_radiale_-24">
              <rect class="st0" x="71.9" y="7.2" width="6" height="2.3" transform="translate(33.5 71.3) rotate(-63)"/>
            </g>
            <g id="_Ripetizione_radiale_-25">
              <rect class="st0" x="78.5" y="11.2" width="6" height="2.3" transform="translate(23.6 71) rotate(-54)"/>
            </g>
            <g id="_Ripetizione_radiale_-26">
              <rect class="st0" x="84.3" y="16.2" width="6" height="2.3" transform="translate(13.3 66.8) rotate(-45)"/>
            </g>
            <g id="_Ripetizione_radiale_-27">
              <rect class="st0" x="89.3" y="22.1" width="6" height="2.3" transform="translate(4 58.7) rotate(-36)"/>
            </g>
            <g id="_Ripetizione_radiale_-28">
              <rect class="st0" x="93.4" y="28.6" width="6" height="2.3" transform="translate(-3 47) rotate(-27)"/>
            </g>
            <g id="_Ripetizione_radiale_-29">
              <rect class="st0" x="96.4" y="35.8" width="6" height="2.3" transform="translate(-6.5 32.5) rotate(-18)"/>
            </g>
            <g id="_Ripetizione_radiale_-30">
              <rect class="st0" x="98.1" y="43.3" width="6" height="2.3" transform="translate(-5.7 16.4) rotate(-9)"/>
            </g>
            <g id="_Ripetizione_radiale_-31">
              <rect class="st0" x="98.7" y="50.9" width="6" height="2.3"/>
            </g>
            <g id="_Ripetizione_radiale_-32">
              <rect class="st0" x="99.8" y="56.8" width="2.3" height="6" transform="translate(26.1 150.2) rotate(-81)"/>
            </g>
            <g id="_Ripetizione_radiale_-33">
              <rect class="st0" x="98.1" y="64.3" width="2.3" height="6" transform="translate(4.6 140.9) rotate(-72)"/>
            </g>
            <g id="_Ripetizione_radiale_-34">
              <rect class="st0" x="95.2" y="71.4" width="2.3" height="6" transform="translate(-13.7 126.5) rotate(-63)"/>
            </g>
            <g id="_Ripetizione_radiale_-35">
              <rect class="st0" x="91.3" y="78" width="2.3" height="6" transform="translate(-27.4 108.2) rotate(-54)"/>
            </g>
            <g id="_Ripetizione_radiale_-36">
              <rect class="st0" x="86.2" y="83.8" width="2.3" height="6" transform="translate(-35.8 87.2) rotate(-45)"/>
            </g>
            <g id="_Ripetizione_radiale_-37">
              <rect class="st0" x="80.3" y="88.8" width="2.3" height="6" transform="translate(-38.4 65.4) rotate(-36)"/>
            </g>
            <g id="_Ripetizione_radiale_-38">
              <rect class="st0" x="73.7" y="92.9" width="2.3" height="6" transform="translate(-35.4 44.4) rotate(-27)"/>
            </g>
            <g id="_Ripetizione_radiale_-39">
              <rect class="st0" x="66.6" y="95.8" width="2.3" height="6" transform="translate(-27.2 25.8) rotate(-18)"/>
            </g>
            <g id="_Ripetizione_radiale_-40">
              <rect class="st0" x="59.1" y="97.6" width="2.3" height="6" transform="translate(-15 10.7) rotate(-9)"/>
            </g>
          </g>
        </g>
      </g>
      <g>
        <path class="st0" d="M323.1,158.2h0c0,.3-.2.5-.5.5H1c-.3,0-.5-.2-.5-.5h0c0-.3.2-.5.5-.5h321.5c.3,0,.5.2.5.5h.1Z"/>
        <g>
          <path class="st0" d="M0,170.7c0-.2.2-.5.4-.5h5.6c4.8,0,8.7,3.9,8.7,8.6s-3.9,8.7-8.7,8.7H.4c-.2,0-.4-.2-.4-.5v-16.4h0ZM5.6,185.9c4.1,0,7-2.9,7-7s-2.9-7-7-7H1.9v14h3.7Z"/>
          <path class="st0" d="M19,170.7c0-.2.2-.5.5-.5h1c.2,0,.5.2.5.5v16.4c0,.2-.2.5-.5.5h-1c-.2,0-.5-.2-.5-.5v-16.4Z"/>
          <path class="st0" d="M26.5,170.7c0-.2.2-.5.5-.5h5.5c3,0,5.5,2.5,5.5,5.5s-2.5,5.6-5.5,5.6h-4.1v5.8c0,.2-.2.5-.5.5h-.9c-.3,0-.5-.2-.5-.5v-16.4h0ZM32.3,179.5c2,0,3.8-1.7,3.8-3.8s-1.7-3.6-3.8-3.6h-3.9v7.3h3.9Z"/>
          <path class="st0" d="M38.7,187l7.5-16.7c0-.1.2-.3.4-.3h.2c.2,0,.3.1.4.3l7.5,16.7c.2.3,0,.6-.4.6h-1c-.2,0-.4-.1-.4-.3l-1.8-4.1h-8.8l-1.8,4.1c0,.1-.2.3-.4.3h-1c-.4,0-.6-.3-.4-.6h0ZM50.5,181.7c-1.2-2.7-2.4-5.4-3.6-8.1h-.2l-3.6,8.1s7.4,0,7.4,0Z"/>
          <path class="st0" d="M58,170.7c0-.2.2-.5.5-.5h6.4c3,0,5.4,2.3,5.4,5.3s-1.5,4.2-3.7,5.1l3.4,6.3c.2.3,0,.7-.4.7h-1.3c-.2,0-.3-.1-.4-.2l-3.3-6.6h-4.7v6.3c0,.2-.2.5-.5.5h-1c-.3,0-.5-.2-.5-.5v-16.4h.1ZM64.8,179.2c1.9,0,3.6-1.6,3.6-3.6s-1.7-3.5-3.6-3.5h-4.8v7.1h4.8Z"/>
          <path class="st0" d="M77.3,171.9h-4.3c-.3,0-.5-.2-.5-.5v-.7c0-.2.2-.5.5-.5h10.5c.3,0,.5.2.5.5v.7c0,.2-.2.5-.5.5h-4.3v15.2c0,.2-.2.5-.5.5h-.9c-.2,0-.5-.2-.5-.5v-15.2h0Z"/>
          <path class="st0" d="M87.2,170.7c0-.2.2-.5.5-.5h1c.2,0,.5.2.5.5v16.4c0,.2-.2.5-.5.5h-1c-.2,0-.5-.2-.5-.5v-16.4Z"/>
          <path class="st0" d="M96.7,170.4c0-.2.2-.4.4-.4h.4c.2,0,.4.1.4.3l4.9,13.7h0l4.8-13.7c0-.1.2-.3.4-.3h.4c.2,0,.4.1.4.4l3.2,16.7c0,.4,0,.6-.4.6h-1c-.2,0-.4-.2-.4-.4l-2.2-12.8h0l-4.6,13.1c0,.1-.3.3-.4.3h-.4c-.2,0-.4-.1-.4-.3l-4.6-13.1h0l-2.2,12.8c0,.2-.2.4-.4.4h-1c-.4,0-.5-.2-.4-.6l3.2-16.7h-.2,0Z"/>
          <path class="st0" d="M116.6,170.7c0-.2.2-.5.5-.5h9.8c.3,0,.5.2.5.5v.7c0,.2-.2.5-.5.5h-8.3v6.1h7.1c.2,0,.5.2.5.5v.7c0,.3-.2.5-.5.5h-7.1v6.3h8.3c.3,0,.5.2.5.5v.7c0,.2-.2.5-.5.5h-9.8c-.3,0-.5-.2-.5-.5v-16.4h0Z"/>
          <path class="st0" d="M131.8,170.5c0-.2.2-.4.5-.4h.6l11.2,13.9h0v-13.2c0-.2.2-.5.5-.5h.9c.2,0,.5.2.5.5v16.7c0,.2-.2.4-.5.4h-.4l-11.4-14.2h0v13.5c0,.2-.2.5-.5.5h-.9c-.2,0-.5-.2-.5-.5v-16.7h0Z"/>
          <path class="st0" d="M153.9,171.9h-4.3c-.3,0-.5-.2-.5-.5v-.7c0-.2.2-.5.5-.5h10.5c.3,0,.5.2.5.5v.7c0,.2-.2.5-.5.5h-4.3v15.2c0,.2-.2.5-.5.5h-.9c-.2,0-.5-.2-.5-.5v-15.2h0Z"/>
          <path class="st0" d="M171.2,170c5,0,8.9,4,8.9,8.9s-4,8.9-8.9,8.9-8.9-3.9-8.9-8.9,3.9-8.9,8.9-8.9ZM171.2,186.1c3.9,0,7.2-3.2,7.2-7.2s-3.2-7.2-7.2-7.2-7.2,3.3-7.2,7.2,3.2,7.2,7.2,7.2Z"/>
          <path class="st0" d="M190.4,170.7c0-.2.2-.5.4-.5h5.6c4.8,0,8.7,3.9,8.7,8.6s-3.9,8.7-8.7,8.7h-5.6c-.2,0-.4-.2-.4-.5v-16.4h0ZM196,185.9c4.1,0,7-2.9,7-7s-2.9-7-7-7h-3.7v14h3.7Z"/>
          <path class="st0" d="M209.4,170.7c0-.2.2-.5.5-.5h1c.2,0,.5.2.5.5v16.4c0,.2-.2.5-.5.5h-1c-.2,0-.5-.2-.5-.5v-16.4Z"/>
          <path class="st0" d="M222.9,170.7c0-.2.2-.5.4-.5h5.6c4.8,0,8.7,3.9,8.7,8.6s-3.9,8.7-8.7,8.7h-5.6c-.2,0-.4-.2-.4-.5v-16.4h0ZM228.5,185.9c4.1,0,7-2.9,7-7s-2.9-7-7-7h-3.7v14h3.7Z"/>
          <path class="st0" d="M242,170.7c0-.2.2-.5.5-.5h9.8c.3,0,.5.2.5.5v.7c0,.2-.2.5-.5.5h-8.3v6.1h7.1c.2,0,.5.2.5.5v.7c0,.3-.2.5-.5.5h-7.1v6.3h8.3c.3,0,.5.2.5.5v.7c0,.2-.2.5-.5.5h-9.8c-.3,0-.5-.2-.5-.5v-16.4h0Z"/>
          <path class="st0" d="M256,185c.1-.1.2-.3.4-.5.2-.3.5-.5.9-.2.2.1,2,1.9,4.2,1.9s3.3-1.3,3.3-2.7-1.5-2.7-4.3-3.9c-2.7-1.2-4.4-2.3-4.4-5.1s1.3-4.4,5.3-4.4,4.2,1.3,4.2,1.3c.1,0,.4.4.1.8-.1.1-.2.3-.3.5-.2.4-.5.4-.9.2s-1.7-1.1-3.2-1.1c-2.6,0-3.4,1.7-3.4,2.7,0,1.7,1.3,2.6,3.4,3.5,3.4,1.4,5.5,2.6,5.5,5.5s-2.5,4.5-5.4,4.5-4.9-1.7-5.2-2c-.2-.2-.4-.4-.1-.8h0v-.2h-.1Z"/>
          <path class="st0" d="M270.9,170.7c0-.2.2-.5.5-.5h1c.2,0,.5.2.5.5v16.4c0,.2-.2.5-.5.5h-1c-.2,0-.5-.2-.5-.5v-16.4Z"/>
          <path class="st0" d="M286,170c2.5,0,4.3.9,6,2.3.2.2.2.5,0,.7s-.5.5-.7.7-.4.2-.6,0c-1.3-1.1-3-1.9-4.7-1.9-3.9,0-6.9,3.3-6.9,7.1s3,7.2,6.9,7.2,4.5-1,4.5-1v-3.5h-2.9c-.3,0-.5-.2-.5-.4v-.9c0-.3.2-.5.5-.5h4.3c.2,0,.4.2.4.5v5.7c0,.1-.1.3-.2.4,0,0-2.5,1.6-6.1,1.6s-9-3.9-9-8.9,4-8.9,9-8.9h0v-.2h0Z"/>
          <path class="st0" d="M297,170.5c0-.2.2-.4.5-.4h.6l11.2,13.9h0v-13.2c0-.2.2-.5.5-.5h.9c.2,0,.5.2.5.5v16.7c0,.2-.2.4-.5.4h-.4l-11.4-14.2h0v13.5c0,.2-.2.5-.5.5h-.9c-.2,0-.5-.2-.5-.5v-16.7h0Z"/>
        </g>
      </g>
    </g>
  </g>
  <g id="sfondo1">
    <g>
      <g>
        <path class="st0" d="M394.9,58.2s0-.2.2-.2h3.8s.2,0,.2.2v.8s0,.2-.2.2h-2.8v1.7h2.3s.2,0,.2.2v.8s0,.2-.2.2h-2.3v2.4s0,.2-.2.2h-.9s-.2,0-.2-.2v-6.1h.1Z"/>
        <path class="st0" d="M404.3,57.9c1.8,0,3.3,1.5,3.3,3.3s-1.5,3.3-3.3,3.3-3.3-1.5-3.3-3.3,1.5-3.3,3.3-3.3ZM404.3,63.5c1.2,0,2.1-1,2.1-2.1s-1-2.1-2.1-2.1-2.1,1-2.1,2.1,1,2.1,2.1,2.1Z"/>
        <path class="st0" d="M410,58.2s0-.2.2-.2h.9s.2,0,.2.2v3.8c0,.8.5,1.4,1.4,1.4s1.4-.6,1.4-1.4v-3.9s0-.2.2-.2h.9s.2,0,.2.2v3.9c0,1.4-1.1,2.6-2.6,2.6s-2.6-1.2-2.6-2.6v-3.9h-.2Z"/>
        <path class="st0" d="M418.2,58.1s0-.2.2-.2h.2l3.9,4.1h0v-3.9s0-.2.2-.2h.9s.2,0,.2.2v6.2s0,.2-.2.2h-.2l-3.9-4.3h0v4s0,.2-.2.2h-.9s-.2,0-.2-.2v-6.2h0Z"/>
        <path class="st0" d="M426.7,58.2s0-.2.2-.2h2.3c1.8,0,3.2,1.5,3.2,3.2s-1.5,3.2-3.2,3.2h-2.3s-.2,0-.2-.2v-6.1h0ZM428.9,63.4c1.2,0,2.1-1,2.1-2.1s-.9-2.1-2.1-2.1h-1.1v4.3h1.1Z"/>
        <path class="st0" d="M434.8,58.2s0-.2.2-.2h3.8s.2,0,.2.2v.8s0,.2-.2.2h-2.8v1.5h2.3s.2,0,.2.2v.8s0,.2-.2.2h-2.3v1.6h2.8s.2,0,.2.2v.8s0,.2-.2.2h-3.8s-.2,0-.2-.2v-6.1h0Z"/>
        <path class="st0" d="M441.6,58.2s0-.2.2-.2h2.3c1.8,0,3.2,1.5,3.2,3.2s-1.5,3.2-3.2,3.2h-2.3s-.2,0-.2-.2v-6.1h0ZM443.8,63.4c1.2,0,2.1-1,2.1-2.1s-.9-2.1-2.1-2.1h-1.1v4.3h1.1Z"/>
        <path class="st0" d="M453.1,58.2s0-.2.2-.2h2.1c1.1,0,1.9.8,1.9,1.7s-.5,1.3-1.1,1.5c.5,0,1.2.6,1.2,1.5s-.9,1.8-2,1.8h-2.3s-.2,0-.2-.2v-6.1h.1ZM455.3,60.8c.4,0,.8-.3.8-.9s-.3-.8-.8-.8h-1v1.6h1ZM455.4,63.5c.4,0,.9-.3.9-.9s-.4-.9-1-.9h-1v1.6h1.1Z"/>
        <path class="st0" d="M461.3,61.4l-2.1-3.1s0-.2.1-.2h1.1l1.5,2.1,1.5-2.1h1.1c.1,0,.2,0,.1.2l-2.1,3.1v3s0,.2-.2.2h-.9s-.2,0-.2-.2v-3h.2Z"/>
        <path class="st0" d="M470.2,58.2s0-.2.2-.2h2.1c1.2,0,2,1,2,2s-1,2.1-2,2.1h-1.2v2.1s0,.2-.2.2h-.9s-.2,0-.2-.2v-6.1h.1ZM472.5,61c.5,0,1-.4,1-1s-.4-.9-1-.9h-1.1v1.8h1.1Z"/>
        <path class="st0" d="M479.9,57.9c1.8,0,3.3,1.5,3.3,3.3s-1.5,3.3-3.3,3.3-3.3-1.5-3.3-3.3,1.5-3.3,3.3-3.3ZM479.9,63.5c1.2,0,2.1-1,2.1-2.1s-1-2.1-2.1-2.1-2.1,1-2.1,2.1,1,2.1,2.1,2.1Z"/>
        <path class="st0" d="M485.8,58.2s0-.2.2-.2h.9s.2,0,.2.2v5.3h2.4s.2,0,.2.2v.8s0,.2-.2.2h-3.4s-.2,0-.2-.2v-6.1h0Z"/>
        <path class="st0" d="M491.8,58.2s0-.2.2-.2h.9s.2,0,.2.2v6.1s0,.2-.2.2h-.9s-.2,0-.2-.2v-6.1Z"/>
        <path class="st0" d="M496.8,59.2h-1.4s-.2,0-.2-.2v-.8s0-.2.2-.2h4.1s.2,0,.2.2v.8s0,.2-.2.2h-1.4v5.3s0,.2-.2.2h-.9s-.2,0-.2-.2v-5.3h0Z"/>
        <path class="st0" d="M501.9,58.2s0-.2.2-.2h3.8s.2,0,.2.2v.8s0,.2-.2.2h-2.8v1.5h2.3s.2,0,.2.2v.8s0,.2-.2.2h-2.3v1.6h2.8s.2,0,.2.2v.8s0,.2-.2.2h-3.8s-.2,0-.2-.2v-6.1h0Z"/>
        <path class="st0" d="M511.5,57.9c1,0,1.6.3,2.3.9v.2l-.5.5h-.2c-.4-.3-1-.5-1.4-.5-1.2,0-2,1-2,2.1s.9,2.1,2,2.1,1.1-.2,1.4-.5h.2l.5.6v.2c-.6.6-1.4.9-2.3.9-1.8,0-3.3-1.5-3.3-3.3s1.5-3.3,3.3-3.3h0Z"/>
        <path class="st0" d="M516.3,58.1s0-.2.2-.2h.2l3.9,4.1h0v-3.9s0-.2.2-.2h.9s.2,0,.2.2v6.2s0,.2-.2.2h-.2l-3.9-4.3h0v4s0,.2-.2.2h-.9s-.2,0-.2-.2v-6.2h0Z"/>
        <path class="st0" d="M524.8,58.2s0-.2.2-.2h.9s.2,0,.2.2v6.1s0,.2-.2.2h-.9s-.2,0-.2-.2v-6.1Z"/>
        <path class="st0" d="M531.9,57.9c1,0,1.6.3,2.3.9v.2l-.5.5h-.2c-.4-.3-1-.5-1.4-.5-1.2,0-2,1-2,2.1s.9,2.1,2,2.1,1.1-.2,1.4-.5h.2l.5.6v.2c-.6.6-1.4.9-2.3.9-1.8,0-3.3-1.5-3.3-3.3s1.5-3.3,3.3-3.3h0Z"/>
        <path class="st0" d="M539.5,57.9c1.8,0,3.3,1.5,3.3,3.3s-1.5,3.3-3.3,3.3-3.3-1.5-3.3-3.3,1.5-3.3,3.3-3.3ZM539.5,63.5c1.2,0,2.1-1,2.1-2.1s-1-2.1-2.1-2.1-2.1,1-2.1,2.1,1,2.1,2.1,2.1Z"/>
        <path class="st0" d="M548.7,58.2s0-.2.2-.2h2.3c1.8,0,3.2,1.5,3.2,3.2s-1.5,3.2-3.2,3.2h-2.3s-.2,0-.2-.2v-6.1h0ZM551,63.4c1.2,0,2.1-1,2.1-2.1s-.9-2.1-2.1-2.1h-1.1v4.3h1.1Z"/>
        <path class="st0" d="M556.9,58.2s0-.2.2-.2h.9s.2,0,.2.2v6.1s0,.2-.2.2h-.9s-.2,0-.2-.2v-6.1Z"/>
        <path class="st0" d="M565.1,58.1h.4l2,4.4h0l2-4.4h.4l1.1,6.2s0,.2-.2.2h-1.1l-.5-3.5h0l-1.6,3.6h-.4l-1.6-3.6h0l-.5,3.5h-1.1s-.2,0-.2-.2l1.1-6.2h.2,0Z"/>
        <path class="st0" d="M573.9,58.2s0-.2.2-.2h.9s.2,0,.2.2v6.1s0,.2-.2.2h-.9s-.2,0-.2-.2v-6.1Z"/>
        <path class="st0" d="M578.1,58.2s0-.2.2-.2h.9s.2,0,.2.2v5.3h2.4s.2,0,.2.2v.8s0,.2-.2.2h-3.4s-.2,0-.2-.2v-6.1h0Z"/>
        <path class="st0" d="M583.6,64.3l2.9-6.2h.2l2.9,6.2v.2h-.9s-.2,0-.2-.2l-.4-1h-2.8l-.4,1s0,.2-.2.2h-.9s-.2,0,0-.2h-.2ZM587.5,62.3l-1-2h0l-1,2h1.9Z"/>
        <path class="st0" d="M591.8,58.1s0-.2.2-.2h.2l3.9,4.1h0v-3.9s0-.2.2-.2h.9s.2,0,.2.2v6.2s0,.2-.2.2h-.2l-3.9-4.3h0v4s0,.2-.2.2h-.9s-.2,0-.2-.2v-6.2h0Z"/>
        <path class="st0" d="M603.2,57.9c1.8,0,3.3,1.5,3.3,3.3s-1.5,3.3-3.3,3.3-3.3-1.5-3.3-3.3,1.5-3.3,3.3-3.3ZM603.2,63.5c1.2,0,2.1-1,2.1-2.1s-1-2.1-2.1-2.1-2.1,1-2.1,2.1,1,2.1,2.1,2.1Z"/>
      </g>
      <g>
        <path class="st0" d="M394.8,23.7c0-.3.2-.6.6-.6h7.9c4.1,0,7.4,3.3,7.4,7.3s-3.3,7.4-7.4,7.4h-3.4v7.7c0,.3-.3.6-.6.6h-3.9c-.3,0-.6-.3-.6-.6v-21.9h0ZM403.1,32.9c1.4,0,2.6-1.1,2.6-2.6s-1.2-2.5-2.6-2.5h-3.1v5h3.1Z"/>
        <path class="st0" d="M426,22.7c6.6,0,11.9,5.4,11.9,11.9s-5.3,11.8-11.9,11.8-11.8-5.3-11.8-11.8,5.3-11.9,11.8-11.9ZM426,41.2c3.6,0,6.6-3,6.6-6.5s-3-6.6-6.6-6.6-6.5,3-6.5,6.6,3,6.5,6.5,6.5Z"/>
        <path class="st0" d="M443.5,23.7c0-.3.2-.6.6-.6h4c.3,0,.6.3.6.6v17.6h7.8c.3,0,.6.3.6.6v3.6c0,.3-.2.6-.6.6h-12.4c-.3,0-.6-.3-.6-.6v-21.9Z"/>
        <path class="st0" d="M462.1,23.7c0-.3.3-.6.6-.6h4c.3,0,.6.3.6.6v21.9c0,.3-.3.6-.6.6h-4c-.3,0-.6-.3-.6-.6v-21.9Z"/>
        <path class="st0" d="M475.2,40.2c1.7,0,3.2,1.5,3.2,3.1s-1.5,3.1-3.2,3.1-3.1-1.4-3.1-3.1,1.4-3.1,3.1-3.1Z"/>
        <path class="st0" d="M484.4,23.7c0-.3.2-.6.6-.6h7.4c6.3,0,11.6,5.1,11.6,11.5s-5.3,11.6-11.6,11.6h-7.4c-.3,0-.6-.3-.6-.6v-21.8ZM491.8,43.8c5.4,0,9.3-3.9,9.3-9.3s-4-9.2-9.3-9.2h-4.9v18.6h4.9Z"/>
        <path class="st0" d="M510.6,23.7c0-.3.2-.6.6-.6h13c.3,0,.6.3.6.6v1c0,.3-.2.6-.6.6h-11v8h9.4c.3,0,.6.3.6.6v1c0,.3-.3.6-.6.6h-9.4v8.4h11c.3,0,.6.3.6.6v1c0,.3-.2.6-.6.6h-13c-.3,0-.6-.3-.6-.6v-21.8h0Z"/>
        <path class="st0" d="M530.3,42.7c.2-.2.3-.4.5-.6.3-.4.8-.6,1.2-.3.2.2,2.7,2.5,5.6,2.5s4.4-1.7,4.4-3.6-1.9-3.6-5.8-5.3c-3.6-1.6-5.8-3.1-5.8-6.9s1.8-5.9,7-5.9,5.7,1.7,5.7,1.7c.2,0,.6.5.2,1.1,0,.2-.2.4-.4.6-.3.4-.6.6-1.2.3-.2-.1-2.4-1.5-4.3-1.5-3.5,0-4.5,2.3-4.5,3.6,0,2.3,1.7,3.5,4.4,4.6,4.4,1.8,7.3,3.5,7.3,7.3s-3.2,5.9-7.1,5.9-6.5-2.3-7-2.7-.6-.5-.2-1.1h0v.2h0Z"/>
        <path class="st0" d="M551.1,23.7c0-.3.3-.6.6-.6h1.3c.3,0,.6.3.6.6v21.9c0,.3-.3.6-.6.6h-1.3c-.3,0-.6-.3-.6-.6v-21.9Z"/>
        <path class="st0" d="M572.2,22.7c3.3,0,5.7,1.2,7.9,3.1.2.2.3.6,0,1s-.6.6-1,1c-.3.3-.5.3-.9,0-1.7-1.5-4.1-2.6-6.2-2.6-5.3,0-9.2,4.4-9.2,9.4s4,9.5,9.2,9.5,5.9-1.4,5.9-1.4v-4.6h-3.8c-.3,0-.6-.2-.6-.6v-1.2c0-.3.2-.6.6-.6h5.7c.3,0,.6.3.6.6v7.5c0,.2,0,.4-.2.5,0,0-3.3,2.1-8.2,2.1s-11.9-5.3-11.9-11.8,5.4-11.9,11.9-11.9h0Z"/>
        <path class="st0" d="M587.8,23.3c0-.3.3-.6.6-.6h.9l14.9,18.6h0v-17.6c0-.3.2-.6.6-.6h1.2c.3,0,.6.3.6.6v22.2c0,.3-.3.6-.6.6h-.6l-15.1-18.9h0v17.9c0,.3-.2.6-.6.6h-1.2c-.3,0-.6-.3-.6-.6v-22.2h0Z"/>
      </g>
    </g>
  </g>
</svg>