<?xml version="1.0" encoding="UTF-8"?>
<svg id="Livello_2" data-name="Livello 2" xmlns="http://www.w3.org/2000/svg" viewBox="0 0 240.33 152.14">
  <g id="Livello_5" data-name="Livello 5">
    <g>
      <g>
        <path d="M211.67,42.68c6.59,0,11.55-4.8,11.55-11.81s-4.96-11.81-11.55-11.81-11.55,4.8-11.55,11.81,4.96,11.81,11.55,11.81Z"/>
        <polygon points="126.56 20.8 120.71 34.93 132.41 34.93 126.56 20.8"/>
        <path d="M0,0v152.14h237.55v-.24h2.78V0H0ZM211.67,11.78c11.6,0,20.2,8.07,20.2,19.09s-8.6,19.09-20.2,19.09-20.2-8.12-20.2-19.09,8.54-19.09,20.2-19.09ZM151.18,12.41h7.07l18.35,22.41V12.41h8.44v36.91h-7.01l-18.4-22.41v22.41h-8.44V12.41h-.01ZM122.39,12.41h8.44l16.51,36.91h-8.96l-3.27-7.91h-17.14l-3.27,7.91h-8.75l16.45-36.91h0ZM77.31,12.41h8.54v29.95h18.51v6.96h-27.05V12.41ZM60.54,12.41h8.54v36.91h-8.54V12.41ZM10.71,12.41h7.07l13.82,22.94,13.61-22.94h7.01l.11,36.91h-8.02l-.05-22.15-10.86,18.25h-3.85l-10.81-17.77v21.67h-8.02V12.41h-.01ZM78.57,142.75h-8.11l-10.17-27.41-10.35,27.41h-8.17l-13.64-37.04h7.94l10.23,28.15,10.64-28.15h7.05l10.41,28.31,10.52-28.31h7.29l-13.64,37.04ZM134.66,142.75h-30.87v-37.04h30.04v5.77h-22.4v9.63h19.87v5.66h-19.87v10.21h23.22v5.77h.01ZM179.4,142.75h-30.87v-37.04h30.04v5.77h-22.4v9.63h19.87v5.66h-19.87v10.21h23.22v5.77h0ZM221.97,142.75l-14.52-15.5-6.53,6.03v9.47h-7.64v-37.04h7.64v19l20.34-19h8.58l-17.28,16.56,18.34,20.48h-8.94.01ZM235.93,100.53H4.22v-45.99h231.71v45.99h0Z"/>
      </g>
      <g>
        <path d="M22.7,60.36h16.85c11.81,0,19.91,6.87,19.91,17.82s-8.1,17.82-19.91,17.82h-16.85s0-35.64,0-35.64ZM39.14,87.96c6.06,0,10.13-3.62,10.13-9.78s-4.07-9.78-10.13-9.78h-6.36v19.55h6.36Z"/>
        <path d="M94.64,88.21v7.79h-28.62v-35.64h27.95v7.79h-17.97v6.01h15.84v7.54h-15.84v6.52h18.64Z"/>
        <path d="M99.02,92.8l3.31-7.43c3.16,2.09,7.64,3.51,11.76,3.51s5.8-1.17,5.8-2.9c0-5.65-20.27-1.53-20.27-14.77,0-6.37,5.19-11.56,15.78-11.56,4.63,0,9.42,1.07,12.93,3.11l-3.11,7.49c-3.41-1.83-6.77-2.75-9.88-2.75-4.23,0-5.75,1.43-5.75,3.21,0,5.45,20.21,1.38,20.21,14.51,0,6.21-5.19,11.51-15.79,11.51-5.86,0-11.66-1.58-15.02-3.92h.03Z"/>
        <path d="M135.72,60.36h10.08v35.64h-10.08v-35.64Z"/>
        <path d="M178.14,77.42h8.91v14.77c-4.12,2.95-9.78,4.53-14.97,4.53-11.35,0-19.65-7.69-19.65-18.53s8.3-18.53,19.86-18.53c6.67,0,12.07,2.29,15.58,6.52l-6.42,5.8c-2.44-2.7-5.25-3.97-8.66-3.97-6.11,0-10.18,4.02-10.18,10.18s4.07,10.18,10.08,10.18c1.88,0,3.67-.36,5.45-1.17v-9.78h0Z"/>
        <path d="M228.64,60.36v35.64h-8.3l-15.73-18.99v18.99h-9.88v-35.64h8.3l15.73,18.99v-18.99h9.88Z"/>
      </g>
    </g>
  </g>
</svg>