<?xml version="1.0" encoding="UTF-8"?>
<svg id="Layer_1" xmlns="http://www.w3.org/2000/svg" version="1.1" viewBox="0 0 555 127">
  <!-- Generator: Adobe Illustrator 29.3.0, SVG Export Plug-In . SVG Version: 2.1.0 Build 146)  -->
  <path d="M554.1,85.3c-1.7,0-3.4,0-5,0-106.8,0-213.6,0-320.4,0-10.2,0-19.5,2.2-28.3,7.1-9,5-17.9,10.2-26.9,15.2-9.2,5.2-18.7,9.9-28.9,13.1-7.7,2.4-15.6,4-23.7,3.4-7.5-.6-14.8-2.5-21.8-5.2-12.3-4.6-23.5-11.1-34.9-17.6-6.9-3.9-13.8-7.9-20.9-11.4-6.9-3.4-14.3-5.1-22.1-4.3,0,0-.2,0-.4-.2,1.4-2.8,2.8-5.6,4.3-8.3.2-.3,1-.5,1.5-.4,8.3.5,15.9,3.2,23.1,7.2,10,5.5,19.8,11.2,29.8,16.8,9.4,5.2,19.2,9.5,29.6,12.4,11.7,3.2,23.1,2.4,34.5-1.2,12-3.8,22.9-9.6,33.8-15.8,8.2-4.7,16.5-9.4,24.8-13.8,8.1-4.2,16.7-6.2,25.9-5.7,1.4,0,2.8,0,4.2,0h320.1c.5,0,1.1,0,1.6,0v8.7h0Z"/>
  <path d="M213.8,126.3c-2.5-6.8-5.1-13.6-7.6-20.4-1.2-3.2-2.4-6.5-3.7-10,1.9-.8,3.7-1.7,5.6-2.5,6.5-2.6,13.2-3.9,20.2-3,1.6.2,2.7.8,3.5,2.4,5.4,10.8,10.9,21.5,16.4,32.2.2.4.3.9.5,1.3h-35Z"/>
  <path d="M0,126.3c1.7-3.4,3.3-6.8,5-10.2,4-7.8,8.1-15.6,12-23.5.7-1.4,1.6-2,3.2-2.2,8.2-1,15.9.9,23.4,4.3,2.6,1.2,2.6,1.2,1.6,3.9-3.2,8.8-6.4,17.5-9.6,26.3-.2.5-.3,1-.4,1.5H0Z"/>
  <path d="M27.2,72.6C39.4,48.9,51.5,25.4,63.8,1.5c18.6,36.6,37.1,72.9,55.8,109.6-2.1-.3-3.8-.5-5.5-.8-9.3-1.7-18.1-4.8-26.5-9.2-11.3-6-22.3-12.3-33.5-18.5-6.1-3.4-12.1-6.7-18.9-8.4-1.9-.5-4-.8-5.9-1.2-.6-.1-1.3-.2-2.1-.3h0Z"/>
  <path d="M128.8,109.8c18.6-36.2,37.1-72.5,55.9-109.1,12.2,23.8,24.3,47.4,36.4,71.2-1.4.2-2.6.4-3.8.6-7.8,1.3-14.8,4.6-21.7,8.5-10.2,5.7-20.2,11.5-30.5,17.1-8.4,4.5-17.2,8.2-26.5,10.4-3.2.8-6.4,1.2-9.6,1.8,0-.2-.1-.3-.2-.4h0Z"/>
  <path d="M258,71.7c-5.7.2-11.3-.5-16.6-2.6-8.2-3.3-14.6-8.6-16.8-17.4-3.6-14.5,2.3-27.2,15.8-32.8,12.7-5.3,25.6-4.7,37.6,2.4,8.3,4.9,12.3,12.5,12.4,22.3.1,14-9.9,24.5-22.8,27.3-3.1.7-6.4.8-9.6,1.2,0-.1,0-.2,0-.4h0ZM256.5,30.6c-1.1.2-2.8.3-4.6.7-5.2,1.1-9.3,5.2-9.9,9.8-.8,6.3,1.4,11.1,6.8,13.8,4.8,2.4,9.9,2.6,15,.9,8.3-2.8,11.2-13.2,5.6-19.9-3.2-3.8-7.4-5.1-12.9-5.3h0Z"/>
  <path d="M415.2,71.7c-5.2.2-10.7-.5-16-2.6-8.3-3.3-14.7-8.6-16.9-17.5-3.6-15.1,2.8-27.8,16.7-33.1,12.4-4.8,24.9-4.1,36.6,2.7,6,3.5,10.2,8.6,11.7,15.5,3.2,15.3-3.7,27.5-17.4,32.9-4.5,1.8-8.9,2.4-14.8,2.2h0ZM430,44.1c0-4.7-2-8.3-5.8-10.8-4.6-3-9.6-3.1-14.7-1.9-5.5,1.3-9.4,5.6-9.8,10.8-.5,6,2.3,10.8,7.8,13.2,4.2,1.8,8.5,2,12.9.9,6-1.5,9.6-6,9.7-12.2h0Z"/>
  <path d="M553.7,70h-7.9c-3.8,0-7.6,0-11.4,0-.9,0-1.4-.3-1.6-1.2-.4-1.6-.9-3.2-1.3-4.9-.2-.9-.6-1.3-1.6-1.3-5.3,0-10.7,0-16,0-1,0-1.4.4-1.6,1.3-.5,1.7-.9,3.3-1.5,5-.2.4-.8,1-1.2,1-6.3,0-12.6,0-18.9,0s-.5,0-.8-.2c.8-1.9,1.6-3.8,2.4-5.6,6.6-15.1,13.2-30.1,19.8-45.2.5-1.1,1-1.6,2.3-1.6,5.1,0,10.3,0,15.4,0,1,0,1.5.3,1.9,1.2,7.2,16.7,14.4,33.4,21.7,50,.2.3.2.7.4,1.3h0ZM522.1,32.8h-.6c-.2,1.2-.2,2.4-.5,3.6-1.3,4.6-2.6,9.1-3.9,13.7-.4,1.5-.5,1.6,1.2,1.6h7.1c1.9,0,1.9,0,1.3-1.8-1.4-4.7-2.8-9.5-4.1-14.2-.2-.9-.3-1.8-.4-2.8h0Z"/>
  <path d="M305.6,70.1v-37.4c0-1.3-.7-2-2-2-2.8,0-5.6,0-8.4,0-.9,0-1.3-.3-1.3-1.2,0-3.6,0-7.2,0-10.8,0-1.3.8-1.2,1.6-1.2h34.7c2.6,0,4,1.3,4,4s0,5.1,0,7.7c0,1.2-.3,1.6-1.5,1.6-2.6,0-5.1,0-7.6,0s-2.4.8-2.4,2.3c0,11.8,0,23.5,0,35.2,0,1.4-.3,1.9-1.8,1.8-4.5-.1-9,0-13.6,0h-1.6,0Z"/>
  <path d="M357.9,17.5c6.2,0,12.3,0,18.5,0,1.2,0,1.6.3,1.6,1.5,0,3.4,0,6.8,0,10.2,0,1.1-.3,1.5-1.5,1.5-2.6,0-5.2,0-7.8,0s-2.3.8-2.3,2.4c0,11.7,0,23.5,0,35.2,0,1.4-.4,1.8-1.8,1.8-4.6,0-9.1,0-13.7,0-1.3,0-1.6-.4-1.6-1.7,0-11.7,0-23.3,0-34.9,0-3.1.5-2.8-2.9-2.8-2.4,0-4.7,0-7.1,0-1.2,0-1.7-.3-1.7-1.6,0-3.4,0-6.7,0-10.1,0-1.2.3-1.6,1.5-1.6,6.2,0,12.4,0,18.6,0h0Z"/>
  <path d="M451.7,43.7c0-8.2,0-16.4,0-24.5,0-1.3.4-1.7,1.6-1.6,4.7,0,9.3,0,14,0,1.2,0,1.6.4,1.6,1.6,0,11.7,0,23.4,0,35.1,0,1.3.7,2,2,2,4.5,0,9,0,13.6,0,1.1,0,1.5.3,1.5,1.5,0,3.7,0,7.3,0,11,0,1.1-.3,1.5-1.5,1.5-10.4,0-20.8,0-31.2,0-1.2,0-1.6-.3-1.6-1.5,0-8.3,0-16.6,0-24.8h0Z"/>
  <path d="M314.2,91.9c3.3.2,6.7.2,10,.7,4.3.6,6.3,3.1,6.3,7.4,0,4.1,0,8.2,0,12.3,0,3.6-1.4,5.7-4.9,6.8-1.6.5-3.4.9-5.1,1-5,0-10.1,0-15.1-.2-1.4,0-2.7-.5-4-1.1-3-1.2-4.5-3.4-4.4-6.7.1-4,0-8.1,0-12.1,0-3.7,1.6-5.9,5.1-6.9,1.6-.5,3.3-.8,4.9-.9,2.4-.2,4.7,0,7.1,0,0,0,0-.2,0-.3ZM313.6,95.7c-2.8.2-5.8.3-8.7.8-2.3.4-3.1,1.6-3.1,4v11.1c0,2.5.6,3.6,3.1,4.1,5.9,1,11.8.9,17.6,0,.2,0,.4,0,.5-.2,1.9-.7,2.6-1.7,2.6-3.7,0-3.8,0-7.5,0-11.3s-.8-3.8-3.4-4.2c-2.8-.5-5.7-.5-8.8-.8Z"/>
  <path d="M464.7,91.9c3.3.2,6.7.3,10,.7,4.3.6,6.2,3.2,6.2,7.5v11.8c0,4.1-1.7,6.3-5.6,7.4-1.1.3-2.4.6-3.5.6-6,.2-12.1.8-18.1-.6-1.2-.3-2.4-.9-3.5-1.6-1.8-1.1-2.7-2.8-2.7-5v-12.8c0-3.7,1.5-5.9,5.1-6.9,1.6-.5,3.4-.8,5.1-.9,2.4-.2,4.7,0,7.1,0,0,0,0-.2,0-.3ZM464,95.7c-2.8.2-5.8.4-8.7.8-2.2.4-3,1.7-3,3.9,0,3.7,0,7.4,0,11.1s.6,3.7,3.2,4.1c5.8,1,11.7.8,17.5,0,.2,0,.4,0,.5-.2,1.9-.7,2.7-1.7,2.7-3.8v-11.1c0-2.6-.8-3.8-3.3-4.3-2.9-.5-5.8-.5-8.9-.8h0Z"/>
  <path d="M514.4,113.6c0-.7.1-1.2.1-1.7,0-5.8,0-11.7,0-17.5,0-.7.3-1.9.6-2,1.1-.3,2.3-.2,3.4,0,.3,0,.6,1,.6,1.5,0,7.9,0,15.8,0,23.7,0,2.7-2.2,3.7-4.4,2.2-1.3-.9-2.5-2-3.7-3-6.7-5.8-13.5-11.7-20.2-17.5-.3-.2-.6-.4-1.2-.8v19.5c0,2-.4,2.3-2.7,2.3-1.6,0-2-.5-2-2.3,0-7.6,0-15.2,0-22.8,0-3.1,2.1-4.3,4.7-2.6,1.4.9,2.6,2,3.8,3.1,6.7,5.8,13.4,11.6,20.1,17.4.2.2.5.2.9.5h0Z"/>
  <path d="M274.6,120.2h-9.8c-1.6,0-2.1-.5-2.1-1.9,0-1.6.4-2,2.1-2,5.7,0,11.4,0,17,0,1.8,0,3.5-.3,5.3-.6,1.4-.3,2.1-1.3,2.1-2.8,0-1.7,0-3.4-2-4-1.4-.4-2.9-.7-4.4-.8-4.1-.2-8.3-.3-12.4-.6-1.2,0-2.4-.3-3.5-.6-3-1-4.3-3-4.4-6.1,0-5.4,1.7-7.6,7.1-8.3,2.5-.3,5.1-.3,7.6-.3,1.4,0,1.6,1,1.6,2.1,0,1.1-.5,1.7-1.7,1.7-2.3.2-4.6.2-6.9.6-3.2.6-3.4,2.3-2.9,4.9.2.8,1.3,1.7,2.2,2,1.2.4,2.6.4,4,.5,4.4.2,8.8.2,13.1.5,1.5.1,2.9.8,4.3,1.6,1.9,1,2.9,2.7,2.9,4.8,0,1,0,2,0,3-.2,3.9-2.2,5.7-6.8,6.1-4.2.3-8.4.4-12.5.5v-.2h0Z"/>
  <path d="M534.5,120.2h-10c-1.6,0-2.1-.5-2.1-1.9,0-1.5.5-2,2.1-2.1,5.7,0,11.5,0,17.2,0,1.7,0,3.5-.3,5.1-.6,1.5-.3,2.2-1.3,2.2-3,0-2.6-.3-3.4-2-3.9-1.4-.4-2.8-.7-4.2-.8-4.2-.2-8.4-.3-12.5-.5-1.1,0-2.2-.2-3.2-.6-3.1-1-4.5-2.9-4.5-6.2,0-.8,0-1.5,0-2.3.3-2.9,2.1-5.1,5.4-5.6,3.1-.5,6.2-.5,9.3-.6,1.3,0,1.6,1,1.6,2.1,0,1.1-.6,1.6-1.7,1.7-2.3.2-4.6.2-6.9.6-2.7.5-3.7,2.2-2.9,4.8.2.8,1.3,1.7,2.1,2.1,1,.4,2.2.5,3.2.5,4,0,8,0,12,.2,2.1.2,4.1.9,6,1.7,2.1.9,3.2,2.8,3.1,5.1,0,1.2,0,2.5-.1,3.8-.1,2.2-1.2,3.8-3.3,4.3-2.5.6-5.2,1-7.8,1.2-2.7.2-5.4,0-8.1,0h0Z"/>
  <path d="M368.7,103.5c0-3.1,0-6.2,0-9.2,0-1.8.4-2.2,2.1-2.2,2.3,0,2.7.3,2.7,2.2,0,5.6,0,11.3,0,16.9s1.2,4.6,4.1,4.8c5.5.2,11,.3,16.4,0,2.9-.1,4.1-1.8,4.1-4.9v-16.5c0-2.2,1.9-3.4,3.9-2.3.5.3.8,1.3.8,2,0,4.8,0,9.6,0,14.4v3c0,3.8-1.5,6-5.2,7.2-1.6.5-3.4.9-5.1,1.1-6,.5-11.9.6-17.8-.6-4.5-.9-6.1-3-6.1-7.6v-8.4h0Z"/>
  <path d="M420.8,92.1c4.5,0,8.9,0,13.4,0,1.2,0,1.9.4,2.1,1.7.1,1.5-.4,2.2-1.9,2.2-3.1,0-6.2,0-9.4,0-1.4,0-1.8.4-1.8,1.8,0,6.6,0,13.3,0,19.9s-1.6,3.5-3.8,2.3c-.5-.3-.9-1.4-.9-2.2,0-6.1,0-12.2,0-18.3v-1.6c0-1.3-.6-1.9-1.9-1.9h-8.9c-1.6,0-2.1-.5-2.1-1.8,0-1.6.4-2,2.1-2,4.4,0,8.9,0,13.3,0h0Z"/>
  <path d="M333.6,103.7c0-3.2,0-6.3,0-9.5,0-1.7.4-2.1,2-2.1,2.3,0,2.7.3,2.7,2.2,0,5.9,0,11.8,0,17.7s.6,3.1,2.7,3.7c1.1.3,2.3.5,3.4.5,6.1,0,12.2,0,18.3,0,1.6,0,2.2.6,2.2,2.1,0,1.2-.5,1.8-1.7,1.8-7.3,0-14.5-.2-21.8-.4-1.2,0-2.5-.4-3.6-.9-2.8-1-4.2-3.1-4.2-6.1,0-3.1,0-6.2,0-9.2h0Z"/>
  <path d="M443.5,106.1c0,4,0,8,0,12,0,1.8-.4,2.2-2.1,2.2-2.2,0-2.6-.3-2.6-2.2,0-7.9,0-15.8,0-23.7,0-2,.3-2.2,2.6-2.2s2.1.3,2.1,2.3c0,3.9,0,7.8,0,11.7Z"/>
</svg>