<?xml version="1.0" encoding="UTF-8"?>
<svg id="Layer_1" xmlns="http://www.w3.org/2000/svg" version="1.1" viewBox="0 0 150 150">
  <!-- Generator: Adobe Illustrator 29.3.0, SVG Export Plug-In . SVG Version: 2.1.0 Build 146)  -->
  <defs>
    <style>
      .st0 {
        fill: #1d1d1b;
      }
    </style>
  </defs>
  <path class="st0" d="M47,44.5c0-.6.5-1,1-1h7.9v-1.4h-7.9c-1.4,0-2.5,1.1-2.5,2.5v17.3s1.4,0,1.4,0v-17.3Z"/>
  <path class="st0" d="M48,107.4c-.6,0-1-.5-1-1v-18.3h-1.4v18.3c0,1.4,1.1,2.5,2.5,2.5h2.1v-1.4h-2.1Z"/>
  <path class="st0" d="M109.8,43.5c.6,0,1,.5,1,1v17.3h1.4v-17.3c0-1.4-1.1-2.5-2.5-2.5h-13v1.4h13Z"/>
  <g>
    <path class="st0" d="M35.6,73.5v.5c0,0,0,.2,0,.2s.1,0,.2,0h1.1c0,0,.2,0,.2,0,0,0,0-.1,0-.2v-4.2c0-.8-.2-1.4-.7-1.9s-1.2-.7-2.3-.7-.3,0-.5,0c-.4,0-.8.1-1.2.3-.4.2-.8.5-1,.7-.2.3-.3.5-.3.8,0,0,0,.2,0,.2s.1,0,.2,0h1c0,0,.2,0,.2-.2,0,0,.1-.1.2-.2.1-.1.3-.2.4-.3,0,0,.2,0,.3,0,.1,0,.3,0,.4,0,.4,0,.7,0,.9.3s.3.5.3.9v.3l-1.7.2h-.2c-.9.2-1.5.4-2,.8s-.7.9-.7,1.5.1.7.3,1,.5.6.9.7c.4.2.8.3,1.2.3s.3,0,.4,0c.3,0,.7,0,.9-.2.4-.2.6-.4.8-.7ZM33.9,73.1c-.3,0-.6,0-.8-.2-.2-.2-.4-.4-.4-.7,0-.5.4-.8,1.2-.9.1,0,.2,0,.3,0l1.3-.2v.3c0,.6-.2,1.1-.5,1.4-.3.3-.7.5-1.2.5s0,0,0,0Z"/>
    <path class="st0" d="M43.5,68.9c0,0,0-.1,0-.2v-1c0,0,0-.2,0-.2,0,0-.1,0-.2,0h-.6c-.8,0-1.5.3-1.9.9v-.5c0,0,0-.2,0-.2,0,0-.1,0-.2,0h-1.1c0,0-.2,0-.2,0s0,.1,0,.2v6.3c0,0,0,.2,0,.2,0,0,.1,0,.2,0h1.2c0,0,.2,0,.2,0,0,0,0-.1,0-.2v-3.7c0-.4.1-.7.4-1,.2-.2.6-.4,1-.4h1.1c0,0,.2,0,.2,0Z"/>
    <path class="st0" d="M44.3,68.8h1.1v3c0,.8.2,1.4.6,1.9.4.4,1,.6,1.8.6h1.1c0,0,.2,0,.2,0,0,0,0-.1,0-.2v-.8c0,0,0-.2,0-.2s-.1,0-.2,0h-.9c-.3,0-.5,0-.7-.3s-.2-.5-.2-.9v-2.9h1.7c0,0,.2,0,.2,0,0,0,0-.1,0-.2v-.8c0,0,0-.2,0-.2,0,0-.1,0-.2,0h-1.7v-2.2c0,0,0-.2,0-.2s-.1,0-.2,0h-1.1c0,0-.2,0-.2,0,0,0,0,.1,0,.2v2.2h-1.1c0,0-.2,0-.2,0s0,.1,0,.2v.8c0,0,0,.2,0,.2s.1,0,.2,0Z"/>
    <path class="st0" d="M51,73.6c.6.6,1.4.9,2.4.9s1.2-.1,1.6-.3c.5-.2.8-.5,1.1-.8.3-.3.4-.5.4-.8s0-.1,0-.2c0,0-.1,0-.2,0h-1.2c-.1,0-.2,0-.2,0,0,0-.1,0-.2.2-.3.4-.7.6-1.2.6s-.8-.2-1-.5c-.3-.3-.4-.7-.4-1.2h0c0-.1,4.4-.1,4.4-.1,0,0,.2,0,.2,0,0,0,0-.1,0-.2v-.3c0-1.1-.3-1.9-.9-2.6-.6-.6-1.4-1-2.4-1s-1.8.3-2.4,1c-.6.6-.9,1.5-.9,2.6v.3c0,1,.4,1.9.9,2.4ZM51.9,70.2c0-.5.1-.9.4-1.3.3-.3.6-.5,1.1-.5s.8.2,1.1.5.4.7.4,1.3h0s-2.9,0-2.9,0h0Z"/>
    <path class="st0" d="M60.9,74.1c.5.2,1.1.3,1.7.3,1.1,0,2-.3,2.7-1l.7.7c0,0,.2.1.3.1h1.3c0,0,.1,0,.2,0,0,0,0-.1,0-.2s0-.1,0-.2l-1.4-1.4c.3-.4.6-.9.9-1.4.2-.5.4-1,.4-1.3,0,0,0-.1,0-.2s-.1,0-.2,0h-1c0,0-.1,0-.2,0,0,0,0,0,0,.2-.2.6-.4,1.2-.7,1.8l-1.9-1.9c.6-.4,1.1-.7,1.4-1.1s.5-.8.5-1.3-.1-.8-.3-1.1-.5-.6-.9-.8c-.4-.2-.9-.3-1.4-.3s-1,.1-1.5.3-.7.5-.9.8c-.2.3-.3.7-.3,1.1s0,.7.2,1c.2.3.4.7.8,1.1-.6.3-1,.7-1.4,1.1-.3.4-.5.9-.5,1.4s.1,1,.4,1.4c.3.4.7.7,1.1.9ZM62.1,66.4c.2-.2.5-.3.8-.3s.6,0,.8.3.3.4.3.7-.1.5-.3.7c-.2.2-.6.4-1,.7-.3-.3-.5-.6-.6-.8-.1-.2-.2-.4-.2-.6,0-.3.1-.5.3-.7ZM62.2,70.3l2.1,2.1c-.5.5-1,.7-1.7.7s-.8-.1-1.1-.4c-.3-.2-.5-.6-.5-1s.4-1,1.1-1.4Z"/>
    <g>
      <path class="st0" d="M30.4,80.1c.3-.3.6-.4,1.1-.4s.6,0,.8.2c.2.1.4.4.5.7,0,.1,0,.2.1.2,0,0,.1,0,.2,0h1.2c0,0,.2,0,.2,0,0,0,0-.1,0-.2,0-.3-.1-.7-.4-1-.2-.4-.6-.7-1.1-.9-.5-.2-1.1-.4-1.8-.4s-1.8.3-2.3.8-.9,1.3-.9,2.3v.5s0,.5,0,.5c0,1,.3,1.7.9,2.3s1.4.8,2.3.8,1.3-.1,1.8-.4c.5-.3.8-.6,1.1-.9.2-.4.4-.7.4-1,0,0,0-.2,0-.2,0,0-.1,0-.2,0h-1.2c0,0-.2,0-.2,0,0,0,0,.1-.1.2-.1.3-.3.6-.5.7-.2.1-.5.2-.8.2-.9,0-1.4-.6-1.5-1.7v-.4s0-.5,0-.5c0-.6.2-1,.4-1.3Z"/>
      <path class="st0" d="M40.8,84.4v.5c0,0,0,.2,0,.2s.1,0,.2,0h1.1c0,0,.2,0,.2,0,0,0,0-.1,0-.2v-6.3c0,0,0-.2,0-.2,0,0-.1,0-.2,0h-1.2c0,0-.2,0-.2,0,0,0,0,.1,0,.2v3.7c0,.5-.1.9-.4,1.2-.3.3-.6.4-1.1.4s-.8-.1-1.1-.4c-.2-.3-.4-.7-.4-1.2v-3.7c0,0,0-.2,0-.2s-.1,0-.2,0h-1.2c0,0-.2,0-.2,0,0,0,0,.1,0,.2v3.7c0,.9.2,1.7.7,2.2.4.4.9.6,1.5.7.1,0,.3,0,.4,0,1,0,1.7-.3,2.2-1Z"/>
      <path class="st0" d="M45.8,75.8h-1.1c0,0-.2,0-.2,0,0,0,0,.1,0,.2v8.8c0,0,0,.2,0,.2,0,0,.1,0,.2,0h1.1c0,0,.2,0,.2,0,0,0,0-.1,0-.2v-8.8c0,0,0-.2,0-.2s-.1,0-.2,0Z"/>
      <path class="st0" d="M52.1,85.3c0,0,.2,0,.2,0,0,0,0-.1,0-.2v-.8c0,0,0-.2,0-.2s-.1,0-.2,0h-.9c-.3,0-.5,0-.7-.3s-.2-.5-.2-.9v-2.9h1.7c0,0,.2,0,.2,0,0,0,0-.1,0-.2v-.8c0,0,0-.2,0-.2,0,0-.1,0-.2,0h-1.7v-2.2c0,0,0-.2,0-.2s-.1,0-.2,0h-1.1c0,0-.2,0-.2,0,0,0,0,.1,0,.2v2.2h-1.1c0,0-.2,0-.2,0s0,.1,0,.2v.8c0,0,0,.2,0,.2s.1,0,.2,0h1.1v3c0,.8.2,1.4.6,1.9.4.4,1,.6,1.8.6h1.1Z"/>
      <path class="st0" d="M60.1,78.5c0,0-.1,0-.2,0h-1.2c0,0-.2,0-.2,0,0,0,0,.1,0,.2v3.7c0,.5-.1.9-.4,1.2-.3.3-.6.4-1.1.4-1,0-1.4-.5-1.4-1.6v-3.7c0,0,0-.2,0-.2s-.1,0-.2,0h-1.2c0,0-.2,0-.2,0,0,0,0,.1,0,.2v3.7c0,.9.2,1.7.7,2.2.5.5,1.1.8,1.9.8,0,0,0,0,0,0,1,0,1.7-.3,2.2-1v.5c0,0,0,.2,0,.2s.1,0,.2,0h1.1c0,0,.2,0,.2,0,0,0,0-.1,0-.2v-6.3c0,0,0-.2,0-.2Z"/>
      <path class="st0" d="M64.1,80.3c.2-.2.6-.4,1-.4h1.1c0,0,.2,0,.2,0,0,0,0-.1,0-.2v-1c0,0,0-.2,0-.2,0,0-.1,0-.2,0h-.6c-.8,0-1.5.3-1.9.9v-.5c0,0,0-.2,0-.2,0,0-.1,0-.2,0h-1.1c0,0-.2,0-.2,0s0,.1,0,.2v6.3c0,0,0,.2,0,.2,0,0,.1,0,.2,0h1.2c0,0,.2,0,.2,0,0,0,0-.1,0-.2v-3.7c0-.4.1-.7.4-1Z"/>
      <path class="st0" d="M72.6,78.9c-.5-.5-1.2-.7-2.3-.7s-1.2.1-1.6.3-.8.5-1,.7c-.2.3-.3.5-.3.8,0,0,0,.2,0,.2s.1,0,.2,0h1c0,0,.2,0,.2-.2,0,0,.1-.1.2-.2.1-.1.3-.2.4-.3.2-.1.4-.2.7-.2.4,0,.7,0,.9.3s.3.5.3.9v.3l-1.8.3c-.9.1-1.5.4-2,.8s-.7.9-.7,1.5.1.7.3,1c0,0,0,0,0,0,.2.3.5.6.9.7.4.2.8.3,1.2.3s1,0,1.3-.3c.4-.2.6-.4.8-.7v.5c0,0,0,.2,0,.2s.1,0,.2,0h1.1c0,0,.2,0,.2,0,0,0,0-.1,0-.2v-4.2c0-.8-.2-1.4-.7-1.9ZM70.2,82.2l1.3-.2v.3c0,.6-.2,1.1-.5,1.4-.3.3-.7.5-1.2.5s-.6,0-.8-.2c-.2-.2-.4-.4-.4-.7,0-.5.5-.9,1.5-1Z"/>
    </g>
  </g>
  <g>
    <path class="st0" d="M58.9,61.1c0,.2,0,.4.2.5.2.2.3.2.5.2h4c.2,0,.4,0,.6-.2s.2-.3.2-.6v-11l7.3,11.2c.2.4.6.6,1.1.6h3.5c.2,0,.4,0,.6-.2.1-.2.2-.3.2-.6v-20.2c0-.2,0-.4-.2-.6-.1-.2-.3-.2-.6-.2h-4c-.2,0-.4,0-.6.2-.1.2-.2.3-.2.6v11.4l-7.4-11.7c-.2-.4-.6-.6-1.1-.6h-3.5c-.2,0-.4,0-.6.2-.1.2-.2.3-.2.6v20.3Z"/>
    <path class="st0" d="M92.6,64.7c0-.2,0-.3-.2-.5-.1-.1-.3-.2-.5-.2h-4.1c-.3,0-.6,0-.8.3-.2.2-.3.4-.4.6l-4.3,14.1-4.2-14.1c0-.2-.2-.4-.4-.6-.2-.2-.5-.3-.8-.3h-4.1c-.2,0-.3,0-.5.2-.1.1-.2.3-.2.5v.3c0,0,6.2,19.3,6.2,19.3l.2.7c0,.3.2.5.5.7.2.2.5.3.9.3h5c.4,0,.6,0,.9-.3.2-.2.4-.4.4-.7l.2-.7,6.1-19.3c0,0,0-.2,0-.3Z"/>
    <path class="st0" d="M94.1,64.3c-.2.1-.2.3-.2.6v20.3c0,.2,0,.4.2.5.2.2.3.2.5.2h4.5c.2,0,.4,0,.6-.2.1-.2.2-.3.2-.5v-20.3c0-.2,0-.4-.2-.6-.1-.1-.3-.2-.6-.2h-4.5c-.2,0-.4,0-.5.2Z"/>
    <path class="st0" d="M121.1,73.5h-7.9c-.2,0-.4,0-.6.2-.2.2-.2.3-.2.6v2.4c0,.2,0,.4.2.6.2.2.3.2.6.2h2.8v.6c0,1.2-.4,2.1-1.1,2.7-.7.6-1.7.9-2.9.9-2.5,0-3.7-1.3-3.8-4,0-.6,0-1.5,0-2.7s0-2.1,0-2.7c0-2.5,1.3-3.7,3.7-3.7s1.8.2,2.3.6c.6.4,1,.9,1.2,1.5.1.1.2.3.3.3.1,0,.3.1.5.1h4.8c.2,0,.3,0,.5-.2.1-.1.2-.3.2-.5,0-1.1-.5-2.1-1.2-3.1-.8-1-1.9-1.8-3.4-2.5-1.5-.6-3.2-1-5.2-1-3,0-5.3.7-7.1,2.2-1.7,1.4-2.7,3.5-2.7,6.1,0,.6,0,1.6,0,2.9s0,2.3,0,2.8c.1,2.7,1,4.8,2.7,6.3,0,0,0,0,.1,0,1.7,1.4,4,2.1,7,2.1s3.3-.3,4.6-.8c.2,0,.4-.1.6-.2,1.5-.7,2.7-1.7,3.5-2.9.8-1.3,1.2-2.8,1.2-4.6v-3.6c0-.2,0-.4-.2-.6-.2-.2-.3-.2-.6-.2Z"/>
    <path class="st0" d="M88.8,101.3c1.2-.6,2.1-1.4,2.8-2.4.7-1,1-2.3,1-3.7,0-2.3-.8-4-2.3-5.3-1.6-1.3-3.7-1.9-6.5-1.9h-8.6c-.2,0-.4,0-.6.2-.1.2-.2.3-.2.6v20.3c0,.2,0,.4.2.5.2.2.3.2.5.2h4.3c.2,0,.4,0,.6-.2s.2-.3.2-.6v-6.8h3l3.4,6.8c.3.6.7.8,1.3.8h4.4c.2,0,.3,0,.5-.2.1-.1.2-.3.2-.5s0-.2,0-.3l-4.2-7.6ZM83.8,97.7h-3.5v-5.2h3.5c.9,0,1.6.2,2,.7.5.5.7,1.1.7,1.9s-.2,1.4-.7,1.9-1.2.7-2,.7Z"/>
    <path class="st0" d="M111,106.1c0-.2,0-.4-.2-.6-.2-.2-.3-.2-.6-.2h-10.1v-4.1h9.2c.2,0,.4,0,.6-.2s.2-.3.2-.6v-2.8c0-.2,0-.4-.2-.6-.2-.2-.4-.2-.6-.2h-9.2v-4h9.9c.2,0,.4,0,.6-.2.2-.1.2-.3.2-.6v-3.1c0-.2,0-.4-.2-.6-.2-.2-.3-.2-.6-.2h-14.7c-.2,0-.4,0-.6.2-.1.2-.2.3-.2.6v20.3c0,.2,0,.4.2.5.2.2.3.2.5.2h15c.2,0,.4,0,.6-.2.2-.1.2-.3.2-.6v-3.1Z"/>
    <path class="st0" d="M99.1,61.3v-.3c0,0-3-9.4-3-9.4l-3.4-10.6c0-.3-.2-.5-.5-.7-.2-.2-.5-.3-.9-.3h-5c-.4,0-.6,0-.9.3-.2.2-.4.4-.4.7l-6.3,20c0,0,0,.2,0,.3,0,.2,0,.3.2.5.1.1.3.2.5.2h4.1c.3,0,.6,0,.8-.3.2-.2.3-.4.4-.6l4.3-14.1,4.2,14.1c0,.2.2.4.4.6.2.2.5.3.8.3h4.1s0,0,.1,0c.1,0,.3,0,.4-.2.1-.1.2-.3.2-.5Z"/>
    <path class="st0" d="M67.1,89c0-.3-.2-.5-.5-.7-.2-.2-.5-.3-.9-.3h-5c-.4,0-.6,0-.9.3-.2.2-.4.4-.4.7l-6.3,20c0,0,0,.2,0,.3,0,.2,0,.3.2.5.1.1.3.2.5.2h4.1c.3,0,.6,0,.8-.3.2-.2.3-.4.4-.6l4.3-14.1,4.2,14.1c0,.2.2.4.4.6.2.2.5.3.8.3h4.1c.2,0,.3,0,.5-.2.1-.1.2-.3.2-.5v-.3c0,0-6.4-20-6.4-20Z"/>
  </g>
</svg>