<?xml version="1.0" encoding="UTF-8"?>
<svg id="Layer_1" xmlns="http://www.w3.org/2000/svg" version="1.1" viewBox="0 0 97 69.6">
  <!-- Generator: Adobe Illustrator 29.3.0, SVG Export Plug-In . SVG Version: 2.1.0 Build 146)  -->
  <defs>
    <style>
      .st0 {
        fill: #1d1d1b;
      }
    </style>
  </defs>
  <path class="st0" d="M20.5,4.3c0-.6.5-1,1-1h7.9v-1.4h-7.9c-1.4,0-2.5,1.1-2.5,2.5v17.3h1.4V4.4h0Z"/>
  <path class="st0" d="M21.5,67.2c-.6,0-1-.5-1-1v-18.3h-1.4v18.3c0,1.4,1.1,2.5,2.5,2.5h2.1v-1.4h-2.2Z"/>
  <path class="st0" d="M83.3,3.3c.6,0,1,.5,1,1v17.3h1.4V4.3c0-1.4-1.1-2.5-2.5-2.5h-13v1.4h13.1Z"/>
  <g>
    <path class="st0" d="M9.1,33.3v.7h1.5v-4.4c0-.8-.2-1.4-.7-1.9s-1.2-.7-2.3-.7-.3,0-.5,0c-.4,0-.8,0-1.2.3-.4.2-.8.5-1,.7-.2.3-.3.5-.3.8v.2h1.2s.2,0,.2-.2c0,0,0,0,.2-.2,0,0,.3-.2.4-.3h.7c.4,0,.7,0,.9.3s.3.5.3.9v.3l-1.7.2h-.2c-.9.2-1.5.4-2,.8s-.7.9-.7,1.5.1.7.3,1,.5.6.9.7c.4.2.8.3,1.2.3h.4c.3,0,.7,0,.9-.2.4-.2.6-.4.8-.7h.7ZM7.4,32.9c-.3,0-.6,0-.8-.2s-.4-.4-.4-.7c0-.5.4-.8,1.2-.9h.3l1.3-.2v.3c0,.6-.2,1.1-.5,1.4s-.7.5-1.2.5,0,0,0,0v-.2Z"/>
    <path class="st0" d="M17,28.7v-1.4h-.8c-.8,0-1.5.3-1.9.9v-.7h-1.5v6.7h1.6v-3.9c0-.4,0-.7.4-1,.2-.2.6-.4,1-.4h1.3v-.2Z"/>
    <path class="st0" d="M17.8,28.6h1.1v3c0,.8.2,1.4.6,1.9.4.4,1,.6,1.8.6h1.3v-1.2h-1.1c-.3,0-.5,0-.7-.3s-.2-.5-.2-.9v-2.9h1.9v-1.2h-1.9v-2.4h-1.5v2.4h-1.3v1.2h.2l-.2-.2Z"/>
    <path class="st0" d="M24.5,33.4c.6.6,1.4.9,2.4.9s1.2,0,1.6-.3c.5-.2.8-.5,1.1-.8s.4-.5.4-.8,0,0,0-.2h-1.6s0,0-.2.2c-.3.4-.7.6-1.2.6s-.8-.2-1-.5c-.3-.3-.4-.7-.4-1.2h0c0,0,4.4,0,4.4,0h.2v-.5c0-1.1-.3-1.9-.9-2.6-.6-.6-1.4-1-2.4-1s-1.8.3-2.4,1c-.6.6-.9,1.5-.9,2.6v.3c0,1,.4,1.9.9,2.4ZM25.4,30c0-.5,0-.9.4-1.3.3-.3.6-.5,1.1-.5s.8.2,1.1.5.4.7.4,1.3h-3Z"/>
    <path class="st0" d="M34.4,33.9c.5.2,1.1.3,1.7.3,1.1,0,2-.3,2.7-1l.7.7s.2,0,.3,0h1.5v-.4l-1.4-1.4c.3-.4.6-.9.9-1.4.2-.5.4-1,.4-1.3v-.2c0,0,0,0-.2,0h-1.2v.2c-.2.6-.4,1.2-.7,1.8l-1.9-1.9c.6-.4,1.1-.7,1.4-1.1s.5-.8.5-1.3,0-.8-.3-1.1-.5-.6-.9-.8c-.4-.2-.9-.3-1.4-.3s-1,0-1.5.3-.7.5-.9.8-.3.7-.3,1.1,0,.7.2,1,.4.7.8,1.1c-.6.3-1,.7-1.4,1.1-.3.4-.5.9-.5,1.4s0,1,.4,1.4c.3.4.7.7,1.1.9ZM35.6,26.2c.2-.2.5-.3.8-.3s.6,0,.8.3.3.4.3.7,0,.5-.3.7-.6.4-1,.7c-.3-.3-.5-.6-.6-.8,0-.2-.2-.4-.2-.6,0-.3,0-.5.3-.7h0ZM35.7,30.1l2.1,2.1c-.5.5-1,.7-1.7.7s-.8,0-1.1-.4c-.3-.2-.5-.6-.5-1s.4-1,1.1-1.4h0Z"/>
    <g>
      <path class="st0" d="M3.9,39.9c.3-.3.6-.4,1.1-.4s.6,0,.8.2c.2,0,.4.4.5.7,0,0,0,.2,0,.2h1.6v-.2c0-.3,0-.7-.4-1-.2-.4-.6-.7-1.1-.9-.5-.2-1.1-.4-1.8-.4s-1.8.3-2.3.8-.9,1.3-.9,2.3v1c0,1,.3,1.7.9,2.3s1.4.8,2.3.8,1.3,0,1.8-.4.8-.6,1.1-.9c.2-.4.4-.7.4-1v-.2h-1.6s0,0,0,.2c0,.3-.3.6-.5.7s-.5.2-.8.2c-.9,0-1.4-.6-1.5-1.7v-.9c0-.6.2-1,.4-1.3h0Z"/>
      <path class="st0" d="M14.3,44.2v.7h1.5v-6.7h-1.6v3.9c0,.5,0,.9-.4,1.2-.3.3-.6.4-1.1.4s-.8,0-1.1-.4c-.2-.3-.4-.7-.4-1.2v-3.9h-1.6v3.9c0,.9.2,1.7.7,2.2s.9.6,1.5.7h.4c1,0,1.7-.3,2.2-1v.2Z"/>
      <path class="st0" d="M19.3,35.6h-1.3v9.2h1.5v-9.2h-.2Z"/>
      <path class="st0" d="M25.6,45.1h.2v-1.2h-1.1c-.3,0-.5,0-.7-.3s-.2-.5-.2-.9v-2.9h1.9v-1.2h-1.9v-2.4h-1.5v2.4h-1.3v1.2h1.3v3c0,.8.2,1.4.6,1.9.4.4,1,.6,1.8.6h1.1l-.2-.2Z"/>
      <path class="st0" d="M33.6,38.3h-1.6v3.9c0,.5,0,.9-.4,1.2-.3.3-.6.4-1.1.4-1,0-1.4-.5-1.4-1.6v-3.9h-1.6v3.9c0,.9.2,1.7.7,2.2s1.1.8,1.9.8h0c1,0,1.7-.3,2.2-1v.7h1.5v-6.7h-.2Z"/>
      <path class="st0" d="M37.6,40.1c.2-.2.6-.4,1-.4h1.3v-1.4h-.8c-.8,0-1.5.3-1.9.9v-.7h-1.5v6.7h1.6v-3.9c0-.4,0-.7.4-1v-.2Z"/>
      <path class="st0" d="M46.1,38.7c-.5-.5-1.2-.7-2.3-.7s-1.2,0-1.6.3-.8.5-1,.7c-.2.3-.3.5-.3.8v.2h1.2s.2,0,.2-.2l.2-.2c0,0,.3-.2.4-.3.2,0,.4-.2.7-.2s.7,0,.9.3.3.5.3.9v.3l-1.8.3c-.9,0-1.5.4-2,.8s-.7.9-.7,1.5,0,.7.3,1h0c.2.3.5.6.9.7.4.2.8.3,1.2.3s1,0,1.3-.3c.4-.2.6-.4.8-.7v.7h1.5v-4.4c0-.8-.2-1.4-.7-1.9h.5ZM43.7,42l1.3-.2v.3c0,.6-.2,1.1-.5,1.4s-.7.5-1.2.5-.6,0-.8-.2c-.2-.2-.4-.4-.4-.7,0-.5.5-.9,1.5-1h0Z"/>
    </g>
  </g>
  <g>
    <path class="st0" d="M32.4,20.9c0,.2,0,.4.2.5.2.2.3.2.5.2h4c.2,0,.4,0,.6-.2s.2-.3.2-.6v-11l7.3,11.2c.2.4.6.6,1.1.6h3.5c.2,0,.4,0,.6-.2,0-.2.2-.3.2-.6V.6c0-.2,0-.4-.2-.6,0-.2-.3-.2-.6-.2h-4c-.2,0-.4,0-.6.2,0,.2-.2.3-.2.6v11.4L37.6.3c-.2-.4-.6-.6-1.1-.6h-3.5c-.2,0-.4,0-.6.2,0,.2-.2.3-.2.6v20.3h.2Z"/>
    <path class="st0" d="M66.1,24.5c0-.2,0-.3-.2-.5s-.3-.2-.5-.2h-4.1c-.3,0-.6,0-.8.3-.2.2-.3.4-.4.6l-4.3,14.1-4.2-14.1c0-.2-.2-.4-.4-.6-.2-.2-.5-.3-.8-.3h-4.1c-.2,0-.3,0-.5.2,0,0-.2.3-.2.5v.3l6.2,19.3.2.7c0,.3.2.5.5.7.2.2.5.3.9.3h5c.4,0,.6,0,.9-.3s.4-.4.4-.7l.2-.7,6.1-19.3v-.3h.1Z"/>
    <path class="st0" d="M67.6,24.1c-.2,0-.2.3-.2.6v20.3c0,.2,0,.4.2.5.2.2.3.2.5.2h4.5c.2,0,.4,0,.6-.2,0-.2.2-.3.2-.5v-20.3c0-.2,0-.4-.2-.6s-.3-.2-.6-.2h-4.5c-.2,0-.4,0-.5.2Z"/>
    <path class="st0" d="M94.6,33.3h-7.9c-.2,0-.4,0-.6.2s-.2.3-.2.6v2.4c0,.2,0,.4.2.6s.3.2.6.2h2.8v.6c0,1.2-.4,2.1-1.1,2.7s-1.7.9-2.9.9c-2.5,0-3.7-1.3-3.8-4v-5.4c0-2.5,1.3-3.7,3.7-3.7s1.8.2,2.3.6c.6.4,1,.9,1.2,1.5,0,0,.2.3.3.3s.3,0,.5,0h4.8c.2,0,.3,0,.5-.2s.2-.3.2-.5c0-1.1-.5-2.1-1.2-3.1-.8-1-1.9-1.8-3.4-2.5-1.5-.6-3.2-1-5.2-1-3,0-5.3.7-7.1,2.2-1.7,1.4-2.7,3.5-2.7,6.1v5.7c0,2.7,1,4.8,2.7,6.3h0c1.7,1.4,4,2.1,7,2.1s3.3-.3,4.6-.8c.2,0,.4,0,.6-.2,1.5-.7,2.7-1.7,3.5-2.9.8-1.3,1.2-2.8,1.2-4.6v-3.6c0-.2,0-.4-.2-.6s-.3-.2-.6-.2v.2Z"/>
    <path class="st0" d="M62.3,61.1c1.2-.6,2.1-1.4,2.8-2.4.7-1,1-2.3,1-3.7,0-2.3-.8-4-2.3-5.3-1.6-1.3-3.7-1.9-6.5-1.9h-8.6c-.2,0-.4,0-.6.2,0,.2-.2.3-.2.6v20.3c0,.2,0,.4.2.5.2.2.3.2.5.2h4.3c.2,0,.4,0,.6-.2s.2-.3.2-.6v-6.8h3l3.4,6.8c.3.6.7.8,1.3.8h4.4c.2,0,.3,0,.5-.2s.2-.3.2-.5v-.3l-4.2-7.6h0ZM57.3,57.5h-3.5v-5.2h3.5c.9,0,1.6.2,2,.7.5.5.7,1.1.7,1.9s-.2,1.4-.7,1.9-1.2.7-2,.7Z"/>
    <path class="st0" d="M84.5,65.9c0-.2,0-.4-.2-.6s-.3-.2-.6-.2h-10.1v-4.1h9.2c.2,0,.4,0,.6-.2s.2-.3.2-.6v-2.8c0-.2,0-.4-.2-.6s-.4-.2-.6-.2h-9.2v-4h9.9c.2,0,.4,0,.6-.2.2,0,.2-.3.2-.6v-3.1c0-.2,0-.4-.2-.6s-.3-.2-.6-.2h-14.7c-.2,0-.4,0-.6.2,0,.2-.2.3-.2.6v20.3c0,.2,0,.4.2.5.2.2.3.2.5.2h15c.2,0,.4,0,.6-.2.2,0,.2-.3.2-.6v-3.1h0Z"/>
    <path class="st0" d="M72.6,21.1v-.3l-3-9.4-3.4-10.6c0-.3-.2-.5-.5-.7-.2-.2-.5-.3-.9-.3h-5c-.4,0-.6,0-.9.3-.2.2-.4.4-.4.7l-6.3,20v.3c0,.2,0,.3.2.5,0,0,.3.2.5.2h4.1c.3,0,.6,0,.8-.3.2-.2.3-.4.4-.6l4.3-14.1,4.2,14.1c0,.2.2.4.4.6.2.2.5.3.8.3h4.2c0,0,.3,0,.4-.2,0,0,.2-.3.2-.5h0Z"/>
    <path class="st0" d="M40.6,48.8c0-.3-.2-.5-.5-.7-.2-.2-.5-.3-.9-.3h-5c-.4,0-.6,0-.9.3-.2.2-.4.4-.4.7l-6.3,20v.3c0,.2,0,.3.2.5,0,0,.3.2.5.2h4.1c.3,0,.6,0,.8-.3.2-.2.3-.4.4-.6l4.3-14.1,4.2,14.1c0,.2.2.4.4.6.2.2.5.3.8.3h4.1c.2,0,.3,0,.5-.2s.2-.3.2-.5v-.3l-6.4-20h0Z"/>
  </g>
</svg>