<?xml version="1.0" encoding="UTF-8"?>
<svg id="Layer_1" xmlns="http://www.w3.org/2000/svg" xmlns:xlink="http://www.w3.org/1999/xlink" version="1.1" viewBox="0 0 595.3 841.9">
  <!-- Generator: Adobe Illustrator 29.3.0, SVG Export Plug-In . SVG Version: 2.1.0 Build 146)  -->
  <defs>
    <style>
      .st0 {
        fill: none;
      }

      .st1 {
        fill-rule: evenodd;
      }

      .st1, .st2 {
        fill: #1a171c;
      }

      .st3 {
        clip-path: url(#clippath);
      }
    </style>
    <clipPath id="clippath">
      <rect class="st0" width="595.3" height="841.9"/>
    </clipPath>
  </defs>
  <g class="st3">
    <path class="st2" d="M241,551.5v-2.1c-3.5,0-4.9.2-7.3.2s-4.2-.2-7.3-.2l-16.4,40-16.6-40c-3.1,0-4.3.2-7.5.2s-4.7-.2-7.5-.2v2.1h3.3c2.9.2,3.3.3,3.3,2.2v48.9h2.5v-46.5l18.2,43.7h2.4l18.2-43.7v38.4c0,7,2.2,8.8,7.1,8.8h.9v-49.6c0-2,.7-2,3.3-2.1h3.3Z"/>
    <path class="st2" d="M259.3,603.2v-36.1c0-.6-.2-.8-.9-.8s-6.7.5-12,.5v1.9h4.5c.9,0,1.2.5,1.2,1.4v25.5c0,4.5,1.6,7.6,5.9,7.6h1.3Z"/>
    <path class="st2" d="M374.1,603.3v-27.4c0-6-4.8-10.5-11.8-10.5s-10,3-12,7.9v-6.1c0-.7-.2-.8-1-.8s-6.6.5-12,.5v1.9h4.5c.9,0,1.2.5,1.2,1.4v32.4h7.2v-21.9c0-6.2,4.1-12,9.8-12s6.8,2.5,6.8,8.2v18.8c0,4.5,1.7,7.6,5.9,7.6h1.4Z"/>
    <path class="st2" d="M283.9,595.6v-45.8c0-.6-.2-.8-.9-.8s-6.7.5-12,.5v1.9h4.5c1,0,1.2.5,1.2,1.4v50.4h1.3c4.2,0,5.9-3.1,5.9-7.6"/>
    <path class="st1" d="M319.2,590.3c0,5.2-3.3,11-8.3,11s-7.1-2.1-7.1-7.8,4.3-9.5,12.4-9.9h1.7c1.1-.2,1.2,0,1.2,1.1v5.5ZM326.7,603.2c0-1.7-.5-5.5-.5-7.6v-20.9c0-6-5.6-9.3-12.6-9.3s-14.9,5.2-14.9,7.5,1.3,3,3.2,3c5.2,0,3.3-8.4,10.8-8.4s6.5,2.1,6.5,6.3v6.7c0,1.1,0,1.2-1.2,1.2h-2.2c-11.2.5-19.8,5.4-19.8,12.1s4.5,9.8,14.1,9.8,8.3-3.5,9.1-6.4c.4,4.8,2.8,6.2,6.3,6.2h1.2Z"/>
    <path class="st1" d="M413.7,584c0,10.9-1.7,17.4-10,17.4s-10-6.5-10-17.4,1.6-16.4,10-16.4,10,7.4,10,16.4M421.9,584c0-9.8-7.4-18.6-18.2-18.6s-18.1,8.7-18.1,18.6,7.3,19.5,18.1,19.5,18.2-8.4,18.2-19.5"/>
    <path class="st1" d="M406.1,524.6c0,4.6-1.5,7.8-4.6,7.8s-4.6-3.3-4.6-7.8.9-7.4,4.6-7.4,4.6,3.7,4.6,7.4M409.4,533.5v-24.7c0-.3,0-.4-.5-.4s-3.1.2-5.5.2v.9h2.1c.4,0,.5.2.5.7v8.7c-.5-1.3-2-3-4.8-3-4.7,0-8.2,4.1-8.2,8.6s2.8,9,7.9,9,4.4-1.3,5.2-3.7c0,2.2.7,3.6,2.7,3.6h.5Z"/>
    <path class="st1" d="M419.7,533.5v-16.7c0-.3,0-.4-.4-.4s-3.1.2-5.5.2v.9h2.1c.4,0,.6.2.6.7v11.8c0,2.1.8,3.5,2.7,3.5h.6Z"/>
    <path class="st2" d="M206.9,529v-2.6c-2.6,3.5-6.8,6.1-11.8,6.1-7.4,0-10-4.8-10-17.3s2.5-16.4,10.4-16.4,9.6,3.3,10,8.4h1.4c0-1.1-.1-2.7-.1-4s.1-2.7.1-4c-1.2,0-5.9-2.1-11.4-2.1-8.7,0-16.4,6.5-16.4,18s6.9,19.2,16,19.2,9.1-1.9,11.8-5.3"/>
    <path class="st1" d="M232.2,521.1c0,7.4-1.2,11.8-6.8,11.8s-6.8-4.4-6.8-11.8,1.1-11.1,6.8-11.1,6.8,5,6.8,11.1M237.7,521.1c0-6.7-5.1-12.6-12.3-12.6s-12.3,5.9-12.3,12.6,5,13.2,12.3,13.2,12.3-5.7,12.3-13.2"/>
    <path class="st2" d="M283.1,534.2v-18.6c0-4.1-3-7.1-7.7-7.1s-6.7,2.4-8,5.3c-.4-1.8-2.4-5.3-7.6-5.3s-6.5,2.1-7.9,5.3v-4.1c0-.4-.1-.5-.6-.5s-4.5.3-8.1.3v1.3h3.1c.6,0,.8.3.8,1v22h4.9v-14.9c0-4.2,3-8.2,6.4-8.2s4.3,1.7,4.3,5.6v12.8c0,3.1,1.1,5.2,4,5.2h.9v-15.3c0-4.1,2.9-8.2,6.4-8.2s4.3,1.7,4.3,5.6v12.8c0,3.1,1.1,5.2,4,5.2h.9Z"/>
    <path class="st2" d="M314.9,534.2v-24.7h-4.9v14.6c0,4.2-2.7,8.2-6.5,8.2s-4.5-1.7-4.5-5.6v-16.9c0-.4-.1-.5-.7-.5s-4.5.3-8.1.3v1.3h3.1c.7,0,.8.3.8,1v15.5c0,4.1,3.1,7.1,7.9,7.1s6.6-2,8-5.3c0,3.1,1.1,5.2,4,5.2h.9Z"/>
    <path class="st2" d="M347.1,534.2v-18.6c0-4.1-3.2-7.1-8-7.1s-6.8,2.1-8.2,5.3v-4.1c0-.4-.1-.5-.6-.5s-4.5.3-8.1.3v1.3h3.1c.6,0,.8.3.8,1v22h4.9v-14.9c0-4.2,2.8-8.2,6.7-8.2s4.6,1.7,4.6,5.6v12.8c0,3.1,1.1,5.2,4,5.2h.9Z"/>
    <path class="st1" d="M372.6,519.2c0,.8,0,.9-.8.9h-9.6q-.8,0-.8-.8c0-5.3,1.8-9.4,5.8-9.4s5.4,4.1,5.4,9.3M378.1,520.3c0-5.8-4.4-11.8-10.8-11.8s-11.4,5.8-11.4,12.6,4,13.2,11.7,13.2,8.1-2.1,9.6-4v-2.3c-2.4,3.2-5.6,4.7-9.2,4.7s-6.6-4.2-6.6-10.3.1-.9.9-.9h15.1c.5,0,.8-.3.8-1.3"/>
    <polygon class="st2" points="349.9 328 314.7 328 314.7 280.1 287.2 280.1 287.2 328 251.5 328 251.5 355.6 287.2 355.6 287.2 406.8 301 411.7 314.7 406.8 314.7 355.6 349.9 355.6 349.9 328"/>
    <path class="st2" d="M230.5,267.1c3.8,5.9,2.4,14.9-1.3,20.4-1.6,2.3-3.3,4.6-5.6,6.3-3.8,3.7-8.1,7.4-10.1,12.4,0,0-.2.1-.3,0v-.2c1-4.5,2.4-9,4.3-13.2,1.9-5.1,5.6-9,8.1-13.6.4-1,.9-2,.6-3.1-.1-.2-.4-.2-.6-.2-1.9,1.2-3.2,3.5-4.6,5.1-2.2,3.3-4.6,6.5-6.3,10.1v.2c0,0-.1,0-.1,0-1.9,3.9-3.5,8.1-4.7,12.3-.1.2,0,.6-.2.6-.4-3.6-2.1-6.6-2.5-10.1,1.7-7.9,5.6-15.5,12.4-20.1,3.1-2.3,6.2-5.4,7.8-8.9.3-.4.8-.4,1.3-.3.9.5,1.3,1.3,1.9,2.1"/>
    <path class="st2" d="M205,281.5c.4.6-.2,1.3-.1,2-2.4,6.5-1.2,14.4,1,20.6,1.2,4.6,1.4,10.2.4,15-.1.1-.4,0-.4-.2-.4-.8-1-1.5-1.3-2.4-3-4.8-5.2-10-5.9-15.8-.3-2.5.4-5,0-7.4,0-.2-.2-.5-.4-.6-.8-.1-.9.8-1.3,1.3-3,8.7,1,17.3,5.1,24.3,1,1.8,2.1,3.5,2.7,5.5,2.4,5.4,4,11.4,3.3,17.8,0,1.2-.5,2.3-.7,3.4h0c-1.1-2.3-2.4-4.8-4.7-6.2l-1-.4c-.2-3.1-.9-5.9-1.8-8.6-1.6-6.1-5.4-11-7.4-16.9-.2,0-.2-.3-.2-.5-1.7-4.5-2.6-9.7-1.6-14.8,1.3-6.5,5.1-12.3,10.9-15.8,1-.3,2.7-1.6,3.6-.3"/>
    <path class="st2" d="M233.8,294.3c2.6,7.7.3,16.1-3.9,22.3-3.2,5.2-8.8,8.2-12.8,12.6-2.1,2.1-4.1,4.2-5.5,6.7-.3-.2,0-.9-.2-1.4,0-2.1-.7-3.8-1.1-5.8.6-.6.9-1.2,1.3-1.8,4.1-5.5,10.4-8.9,14-14.7,1.7-2.6,3.2-5.1,3.6-8.2-.1-.5,0-1.1-.5-1.3-1,0-1.4,1.1-2,1.7-2.6,5.3-6.8,9.7-11.2,13.4-2.4,2.3-4.8,4.4-6.5,7.3h-.1c-.1-.9.1-1.8,0-2.7,1.4-10.1,8.5-18.3,16.2-23.9,2.2-2,4.1-4.2,5.1-7,.2-.3.4-.6.9-.5,1.6.2,2.1,2,2.6,3.3"/>
    <path class="st2" d="M189.8,315.8c.3.5.5,1.1.5,1.7.4,5,1.9,9.6,3.7,13.9.2.3.3.6.4.9,2.3,4.5,5.3,8.6,6.9,13.4.5,1.2.8,2.4,1.2,3.5.6,2.4,1.4,4.7,1.4,7.2h-.1c-3.5-4.1-8.2-7.1-10.8-11.7-2.3-3.5-3.8-7.6-4.5-11.8-.3-1.3-.3-2.7-.7-3.9-.2-.4-.4-.7-.8-.9-.9.2-.8,1.3-1.1,2-.5,3.8.4,7.4,1.3,10.9.4.7.5,1.5.9,2.3,2,5.1,6,9.2,10,12.9,2.7,2.5,5.1,5.4,7.2,8.6-1.3,2.5-2.3,5-3.1,7.7h0c-1-1.6-2-3.2-3.1-4.8-3.3-5.1-7.6-8.4-11.6-13-4.7-5.5-7.4-12.7-7.5-20.5.1-6.8,2.7-13,7.2-17.6.6-.8,1.7-1.4,2.6-.7"/>
    <path class="st2" d="M231.4,325.1c.8,1,0,2.2-.3,3.2-2,5.1-.9,11.4-2.8,16.5-2.2,7.5-7.4,12.9-11.7,19.2-.3.8-1.1,1.6-1.5,2.5-2.1,4.1-3.8,8.4-3.9,13.4h0c-1.4-1.8-3.2-4-5.8-4.5-.2-.3,0-.6,0-.9,1.8-6.2,4.8-11.7,8.7-16.8,4.8-6,9.7-12.4,10.7-20.4,0-.8.2-1.9-.6-2.3-1.1.2-1.4,1.5-1.8,2.4-.8,2.7-2.1,5.2-3.3,7.7-1.3,1.9-2.4,4-3.8,5.8-2.3,3.4-5.4,6.4-7.6,9.9,0,0-.2.2-.2,0-.8-12.7,5.7-23.5,14.6-31.2,2.1-1.8,4.3-3.2,6.7-4.5.8-.2,1.8-.6,2.6,0"/>
    <path class="st2" d="M187.6,359.7c2.9,6.5,7.9,12,13.6,16,5,4.4,9.6,9.4,11.9,15.7-.2.2-.5,0-.7-.1-8.5-3.9-17.3-8.9-21.8-17.5-.6-.8-.9-1.8-2-2-.6.4-.4,1.3-.3,1.9,1.3,5.4,5.2,9.2,9.4,12.7,5.8,4.9,13.4,6.6,19.4,11.3,3.7,2.7,7.2,6.1,9.5,10.3,0,.2-.3.2-.4.1-1-.6-2.1-.9-3.2-1.2-1.6-.3-3.2-.4-4.7.2h-.2c-2.5-2.8-5.9-5.2-9.2-7-1.6-1-3.3-1.9-5.1-2.5-3.4-1.7-7-3.4-9.9-5.9-7.9-6.4-12.7-16.5-10.3-27.2.3-2,.8-4,2.1-5.4.3-.3.7-.4,1.1-.3.5.2.7.7,1,1.1"/>
    <path class="st2" d="M230.6,359.7c3.1,8,1.2,17.9-2.4,25.1-1.9,4.6-4,9.5-3.3,14.9-.6-.3-1.1-1-1.7-1.5-1.3-1.1-2.7-2.3-4.2-3.3.3-.5.2-1.2.4-1.8.4-1.7.8-3.4,1.5-4.9.1-.8.6-1.4.8-2.2,1.1-2.7,2.6-5.3,3.6-8,1.2-3.4,2.6-7,1.8-10.8,0-.2-.2-.3-.4-.4-.7-.1-.9.7-1.2,1.1-.9,3.3-1.9,6.5-3.4,9.6-2.1,4.4-4.7,8.5-5.5,13.5-.2,0-.2-.3-.3-.4-.9-2.6-1.3-5.4-1.4-8.3-.1-6.3,2.6-11.5,6.1-16.1,2.1-3.1,4.3-6.5,5-10.4.2-.4.5-.6.9-.8,2.1.5,3,2.9,3.7,4.7"/>
    <path class="st2" d="M199.9,399.6c4.1,4.3,9.8,6.8,15.1,9.1,1.9.7,3.7,1.7,5.5,2.6.6.1,1,.5,1.4.7,2.6,1.5,5,3.3,7.4,5.5.4.6,1.1,1.1,1.4,1.7-1.7-.2-3.6-.5-5.4-.5-.4,0-.9,0-1.2-.2-6.8-.9-12.9-3.8-17.7-8.2-.7-.4-1.4-1.1-2.2-.9-.6.8.3,1.6.5,2.4,4.6,6,11.8,8.9,19.2,10.1,4.2.5,8.2,1.2,12,2.4.3.2.2.6.3.8.7,2.3,1.7,4.5,2.8,6.7-.3.1-.6,0-.9-.3-5.2-1.9-10.7-3-16.3-3.9-2.3-.5-4.5-1.1-6.7-1.9-6.5-2.6-11.8-7.1-15.4-13.2-1.7-3.1-2.7-6.5-3.1-10.2,0-1.4-.2-3.2.9-3.9,1-.4,1.6.6,2.2,1.1"/>
    <path class="st2" d="M236.4,384.1c.6,1.3.5,3,.8,4.5,1.1,4.6,4.1,8.4,5,13.1,1.6,7,1.9,14.3,3.7,21.1,1.1,3.7,2.8,7.3,4.9,10.4-1.6-.4-3.3-1-5.1-.8-.7,0-1.3.2-1.9.4-5-7.1-5.7-16.2-6.4-25.2-.4-3.7-1.1-7.3-2-10.9-.2-.6-.5-1.4-1-1.7-.8-.1-.7.8-1.1,1.3-.5,4.5,1,8.6,1.1,13,.4,3.3.2,6.7.7,9.9-.2,0-.3-.3-.4-.5-.7-.7-1.2-1.4-1.6-2.1-3.6-5.4-5.7-11.8-4.8-18.9.4-2.7,1.1-5.2,1.9-7.6.2-.2.2-.5.3-.7,1.1-1.9,2.1-3.9,3.9-5.3.5-.4,1.6-.6,1.9,0"/>
    <path class="st2" d="M229.3,433.1c4.4,1.6,9.2,2.4,14.2,2.5,5.2.8,10.4,2.1,14.5,5.1l-.2.2c-7.7-.6-16,1.4-22.9-1.5-.6-.2-1.4-.6-2.1-.2,0,.1-.2.3-.2.5.8,1.2,2.1,1.7,3.3,2.4,4.7,2,10.3,2,15.6,1.7,8-.2,15.7,1.2,22.4,4.5h0c-3.4.8-6.6,1.8-9.6,3.1-4.1-1-8.5-1.4-12.9-1.3-.7,0-1.5.1-2.3,0-1.8,0-3.5-.3-5.3-.4-1.7-.3-3.6-.7-5.2-1.4-6.7-2.3-12.7-7.4-15.5-14-.3-.9-.6-1.9-.3-2.9.1-.3.5-.5.7-.6,2.1.3,3.7,1.5,5.6,2.3"/>
    <path class="st2" d="M251.2,411.3c6.8,1.5,11.9,7.1,14.7,13.1,4.1,7.8,9,16.2,16.6,21,.5.2.8.4,1.2.7-.1.3-.6.4-1,.4-7.7,1-13.4-4.8-16.6-10.5-2-3.7-3.6-7.6-5.7-11.1-1.3-1.9-2.6-4.3-4.8-5.4-.3,0-.5.2-.6.4,0,1.1.6,2,1,2.9,3.7,5.3,5,12,9.1,17.1,0,0,0,.2,0,.2-5.7-1.9-10.2-6.1-12.4-11.9-2-5-2.3-10.8-5.2-15.4,0-.5-.3-1.1.2-1.4,1-.7,2.4-.4,3.5-.2h.1Z"/>
    <path class="st2" d="M373,411.2c0-.9,0-2,0-2.9.5,0,1,0,1.3-.5,2.4-3.1.8-7.8,2.7-11,.4-.9,1.3-1.6,2.3-1.6,1.4.4,2.5,1.9,3.1,3.1.2.7.6,1.5,1.3,1.6,0,0,.3,0,.4,0,2.2-1.2,2.6-3.9,3.4-6.1.5-1.8,1-3.5,1.9-5.1.6-1,1.4-1.9,2.5-2.3.2-.2.5,0,.7,0,1.2.4,1.7,1.7,1.7,2.9,0,.4.4.7.7.9,1.4.2,2.1-1.1,2.9-1.9,1.7-3,4-6.1,7.6-6.9,1.1,0,2.2.2,2.7,1.2,1.5,2.8-.2,5.9-1.1,8.5-.1.6-.3,1.6.2,2.2.8.3,1.8,0,2.7.3.6.2,1.2.9,1.2,1.6-.3,3.1-3.2,4.9-5.5,6.4-1.8,1.2-3.8,1.9-5,3.9,0,.3,0,.6,0,.8.3.5.9.4,1.3.6,1,0,1.9.6,2.2,1.6.2,1.9-1.6,2.8-2.7,3.7-2.5,1.4-5.3,2.1-8,2.9-1.3.6-2.6,1.1-3.6,2.3,0,.3-.3.7,0,1,.8.9,2.3.3,3.2.9,1,.2,2.1.9,2.2,2.1-.2,2.1-2.5,3.1-4.2,3.8-.3,0-.6.1-.8.3-.7.2-1.4.4-2.2.5-1.3.3-2.9.3-4.2.2,1-2.6.8-6.2-1.2-8.1l-1.3-1c2.9-2.5,5.7-5.2,8.5-7.9,0-.2.4-.4.5-.6,1.5-1.7,3.1-3.5,4.6-5.1.7-.7,1.2-1.5,1.7-2.1,1-1.2,1.7-2.5,2.7-3.8,0-.2.2-.4.3-.5,1-1.4,1.9-3,2.2-4.7,0-.2,0-.5-.1-.7-.1-.2-.4-.3-.6-.2-1.1.5-1.9,1.5-2.6,2.4-6.4,8.3-14.3,15.2-22.1,22.1-.5,0-.9.2-1.4.3-.9,0-1.7.6-2.5.7-.6-1.5-.2-3.3.2-4.8v-.8Z"/>
    <path class="st2" d="M386.7,327.5c1.6-.6,4.6,1.9,4.8-1.1-.5-3.7-3.7-6.2-4.9-9.5-.6-1.2-1-2.7-.6-4.1,0-.5.5-.8.8-1.1.6-.5,2.2-.1,2.5,0,.8.4,1.5.4,1.8.2.4-.2.5-.6.5-1.1-.5-1.9-1.9-3.2-2.7-4.9-.8-1.9-2.1-4.2-1-6.3.2-.3.4-.5.8-.6.7-.2,1.3-.1,2,.1.8.4,1.9,1,2.8-.5,1.5-2.5-.1-5.8.4-8.8.3-1.6.9-3.6,2.6-4.2.6-.2,1.4,0,1.9.3,3,1.8,3.3,5.6,5.5,8.1.3.4.8.7,1.3.7,1.1-.6,1.7-1.9,3-2,.7,0,1.4.5,1.8,1.2,1.9,4.6-.8,9.2-.5,13.9.1.6.3,1.2.9,1.6.7.3,1.1-.2,1.6-.5.6-.9,1.7-1.6,2.9-1.5.7.2,1,.7,1.2,1.3.7,4.3-2.4,7.5-3.8,11.2-.2.8-.5,1.7,0,2.4.4.4,1,.5,1.5.2.9-.4,2-.9,3-.2,1.1,1,.6,2.9,0,4.1-.4,1-.9,1.9-1.5,2.7-1.9-1.1-4.8-1-6.6.4-3.2,2.4-4.6,6-4.9,9.8-.8-.5-1.7-.8-2.7-1,.5-3,.8-6.2,1.3-9.4,0-.1,0-.3,0-.4.2-2.7.4-5.7.5-8.5,0-5.9-.4-12.2-1.5-17.9-.6-1.5-.6-3.4-2.2-4.3-.6,0-.6.7-.7,1.1-.1,1.9.6,6,.6,6,.8,7.2.5,15-.4,22.1-.3,1.7-.4,3.5-.8,5.3-1,6.5-2.3,12.8-3.6,19.1,0,0-.1,0-.2,0-.8-.5-1.9-.7-2.8-.8,0-.6,0-1.2-.1-1.8-.5-4.6-1.5-9-3.9-12.8-1-2-2-4.1-1.8-6.6.1-.7.5-1.7,1.3-1.9"/>
    <path class="st2" d="M397.3,359.3c-.2-.2,0-.3,0-.5.1-1.4-.2-2.6-.4-3.9.6.2,1.3.8,2.1.4.3-.2.5-.6.5-1,.4-.9,0-2-.1-2.9-.7-2.2-1.4-4.4-1.3-6.7,0-1.2.5-2.6,1.7-2.9,1.9-.3,2.7,1.2,3.9,2.2.4,0,.9.3,1.3,0,1.6-1.3,1.8-3.3,2.3-5.2.7-2.6,1.7-5.3,4-6.8.9-.3,1.9-.5,2.7.2,2.1,1.6,2.2,4.4,2.4,7,0,.3,0,.8,0,1.2,0,.8.1,1.6.8,2.1,1,.3,1.4-.7,2.2-.7.4-.3.9-.2,1.4-.2,1.1.2,1.3,1.3,1.5,2.2,0,4.5-3,7.8-5.2,11.4-.2.6-.6,1.5-.2,2.1.8.7,1.9,0,2.7,0,.4,0,.8.1,1.1.3.7.5.8,1.3.7,2.1-.3,1.3-1,2.6-2,3.5-.5.8-1.3,1.4-1.9,2.1-.3.2-.5.5-.8.6-1.4,1.7-3.6,2.6-4.1,4.9,0,.3.2.7.5.7,1.2.2,2.3-.4,3.6-.2.7.2,1.5.4,2,1.1.8,2.1-1.2,3.7-2.6,5-1.5,1.1-3.1,1.9-4.8,2.6-.2,0-.3,0-.3-.2-1.3-1.7-3.4-2.4-5.6-2.2-1.6.3-3.1.8-4.3,1.9-.3-1.1-1.1-2.1-2-2.7,1.7-2.5,3.6-5.1,5.1-7.6.9-1.2,1.5-2.6,2.4-3.8,1-2.2,2.2-4.2,3.1-6.6.4-1.2,1-2.4,1.3-3.7.8-3.2,1.7-6.7,1.1-10.2,0-.4-.2-.8-.6-1.1-.7,0-.9.9-1.2,1.4-.5,1.9-.8,3.9-1.5,5.8-1.8,5.5-4.3,10.8-7.4,15.7-.5-1.5-1.8-2.8-3.4-3-.5,0-1.2,0-1.7,0-.2-.5.3-.9.4-1.4.4-1,.7-2.1.7-3.2"/>
    <path class="st2" d="M368,277.4c.7-.5,1.9-.3,2.7-.2.2,0,.7,0,.9,0,1.5-.4,1.7-2.4,1.3-3.4-.8-2.1-3.8-4.3-3.4-7,.2-.8.8-1.5,1.6-1.9,3.4-1.3,7.1,3.2,9.8,4.9,1.1.7,2.1,1.6,3.6,1.3,1-.7,1-2.1,2.2-2.5,1.2,0,2.2.6,2.8,1.6,1.8,3.1,2.2,6.7,2.5,10.4.1,1.4.2,2.8.2,4.2-.7,1.2-1.3,2.6-1.5,4.1-.4,2.2,0,4.3.2,6.3-.6,0-1.2-.3-2-.2-1.4-6.7-4-13.2-7.9-18.7-.8-.9-1.7-2.3-3-2.4-.3.2-.3.6-.3.8,0,.5.1.9.4,1.3,0,.4.3.7.4,1.1,3.2,5.9,5.6,12.6,7,19.3,0,.7-.6.9-.8,1.5-.3.9-.4,1.8-.5,2.7h-.1c-2.2-3.1-7.9-3.6-10.1-6.9-.5-.6-.8-1.7-.5-2.6.7-1.2,2.2-.7,3.3-1,.3-.2.5-.5.5-.9-.5-1.8-2.4-2.8-3.8-3.8-2.6-1.4-5.5-3.3-6.3-6.3-.2-.7,0-1.5.7-1.9"/>
    <path class="st2" d="M368.8,296.7c.7-.5,1.5-.2,2.4-.2.3.1.6.2.9.3,2.8,1.3,8,5.8,11.2,6.4.6.1,1-.2,1.4-.5.4,1.5.9,2.9,1.8,4.2.2.1.3.4.4.6-1.4.3-2.7,1.4-3.3,2.7l-.3.5c-1.4-2.1-4-4.2-5.5-4.9-.2-.1-.7.2-.7.5,0,1.8,1.5,3.1,2.4,4.4,2.8,4,5,8.9,6,13.3-.7.4-1.6.9-2.1,1.7-1.6,2.6-1,6.2.2,8.7.7,1.6,1.8,3.1,2.4,4.7,1.1,2.6,1.8,5.4,2.3,8.2,0,1.2-.1,2.5,0,3.6-.2,0,0,.3-.2.4-.2-.2-.1-.5-.3-.6-1.7-5.6-10.2-11.2-13.8-15.4-1.8-2.5-3.7-5.3-3-8.5.3-.8,1-1.3,1.8-1.3.9,0,1.9.3,2.8.3.5,0,.9-.3,1.1-.7.4-1.4-.6-2.6-1.3-3.6-1.1-1.5-2.5-2.5-3.8-4-.1,0-.1-.3-.3-.4-1.3-1.5-2.9-2.8-2.3-5.1.5-1,1.6-.9,2.5-1,.3-.2.6-.5.7-.9,0-2.7-2-4.6-3.1-6.7-.8-1.5-1.5-3.2-1.2-5.1.3-.6.5-1.2,1.1-1.6"/>
    <path class="st2" d="M367.2,381.7c.1-1.1.2-2.2.5-3.2.3-1.1.7-2.4,2-2.7,1.7-.2,3,3,4.4.8.6-1.5,0-3.3-.3-4.8-.5-1.7-1.4-3.2-1.8-4.9-.8-1.5-1-3.2-1.2-5,.1-.9.2-1.9,1-2.5.8-.8,1.8.2,2.7-.3.4,0,.6-.3.8-.6.6-3-1.4-5.3-1-8.3,0-1.7.7-3.4,2-4.2,1.6-1,4,0,5,1.2,1.2,1.6,2.3,3.4,3.1,5.2,1.2,2.6,1.8,4.9,4.8,2.8.9-.7,1.7-1.7,3-1.7.8.1,1.3.8,1.6,1.6.4,1.8.2,3.8-.4,5.5-.3,1.2-.8,2.4-.8,3.7-.2,1,0,1.7.2,2.6.2.3.3.7.7.7.7,0,1.3-.7,2-.7.7-.4,1.7-.4,2.5,0,.6.4.7,1.2.7,1.9-.4,3.5-3.7,5.5-5,8.5-.1.5-.2.9,0,1.4.1.3.4.4.7.4,0-.2.2,0,.3,0,.4-.2.8,0,1.2-.3,1,0,2.1,0,2.6,1,.7,1.8-.8,3.3-1.9,4.6h-.2c-1.1-1.4-2.8-1.9-4.5-1.8-4.7,1.2-6.2,6.1-7.5,11.1-.3-.5-1-1.3-1.8-1.8,3.6-11.6,3.4-20.2,1.4-29.7-.5-1.9-.6-3.9-2.1-5.2-.3,0-.6.1-.7.4-.4.9-.1,1.9-.2,3,1.6,13.6.7,22-1.9,30.7-.7,0-2,.2-2.7.9-2.6,2.2-3.7,5.6-3.5,9.2,0,1.1-.2,1.8-.7,2.8-2.1-5.9-5-6.5-7.1-5.4,3.3-5.1,2.4-10.5,2.1-16.8"/>
    <path class="st2" d="M341.5,416.8c1-1.1,2.4-2.6,3.9-1.8,1.5.8.5,3,2,3.8,1.5.9,2.4-1.9,2.9-3.5,1-2.8,1.3-5.6,2.4-7.7.7-1.3,1.4-2.7,3.1-2.2,1.3.4,1.1,3.4,3,3.2,2.5-.3,3.7-7.5,7.4-6.7,1.8.4,3.6,3.6,3.6,7.8,0,2.7-1.1,5.4-.3,8,.1.2.3.4.3.6-1,.9-2.2,1.8-3.3,2.6-.3-.7-.8-1.7-1.5-2.2-.5-.4-1.1-.7-1.6-1.1.9-2.1,1.7-4.7,1.5-6.6-.1-.2-.6-.3-.9-.2-1.4,1-2.2,4.2-3.7,6.6-4.3,1-6.7,4.6-8.6,8.3-.2,0-.1-.3-.3-.5-1.1-1.2-2.8-2.1-4.6-1.7-4.6,1-7,5.8-9.6,9.8-.7-1.9-2.1-2.2-3.8-2.8,4.1-4.9,4.9-10.2,8.1-13.9"/>
    <path class="st2" d="M325.4,441.2c2.2-2.7,3.6-5.8,6.4-7.4.5-.3,1.6-.4,2.1,0,.9.5,1,2.9,2.5,2.8,2-.1,4.7-3.7,6.1-5.7,1.2-1.8,2.7-3.5,4.9-4,.7,0,1.4,0,1.8.7.7,1.2-.1,3.2,1,4.1,1.2,0,1.9-.8,2.6-1.6.9-.9,1.4-2.3,2.2-3.3,0-.4.4-.8.6-1.2,1.5-2.1,3.1-4.3,5.7-4.8.8-.1,1.6.2,2,.9.3.5.4,1.3.4,2-.2.1,0,.3,0,.5,0,.4.2.8.6.9.9.3,1.9,0,2.6-.5,3.4-1.2,5.2-4.5,8.8-5.4,1.4-.5,3.4-.5,4.6.4,1.3,1,1.2,3,.8,4.4-.2,0,0,.3-.1.5-.9,2.3-2.4,4.3-3.5,6.5,0,.3-.1.5-.2.8,0,.7,0,1.4.5,1.9.3.2.8.4,1.2.5.8.3,1.5.8,1.9,1.6.2,1.3-.8,2.3-1.8,2.9-3.8,2.4-8.9,1.5-12.9,3.4-1.1.3-2.6.9-2.9,2.2,0,.6.3.8.6,1.1.7.3,1.8,1,1.9,1.9,0,1.6-1.6,2.3-2.8,2.8-.3,0-.7.2-1.1.3-6.1,1.4-12.7-.6-18.9.5-1.5.2-3.1.5-4.5,1.1-.5,0-.8-.3-1.3-.4-2.4-.9-4.8-1.9-7.3-2.4,1.6-.4,3.4-.7,5-1.1.2-.1.6,0,.8-.2,1.2-.5,2.4-.4,3.6-1,.5,0,.9-.4,1.3-.3,1.9-.7,3.7-1.2,5.7-1.8,1.5-.7,3.1-1.3,4.8-1.8.2-.2.5-.2.6-.3.4-.1.7-.4,1.1-.4.6-.3,1.3-.6,1.9-.8,2.4-1.2,4.9-2.2,7.2-3.6.7-.3,1.5-.8,2.2-1.2,3-2.1,6.4-4,8.5-7.1.1-.3.3-.8,0-1-.6-.4-1.4,0-2,.3-3.3,2.2-6.3,4-9.7,5.8-1.8.8-3.5,1.7-5.3,2.5-.5.2-1,.3-1.4.5-1.8.8-3.7,1.5-5.5,2.2-1.3.4-2.7.8-4,1.2-.9.3-1.7.5-2.6.8-5.5,1.6-13.3,3.5-17.9,4.4-1.5.3-3.1.7-4.7.8,0,0,0-.1,0-.2,3.2-1.7,4.9-3.9,6.2-5.5"/>
    <path class="st1" d="M290.6,447.6c3.8-1.3,7.2-3.3,10.4-5.8,3.4,3.1,7.7,4.8,11.9,6.4h0c-3.6,3.6-7.6,6.5-11.9,8.8-.3,0-.4-.2-.7-.3-3.4-1.9-7-4.2-9.8-7.1-.5-.3-1-.9-1.4-1.4.5-.3,1.1-.4,1.6-.7"/>
    <path class="st2" d="M266,455.1c.3-.3.8-.2,1.2-.5,3.9-1.3,7.9-2.1,12-3.1,2-.5,4-1,5.9-1.6,1.2,1.5,2.5,2.4,3.9,3.6-1.5.7-3.1,1.1-4.7,1.5-5.2,1.7-10.8,2.4-15.9,4.1-3.6,1.3-7,2.8-9.6,5.6-1.2,1.2-2.1,2.7-2.8,4.3-1.1-1.5-1.8-3.2-3-4.7,2.8-4.8,8.2-7.4,13-9.4"/>
    <path class="st2" d="M308.7,456.3c0-.2.2-.3.4-.2,1,.5,2.2.8,3.3,1.2,3.2,1.2,6.6,1.9,10,2.7.9,0,1.7.4,2.6.5,2.2.5,4.6,1,6.7,1.7.4.3,1,.2,1.3.6,4.3,1.5,8.3,4.5,10.1,8.8v.5c-1.1,1.8-2,3.4-3.2,5.2-.3-.3-.2-.8-.4-1.2-1.5-6.6-8.5-9-14.3-10.5-7.3-1.4-14.4-3.3-21-6.3,1.6-.8,3.1-2,4.6-2.9"/>
    <path class="st2" d="M316.2,449.9c5.4,1.9,11.3,2.4,16.6,4.2,4.7,1.5,9.1,3.7,12.7,6.9.9,1.1,2,2.1,2.6,3.5-.6.5-.7,1.2-1.2,1.7-.6.9-1.2,2-1.8,2.8-.1,0,0-.3-.2-.4-1-2.4-2.9-4.3-4.8-6-.2,0-.4-.3-.6-.4-6-4.1-13.7-4.7-20.7-6.5-2.2-.6-4.4-1.2-6.6-2.1,1.3-1.2,2.7-2.4,4-3.7"/>
    <path class="st2" d="M261.9,466.8c3.8-3.4,9.1-4.9,14.1-5.9.3-.2.6,0,.9-.2.5,0,1.1-.2,1.6-.3,1.5-.4,3.2-.7,4.7-1.1,3-.8,6-1.8,8.8-3,1.5,1.1,3,2.2,4.6,3.2-7.1,3.1-14.6,5.2-22.4,6.6-3.6,1.1-7.2,2.5-10,5.1-1.6,1.8-2.6,3.9-3.1,6.2h0c-1-1.7-2.1-3.4-3.1-5,.6-2.1,2.3-4,3.9-5.5"/>
    <path class="st2" d="M286.5,426.1c-.5-.5-4.4-1.8-7-1.8,3.8,5,9.9,13,14.9,17.7,1.5-.7,2.6-1.4,3.9-2.5-4.2-4.2-8-8.6-11.7-13.4"/>
    <path class="st2" d="M274.3,422.9c-.5-.8-3.8-1.6-6.5-1.6,4.8,7.6,12.4,17.8,18.5,24.1,1.6-.5,3.1-1.1,4.5-1.8-7.7-8.2-11.3-13.2-16.5-20.7"/>
    <path class="st2" d="M315.4,426.1c.5-.5,4.4-1.8,7-1.8-3.8,5-9.9,13-14.9,17.7-1.5-.7-2.6-1.4-3.8-2.5,4.2-4.2,8.1-8.6,11.7-13.4"/>
    <path class="st2" d="M327.6,422.9c.5-.8,3.8-1.6,6.5-1.6-4.9,7.6-12.4,17.8-18.6,24.1-1.6-.5-3.1-1.1-4.5-1.8,7.6-8.2,11.3-13.2,16.5-20.7"/>
    <path class="st1" d="M301,410.3c7.8-4.8,17.6-5.4,26.8-6.8,12.3-1.9,21.5-10.2,21.5-23.1v-99.1h-96.6v99.1c0,12.9,9.3,21.2,21.5,23.1,9.2,1.4,19,2,26.8,6.8M301,415.9c-.7-.9-1.9-1.8-3.6-2.8-6.7-3.6-17.7-4.5-23.7-5.4-15-2.3-25.2-12.8-25.2-27.4v-103.2h105.2v103.2c0,14.7-10.2,25.2-25.2,27.4-6.1.9-17.1,1.8-23.7,5.4-1.7,1-2.9,1.9-3.6,2.8"/>
    <rect class="st2" x="260.4" y="233.6" width="4.3" height="8.7"/>
    <polygon class="st2" points="294.9 224.6 299.2 224.6 299.2 229.1 302.7 229.1 302.7 224.6 307 224.6 307 233.4 294.9 233.4 294.9 224.6"/>
    <polygon class="st2" points="268.2 239.1 268.2 229.1 272.5 229.1 272.5 237.9 276.7 244.4 276.7 258.1 272.5 258.1 272.5 245.7 268.2 239.1"/>
    <polygon class="st2" points="280.2 233.6 283.7 233.6 283.7 237.9 275.9 237.9 275.9 229.1 280.2 229.1 280.2 233.6"/>
    <polygon class="st2" points="287.6 265.8 256.9 265.8 256.9 250.2 252.6 243.6 252.6 233.6 256.9 233.6 256.9 242.3 261.2 248.9 261.2 261.5 287.6 261.5 287.6 265.8"/>
    <rect class="st2" x="337.2" y="233.6" width="4.3" height="8.7"/>
    <polygon class="st2" points="333.8 239.1 333.8 229.1 329.5 229.1 329.5 237.9 325.2 244.4 325.2 258.1 329.5 258.1 329.5 245.7 333.8 239.1"/>
    <polygon class="st2" points="321.7 233.6 318.2 233.6 318.2 237.9 326 237.9 326 229.1 321.7 229.1 321.7 233.6"/>
    <path class="st2" d="M256.9,273.6v-4.3h34.1v-7.8c0-5.5,4.4-9.9,9.9-9.9s9.9,4.4,9.9,9.9v7.8h34.1v4.3h-38.4v-12c0-3.1-2.5-5.6-5.6-5.6s-5.6,2.5-5.6,5.6v12h-38.4Z"/>
    <polygon class="st2" points="314.3 265.8 345 265.8 345 250.2 349.3 243.6 349.3 233.6 345 233.6 345 242.3 340.7 248.9 340.7 261.5 314.3 261.5 314.3 265.8"/>
    <path class="st2" d="M295.3,249.4v-10l-3.9-6v-8.8h-4.3v10l3.9,6v11.9c1.2-1.3,2.7-2.4,4.3-3.1"/>
    <path class="st2" d="M306.6,249.4v-10l3.9-6v-8.8h4.3v10l-3.9,6v11.9c-1.2-1.3-2.6-2.4-4.3-3.1"/>
    <path class="st2" d="M202,163.5c0,2.4-1.2,4.3-3.5,5.7-2.2,1.3-4.9,2-8.3,2s-1.2,0-2-.1c-.8,0-1.3-.1-1.3-.1v9.3c0,1.8-.3,3-.9,3.7-.6.7-1.5,1-2.9,1h-.4v-26.3c0-.5,0-.8-.3-.9-.2-.1-.7-.2-1.5-.2h-1.8v-1h12.3c2.9,0,5.2.6,7.1,1.8,2.2,1.3,3.2,3.1,3.2,5.3M197.3,163.5c0-1.9-.6-3.4-1.9-4.5-1.1-1-2.5-1.5-4.3-1.5s-1,0-1.9,0c-.9,0-1.5,0-1.6,0-.3,0-.5,0-.5,0,0,0,0,.2,0,.6v10.8c0,.4.2.6.6.6,1.9.2,2.8.3,2.4.3,2.2,0,4-.6,5.3-1.7,1.3-1.1,1.9-2.7,1.9-4.8"/>
    <path class="st2" d="M229.1,184.9h-.7c-2.6,0-4.3-1.2-5.3-3.7l-2.2-5.6c-.1-.3-.3-.4-.5-.4h-11c-.2,0-.3.1-.5.4l-3.6,8.9h-1.3l9.7-24.2c.3-.8.5-1.4.5-1.6,0-.7-.6-1.1-1.7-1.1h-1.8v-1.1h6.9l11.3,28.5ZM220.4,174.1c0-.2-1.8-4.8-5.3-13.7l-5.4,13.7c0,.1,0,.2.3.2h10c.2,0,.3,0,.3-.2"/>
    <path class="st2" d="M254.6,163.2h-1c-.2-2.1-.9-3.6-2.1-4.5-1.1-.8-2.8-1.2-5.3-1.2h-.8c-.3,0-.5,0-.5,0,0,0,0,.2,0,.6v22c0,1.8-.3,3-.9,3.7-.6.7-1.6,1-2.9,1h-.4v-26.7c0-.3,0-.5,0-.6,0,0-.2,0-.5,0h-.8c-2.4,0-4.2.4-5.3,1.2-1.2.9-1.9,2.3-2.1,4.5h-1v-6.8h23.6v6.8Z"/>
    <path class="st2" d="M279.6,184.9h-.5c-2.9,0-4.3-1.6-4.3-4.7s-.4-5.9-1.2-7.2c-1-1.6-3-2.4-6-2.4h-2.1c-.3,0-.5,0-.5,0,0,0,0,.2,0,.6v9c0,1.8-.3,3-.9,3.7-.6.7-1.5,1-2.9,1h-.4v-26.3c0-.5,0-.8-.3-.9-.2-.1-.7-.2-1.5-.2h-1.8v-1.1h12.1c2.8,0,5.2.6,7,1.7,2,1.3,3.1,3,3.1,5.2s-.8,3.7-2.5,4.9c-1.3,1-3.1,1.6-5.1,1.8,2.4.3,4.1,1.1,5.2,2.3,1.5,1.6,2.2,4.3,2.2,7.9s.2,3.4.5,4.7M274.7,163.3c0-1.9-.6-3.3-1.7-4.3-1-.9-2.4-1.3-4.1-1.3s-1,0-1.8,0c-.9,0-1.4,0-1.5,0-.3,0-.5,0-.5,0s0,.2,0,.6v10.6c0,.3,0,.5,0,.5,0,0,.2,0,.5,0h2.4c2.6,0,4.4-.6,5.5-1.8.9-1,1.4-2.5,1.4-4.5"/>
    <path class="st2" d="M309.7,170.1c0,4.8-1.2,8.6-3.7,11.3-2.2,2.5-5.2,3.7-8.8,3.7s-6.7-1.2-8.9-3.7c-2.4-2.7-3.6-6.4-3.6-11.3s1.3-7.8,3.8-10.4c2.4-2.4,5.3-3.7,8.7-3.7s6.5,1.2,8.8,3.7c2.4,2.6,3.7,6.1,3.7,10.4M305,170.1c0-4.5-.5-7.7-1.6-9.6-1.2-2.2-3.2-3.3-6.2-3.3s-5,1.1-6.2,3.3c-1.1,1.9-1.6,5.1-1.6,9.6s.6,8.5,1.7,10.6c1.1,2.1,3.2,3.2,6,3.2s4.9-1.1,6-3.2c1.1-2,1.7-5.6,1.7-10.6"/>
    <path class="st2" d="M336.4,180.9c-2.2,2.8-5.3,4.2-9.2,4.2s-6.6-1.2-8.8-3.7c-2.4-2.7-3.6-6.4-3.6-11.3s1.3-7.8,3.9-10.4c2.4-2.4,5.3-3.7,8.9-3.7s3.6.3,5.7.8c2.1.5,3.2.8,3.2.8v6.2h-1c-.2-2-1-3.6-2.4-4.8-1.4-1.2-3.2-1.8-5.5-1.8s-5.1,1.1-6.3,3.3c-1.1,2-1.7,5.2-1.7,9.5s.6,8.4,1.7,10.5c1.1,2,3.1,3.1,6,3.1s6.8-1.6,9.2-4.7v2Z"/>
    <path class="st2" d="M351.6,157.5h-1.8c-.9,0-1.4,0-1.5.2-.2,0-.3.4-.3.9v21.7c0,1.8-.3,3-.9,3.7-.6.7-1.5,1-2.9,1h-.4v-26.3c0-.5,0-.8-.3-.9-.2-.1-.7-.2-1.5-.2h-1.8v-1h11.3v1Z"/>
    <path class="st2" d="M381,157.5h-1.8c-.8,0-1.3,0-1.5.2-.2,0-.3.4-.3.9v26.3h-1.3l-17.3-25.5v25.1h-1.3v-26c0-.5,0-.8-.3-.9-.2-.1-.7-.2-1.5-.2h-1.8v-1h7.9l14.2,21v-18.8c0-.5,0-.8-.3-.9-.2-.1-.7-.2-1.5-.2h-1.8v-1h8.4v1Z"/>
    <path class="st2" d="M394.6,157.5h-1.8c-.9,0-1.4,0-1.5.2-.2,0-.3.4-.3.9v21.7c0,1.8-.3,3-.9,3.7-.6.7-1.5,1-2.9,1h-.4v-26.3c0-.5,0-.8-.3-.9-.2-.1-.7-.2-1.5-.2h-1.8v-1h11.3v1Z"/>
    <path class="st2" d="M423.3,170.1c0,4.8-1.2,8.6-3.7,11.3-2.2,2.5-5.2,3.7-8.8,3.7s-6.7-1.2-8.9-3.7c-2.4-2.7-3.6-6.4-3.6-11.3s1.3-7.8,3.8-10.4c2.4-2.4,5.3-3.7,8.7-3.7s6.5,1.2,8.8,3.7c2.4,2.6,3.7,6.1,3.7,10.4M418.6,170.1c0-4.5-.5-7.7-1.6-9.6-1.2-2.2-3.2-3.3-6.2-3.3s-5,1.1-6.2,3.3c-1.1,1.9-1.6,5.1-1.6,9.6s.6,8.5,1.7,10.6c1.1,2.1,3.2,3.2,6,3.2s4.9-1.1,6-3.2c1.1-2,1.7-5.6,1.7-10.6"/>
  </g>
</svg>