<?xml version="1.0" encoding="UTF-8"?>
<svg id="Layer_1" data-name="Layer 1" xmlns="http://www.w3.org/2000/svg" viewBox="0 0 948.43 124.13">
  <defs>
    <style>
      .cls-1 {
        fill: #1d1d1b;
      }
    </style>
  </defs>
  <g id="dip_design" data-name="dip design">
    <g>
      <g>
        <g>
          <path class="cls-1" d="M137.1,28.6c0-.39.31-.74.74-.74h9.2c4.81,0,8.77,3.91,8.77,8.65,0,4.85-3.95,8.81-8.73,8.81h-4.89v9.2c0,.39-.35.74-.74.74h-3.6c-.43,0-.74-.35-.74-.74v-25.91ZM146.73,40.53c2.19,0,4.03-1.76,4.03-4.07,0-2.15-1.84-3.8-4.03-3.8h-4.54v7.87s4.54,0,4.54,0Z"/>
          <path class="cls-1" d="M171.98,27.46c7.83,0,14.09,6.3,14.09,14.13s-6.26,14.05-14.09,14.05-14.05-6.22-14.05-14.05c0-7.83,6.22-14.13,14.05-14.13ZM171.98,50.55c4.93,0,9-4.03,9-8.96,0-4.93-4.07-9.04-9-9.04s-8.96,4.11-8.96,9.04c0,4.93,4.03,8.96,8.96,8.96Z"/>
          <path class="cls-1" d="M190.81,28.6c0-.39.31-.74.74-.74h3.6c.39,0,.74.35.74.74v21.95s9.98,0,9.98,0c.43,0,.74.35.74.74v3.21c0,.39-.31.74-.74.74h-14.32c-.43,0-.74-.35-.74-.74v-25.91Z"/>
          <path class="cls-1" d="M210.19,28.6c0-.39.35-.74.74-.74h3.64c.39,0,.74.35.74.74v25.91c0,.39-.35.74-.74.74h-3.64c-.39,0-.74-.35-.74-.74v-25.91Z"/>
          <path class="cls-1" d="M225.73,32.55h-5.99c-.43,0-.74-.35-.74-.74v-3.21c0-.39.31-.74.74-.74h17.1c.43,0,.74.35.74.74v3.21c0,.39-.31.74-.74.74h-5.99v21.95c0,.39-.35.74-.74.74h-3.64c-.39,0-.74-.35-.74-.74v-21.95Z"/>
          <path class="cls-1" d="M241.27,28.6c0-.39.31-.74.74-.74h15.93c.43,0,.74.35.74.74v3.21c0,.39-.31.74-.74.74h-11.58v6.42s9.67,0,9.67,0c.39,0,.74.35.74.74v3.25c0,.43-.35.74-.74.74h-9.67v6.85s11.58,0,11.58,0c.43,0,.74.35.74.74v3.21c0,.39-.31.74-.74.74h-15.93c-.43,0-.74-.35-.74-.74v-25.91Z"/>
          <path class="cls-1" d="M275.91,27.46c3.95,0,6.81,1.25,9.47,3.64.35.31.35.78.04,1.1l-2.39,2.47c-.27.31-.66.31-.98,0-1.64-1.45-3.84-2.31-6.03-2.31-5.01,0-8.73,4.19-8.73,9.12,0,4.89,3.76,9.04,8.77,9.04,2.35,0,4.34-.9,5.99-2.23.31-.27.74-.23.98,0l2.43,2.5c.31.27.23.78-.04,1.06-2.66,2.58-6.03,3.8-9.51,3.8-7.83,0-14.13-6.22-14.13-14.05,0-7.83,6.3-14.13,14.13-14.13Z"/>
          <path class="cls-1" d="M290.16,28.17c0-.39.35-.7.74-.7h.98l16.28,17.3h.04v-16.16c0-.39.31-.74.74-.74h3.6c.39,0,.74.35.74.74v26.34c0,.39-.35.7-.74.7h-.94l-16.36-17.96h-.04v16.83c0,.39-.31.74-.74.74h-3.56c-.39,0-.74-.35-.74-.74v-26.34Z"/>
          <path class="cls-1" d="M320.03,28.6c0-.39.35-.74.74-.74h3.64c.39,0,.74.35.74.74v25.91c0,.39-.35.74-.74.74h-3.64c-.39,0-.74-.35-.74-.74v-25.91Z"/>
          <path class="cls-1" d="M344.02,27.46c3.95,0,6.81,1.25,9.47,3.64.35.31.35.78.04,1.1l-2.39,2.47c-.27.31-.66.31-.98,0-1.64-1.45-3.84-2.31-6.03-2.31-5.01,0-8.73,4.19-8.73,9.12,0,4.89,3.76,9.04,8.77,9.04,2.35,0,4.34-.9,5.99-2.23.31-.27.74-.23.98,0l2.43,2.5c.31.27.23.78-.04,1.06-2.66,2.58-6.03,3.8-9.51,3.8-7.83,0-14.13-6.22-14.13-14.05,0-7.83,6.3-14.13,14.13-14.13Z"/>
          <path class="cls-1" d="M370.25,27.46c7.83,0,14.09,6.3,14.09,14.13,0,7.83-6.26,14.05-14.09,14.05s-14.05-6.22-14.05-14.05c0-7.83,6.22-14.13,14.05-14.13ZM370.25,50.55c4.93,0,9-4.03,9-8.96,0-4.93-4.07-9.04-9-9.04s-8.96,4.11-8.96,9.04c0,4.93,4.03,8.96,8.96,8.96Z"/>
        </g>
        <g>
          <path class="cls-1" d="M141,69.15c.08-.31.39-.55.71-.55h.63c.27,0,.59.2.67.43l7.75,21.56h.2l7.63-21.56c.08-.23.39-.43.67-.43h.63c.31,0,.63.23.7.55l5.05,26.3c.12.55-.12.94-.7.94h-1.57c-.31,0-.63-.28-.71-.55l-3.48-20.15h-.16l-7.2,20.66c-.08.23-.43.43-.66.43h-.71c-.23,0-.59-.2-.67-.43l-7.28-20.66h-.16l-3.4,20.15c-.04.27-.39.55-.71.55h-1.57c-.59,0-.82-.39-.7-.94l5.05-26.3Z"/>
          <path class="cls-1" d="M172.83,69.73c0-.39.35-.74.74-.74h1.57c.39,0,.74.35.74.74v25.91c0,.39-.35.74-.74.74h-1.57c-.39,0-.74-.35-.74-.74v-25.91Z"/>
          <path class="cls-1" d="M185.04,69.73c0-.39.31-.74.74-.74h1.53c.39,0,.74.35.74.74v24.03s11.27,0,11.27,0c.43,0,.74.35.74.74v1.13c0,.39-.31.74-.74.74h-13.54c-.43,0-.74-.35-.74-.74v-25.91Z"/>
          <path class="cls-1" d="M202.89,95.37l11.9-26.34c.12-.23.31-.43.66-.43h.39c.35,0,.55.2.67.43l11.82,26.34c.24.51-.08,1.02-.67,1.02h-1.57c-.35,0-.59-.24-.66-.43l-2.9-6.46h-13.89l-2.86,6.46c-.08.2-.31.43-.67.43h-1.57c-.59,0-.9-.51-.66-1.02ZM221.48,87.07c-1.92-4.27-3.8-8.57-5.71-12.84h-.31l-5.71,12.84h11.74Z"/>
          <path class="cls-1" d="M233.77,69.3c0-.39.35-.7.74-.7h.98l17.65,21.99h.08v-20.86c0-.39.31-.74.74-.74h1.37c.39,0,.74.35.74.74v26.34c0,.39-.35.7-.74.7h-.7l-17.96-22.42h-.04v21.29c0,.39-.31.74-.74.74h-1.37c-.39,0-.74-.35-.74-.74v-26.34Z"/>
          <path class="cls-1" d="M277.3,68.6c7.83,0,14.09,6.3,14.09,14.13,0,7.83-6.26,14.05-14.09,14.05s-14.05-6.22-14.05-14.05c0-7.83,6.22-14.13,14.05-14.13ZM277.3,94.04c6.22,0,11.35-5.09,11.35-11.31,0-6.22-5.13-11.39-11.35-11.39s-11.31,5.17-11.31,11.39c0,6.22,5.09,11.31,11.31,11.31Z"/>
          <path class="cls-1" d="M310.26,74.63l-2.82,2.19c-.31.23-.63.27-.9-.04l-.74-.82c-.27-.31-.12-.67.08-.86l5.48-5.32h1.06c.39,0,.71.35.71.74v25.12c0,.39-.31.74-.71.74h-1.41c-.43,0-.74-.35-.74-.74v-21.01Z"/>
          <path class="cls-1" d="M325.53,82.69v-.12c-1.76-.82-4.03-3.01-4.03-6.03,0-4.3,3.4-7.16,8.06-7.16s8.14,2.86,8.14,7.16c0,3.01-2.27,5.2-4.03,6.03v.12c1.84.78,4.74,3.17,4.74,6.54,0,4.27-3.33,7.55-8.89,7.55s-8.73-3.29-8.73-7.55c0-3.36,2.9-5.75,4.74-6.54ZM329.52,94.43c3.37,0,5.95-1.84,5.95-4.93,0-2.43-2.15-4.89-5.87-5.28-3.76.39-5.87,2.86-5.87,5.28,0,3.01,2.7,4.93,5.79,4.93ZM334.8,76.66c0-2.94-2.27-4.93-5.36-4.93-2.82,0-5.05,2-5.05,4.93,0,2.43,1.57,4.3,5.21,4.66,3.6-.35,5.21-2.23,5.21-4.66Z"/>
          <path class="cls-1" d="M356.92,68.87c.39-.16.7.04.86.39l.43.94c.2.47.04.9-.7,1.13-1.76.59-8.69,4.46-10.06,9.74,0,0,2.58-1.76,5.95-1.76,4.42,0,8.41,3.29,8.41,8.49,0,4.93-3.95,8.96-8.65,8.96-6.34,0-9.12-4.93-9.12-11.15,0-10.41,8.92-15.18,12.88-16.75ZM359.03,87.97c0-3.4-2.62-6.11-5.91-6.11-3.64,0-6.18,2.54-6.18,2.54-.66,3.91.86,9.78,6.22,9.78,3.29,0,5.87-2.86,5.87-6.22Z"/>
          <path class="cls-1" d="M366.28,92.35l1.06-.9c.43-.31.74-.23,1.06.2.35.43,2.47,2.7,5.83,2.7,2.97,0,5.64-1.8,5.64-4.89,0-2.66-2.07-5.13-6.93-5.13h-2.19c-.43,0-.74-.24-.74-.86v-.94c0-.63.2-.86.82-.86h2.15c4.19,0,6.22-2.15,6.22-4.73,0-3.09-2.35-4.97-5.13-4.97s-4.27,1.57-5.13,2.54c-.24.27-.63.43-1.02.08l-.94-.74c-.31-.27-.27-.74,0-1.02,0,0,2.82-3.44,7.08-3.44,4.74,0,8.06,2.78,8.06,7.16,0,3.01-2.27,5.36-4.03,6.18v.12c1.84.78,4.7,2.97,4.7,6.34,0,4.26-3.29,7.59-8.69,7.59-4.82,0-7.01-2.5-7.87-3.48-.24-.27-.27-.7.04-.94Z"/>
        </g>
      </g>
      <g>
        <g>
          <path class="cls-1" d="M107.05,88.58c-.86-.12-2.05-3.05-2-5.82,0-.75.07-1.48.24-2.14.65-2.69,2.54-9.19,2.54-16.95,0-1.66-.09-3.39-.3-5.14-.59-5.14-1.28-8.91-2.38-11.65,0,0,0-.01,0-.02.54-.74,1.03-1.65,1.05-2.52,0-1.7-1.41-4.28-4.29-4.3-.26,0-.53.03-.8.07l-1.78.55c-1.49-1.09-2.88-1.2-3.86-1.2-.22,0-.42,0-.6,0-.27,0-.48-.02-.57-.06-.02,0-.62-.26-1.4-.26-.19,0-.39.01-.6.05-.01,0-.02,0-.03-.01-.81-.15-1.63-.21-2.43-.21-.8,0-1.6.06-2.37.17-.12-.21-.62-.95-1.72-1.78,0-.03,0-.13,0-.36-.02-.92-.91-2.38-.91-2.4-2.25-3.73-5.69-5.13-6.14-5.3.11-.45.21-1.31.21-1.72,0-.06,0-.11-.02-.18h-.12s.12,0,.12,0c-.02-.1.2-.53.29-.97,0-.05,0-.08,0-.12-.02-.65-.73-1.9-1.1-2.74-.45-.9-1.54-1.03-1.89-1.06-.99-.94-2.42-1.04-3.14-1.05-.27,0-.44.02-.45.02-.06.03-1.85.42-2.3.74-.2.16-.68.64-1.13,1.13-.55-.31-1.1-.42-1.61-.42-1.25,0-2.21.66-2.32.74,0-.03-.96.1-1.52.17-.68.08-1.24.4-2.65,2.07-.68.81-.88,1.61-.88,2.24,0,.61.18,1.05.26,1.22-.61.19-1.13.61-1.43.87-.5.51-.53,1.65-.54,2.07-.07,0-.15.01-.22.02-1.1.09-2.13.71-2.15.72,0,.08-.78.13-.98.77,0,.07.02.13.04.16.11.24.5.71,1.26.71h.03c.58.05.84-.14.92-.29.02-.02.02-.03.03-.03.25.31,1.8,1.75,1.82,1.78.06.04.63.42,1.41.42.36,0,.77-.08,1.15-.34.63-.47,1.42-.34,1.72-1.04.28-.05.94-.2,1.34-.4.17-.08.37-.23.54-.44,0,0,.02-.01.03-.02h0c.03-.06.78-.84.9-.77v.03c.57,1.41.75,2.63.75,3.62,0,1.98-.73,3.03-.72,3.04-.09.15-.54,1.17-.83,1.85-.18-.34-.42-.52-.57-.61-.09-.33-.31-.54-.47-.66v-.02c-.05-.95-1.04-1.02-.87-1.08-.21-.61-1.02-.9-1.03-.93-.35-.58-1.32-.66-1.34-.69-.02,0-.07-.01-.11-.01-.47.01-1.37.37-1.65.48-.08-.01-.21-.03-.37-.03-.22,0-.51.03-.81.15-.07-.01-.17-.02-.3-.02-.49-.01-1.42.18-1.93,1.25-.02-.02-.68.43-1.02,1.08-.01.05-1.04,3.06-1.19,4.18-.16,1.17-.07.86-.17,1.13-.05.27-1.55,1.59-1.59,2.71,0,.18.05.37.16.53-.9.65-3.63,3.05-3.63,8.11,0,.5.03,1.03.09,1.58-1.16-.46-2.38-.8-2.68-.88-.2-.26-.49-.34-.63-.42-.22-.08-1.15-.51-1.27-.68-.36-.38-1-.55-1.42-.59h.01c-.29-.25-1.01-1.69-1.36-2.85-.4-1.3-.71-2.91-.71-4.57v-.17c0-.05,0-.05,0-.05,0-1.87-1.22-4.18-1.57-5.02-.02-.06-.05-.11-.06-.16l1.69-.85c-.02.16-.04.34-.04.52,0,.27.03.58.2.83-.02-.03.87,2.49,3.64,2.71.26.02,2.62.11,2.63.11.03,0,.07,0,.09-.01.55.32,1.25.7,2.06.7.43,0,.9-.12,1.36-.43,0,0,.72-.37.72-1.4,0-.11,0-.23-.03-.35.21-.15.55-.47.57-.97,0-.16-.04-.33-.14-.5l-.2-.32.92-.15c.05-.06.75-.13.85-.79,0-.05,0-.1-.03-.16l-.21-.19s-1.21-.22-1.43-.24c-.13,0-1.5-.21-1.5-.21l-.56.06-.61-.16s0,0,0-.01c-.22-.68-1.42-1.54-1.8-1.82.19-.1.34-.2.45-.41.09-.36.09-1,.1-1.33v-.16s0-.07-.02-.11c.49-.73.56-1.58.57-2.07l1.21.66s.93.53,1.5.54c.05,0,.08,0,.08,0,.54-.05.69-.55.67-.7,0-.02.2-.21.19-.23.24-.1.4-.29.48-.4.17,0,.46-.03.69-.16.11-.08.23-.19.32-.28.1.07.24.14.43.15.31,0,.56-.29.62-.68.17-.86.99-2.79,1.15-3.21.09-.23.16-.35.21-.42.2.07.4.12.61.12.05,0,.11,0,.17-.01.89-.08,1.07-.74,1.05-.89,0-.06.18-.65.18-1.27.01-.66-.21-1.51-1.07-1.82-.2-.39-.92-1.66-2.28-1.69-.09,0-.17,0-.26.02-.39-.26-1.87-1.22-3.53-1.23-.21,0-.42.02-.63.05.09,0-.83-.16-1.83-.17-1.08,0-2.45.16-2.7,1.25-.62.11-2.5.4-2.76,1.46-.11.03-.25.06-.33.09-.3.18-.86.63-.9,1.32-1.04-.43-2.01-.51-2.49-.53h-.12c-.12,0-.18,0-.19,0,.05,0-1.42-.16-2.95-.16-.81,0-1.64.05-2.29.19-1.8.41-4.06.83-5.04,1.41-.97.63-1.84,2.35-2.5,2.7-.74.44-2,.92-2.36,2.39-.05.19-.09.4-.13.64-.31.08-2.29.76-4.16,4.16.03-.04-1.25,1.48-1.65,1.84-.26.24-.3.58-.31.94.02.69.21,1.46.58,1.84.11.09.38.43.74.8-.16.22-.34.59-.34,1.13,0,.56.19,1.28.75,2.21-.58.4-1.87,1.71-2.32,5.46,0,.03-.25,4.69-.83,6.47-1.1,2.35-3.58,4.88-3.58,4.89-.02.03-.34.35-.34.88,0,.32.14.69.5,1.02l1.84,1.27c.05.04.11.05.17.05.01.11.05.18.05.2.25.46.85.5,1.56.76.64.18,1.22.32,1.48.35.12.1.28.16.45.16,1.09.06,1.59,0,1.99.47.23.25.48.51.78.67.06.02.37.09.83.13-.75.46-1.51,1.18-1.65,2.04-.05.45-.24,1.27-.24,2.09,0,1.16.49,2.46,2.31,2.46h.05l.16-.03s1.01-.55,1.6-1.05c.07.49.28,1.69.84,2.39.03.03.05.07.08.1-.03.15-.12.65-.12,1.3,0,1.04.22,2.52,1.32,3.67-.16.18-.45.55-.49,1.06-.03.57-.04,1.59-.46,2.51-.44.97-1.3,3-1.32,3.77,0,.03,0,.08.01.15.06.33.38.94.7,1.56.16.3.32.59.43.81.06.11.11.2.14.27.02.03.03.06.04.07h0c.14.35.33.49.58.66.14.04.5.09.73.1h.05l.03-.13v.13c.07,0,.29.02.46.03.06,0,.1,0,.15-.02.15-.08.58-.02.72-.54,0-.11,0-.2,0-.25h-.01c.28-.22.61-.58.69-1.04.01-.1-.07-.3-.24-.34-.21-.07-.61-.2-.81-.27-.31-.09-.41-.1-.43-.18-.1-.22-.15-.33-.15-.38,0-.03,0-.05.02-.09.05-.17.33-.42.51-.54.13-.13,2.4-1.64,2.73-1.7.02,0,.03,0,.03,0h0c.46.09,1.26.31,1.5.56.42.39,3.58,3.06,4.38,3.44.67.3,3.47,2.02,5,2.18,1.36.15,3.83.67,4.87.96.55.15,1.41.34,2.28.34.85,0,1.74-.18,2.33-.84.94-1.09,1.47-1.19,1.57-2.08.04-.38.17-1.22.17-2.06,0-.66-.08-1.33-.38-1.85-.6-1.02-1.17-1.73-1.18-1.74-.02-.03-.05-.05-.07-.06,0-.01,0-.02,0-.04.04-.23.06-.45.06-.65,0-1.11-.6-1.87-.65-2.05-.05-.14-.35-1.05-.7-2.12-.19-.6-.4-1.27-.6-1.9.2-.18.81-.72,1.47-1.38.39.39,4.4,4.68,6.14,5.08.04.03.09.04.14.04.01,0,1.87-.06,3.63-.64,1.35-.47,2.29-1.3,3.22-1.28.28,0,.57.06.9.24.02.04.04.07.05.11.1.18.24.36.42.51l.21,3.47s0,.04,0,.06c0,.16.01.81.55,1l-.49,3.48-8.58,2.01c-.06,0-.12.03-.16.07-.06.05-.09.12-.09.2v2.19s.18.26.18.26l8.46,2.85h.17s15.47-4.54,15.47-4.54c.12-.04.2-.14.2-.26v-2.19h0c0-.14-.09-.24-.22-.27l-8.89-1.83-1.38.32-.96-6.41s.02-.03.04-.04c.38-.51.79-1.29.79-2.32,0-.29-.04-.6-.11-.91-.3-1.25-.4-1.95-.4-2.41,0-.37.06-.59.16-.87.04-.25,2.94-3.76,4.88-7.28,0,0,0,0,0,0-.02,1.23-.04,3.22-.04,4.14,0,.25,0,.4,0,.5.01.14.03.46.03.84,0,.65-.08,1.5-.33,1.82-.49.72-1.01,1.83-1.02,2.51,0,.03,0,.08.01.14.02.18.04.48.04.75,0,.33-.03.68-.06.75-.11.27-.62,1.87-.62,1.88-.01.05-.03.15-.03.3-.02.42.17,1.41,1.28,1.55.55.07,1.17.11,1.76.11.8,0,1.52-.07,1.99-.29.63-.34,1.15-.87,1.18-1.48,0-.1-.02-.2-.06-.29-.25-.56-.76-.84-1.03-1.21-.26-.32-.58-.96-.56-1.33,0-.06,0-.11,0-.14,0-.02.19-.6.21-1,0-.02,0-.02,0-.03h0s0,0,0,0v-.03c0-.1,0-.29,0-.52,0-.44.06-1.05.18-1.18.3-.42,2.4-3.64,2.4-3.64.03-.04,1.06-1.6,1.41-6v-.03c1.14-.09,1.96-.12,2.36-.12l-.06.25-1.03,2.21s-1.74,3.36-2.06,4.18c-.19.5-.93,1.93-.93,3.96,0,1,.17,2.14.67,3.4l.57,2.1c.94,3.06,1.46,3.56,2.68,3.74.03,0,.05,0,.07,0-.11.42-.23.8-.3.94-.12.25-.37.72-.51,1.25-.06.23-.11.48-.11.74,0,.06,0,.15.02.23.08.74.08,1.62.94,1.79.11.01.23.02.35.02.47,0,.96-.09,1.15-.13.21.08.83.29,1.24.31.19.01.42.04.65.04.25,0,.5-.02.73-.16.26-.17.86-.38,1.19-.62.27-.23,1.03-.79,1.11-1.51,0-.03,0-.05,0-.06h0s0-.01,0-.01h0c-.06-.76-1.3-2.38-1.3-2.42.02.05,0,0-.01-.11,1.13.23,4.51.34,8.01.52,1.13.05,1.26.04,2.27.08.17,0,.36,0,.56,0,2.64,0,7.5-.53,7.5-.53.13-.02.23-.12.24-.25,0-.14-.07-.25-.21-.28ZM94.32,40.03s.03-.03.04-.05c.16.03.33.03.52.03.19,0,.38,0,.6,0,.96,0,2.23.1,3.64,1.17l.25.05,1.86-.58c.21-.03.45-.05.68-.05,2.49,0,3.74,2.31,3.74,3.76.04,1.49-2.24,3.67-2.24,3.68l-2.37,1.93c-.6,1.05-2.81,2.27-3.72,2.85-5.36-1.46-6.85-3.7-6.86-5.86-.02-3.03,3.09-6.21,3.85-6.91ZM92.9,39.69c.34,0,.65.06.86.12-1,.98-3.83,3.96-3.85,7.13,0,2.4,1.7,4.78,6.76,6.25-.6.31-1.21.43-1.83.44-.33,0-.66-.04-1-.11-3.54-.72-6.95-5.15-7-5.19-.03-.52-.14-.95-.28-1.33.06-.05.1-.11.1-.2-.02-.05,1.77-5.53,4.96-6.79.44-.25.87-.33,1.28-.33ZM86.33,49.09c0,.16,0,.25,0,.26-.01.02-.71,2.4-2.36,2.97-.23.09-.77.43-.88.48-.02.03-.03.06-.05.1.02-.13.04-.22.04-.22.03-.15-.07-.29-.23-.31-.15-.02-.29.08-.31.23h0s-.24,1.46-.59,2.54c-.13.31-.21.51-.21.51-.16.28-.33.56-.5.8-1.01,1.43-1.86,1.67-2.36,1.68-.24,0-.4-.05-.49-.09l.31-.19c.13-.08.17-.25.09-.38-.08-.13-.25-.17-.38-.09l-.55.34s-.05.04-.08.07c-.28-.11-.56-.23-.56-.23l-.29.06-.58.55s0-.02-.02-.02h-.02c-.4.09-.88-1.1-1.03-1.53-.26-.5-.68-.68-.95-.71-.08,0-.61-.1-.67-.11,0-.03-1.35-1.09-1.47-1.24-.62-.74-.75-1.78-.76-1.78-.08-.5-.11-.97-.11-1.39,0-.13,0-.26,0-.38.11-2.36,1.22-3.37,1.2-3.39l.96-.82s.71-.66.85-.75c.09-.08,1-.42,1.39-.65.1-.08.48-.13.82-.12.19,0,.36,0,.5,0h.11s0,0,0,0c.26-.01,1.67.29,1.71.33.12.04,1.27.72,1.27.73,0,0,.09.18.08.39,0,.11-.02.22-.06.33-.13.38-1.01,2.01-1.39,2.38-.16.16-.25.37-.25.56.02.47.4.75.42.8,0,0,.02.05.02.14,0,.07-.02.15-.03.2,0,.08-.35.32-.49.7-.06.17-.07.37-.07.61,0,.32.04.68.17.99.09.23.33.31.5.3.44-.02,1.04-.35,1.17-.39.04,0,.08,0,.12-.01.37-.06,1.01-.17,1.29-.68h0c.12-.06.49-.02.81-.23.31-.24.7-.93.82-1.04.18-.21.39-.58.46-.64.17-.17.25-.38.26-.62,0-.09-.01-.19-.07-.29.04-.04.09-.08.15-.13.17-.17.21-.38.21-.57s-.04-.36-.09-.51c-.12-.31-.63-1.05-.64-1.15-.01-.06.16-.36.24-.6l-.08-.09h.09c-.11-.45-.45-.57-.67-.68.03-.08.09-.22.14-.38.01-.06.02-.07.02-.13,0-.01,0-.02-.01-.03.07,0,.14,0,.22,0,1,.03,2.69.28,2.83,2.93h0c.01.24.02.44.02.58ZM80.07,58.34c-.51.79-1.05,1.6-1.33,1.91-.29.33-.89.63-1.39.82-.43.17-.78.25-.78.25l-5.31.63-.35.04c-.16-.56-.59-2.06-.8-3-.02-.08-.02-.17-.02-.26-.04-.99,1.17-2.59,1.34-2.67.29-.23.48-.67.58-.94.48.42,1.42,1.14,1.43,1.16.13.05.68.16.86.17.02,0,.38.13.49.4.18.28.44,1.75,1.52,1.84.09,0,.18-.02.26-.03l.6-.53c.27.11.79.32.9.37.06.03.37.18.81.18.33,0,.74-.08,1.19-.34ZM70.69,49.26s0-.02,0-.03c-.02-.12-.04-.22-.04-.3,0-.09,0-.08,0-.09.5-.37.41-1.01.71-1.45.12-.21.28-.35.53-.4,1.27-.34.92-1.44,1.41-1.42.73-.23,1.46-.73,1.6-.78.01,0,.01,0,.02,0,.03,0,.04,0,.04,0,.42-.02,1.34-.43,1.57-.46.12-.02.44-.08.78-.11.21-.02.42-.04.59-.04.06,0,.11,0,.14,0,.04,0,.06.01.07,0,.18.12.67.34,1.16.53.37.14.67.26.9.28.25,0,1.52.53,1.88.56.11,0,.34.02.51.06.06.01.12.03.16.05-.05.13-.15.28-.16.52-.02.11.08.31.22.36.07.03.22.11.33.19.06.04.11.08.13.11h0s-.24.3-.26.64c0,.03,0,.09.03.16.09.3.59.99.64,1.16.03.09.06.22.06.33,0,.11-.03.17-.03.17-.11.13-.32.18-.37.53,0,.1.05.22.12.28,0,0-.01.01-.01.01,0,.06-.06.21-.09.22-.2.19-.38.55-.49.67-.17.2-.61.89-.74.96,0,.12-.69-.08-1.01.5t-.06.05c-.19.14-.71.28-.78.27h0s0,0,0,0h0s-.04,0-.08.01c-.36.07-.87.4-1.12.38v.03c-.08-.19-.12-.5-.12-.76,0-.2.02-.39.04-.44.03-.15.33-.35.49-.68.05-.13.07-.26.07-.39-.01-.18-.02-.33-.16-.5-.1-.1-.3-.32-.28-.44,0-.05,0-.09.09-.18.51-.54,1.33-2.08,1.52-2.58.07-.18.09-.36.09-.52-.01-.34-.09-.58-.22-.75-.22-.22-1.22-.75-1.45-.87-.27-.11-1.49-.37-1.95-.38h0s0,0-.02,0c0,0-.01,0-.02,0h-.06c-.11,0-.3,0-.5,0-.37,0-.78,0-1.12.21-.31.19-1.15.49-1.41.67-.22.16-.88.78-.89.79l-.97.82s-1.13,1.1-1.34,3.35c-.04-.07-.07-.14-.07-.22,0-.03,0-.06,0-.08.03-.11.03-.19.03-.27,0-.25-.06-.51-.11-.72ZM89.84,39.52c.47,0,.94.02,1.41.07-2.96,1.38-4.58,5.45-5.01,6.77-.75-1.11-1.99-1.36-2.74-1.34-.41,0-.69.06-.7.06-.01,0-.01.01-.02.01-.27-.07-.56-.03-.69-.08-.11,0-1.43-.52-1.87-.56-.05,0-.41-.11-.74-.24-.46-.17-.98-.42-1.07-.48-.18-.11-.32-.09-.51-.1-.07,0-.15,0-.23,0,.32-.35,1.03-1.04,1.97-1.45.3-.14,5.16-2.68,10.21-2.68ZM84.36,34.87s.82,1.48.84,2.1c-.6-.39-1.27-.77-2.01-1.07-.14-.06-.3.01-.36.15-.06.14.01.3.15.36.85.34,1.62.8,2.27,1.27.91.65,1.39,1.25,1.61,1.56-3.52.59-6.47,1.99-7.26,2.37-2.48-1.78-2.76-3.51-2.77-4.29,0-.21.03-.34.03-.39.11-.1.21-.22.32-.35.23-.32.27-.71.27-1.07,0-.45-.08-.91-.08-.96.04-.16.15-.41.34-.55.47-.45.37-1.36.4-1.55-.03-.03.21-.22.45-.45.11-.16.11-.29.12-.43,0-.45-.19-1.13-.21-1.33,0-.03,0-.06,0-.1,0-.1.02-.2.05-.32.47.18,3.73,1.54,5.84,5.06ZM69.38,23.92s.08-.06.11-.11c.01,0,.02-.02.02-.03.44-.5.99-1.04,1.14-1.16.13-.14,1.95-.6,2.06-.63,0,0,.14-.01.36-.01.68,0,2.04.13,2.82.95l.19.08s1.26.11,1.52.76c.38.81,1.07,2.2,1.05,2.51v.03c-.05.33-.28.68-.3,1.06,0,.01,0,.07.01.13,0,0,0,.02,0,.06,0,.36-.12,1.44-.21,1.67-.01.04-.04.08-.05.13-.09.25-.17.49-.17.77,0,.05,0,.11.01.17.04.27.21.93.21,1.25,0,.09-.01.08,0,.09-.11.18-.48.31-.56.76.02.19-.09,1.14-.21,1.16-.36.3-.52.69-.54.96v.02c0,.18.08.55.08.96,0,.31-.06.61-.16.74-.09.12-.18.22-.26.29-.11,0-.34,0-.53.17l-.29.21-.11.17s-.07.3-.15.6c-.03.1-.06.2-.09.28-.14-.18-.31-.46-.4-.6l.55-1.91.27-2.55v-.12s1.93-3.07,1.93-3.07c.04-.14.04-.17.04-.21-.03-.43-.16-1.34-.53-1.73-.2-.14-.91-1.02-.87-1.09-.04-.32-.26-1.24-.27-1.25-.02-.09-.09-.16-.18-.19-.09-.03-.19-.01-.26.05,0,0-1.47,1.18-1.73,1.33,0,0-.14.04-.3.03-.4,0-.96-.1-1.2-.11.01,0,0,0-.05,0-.38.03-1.02.15-1.31.65-.14.3-.73,1.33-.85,1.5-.24.38-.36,1.35-.38,1.93,0,.17-.08.33-.21.52-.12.17-.26.35-.35.58-.05.12-.07.25-.07.37,0,.34.12.63.17,1.02.02.12.02.26.02.42,0,.49-.08,1.09-.13,1.27,0,0,0,0-.07.03-.08.03-.19.03-.26.03-.01,0-.02,0-.05,0,0,0,0,0-.01,0-.11.02-.24.06-.36.12.03-.17.06-.34.08-.4,0-.06,0-.08,0-.08-.02-.42-.52-1.4-.61-1.74-.1-.28-.46-2.94-.47-3.57,0-.01,0-.02,0-.03h0s0-.01,0-.01h0c0-.49.62-2.18.69-2.56.02-.23.48-1.57.76-2.04.08-.14.26-.38.47-.62ZM74.44,30.9h0s.15.08.37.19l-.04.17c-.04.15.06.3.21.33.15.03.3-.06.33-.2l.02-.1c.19.06.4.11.63.14l-.74,1.19h0s-.03.02-.05.03c-1.35,1.03-3.02,1.08-3.3,1.08-.04,0-.06,0-.07,0-.9-.19-1.63-2.49-1.63-2.49,0-.02,0-.03-.02-.04.09-.16.15-.35.15-.57-.01-.44.21-1.57.28-1.62.18-.25.73-1.24.91-1.58,0-.13.61-.37.81-.34h.01c.16,0,.76.11,1.23.11.2,0,.39,0,.57-.1.26-.15,1.02-.75,1.46-1.11.07.29.14.64.16.77.11.5.77,1.15,1.05,1.43.07,0,.38,1.1.35,1.32v.04s-.85,1.36-.85,1.36c-.02,0-.03,0-.05,0-.74,0-1.52-.47-1.52-.47-.13-.08-.3-.03-.38.1-.08.13-.04.3.09.38ZM63.05,34.88c.04.31-.59.27-1.55.85-.29.19-.57.25-.85.25-.29,0-.56-.08-.75-.16-.19-.08-.31-.15-.32-.15.04.03-1.68-1.6-1.71-1.68-.09-.14-.25-.23-.42-.23-.19,0-.34.1-.46.24-.04.04-.07.09-.07.09h0c-.05,0-.19,0-.44.01,0,0-.02,0-.02,0-.38,0-.59-.16-.69-.29.19-.12.61-.31.61-.31.03-.02,1.01-.58,1.95-.66.17-.01.33-.03.47-.04.26-.03.48-.05.66-.05.36,0,.63.06,1.05.31l.95.56s.02.01.03.02c.16.28.33.55.33.55.08.13.24.17.37.1.13-.08.17-.24.1-.38,0,0-.23-.38-.41-.69-.1-.18-.2-.36-.2-.36-.03-.07-.04-.11-.04-.15,0-.04,0-.06.05-.13,0,0,.04-.01.04-.01.04,0,.07,0,.11.02.04.02.07.03.09.02,0,0,.27.33.63.61.38.34.11-.21.47,1.1.04.17.05.31.05.42,0,.03,0,.08,0,.14ZM65,33.92c-.11.15-.26.26-.39.33-.23.12-.71.24-1.02.31-.01-.12-.03-.24-.06-.37-.21-1.17-.38-1.22-.66-1.41-.33-.25-.51-.5-.62-.6-.13-.09-.28-.15-.54-.17h-.01c-.15,0-.35.06-.47.24-.11.14-.16.31-.16.45,0,.02,0,.04,0,.06l-.3-.18c-.47-.3-.91-.39-1.33-.39-.14,0-.27,0-.41.02.03-.45.14-1.47.35-1.61.31-.27.9-.72,1.43-.81.08-.01.15-.02.22-.02.12,0,.22.02.33.06.81.31,3.1,1.42,3.59,2.6.16.37.22.66.22.89,0,.26-.07.44-.16.58ZM66.82,40.5s.81-1.23.81-3.34c0-.94-.16-2.05-.6-3.31,0-.02,0-.05,0-.07l-.82-3.15c-.04-.14-.19-.23-.34-.2-.14.04-.23.19-.2.33l.58,2.22c-.2.04-.38.13-.54.25-.02-.29-.1-.62-.26-.99-.69-1.51-3.04-2.53-3.88-2.89-.17-.08-.36-.11-.54-.11h-.03s-.02-.07-.03-.1h0s-.22-.4-.22-1.02c0-.52.15-1.17.75-1.89,1.43-1.68,1.8-1.81,2.3-1.88.59-.07,1.64-.21,1.64-.21.12-.05,1.02-.69,2.13-.69.4,0,.82.07,1.25.29-.16.19-.29.37-.38.52-.34.6-.76,1.84-.83,2.23-.03.24-.68,1.94-.7,2.62h0s0,.02,0,.02c0,.69.36,3.31.5,3.77.12.35.57,1.4.59,1.56h0c-.04.2-.17.97-.17.97-.02.11.03.21.12.27.08.06.2.06.29,0,0,0,.14-.08.31-.17.08-.04.16-.08.22-.11.05-.03.05-.01.05-.03v-.02s.05.02.05.02h0c.18-.02.66.04.86-.47.06-.26.14-.85.14-1.4,0-.17,0-.34-.03-.49-.07-.45-.17-.76-.16-.95,0-.07,0-.12.03-.18.02-.04.04-.08.07-.13.25.71.85,2.14,1.97,2.48.09,0,.12,0,.12,0,.3,0,1.82-.04,3.25-.93l-.21,2.01-.57,1.98.03.22c.05.03.44.87.88,1.1.05.02.07.02.1.02.53-.18.4-.49.57-.82.06-.21.11-.42.14-.54l.22-.16s.01,0,.01,0c0,.06,0,.12,0,.19,0,.89.36,2.75,2.75,4.56-1.23.66-1.98,1.64-2,1.66-.04.05-.06.12-.05.18-.25.03-.47.07-.56.08-.33.08-1.31.47-1.47.45h0s0,0-.01,0c0,0,0,0,0,0-.52.05-1.07.6-1.79.8-1.04.47-.56,1.34-1.36,1.41-.43.09-.73.36-.9.66-.3.58-.43,1.28-.49,1.24-.2.1-.28.31-.29.48l-3.1-1.49c-.02-.09-.03-.17-.03-.25,0-.06,0-.11.02-.16.04-.13.05-.24.05-.34,0-.34-.14-.61-.26-.8.04-.06.08-.14.09-.25v-.02c-.09-.45-.46-.7-.68-.86,0-.04,0-.09,0-.15,0-.12-.02-.28-.1-.44-.11-.2-.27-.95-.27-.95,0-.05-.03-.17-.06-.29.08-.19,1.01-2.31,1.05-2.35ZM61.14,38.6h0s.91.17,1.1.54c.13.1.87.53.85.69.36.68.91.45.86.93,0,.04,0,.08,0,.12l.13.27s.4.3.38.49l.19.25s.36.1.51.67c.02.06.15.64.15.66.01.05.14.77.33,1.13.02.05.04.12.04.19,0,.07-.01.13-.01.22,0,.06,0,.21.17.31.01,0,.17.12.3.25.06.06.12.12.16.17,0,0-.01,0-.02,0-.08.04-.13.11-.14.2-.02.08.01.17.07.24,0,0,.33.35.31.67,0,.06,0,.11-.02.17-.04.1-.05.22-.05.33,0,.32.1.57.09.74-.01.16-.03.27-.28.47-.03.03-.5.48-.89.63-.23.09-.47.11-.62.11-.02,0-.04,0-.05,0-.04-.06-.08-.14-.12-.22h0c-.03-.05-.05-.09-.07-.13-.23-.36-.66-.42-.71-1.62,0-.04,0-.08,0-.12.4-.18.8-.39,1.12-.65.19-.18.21-.39.21-.57,0-.47-.25-1.14-.27-1.27,0,.02,0,.04-.01.06,0-.02.01-.05.01-.07h0v-.02h0c0-.24-.27-1.84-.27-1.99,0-.03-.02-.04-.03-.06.04-.08.06-.14.06-.16l-.1-.29s-.35-.25-.78-.53c.01-.03.04-.06.03-.1-.03-.19-.17-.61-.57-.98-.36-.31-.87-.63-.98-.71-.09-.08-.73-.64-.73-.64-.45-.13-.79-.19-1.07-.2.31-.1.63-.2.75-.19ZM63,59.05s1.17.73,1.25,1.11c.07.19.13.47.13.72-.01.44-.13.78-.63.96-.01,0-.28.03-.58.06-.21.02-.42.04-.58.05-.05-.19-.18-.44-.5-.57-.12-.03-.26-.05-.4-.05-.21,0-.45.05-.68.22-.26.19-1.29.81-1.49.88-.26.13-.74.05-1.03.5-.04.09-.17.41-1.17.95l-3.61.81c-.74-1.3-2.82-4.18-2.83-4.21,0-.01-.02-.02-.03-.04-.09-.1-.19-.2-.31-.29v-.04s-.12-.5-.12-1c0-.45.11-.81.28-.86.07-.04.11-.08.18-.14.14-.12.39-.36.57-.56.22-.27.85-.89.94-.85.48-.07.85-.42,1.11-.7.23-.27.81-.99,1.6-.99.08,0,.15,0,.22.02,1.11.16,3.7.33,3.77.46.39.27,1.73,1.27,2.2,1.36.11,0,.29,0,.52.04.39.08.81.24.97.71l.09.13s.22.16.21.44c0,.12-.03.27-.17.49-.04.06-.06.14-.04.21.02.07.07.14.13.17ZM59.83,65.36s-.18-.08-.32.05c-.1.14-.09.18-.08.2h0s0,.01,0,.01c.1.34.34.49.55.57-.1.14-.21.28-.22.28-.09.02-.18.05-.26.08-.02-.05-.05-.09-.09-.12l-.37-.3c-.12-.1-.29-.08-.38.04-.1.11-.08.29.04.38l.33.27s-.08.04-.09.04c-.44.14-.47.4-.75.47-.13.04-.28.05-.44.05-.77.02-1.81-.48-2.06-.79-.38-.45-.76-1.23-.76-1.23-.07-.14-.22-.19-.36-.13-.14.07-.2.23-.13.37h0s.05.1.12.24c-.04,0-.08,0-.11.03l-.28.23c-.07-.29-.14-.61-.22-.91l3.55-.81c1.09-.57,1.38-1,1.49-1.24h0c.12-.06.45-.13.69-.2.37-.14,1.33-.73,1.65-.95.12-.09.22-.12.35-.12.08,0,.16.01.27.04.02,0,.11.27.14.34-.17.89-.8,1.24-.79,1.26l-.13.23s-.03,1.39-.06,1.94c0,.08-.06.11-.31.13-.17,0-.33-.04-.33-.04,0,0,0,0,0,0-.04-.02-.17-.06-.29-.12-.08-.03-.15-.07-.19-.1h0c-.02-.09-.07-.16-.14-.2ZM59.9,65.8c-.05.05-.1.07-.16.08.06,0,.11-.03.16-.08h0ZM60.41,51.03c-.6,0-1.09-.07-1.33-.12.36-.8.48-1.78.51-1.8.02-.23.04-.43.04-.65,0-.33-.04-.68-.15-1.11-.06-.25-.14-.49-.22-.71.66.18,2.02.47,3.99.48-.02,1.3.8,1.82.78,1.84,0,0,0,0,0,0-.58,1.69-2.27,2.04-3.61,2.05ZM62.51,40.52c.11.08.21.16.3.23.09.08.16.17.21.26-.17-.09-.33-.18-.48-.24-.15-.07-.13-.09-.14-.09-.02-.02.05-.09.1-.16ZM60.19,39.33c.3,0,.63.03,1.01.13,0,.02.54.51.66.61.04.03.11.08.2.13-.09.11-.18.27-.2.48,0,.25.2.5.48.6.49.2,1.29.74,1.65.99-.09.14-.28.36-.72.58-.14.07-.19.23-.12.37.05.1.15.15.25.15.04,0,.08,0,.12-.03.24-.12.42-.25.57-.37.02.18.05.38.09.58-.04,0-.08.02-.12.05-.41.29-1.27.48-1.27.48-.15.03-.24.18-.21.33.03.15.18.24.33.21.02,0,.79-.17,1.36-.5.02.15.04.27.04.32v.03c.03.26.28.87.28,1.29,0,.13-.03.15-.02.16-.31.26-.81.49-1.2.68-2.64,0-4.13-.52-4.34-.59-.16-.52-.24-1.02-.24-1.32,0-.04,0-.07,0-.07,0-.05,0-.08,0-.1-.01-.54-.29-1.19-.6-1.61-.29-.37-.59-.67-.59-1.17,0-.07,0-.13.01-.19.05-.68.79-1.81.91-1.79.31-.12.77-.42,1.67-.43ZM54.22,46.45c.12-.33.05-.15.19-1.24.13-.99,1.16-4.03,1.16-4.04.24-.47.91-.93.9-.94.51-.95,1.15-1.05,1.54-1.06.17,0,.27.03.27.03l.17-.02s.1-.04.14-.06c-.12.05-.21.1-.26.12-.57.28-1.1,1.33-1.26,2.21-.02.09-.02.19-.02.27,0,.75.46,1.19.7,1.5.23.3.49.94.48,1.27v.05s0,.08,0,.12c0,.51.15,1.33.49,2.1.09.21.17.46.24.71.1.39.13.69.13.97,0,.19-.01.38-.03.58.02,0-.48,2.19-.89,2.27-.09.04-.39.08-.74.08-.56,0-1.29-.08-1.89-.2-.3-.06-.56-.14-.75-.21-.17-.06-.21-.12-.23-.12h0c-.25-.62-.63-.78-1.66-1.51-.02-.01-.03-.03-.05-.03-.14-.11-.17-.2-.17-.35-.03-.7,1.31-1.98,1.55-2.53ZM52.7,49.89c.98.7,1.2.8,1.34,1.18.44.71,2.14.81,3.39.88.39,0,.71-.03.96-.13.16-.09.29-.24.42-.4,0,0,0,0,0,0,.01,0,.7.16,1.61.16h.04c.32,0,.67-.03,1.03-.08l.11,4.82c-.14,0-.23,0-.26-.01-.01.01-.1-.04-.26-.14-.51-.3-1.43-.94-1.65-1.1-.57-.36-2.89-.37-4.01-.57-.11-.02-.22-.03-.32-.03-1.12.01-1.8.94-2.01,1.17-.21.25-.56.51-.76.52-.58.1-1.03.78-1.29,1.03-.15.17-.39.39-.53.52-.07.05-.1.08-.1.08-.47.23-.53.83-.54,1.32,0,.23.02.45.04.63-.18-.1-.39-.2-.6-.3-.09-.65-.12-1.26-.12-1.83,0-5.09,2.84-7.27,3.5-7.73ZM46.09,58.9c.74.21,2.97.87,3.97,1.58l.05.04c.13.1.24.19.31.28,0,0,0,0,0,.01.01,0,2.67,3.77,2.96,4.45-1.62-1.67-4.54-2.76-4.56-2.79-.14-.06-.3.01-.35.15-.05.14.02.3.16.36.02,0,4.47,1.82,5.12,3.76.08.36.14.61.14.61,0,.02.26.97.25,1.04h0c-.06,1.03-.58,4.1-2.82,4.67.34-.72.6-1.55.6-2.5,0-1.3-.49-2.81-1.88-4.56-.09-.12-.27-.13-.38-.04-.12.09-.14.27-.04.39,1.33,1.68,1.76,3.07,1.76,4.22,0,1.03-.34,1.9-.74,2.66-.58.92-2.11,2.13-4.17,2.45-.07,0-.13,0-.19,0-.75,0-1.29-.22-1.64-.44-.35-.22-.52-.43-.54-.43h0s-.08-.08-.14-.09c.33-.7.73-1.57.85-2.16.53-.09,1.9-.37,2.06-1.43.01-.19.05-.43.05-.71,0-1.05-.68-2.31-4.76-3.85.46-.37,1.47-1.01,3.25-1.01.01,0,1.12-.05,2.01-.05.15,0,.27-.12.27-.28s-.12-.27-.27-.27c-.91,0-2.03.05-2.03.05-2.58,0-3.79,1.3-3.93,1.45-.16.12-1.74,1.23-2.58,2.96-.39.82-.79,1.77-1.1,2.86-1.26-.82-3.9-3.52-5.08-4.78-.37-.4-.61-.66-.61-.66-.1-.11-.28-.12-.39-.02-.11.11-.12.28-.02.39h0s.14.15.39.41c-.35.17-.97.5-1.57.89-.15-.08-.52-.3-.91-.61-.22-.19-.25-.3-.25-.77,0-.22.01-.5.01-.85,0-.19,0-.41-.01-.65,0-.03,0-.05,0-.05-.1-1.12,2.32-1.79,2.96-1.82.73-.09,3.44-.76,3.45-.76l1.19-.51s.04.02.05.02c.03,0,.06,0,.08-.01.07-.02.12-.07.15-.12l1.07-.46s.05.05.08.07c.25.19.56.59.87.85.27.21.58.23.84.23.17,0,.32-.01.43-.02.46-.06.94-.46.96-.47.41-.27.29-.73.33-.99.01-.25.14-.98.19-1.15.04-.14.22-.63.28-.78.13-.13.52-.26.71-.36.15-.1.32-.23.35-.24,0,0,0,0,.01,0,.04.01.13.06.22.1.11.06.21.11.21.11.08.03.37.11.8.11.29,0,.65-.04,1.02-.16.2-.07.38-.16.48-.3ZM42.38,81.42c.22.03,1.35.73,1.38.78.11.08.77.75.76.76.13.3.39.46.4.48.26.11.77.5.8.51,0,0,1.14,1.42,1.27,1.57.04.04.07.1.09.14-.01,0-.02,0-.03,0l-1.5-.96-1.22-.47c-.13-.05-.27,0-.34.12-.07.12-.04.27.07.35.43.33,1,1.42,1.01,1.42,0,0,.38.89.56,1.33.03.07.04.14.03.16,0,.05,0,.05-.17.13-.05-.03-.24-.21-.25-.21l-.64-1.08-1.27-1.7s-.03-.04-.05-.06h0c-.11-.11-.28-.11-.39,0h0s0,0,0,0h0c-.09.09-.1.21-.04.31l.24.74.28.7.33,1.11s.22.78.3,1c.01,0,0,.01-.05.06-.04,0-.09-.03-.14-.04-.01,0-.02-.01-.03-.01l-1.24-2.58h0c-.03-.06-.07-.11-.13-.13,0,0,0,0,0,0,0,0,0,0-.01,0-.05-.02-.11-.03-.17,0,0,0,0,0-.01,0,0,0,0,0,0,0-.07.03-.13.09-.16.16-.01.03-.02.06-.02.1,0,.08-.02.31-.04.58,0,.01-.09.14-.29.25-.19.11-.42.2-.45.21-.17.03-.45.11-.68.38,0-.02,0-.04,0-.08,0-.09.04-.2.04-.21,0,0,.03,0,.03,0,.14-.11.4-.25.56-.39.09-.13.1-.22.1-.31,0-.32-.17-.69-.23-.86-.2-.37-.94-.76-1.01-.84-.11-.1-.97-.82-.97-.82-.58-.44-.93-1.95-1.07-3.73,0-.04,0-.09-.01-.14-.09-1.13-.13-2.36-.16-3.52,0-.16,0-.3,0-.45,0-1.29.17-2.45.44-3.49.31-1.18.73-2.19,1.14-3.06.66-1.4,1.94-2.39,2.32-2.68,4.31,1.6,4.68,2.71,4.68,3.44,0,.22-.04.44-.05.68.07.58-1.8.97-1.8.97-.13.02-.23.12-.24.25-.01.4-.6,1.72-.98,2.49-.19.38-.33.64-.33.64l-.81,1.66s-1.12,2.63-1.22,3.28c0,.03,0,.08,0,.1.11.87,1.15.84,1.43.95ZM24.76,62.02h.19c0-1.08-.78-5.16-.78-7.91,0-2.55,1.48-4.19,1.63-4.38.67.03,1.34.05,1.98.05,3.01,0,5.55-.32,6.26-.42.28.99.62,1.72.92,2.26,0,.02-.02.03-.03.05h0s-.05.42-.05,1.14c0,.89.08,2.26.42,3.9.49,2.37,1.14,4.55,1.36,5.29l-1.06.46s-2.71.66-3.33.73c-.68.11-3.35.55-3.45,2.36,0,.01,0,.05,0,.11,0,.2,0,.4,0,.59,0,.34-.01.61-.01.85,0,.47.07.9.46,1.2.28.23.55.41.75.52-.35.24-.66.5-.88.76-.61.71-1.14,1.5-1.39,2.25-.47-.31-1.63-1.1-2.05-1.17-.09,0-.59-.09-1.12-.16,0-.03,0-.06-.02-.09-.36-.9-.48-1.77-.48-2.53,0-.99.2-1.81.3-2.31.31-1.45.55-2.89.57-3.54l-.19-.03ZM37.97,61.44l-.82.35c-.24-.78-.86-2.9-1.33-5.19-.34-1.59-.4-2.92-.4-3.79,0-.15,0-.29,0-.41.11.17.2.29.24.37.29.58,1.82,2.65,1.83,2.67.01.03.98,2.65.95,2.71h0s-.55.85-.7,1.81c-.03.14-.04.28-.04.42,0,.43.11.79.25,1.07ZM48.63,42.51l.8.21c.06.1.14.27.17.36-.17.09-.55.23-.74.22-.05,0-.09,0-.09-.01l-.3-.15c-.14-.07-.3-.02-.37.12-.07.13-.02.3.12.37l.3.15c.12.06.22.07.35.08.45-.01.91-.23,1.13-.37.13-.1.17-.24.17-.34,0-.16-.05-.31-.11-.44l.13-.02s1.27.2,1.48.22c.07,0,.61.1.99.17,0,0,0,0-.01,0-.13.08-.26.12-.26.12l-1.28.21c-.09.01-.17.07-.21.16-.04.08-.03.18.02.25l.41.67c.05.09.06.15.06.21.04.26-.47.61-.46.61l-.13.29c.03.16.04.3.04.42,0,.75-.45.91-.44.93-.4.27-.75.35-1.08.35-.69,0-1.39-.39-1.97-.73-.21-.13-.42-.24-.62-.32-.45-.2-.48-.43-.5-.92,0-.21.01-.45.01-.7,0-.03,0-.06,0-.09,0-.06,0-.08,0-.09,0-.7.3-1.35.49-1.58.07-.14.86-.47,1.1-.57l.82.21ZM48.26,41.85l-.39-.1h-.16s-1.05.34-1.43.79c-.26.35-.6,1.05-.6,1.91,0,.04,0,.07,0,.09,0,.01,0,.05,0,.09,0,.22-.02.46-.02.7-.01.43.09.94.52,1.25-.68-.03-1.49-.06-1.61-.07-2.39-.17-3.19-2.4-3.2-2.4-.1-.16-.14-.37-.13-.6,0-.36.08-.73.1-.84l1.43-.71s2.46-.86,3.86-1.47c.02,0,.03-.02.05-.02.02.04.05.08.09.11h0s1.04.78,1.5,1.28ZM47.15,38.07c-.12.14-.26.28-.44.39l-1.39.93c-.13.08-.16.25-.08.38.08.13.25.16.38.08l1.4-.93c.06-.04.12-.09.18-.13,0,.3-.02.66-.06.83-.09.07-.37.22-.73.37-1.35.6-3.84,1.47-3.84,1.47l-1.71.86-1.83.92c1.04-1.09,1.44-3,1.73-3.83.28-.79.71-.85,1.37-1.18.41-.21.94-.71,1.45-1.4.06.05.16.08.24.05h0l3.94-1.02c0,.06,0,.14,0,.26,0,.48-.09,1.35-.6,1.96ZM55.12,31.63c-.14.4-.97,2.32-1.17,3.29-.07.25-.09.23-.09.24-.02,0-.08-.04-.14-.08-.06-.04-.11-.09-.11-.09h0s-.02-.02-.03-.03c-.07-.06-.17-.08-.25-.05h0s-.02,0-.02,0c0,0-.01,0-.02,0-.02.01-.05.03-.07.05-.02.02-.03.04-.05.05-.07.08-.28.31-.37.35-.01.03-.26.06-.42.07l-.45-.49c-.1-.11-.28-.12-.39-.02-.11.1-.12.27-.01.39l.38.41s-.07.08-.11.11v.02c-.32.13-.53.34-.61.72-.05.18.07.1-.18.19h-.02c-.26.02-1.24-.48-1.24-.48l-1.6-.87-.23-.12-.2-.03-3.8.99c.28-.46.52-.97.7-1.51.14-.47.22-.97.22-1.48,0-.28-.02-.57-.08-.85.08.1.13.19.15.26.13.31.44.35.64.35.3,0,.62-.07.88-.06.12,0,.23.02.26.04.21.11.43.12.7.13.69,0,1.58-.2,1.59-.2.95-.04,1.58-.72,1.86-.87.34-.23.91-.68,1-.71,0,0,0,0,.01,0h0c.06,0,.09,0,.14,0,.25,0,.52-.11.84-.42.26-.28.35-.63.38-.93l.71.53c.77.49,1.03.51,1.39.64-.06.11-.14.25-.21.44ZM42.73,27.79s.4-.09.4-.09c.14-.03.23-.17.21-.3,0-.04,0-.07-.02-.1,0,0,0,0,0,0h0s0,0,0,0h0c-.04-.16.5-.55,1.17-.74.66-.21,1.33-.32,1.33-.32.13-.02.22-.13.23-.26,0-.66,1.03-.94,2.19-.93.95,0,1.83.16,1.83.16.27-.03.46-.05.63-.05.84,0,1.66.29,2.28.59.61.3,1.02.6,1.02.6l.22.05c.1-.02.19-.03.28-.03,1.12-.04,1.83,1.47,1.84,1.47l.17.15c.63.19.78.72.79,1.34,0,.55-.15,1.03-.17,1.17-.09.22.1.29-.6.45-.02,0-.05,0-.09,0-.16,0-.38-.06-.61-.17-.7-.31-.71-.15-1.59-.71l-1.12-.84c-.08-.06-.2-.07-.3-.02-.09.05-.15.15-.14.26v.19c.01.27-.06.74-.22.87-.31.28-.34.26-.46.27-.02,0-.05,0-.1,0,0,0-.02,0-.04,0-.51.06-.96.62-1.29.79-.41.25-.9.77-1.66.8-.05,0-.92.19-1.52.19-.22,0-.4-.04-.43-.06-.18-.09-.36-.11-.53-.11-.33,0-.67.07-.88.07-.06,0-.1,0-.13-.01-.13-.32-.43-.72-.94-1.05-.04-.08-.07-.16-.11-.24-.32-.65-.8-1.27-1.47-1.78-.25-.19-.5-.35-.75-.49,0-.02,0-.04-.02-.06-.03-.06-.04-.13-.04-.19-.03-.34.42-.78.62-.88ZM39.09,28.69s.08-.02.11-.04c.55.03,1.54.16,2.51.65.29.14.58.32.86.53.6.47,1.03,1.01,1.31,1.59.29.6.42,1.24.42,1.86,0,.45-.07.9-.2,1.32-.2.63-.52,1.23-.87,1.73-.51.73-1.09,1.27-1.38,1.4-.55.27-1.31.47-1.64,1.5-.3.93-.79,2.97-1.66,3.73.01-.05-.2.14-.18.42,0,.08,0,.19.04.31.04.14.09.3.17.51.37.86,1.54,3.16,1.53,4.81,0,0,0,.04,0,.09,0,0,0,.06,0,.13,0,1.73.32,3.39.74,4.74.51,1.43,1.07,3,1.82,3.23.26,0,.92.24,1.04.4.35.37,1.22.71,1.48.83.09.02.26.13.36.2-.04.02-.08.04-.14.06-.31.1-.61.13-.85.13-.37,0-.59-.07-.59-.06.02.02-.33-.23-.66-.26h0s-.05,0-.09.01c-.29.07-.44.28-.52.31-.04.04-.53.16-.83.46-.03.03-.06.06-.08.1l-.04.05s-.05.1-.04.16c-.08.21-.2.54-.25.71-.06.24-.19.93-.21,1.25,0,.34-.07.56-.07.56-.04.03-.59.39-.72.38-.11,0-.25.02-.39.02-.22,0-.42-.04-.5-.11-.24-.2-.56-.59-.87-.85-.04-.02-.09-.08-.13-.14-.16-.21-.32-.55-.32-1.02,0-.11.01-.22.03-.33.13-.89.63-1.44.7-1.88v-.02c-.03-.42-1.01-2.93-1.02-2.97-.04-.07-1.6-2.19-1.82-2.65-.25-.46-1.07-1.33-1.65-3.55-.2-.75-.37-1.65-.46-2.74-.02-.07-.17-.52-.17-1.43,0-.12,0-.23,0-.34.01-.25.04-.52.07-.82.23-1.73.15-3.99.18-4.38,0-.08.03-.29.05-.56.1-.82.34-2.27.7-3.22.48-1.26,2.39-4.47,2.39-4.47.08-.13.04-.3-.09-.37-.04-.03-.09-.04-.14-.04-.09,0-.18.05-.24.13,0,0-1.91,3.19-2.43,4.56-.36.94-.58,2.23-.7,3.09-.02,0-.03,0-.05.01-.16.06-.32.08-.48.08-.99.02-2.21-1.16-3.34-2.59-.39-.5-.54-.93-.54-1.37-.01-.96.81-2.06,2.1-3.47,1.51-1.71,6.62-2.29,7.73-2.35ZM23.54,39.22c.02-.33.19-2.23.43-3.62.05-.31.11-.6.17-.83.29-1.18,1.28-1.57,2.11-2.05.9-.56,1.75-2.26,2.51-2.71.77-.48,3.09-.95,4.87-1.35.58-.13,1.39-.18,2.18-.18.17,0,.35,0,.52,0-1.91.34-4.24.98-5.37,2.18-1.29,1.42-2.23,2.57-2.25,3.84,0,.58.22,1.15.67,1.72,1.16,1.43,2.37,2.77,3.76,2.8.15,0,.31-.02.46-.05-.02.11-.02.2-.03.26-.02.46.05,2.66-.17,4.34-.03.22-.05.43-.06.62-.02,0-.03.02-.05.03,0,0-.05.04-.15.11-.01,0-.02,0-.03-.01l-2.47-.82c-.4-.1-2.73-1.08-3.36-1.13-.39-.01-1.66-.5-2.16-.84-.43-.23-1.52-1.93-1.57-2.26,0-.02,0-.03,0-.03,0,0,0,0,0,0ZM18.3,43.65c-.15-.1-.42-.89-.4-1.44,0-.29.08-.51.12-.53.49-.43,1.74-1.93,1.75-1.94,1.53-2.76,3.02-3.59,3.61-3.84-.21,1.36-.35,2.96-.37,3.29h0s0,.03,0,.03c.07.69,1.15,2.25,1.82,2.76.63.4,1.82.88,2.43.93.37,0,2.8.98,3.23,1.11l2.11.7c-.62.44-1.59,1.12-2.62,1.8-.4.26-.77.36-1.12.36-1.04.01-2.02-.93-2.7-1.44-.35-.25-.79-.33-1.26-.33-1.02,0-2.27.36-3.41.52-.08.01-.16.02-.24.02-.72,0-1.4-.44-1.92-.93,0-.02-.02-.05-.04-.07-.03-.04-.07-.06-.1-.07-.4-.39-.68-.75-.87-.93ZM18.88,45.98c0-.37.1-.6.2-.75.56.49,1.29.96,2.16.96.1,0,.21,0,.32-.02,1.19-.17,2.43-.51,3.33-.51.41,0,.73.08.94.22.63.45,1.66,1.53,3.02,1.55.46,0,.94-.13,1.42-.45,1.26-.83,2.43-1.67,2.99-2.07.02-.01.03-.02.05-.03,0,.94.18,1.45.19,1.47.07.92.21,1.75.39,2.47-.77.1-3.23.41-6.12.41-.7,0-1.42-.02-2.15-.06-1.13-.07-2.28-.19-3.38-.4-.62-.12-1.22-.26-1.79-.44-.28-.08-.54-.17-.8-.27-.61-.95-.77-1.62-.77-2.08ZM14.7,67.77s-.02-.02-.03-.03l-1.81-1.25c-.25-.23-.3-.42-.3-.58-.01-.28.2-.5.19-.51,0,0,2.52-2.55,3.69-5.06.63-1.97.86-6.61.86-6.63.28-2.31.88-3.62,1.38-4.33.37-.52.67-.71.8-.79.14.05.29.1.43.15-.56.65-2,2.59-2.08,5.6l-.62,7.96.07.08h-.07c0,.08-.04.48-.45,1.56,0-.01-.64,1.43-1.03,2.27-.28.59-.3.63-.36.73-.11.21-.56.71-.69.83ZM17.4,68.95c-.28-.06-.72-.16-1.12-.28-.34-.1-.67-.2-.9-.3-.12-.05-.22-.1-.28-.14l-.02.02s-.02-.08-.02-.08h0c.19-.18.61-.64.8-.97.07-.12.11-.19.37-.78.38-.84,1.04-2.28,1.04-2.28.43-1.13.5-1.56.5-1.77,0-.06,0-.1-.02-.14l.63-7.87c.08-3.3,1.9-5.21,2.11-5.45.37.11.76.2,1.14.29-.72.67-2.25,2.49-2.25,5.77,0,.03,0,.07,0,.12.01,1.67.13,3.6.13,5.49,0,2.53-.22,4.98-1.1,6.56-.12.2-.24.4-.38.59,0,.01-.56.6-.66,1.21ZM21.02,70.34h0c-.12-.07-.35-.29-.56-.53-.62-.69-1.36-.58-2.36-.65-.17-.05-.13-.01-.17-.08-.03-.25.56-1,.56-1.01.16-.23.3-.45.42-.67.97-1.76,1.17-4.26,1.17-6.83,0-1.91-.11-3.84-.13-5.5,0-.03,0-.06,0-.1,0-4.01,2.38-5.59,2.37-5.62,0,0,.01,0,.02-.01.91.16,1.84.27,2.77.34-.51.67-1.5,2.24-1.5,4.42,0,2.82.79,6.97.78,7.91,0,0-.01.04.02.11-.02.45-.26,1.92-.57,3.34-.11.5-.31,1.37-.31,2.43,0,.77.1,1.64.44,2.55-.27-.03-.52-.05-.74-.05h-.01s-.05,0-.08,0h0c-.06,0-.12,0-.17.02-.01,0-.03,0-.04,0-.21.02-.42.03-.61.03-.72,0-1.27-.12-1.28-.12ZM23.76,75.84s-.08.1-.15.16c-.41.37-1.28.88-1.52,1.02h0c-1.5-.03-1.71-.84-1.76-1.92,0-.74.18-1.53.23-2.03.03-.87,1.81-1.98,2.4-2.1.06,0,.12-.01.18-.02.03,0,.06,0,.09,0,.32,0,.8.06,1.26.12.53.07.99.15,1.17.17.02-.03.53.28,1.02.6.43.27.85.54.94.59,0,.04,0,.08-.01.11,0,.02-.01.05-.01.1.01.6.32,1.1.63,1.45-.62-.03-1.19-.02-1.33-.03.01,0,0,0,0,0-.01,0-.03,0-.03,0-.67.06-2.59,1.19-3.11,1.79ZM24.4,76.21c0-.07-.04-.13-.09-.17.5-.45,2.23-1.4,2.52-1.44.02,0,.03,0,.03,0v-.02c.4.03,1.26.01,2,.09.54.03,1.03.2,1.02.25.32.37.48,1.86.86,2.27.22.19,1.92,1.58,1.92,1.58.11.09.29.08.39-.04.09-.12.07-.29-.04-.38,0,0-1.71-1.39-1.92-1.57-.06.04-.37-1.63-.78-2.2-.28-.3-.71-.36-1.23-.43,0,0-.02-.02-.02-.02-.29-.21-.93-.87-.91-1.5,0,0,0-.03,0-.06,0-.1.02-.19.04-.29.14-.69.68-1.55,1.35-2.32.22-.27.65-.59,1.1-.88.73-.47,1.54-.89,1.83-1.04,1.3,1.36,3.87,4,5.17,4.78,0,0,0,0,.01,0-.24,1.01-.4,2.13-.4,3.37,0,.15,0,.31.01.47.04,1.13.06,2.35.16,3.48-.87.75-2.16.97-3.63.96-1.04,0-2.17-.1-3.28-.17-2.39-.14-4.4-1.44-5.18-2.21-.08-.08-.14-.15-.19-.2-.54-.65-.74-2.32-.75-2.32ZM50.41,89.06c.21.28.58.81.97,1.46.21.36.3.96.3,1.57,0,.8-.12,1.6-.16,2.02-.02.54-.39.59-1.44,1.77-.41.47-1.13.65-1.92.65-.8,0-1.62-.17-2.13-.32-1.08-.3-3.54-.82-4.96-.98-1.28-.11-4.11-1.8-4.83-2.14-.59-.25-3.91-3.01-4.24-3.34-.5-.44-1.41-.61-1.8-.7,0,0-.03,0-.05,0-.02,0-.03,0-.03,0-.71.06-2.82,1.65-3.07,1.8-.21.15-.56.4-.71.78-.04.09-.06.19-.06.29,0,.26.12.43.19.59.2.44.64.42.75.48.16.06.42.15.63.22-.03.06-.08.12-.14.18-.06.08-.13.15-.18.21-.05.05-.06.04-.05.06-.34.22-.26.49-.26.63-.06.03-.21.09-.27.09,0,0-.02,0-.06,0-.12,0-.32-.03-.46-.03-.03,0-.05,0-.07,0h0c-.1,0-.55-.07-.56-.07h0s.02,0,.02,0c-.05-.05-.12-.12-.18-.19-.03-.03-.05-.06-.06-.08h0c-.13-.37-1.25-2.28-1.3-2.69l-.02-.03h.02c-.02-.47.85-2.64,1.27-3.54.48-1.05.48-2.15.52-2.7,0-.31.24-.59.35-.72,2.13,1.83,4.02,3.96,6.62,5.19,2.58,1.24,8.19,3.46,8.82,3.68.11.04.35.13.65.25,1.1.43,3.17,1.37,3.39,1.61.11.1.28.1.39,0,.1-.11.1-.28,0-.39-.29-.27-1.19-.7-2.1-1.11.07,0,.15,0,.23,0,4.53.05,4.99-2.29,5.84-4.11.06-.13.12-.26.17-.39ZM49.51,85.88c.15.37.61.92.61,1.86,0,.16-.02.35-.05.55-.01.08-.03.16-.06.25-.05.21-.14.43-.25.66-.99,1.96-1.04,3.76-5.35,3.8-.18,0-.37,0-.57,0l-1.19-.11h-.05c-.25-.1-.44-.17-.56-.21-.57-.2-6.23-2.44-8.76-3.65-2.5-1.19-4.38-3.29-6.57-5.18-.04-.03-.09-.07-.12-.11-1.11-1.02-1.34-2.45-1.34-3.47,0-.34.02-.63.05-.84,1.01.84,2.9,1.92,5.19,2.06,1.1.07,2.23.17,3.31.17,1.38,0,2.69-.17,3.7-.87.17,1.62.45,2.99,1.21,3.66,0,0,.87.73.96.8.09.09.29.21.51.37.1.08.2.15.28.21.07.06.07.08.09.08.05.1.18.48.19.62-.1.08-.44.24-.61.46-.05.1-.11.25-.12.48,0,.18.07.46.33.6-.02,0,.07.06.23.06.14,0,.3-.08.42-.22.09-.12.26-.19.38-.2.2-.09.79-.23,1.06-.68l.91,1.9.13.13s.25.13.52.14c.09,0,.17-.02.25-.07.1-.1.32-.22.34-.54,0-.07-.02-.13-.04-.19-.07-.17-.29-.97-.29-.97l-.28-.93.2.27.65,1.11c.07.05.27.39.71.43.07,0,.12-.02.16-.03.17-.06.55-.23.55-.65,0-.12-.03-.24-.08-.37-.19-.46-.58-1.36-.58-1.36-.01-.02-.19-.38-.45-.78l.19.07,1.55.99.18.04s.29,0,.53-.25c.07-.1.09-.2.09-.28,0-.24-.13-.41-.24-.54-.1-.11-1.3-1.59-1.3-1.59-.06-.05-.56-.44-.89-.59,0-.01-.18-.19-.17-.2-.16-.33-.77-.83-.9-.98-.21-.17-1.15-.78-1.63-.92-.4-.04-1.04-.28-1.01-.42h0c.07-.5,1.19-3.15,1.18-3.16l.81-1.64s.09-.18.24-.47c.22.24,1.05,1.02,2.54,1.02.14.28,1.17,2.46,1.26,3.16.09.58.74,2.67,1.28,4.36.35,1.08.64,1.97.7,2.14ZM48.55,81.09c-.26-.85-.45-1.56-.48-1.79-.12-.79-.94-2.55-1.23-3.15,1.96-.38,3.43-1.48,4.15-2.48,0,0,0,0,0,0,.99-.14,1.71-.61,2.24-1.22-.14.8-.33,1.75-.84,3.08,0,0-.42,1.14-.91,2.13-.24.9-2.23,2.78-2.95,3.44ZM50.57,79.9c.65-.7,1.25-1.46,1.44-2.05.16-.33.32-.68.45-1,.04,1.64.2,4.08.26,5.16-1.12-1.06-2.05-2.02-2.15-2.12ZM64.01,81.55c0,.27-.03.59-.03.93,0,.18,0,.38.04.57-.24-.07-.47-.11-.69-.11-1.24.02-2.16.91-3.39,1.31-1.17.39-2.43.54-3.06.59.44-1.17,1.69-4.67,2-7.52,0,0,.18-1.76.35-4.19,0-.15-.1-.28-.25-.29-.16-.01-.28.1-.3.25h0c-.16,2.42-.34,4.16-.34,4.17-.31,2.91-1.68,6.62-2.04,7.56-.65-.21-1.85-1.2-2.99-2.25,0,0,0-.02,0-.03,0,0-.31-4.36-.3-6.32,0-.39.02-.7.04-.8,0,0,0-.01,0-.02.72-2.01.75-3.21,1-4.15,0-.02,0-.03,0-.05.49-1.09.63-2.23.67-2.78,0-.02,0-.03,0-.03,0-.3-.26-1.15-.26-1.17,0,0-.05-.2-.11-.5l.49-.42s0,0,0,0c.13.22.29.46.46.66.45.5,1.5.97,2.48.99.21,0,.4-.03.59-.08.5-.18.68-.51.7-.45.38-.11.65-.4.8-.39.39-.11.6-.45.71-.67.07,0,.16.02.24.02.27.01.81-.09.86-.64.03-.46.05-1.46.06-1.83.23-.18.69-.62.89-1.39.45-.03,1.26-.13,1.27-.13.82-.25,1.08-.94,1.07-1.49,0-.34-.08-.66-.15-.9-.21-.56-.91-1.04-1.27-1.27.09-.19.13-.37.13-.55,0-.43-.24-.71-.36-.82-.23-.58-.72-.84-1.13-.95l-.11-5.03c.93-.25,1.84-.79,2.34-1.86l.1.07s.1.01.25.01c.2,0,.5-.03.82-.15.56-.22,1.03-.72,1.04-.73.28-.2.43-.49.46-.75l3.12,1.49c.04.19.08.36.08.5,0,.05,0,.09-.01.12-.02.08-.03.17-.03.24.02.56.45.83.46.86.04.02.07.04.11.05v.14c0,.45.03.94.11,1.46,0,.02.12.96.7,1.81,0,.02-.01.03-.02.05,0,.01-.31.82-.47.9-.36.29-1.53,1.77-1.57,3.12,0,.13.02.25.04.39.27,1.21.88,3.26.88,3.26.04.13.16.21.29.19l.22-.03c-.14.4-.45,1.19-.58,1.27-.17.15-1.09.76-1.87,2.92-.17-.08-.4-.16-.7-.16-.42,0-.92.16-1.44.65-.64.59-.88.8-.94.86-.04.02-.06.04-.08.07,0,0,0,0,0,0-.26-.63-.36-1.19-.36-1.68-.03-2.64,2.99-3.88,2.99-3.89.14-.06.21-.22.16-.36-.06-.14-.22-.21-.36-.15h0s-.94.37-1.82,1.17c-.04-.64-.11-1.75-.13-2.61.04-.13.51-1.56,1.13-3.06.61-1.56,1.51-3.22,1.91-3.33.14-.06.21-.22.15-.36-.06-.14-.21-.21-.35-.15-.89.42-1.86,2.63-2.53,4.41.25-1.27.63-3.01.98-4.58.03-.15-.06-.29-.21-.33-.15-.03-.29.06-.32.21-.59,2.66-1.24,5.69-1.28,6.37-.02.15-.02.33-.02.53,0,1.24.16,3.23.17,3.43-.56.68-1.01,1.56-1.01,2.69,0,.62.14,1.32.47,2.07.02.04.05.07.08.1-.42.57-.44.6-.53.84-.11.32-.46,1.78-.47,2.14v.03s0,0,0,0c0,.09-.02.26-.04.39-.01.07-.03.13-.04.17h.01s-.19.14-.36.24c-.07.05-.15.09-.21.12-.19-.27-.54-.81-.96-.95-.11-.02-.22-.04-.35-.04-.14,0-.52.07-.53.43,0,.05,0,.1.02.15-.13.04-.4.09-.48.49.01.26.16.4.39.61l.82.71s.74.66,1.34.8c.13.04.29.05.45.05.29,0,.63-.06.94-.23-.04.15-.07.25-.09.26-.19.33-.45,1.06-.46,1.51,0,.08,0,.18.09.3,0-.08.05.56.69.65.24,0,.43-.15.59-.37l.11-.16c-.24.76-.46,1.4-.6,1.69-.52,1.17-1.28,2.1-1.32,3.09ZM66.86,70.75c-.14-.04-.3.04-.33.18-.03.15-.39.56-.43,1.27,0,.36-.33.35-.4.37-.14-.04-.19-.18-.19-.51,0-.28.06-.56.08-.73.02-.15-.09-.28-.24-.3-.15-.02-.29.09-.31.24h0c-.01.11-.08.45-.08.79,0,.28.05.66.32.88-.01.11-.05.41-.1.75-.04.02-.08.06-.11.1-.21.35-.61.48-.99.48-.12,0-.24-.02-.33-.04-.34-.05-1.1-.69-1.11-.69l-.82-.71c-.07-.06-.12-.11-.16-.15.13-.03.37-.08.47-.47,0-.03,0-.06-.01-.1.05,0,.12.02.17.03.05-.03.71.79.73.87.11.14.19.12.26.13.4-.05.82-.42.98-.51.3-.32.25-.7.28-.99v-.03s-.26,0-.26,0h.26c0-.19.37-1.78.43-1.95.1-.25.01-.09.8-1.17.05-.04.21-.19.98-.89.44-.4.79-.5,1.07-.5.24,0,.42.08.52.14-.36,1.11-.69,2.58-.92,4.52,0,0-.44,1.54-.93,3.17-.02.02-.03.04-.05.06l-.55.89-.51.71c-.12.16-.15.14-.15.15,0,0-.05-.02-.11-.14-.06-.11-.1-.21-.1-.21l-.09-.05h.07c-.02-.22.26-1.05.37-1.21.15-.25.21-.68.3-1.15.06-.36.11-.7.13-.88.25-.03.78-.19.84-.87.04-.55.28-.77.41-1.14.04-.14-.04-.3-.19-.34ZM64.47,99.26l-7.8-2.63v-1.62s7.8,2.56,7.8,2.56v1.69ZM80.06,94.93l-15.05,4.42v-1.77s15.05-4.27,15.05-4.27v1.62ZM70.35,94.33c.14-.03.22-.17.21-.3l-.35-2.34,1.31-.31,7.68,1.6-14.44,4.1-7.34-2.41,7.45-1.74-.45,2.37c-.03.14.06.28.19.32.14.04.28-.04.33-.17l1.04-2.78,3.22-.75.82,2.24c.04.13.19.2.32.17ZM66.22,92.06l1.57-3.97,1.22,3.33-2.79.64ZM69.59,91.29h-.03s-1.5-4.06-1.5-4.06c-.04-.11-.14-.18-.26-.18-.11,0-.21.07-.26.17l-1.97,4.99h-.03s.49-3.52.49-3.52v-.03c.13-.23.33-.65.43-1.1.14-.65.61-2.32,1.07-3.01.26-.41.7-.59.98-.66l.07.7,1.01,6.7ZM74.03,70.65c-1.93,3.54-4.71,6.79-4.92,7.38-.09.3-.17.6-.17,1.04,0,.54.11,1.27.41,2.54.07.27.09.54.09.79,0,.6-.16,1.1-.38,1.5l-.04-.37c-.01-.15-.15-.26-.3-.25-.02,0-1.06.07-1.66.97-.53.84-.98,2.5-1.14,3.19-.08.35-.23.69-.34.89-.1-.09-.14-.3-.14-.45l-.21-3.69-.11-.2c-.17-.13-.29-.27-.38-.42-.01-.02-.02-.04-.03-.06,0-.05-.02-.1-.06-.14-.1-.26-.13-.57-.13-.88s.03-.63.04-.92c-.02-.68.7-1.65,1.26-2.87.27-.58.72-2.02,1.14-3.45.51-1.7.98-3.35.98-3.35.26-2.09.61-3.58.98-4.67.8-2.34,1.6-2.79,1.83-3,.41-.42.78-1.72.81-1.74h0s0,0,0,0l5.1-.61s.32-.08.69-.21l-1.57,3.37-.02.14c0,.11.01.24.01.36,0,1.15-.47,2.57-1.16,4.02-.18.37-.37.74-.57,1.11ZM79.4,74.75s-2.11,3.23-2.39,3.62c-.28.41-.28,1.01-.28,1.5,0,.24,0,.45.01.55,0,.22-.19.88-.18.88-.04.1-.04.2-.04.3.01.61.37,1.25.68,1.66.37.47.84.76.96,1.09,0,.02.01.05.01.08.03.23-.37.75-.88,1-.28.14-.99.23-1.75.23-.57,0-1.18-.04-1.69-.11-.73-.09-.78-.64-.81-1,0-.11.01-.18.01-.18,0,.04.51-1.58.61-1.83.07-.23.08-.55.09-.93,0-.3-.01-.6-.04-.84,0-.02,0-.05,0-.05-.01-.41.48-1.59.92-2.2.39-.56.42-1.44.43-2.14,0-.4-.02-.73-.03-.87,0-.04,0-.22,0-.46,0-1.24.04-4.43.04-5.08,2.2-.49,4.15-.75,5.64-.89-.34,4.27-1.33,5.65-1.31,5.67ZM81.31,84.85l-.58-2.12c-.48-1.22-.64-2.3-.64-3.23,0-1.91.68-3.21.89-3.76.28-.74,2.04-4.14,2.04-4.14l1.06-2.27.17-.7c.03-.15.08-.33.12-.56.29-1.22.66-3.32.72-4.16,0-.06,0-.1,0-.16,0-.92-.37-2.57-.66-3.32-.15-.36-.19-.67-.19-.98,0-.26.03-.51.07-.78.07-.51.74-3.03.88-3.76l3.35-.17s1.13-.13,1.91-.61c.13-.08.17-.25.09-.37-.07-.13-.24-.17-.37-.09-.62.39-1.67.52-1.67.53l-4.96.24c-.15,0-.26.14-.26.29,0,.15.13.26.27.26h.02l1.07-.05c-.18.81-.78,3.1-.86,3.66-.03.26-.07.54-.07.85,0,.36.05.75.23,1.19.26.64.63,2.33.62,3.12,0,.04,0,.09,0,.14-.04.73-.42,2.87-.7,4.05-.04.15-.07.29-.1.41-.37,0-1.36.02-2.81.15-1.48.13-3.43.38-5.65.86.61-1.35,1.02-2.67,1.03-3.85,0-.11,0-.23-.01-.33l1.68-3.61.02-.03c.02-.06.03-.12.02-.17.41-.19.82-.43,1.12-.76.7-.79,2.54-3.85,2.55-3.86,0-.02.02-.04.02-.06.17-.24.33-.51.5-.81,0,0,.02-.05.05-.12.02-.02.05-.05.06-.08.05-.14.1-.28.15-.43.23-.55.59-1.36.96-2.08.05.03.6-.31.71-.34,2.04-.78,2.69-3.39,2.71-3.4,0-.05.01-.11.01-.21,1.02,1.2,3.6,3.94,6.47,4.74-2.55,3.1-4.48,6.41-5.94,9.6-.09-1.04-.12-1.9-.12-2.47,0-.51.02-.79.02-.79,0-.15-.11-.28-.26-.29-.15-.01-.28.1-.29.25,0,0-.02.3-.02.83,0,.74.04,1.94.21,3.41,0,.02.02.03.02.04-3.58,8.3-4.03,15.52-4.03,15.54,0,.01,0,.02,0,.04-.02.1-.04.2-.04.3,0,.75.61,1.48,2.28,1.97.02,0,.04,0,.07,0,.02,0,.04-.02.05-.02-.12.61-.26,1.13-.4,1.46-.63,1.51-1.09,2.68-1.1,3.39,0,0,0,.01,0,.03,0,.2-.07.58-.16.99-.03-.02-.07-.04-.11-.04-1.02-.2-1.21-.24-2.24-3.36ZM83.44,80.25s.81-1.19.94-1.28c.35-.27.93-.73,1.63-1.29-.09.83-.33,2.74-.62,4.29-.02-.02-.04-.04-.07-.05-1.6-.49-1.92-1.07-1.92-1.49,0-.05.01-.1.02-.16,0,0,.01,0,.02-.01ZM89.44,91.57h0s0,0-.01,0c.05.27-.65.99-.89,1.14-.19.16-.8.38-1.15.6-.08.05-.24.08-.44.08s-.41-.03-.61-.03c-.34-.02-1.17-.31-1.17-.31h-.15s-.61.12-1.11.12c-.1,0-.19,0-.28-.02-.3.01-.4-.45-.47-1.31-.01-.05-.01-.1-.01-.16,0-.19.03-.39.09-.59.12-.46.35-.89.49-1.17.21-.48.63-1.97.63-2.66v-.02s-.24-.01-.24-.01h.24c0-.49.43-1.69,1.06-3.18.66-1.62,1.17-6.71,1.17-6.73,0-.03,0-.07,0-.1,2.63-2.13,6.42-5.27,7.43-6.67.13-.19.28-.36.45-.5,0,.06,0,.12,0,.17,0,6-5.82,14.19-6.41,15.34-.2.38-.25.84-.25,1.32,0,.71.14,1.46.25,1.95.08.33.14.55.14.55.05.09,1.28,1.91,1.24,2.18ZM99.52,89.1c-.19,0-.38,0-.55,0-1.03-.03-1.13-.02-2.26-.07-.56-.03-1.11-.05-1.66-.07-.01,0-.03-.02-.05-.02-1.75-.39-4.12-3.03-4.12-3.02-.1-.12-.27-.12-.39-.02-.12.1-.12.27-.02.39h0s1.45,1.65,3.05,2.6c-.82-.04-1.6-.09-2.28-.13-.77-.05-1.41-.1-1.88-.15-.23-.03-.42-.05-.56-.07-.07-.01-.12-.02-.15-.03h0s-.08-.04-.12-.04c-.09-.45-.18-1.03-.18-1.57,0-.43.06-.82.19-1.07.34-.7,2.97-4.43,4.78-8.69.97,1.1,1.97,2.19,2.87,3.16-.02.04-.05.08-.05.14.13,5.63,2.68,7.84,4.21,8.67-.3,0-.58.01-.84.01ZM101.67,89.02s-.04-.02-.07-.03c0-.02-4.5-.81-4.89-8.15,1.56,1.67,2.72,2.87,2.72,2.88.05.05.12.08.19.08s.14-.03.19-.08c.11-.11.11-.28,0-.38,0,0-3.25-3.37-6.2-6.7-.02-.03-.06-.03-.09-.04.85-2.13,1.48-4.36,1.48-6.38,0-.19,0-.39-.02-.57.93-.57,2.07-.67,2.76-.67.37,0,.59.03.59.03.15.02.29-.09.31-.23.02-.15-.09-.29-.23-.31h0s-.26-.03-.66-.03c-.78,0-2.12.11-3.24.88-.35.24-.68.54-.95.92-.91,1.28-4.9,4.61-7.51,6.71-.87.7-1.6,1.27-2.02,1.6-.07.06-.15.15-.24.26-.04.04-.12.11-.21.2.42-3.6,2.37-15.36,10.36-24.91.29.05.59.08.89.08.13,0,.26,0,.39-.02l-2,7.84c-.04.14.05.3.2.33.14.04.3-.05.33-.2l2.06-8.06h0c.56-.12,1.12-.36,1.66-.73.72-.51,3.21-1.74,3.96-3.04l2.32-1.87s.47-.44.99-1.06c1.01,2.63,1.67,6.29,2.24,11.23.2,1.73.28,3.43.28,5.08,0,6.06-1.16,11.34-1.97,14.63-.13-3.22-.65-8.71-.65-12.53,0-1.2.05-2.24.18-2.96.23-1.32.31-2.58.31-3.69,0-2.22-.31-3.8-.31-3.82-.03-.15-.17-.25-.32-.22-.15.03-.25.17-.22.32,0,0,.3,1.54.3,3.71,0,1.08-.07,2.32-.3,3.6-.14.78-.19,1.84-.19,3.06,0,4.42.68,11.02.68,13.78,0,.38-.02.68-.04.89,0,0,0,.02,0,.03,0,0,0,0,0,.01-.17.71-.25,1.49-.25,2.27.03,2.4.67,4.84,1.71,5.89-1,.1-2.85.27-4.54.37Z"/>
          <path class="cls-1" d="M78.13,55l-2.27.47c-.15.03-.25.17-.21.32.03.15.17.25.32.21l.78-.16.21.24c.05.06.13.09.2.09.07,0,.13-.02.18-.07.11-.1.12-.27.02-.39h0s.87-.18.87-.18c.15-.03.25-.18.21-.32-.03-.15-.18-.25-.33-.22Z"/>
          <polygon class="cls-1" points="62.9 44.61 62.9 44.61 62.9 44.61 62.9 44.61"/>
          <path class="cls-1" d="M59.4,42.31c.09,0,.17-.04.22-.11h0s.24-.3.5-.55c0,.01,0,.02.02.03l.1.16c.09.13.25.16.38.08.12-.08.16-.25.07-.38l-.11-.16s-.03-.04-.05-.06c.03-.01.06-.01.08,0h.02c.12.1.29.09.39-.03.09-.11.07-.29-.04-.38-.11-.09-.26-.14-.37-.13-.78.07-1.4,1.1-1.45,1.1-.09.12-.06.29.06.38.05.04.1.06.16.06Z"/>
          <path class="cls-1" d="M71.61,29.98c-.02.15.09.29.23.31.01,0,.03,0,.04,0,.14,0,.26-.1.27-.24l.02-.13c.21.05.43.08.66.09.15,0,.27-.11.27-.27s-.11-.27-.27-.28c-.74,0-1.52-.47-1.52-.46-.13-.08-.3-.04-.38.09-.08.13-.03.3.1.37,0,0,.24.15.6.29l-.03.22Z"/>
          <path class="cls-1" d="M52.25,31.96c-.08.13-.05.3.08.38l.43.29-.13.2c-.09.13-.05.3.07.38.13.08.3.05.38-.07l.14-.2.49.33s.1.05.16.05c.09,0,.17-.04.22-.12.09-.13.05-.3-.07-.38l-1.39-.93c-.12-.09-.29-.05-.38.07Z"/>
          <path class="cls-1" d="M72.72,32.78c-.41-.02-.7-.28-.71-.27-.12-.1-.29-.08-.39.03-.1.11-.08.29.03.39.02.02.42.36,1.02.39.01,0,.02,0,.02,0,.14,0,.26-.11.27-.26,0-.15-.1-.28-.25-.29Z"/>
          <path class="cls-1" d="M60.56,64.48c.15.04.3-.05.34-.19.04-.14-.05-.3-.19-.33-.02,0-.92-.3-.99-.51-.08-.13-.24-.17-.37-.1-.13.08-.17.25-.1.38.1.15.24.27.38.37l-.04.03c-.12.1-.13.27-.03.38.05.07.14.1.21.1.06,0,.12-.02.17-.06l.23-.2c.22.08.39.12.4.13Z"/>
          <path class="cls-1" d="M72.92,31.89c-.16,0-.25-.03-.3-.04-.01-.02-.02-.04-.05-.06-.1-.11-.27-.11-.38,0h0s-.08.1-.08.2c.03.3.28.42.77.45h.02c.14,0,.26-.11.27-.25,0-.15-.1-.28-.25-.29Z"/>
          <path class="cls-1" d="M96.36,45.55c.07,0,.14-.03.19-.08l2.19-2.19c.11-.11.11-.28,0-.39-.11-.11-.28-.11-.39,0l-2.19,2.19c-.11.11-.11.28,0,.39.05.05.12.08.19.08Z"/>
        </g>
        <g>
          <g id="_Ripetizione_radiale_" data-name="&amp;lt;Ripetizione radiale&amp;gt;">
            <rect class="cls-1" x="60.69" y="117.02" width="2.76" height="7.12" transform="translate(124.13 241.15) rotate(180)"/>
          </g>
          <g id="_Ripetizione_radiale_-2" data-name="&amp;lt;Ripetizione radiale&amp;gt;">
            <rect class="cls-1" x="51.53" y="116.29" width="2.76" height="7.12" transform="translate(86.42 246.51) rotate(-171)"/>
          </g>
          <g id="_Ripetizione_radiale_-3" data-name="&amp;lt;Ripetizione radiale&amp;gt;">
            <rect class="cls-1" x="42.61" y="114.15" width="2.76" height="7.12" transform="translate(49.44 243.25) rotate(-162)"/>
          </g>
          <g id="_Ripetizione_radiale_-4" data-name="&amp;lt;Ripetizione radiale&amp;gt;">
            <rect class="cls-1" x="34.13" y="110.64" width="2.76" height="7.12" transform="translate(15.29 232.06) rotate(-153)"/>
          </g>
          <g id="_Ripetizione_radiale_-5" data-name="&amp;lt;Ripetizione radiale&amp;gt;">
            <rect class="cls-1" x="26.3" y="105.84" width="2.76" height="7.12" transform="translate(-14.24 214.17) rotate(-144)"/>
          </g>
          <g id="_Ripetizione_radiale_-6" data-name="&amp;lt;Ripetizione radiale&amp;gt;">
            <rect class="cls-1" x="19.32" y="99.88" width="2.76" height="7.12" transform="translate(-37.81 191.22) rotate(-135)"/>
          </g>
          <g id="_Ripetizione_radiale_-7" data-name="&amp;lt;Ripetizione radiale&amp;gt;">
            <rect class="cls-1" x="13.35" y="92.9" width="2.76" height="7.12" transform="translate(-54.64 165.07) rotate(-126)"/>
          </g>
          <g id="_Ripetizione_radiale_-8" data-name="&amp;lt;Ripetizione radiale&amp;gt;">
            <rect class="cls-1" x="8.56" y="85.07" width="2.76" height="7.12" transform="translate(-64.52 137.72) rotate(-117)"/>
          </g>
          <g id="_Ripetizione_radiale_-9" data-name="&amp;lt;Ripetizione radiale&amp;gt;">
            <rect class="cls-1" x="5.04" y="76.59" width="2.76" height="7.12" transform="translate(-67.82 111.02) rotate(-108)"/>
          </g>
          <g id="_Ripetizione_radiale_-10" data-name="&amp;lt;Ripetizione radiale&amp;gt;">
            <rect class="cls-1" x="2.9" y="67.66" width="2.76" height="7.12" transform="translate(-65.39 86.59) rotate(-99)"/>
          </g>
          <g id="_Ripetizione_radiale_-11" data-name="&amp;lt;Ripetizione radiale&amp;gt;">
            <rect class="cls-1" x="2.18" y="58.51" width="2.76" height="7.12" transform="translate(-58.51 65.62) rotate(-90)"/>
          </g>
          <g id="_Ripetizione_radiale_-12" data-name="&amp;lt;Ripetizione radiale&amp;gt;">
            <rect class="cls-1" x="2.9" y="49.35" width="2.76" height="7.12" transform="translate(-48.65 48.86) rotate(-81)"/>
          </g>
          <g id="_Ripetizione_radiale_-13" data-name="&amp;lt;Ripetizione radiale&amp;gt;">
            <rect class="cls-1" x="5.04" y="40.43" width="2.76" height="7.12" transform="translate(-37.39 36.5) rotate(-72)"/>
          </g>
          <g id="_Ripetizione_radiale_-14" data-name="&amp;lt;Ripetizione radiale&amp;gt;">
            <rect class="cls-1" x="8.56" y="31.95" width="2.76" height="7.12" transform="translate(-26.21 28.24) rotate(-63)"/>
          </g>
          <g id="_Ripetizione_radiale_-15" data-name="&amp;lt;Ripetizione radiale&amp;gt;">
            <rect class="cls-1" x="13.35" y="24.12" width="2.76" height="7.12" transform="translate(-16.32 23.33) rotate(-54)"/>
          </g>
          <g id="_Ripetizione_radiale_-16" data-name="&amp;lt;Ripetizione radiale&amp;gt;">
            <rect class="cls-1" x="19.32" y="17.14" width="2.76" height="7.12" transform="translate(-8.57 20.69) rotate(-45)"/>
          </g>
          <g id="_Ripetizione_radiale_-17" data-name="&amp;lt;Ripetizione radiale&amp;gt;">
            <rect class="cls-1" x="26.3" y="11.17" width="2.76" height="7.12" transform="translate(-3.37 19.08) rotate(-36)"/>
          </g>
          <g id="_Ripetizione_radiale_-18" data-name="&amp;lt;Ripetizione radiale&amp;gt;">
            <rect class="cls-1" x="34.13" y="6.38" width="2.76" height="7.12" transform="translate(-.64 17.2) rotate(-27)"/>
          </g>
          <g id="_Ripetizione_radiale_-19" data-name="&amp;lt;Ripetizione radiale&amp;gt;">
            <rect class="cls-1" x="42.61" y="2.86" width="2.76" height="7.12" transform="translate(.17 13.91) rotate(-18)"/>
          </g>
          <g id="_Ripetizione_radiale_-20" data-name="&amp;lt;Ripetizione radiale&amp;gt;">
            <rect class="cls-1" x="51.54" y=".72" width="2.76" height="7.12" transform="translate(-.02 8.33) rotate(-9)"/>
          </g>
          <g id="_Ripetizione_radiale_-21" data-name="&amp;lt;Ripetizione radiale&amp;gt;">
            <rect class="cls-1" x="60.69" y="0" width="2.76" height="7.12"/>
          </g>
          <g id="_Ripetizione_radiale_-22" data-name="&amp;lt;Ripetizione radiale&amp;gt;">
            <rect class="cls-1" x="69.84" y=".72" width="2.76" height="7.12" transform="translate(1.55 -11.09) rotate(9)"/>
          </g>
          <g id="_Ripetizione_radiale_-23" data-name="&amp;lt;Ripetizione radiale&amp;gt;">
            <rect class="cls-1" x="78.77" y="2.86" width="2.76" height="7.12" transform="translate(5.91 -24.45) rotate(18)"/>
          </g>
          <g id="_Ripetizione_radiale_-24" data-name="&amp;lt;Ripetizione radiale&amp;gt;">
            <rect class="cls-1" x="87.25" y="6.38" width="2.76" height="7.12" transform="translate(14.17 -39.15) rotate(27)"/>
          </g>
          <g id="_Ripetizione_radiale_-25" data-name="&amp;lt;Ripetizione radiale&amp;gt;">
            <rect class="cls-1" x="95.08" y="11.17" width="2.76" height="7.12" transform="translate(27.08 -53.88) rotate(36)"/>
          </g>
          <g id="_Ripetizione_radiale_-26" data-name="&amp;lt;Ripetizione radiale&amp;gt;">
            <rect class="cls-1" x="102.06" y="17.14" width="2.76" height="7.12" transform="translate(44.93 -67.08) rotate(45)"/>
          </g>
          <g id="_Ripetizione_radiale_-27" data-name="&amp;lt;Ripetizione radiale&amp;gt;">
            <rect class="cls-1" x="108.02" y="24.12" width="2.76" height="7.12" transform="translate(67.49 -77.1) rotate(54)"/>
          </g>
          <g id="_Ripetizione_radiale_-28" data-name="&amp;lt;Ripetizione radiale&amp;gt;">
            <rect class="cls-1" x="112.82" y="31.95" width="2.76" height="7.12" transform="translate(93.99 -82.36) rotate(63)"/>
          </g>
          <g id="_Ripetizione_radiale_-29" data-name="&amp;lt;Ripetizione radiale&amp;gt;">
            <rect class="cls-1" x="116.33" y="40.43" width="2.76" height="7.12" transform="translate(123.17 -81.56) rotate(72)"/>
          </g>
          <g id="_Ripetizione_radiale_-30" data-name="&amp;lt;Ripetizione radiale&amp;gt;">
            <rect class="cls-1" x="118.48" y="49.36" width="2.76" height="7.12" transform="translate(153.37 -73.74) rotate(81)"/>
          </g>
          <g id="_Ripetizione_radiale_-31" data-name="&amp;lt;Ripetizione radiale&amp;gt;">
            <rect class="cls-1" x="119.19" y="58.51" width="2.76" height="7.12" transform="translate(182.64 -58.51) rotate(90)"/>
          </g>
          <g id="_Ripetizione_radiale_-32" data-name="&amp;lt;Ripetizione radiale&amp;gt;">
            <rect class="cls-1" x="118.48" y="67.66" width="2.76" height="7.12" transform="translate(208.95 -36.02) rotate(99)"/>
          </g>
          <g id="_Ripetizione_radiale_-33" data-name="&amp;lt;Ripetizione radiale&amp;gt;">
            <rect class="cls-1" x="116.33" y="76.59" width="2.76" height="7.12" transform="translate(230.31 -7.03) rotate(108)"/>
          </g>
          <g id="_Ripetizione_radiale_-34" data-name="&amp;lt;Ripetizione radiale&amp;gt;">
            <rect class="cls-1" x="112.82" y="85.07" width="2.76" height="7.12" transform="translate(245.01 27.11) rotate(117)"/>
          </g>
          <g id="_Ripetizione_radiale_-35" data-name="&amp;lt;Ripetizione radiale&amp;gt;">
            <rect class="cls-1" x="108.02" y="92.9" width="2.76" height="7.12" transform="translate(251.74 64.65) rotate(126)"/>
          </g>
          <g id="_Ripetizione_radiale_-36" data-name="&amp;lt;Ripetizione radiale&amp;gt;">
            <rect class="cls-1" x="102.06" y="99.88" width="2.76" height="7.12" transform="translate(249.72 103.44) rotate(135)"/>
          </g>
          <g id="_Ripetizione_radiale_-37" data-name="&amp;lt;Ripetizione radiale&amp;gt;">
            <rect class="cls-1" x="95.08" y="105.84" width="2.76" height="7.12" transform="translate(238.79 141.21) rotate(144)"/>
          </g>
          <g id="_Ripetizione_radiale_-38" data-name="&amp;lt;Ripetizione radiale&amp;gt;">
            <rect class="cls-1" x="87.25" y="110.64" width="2.76" height="7.12" transform="translate(219.44 175.71) rotate(153)"/>
          </g>
          <g id="_Ripetizione_radiale_-39" data-name="&amp;lt;Ripetizione radiale&amp;gt;">
            <rect class="cls-1" x="78.77" y="114.15" width="2.76" height="7.12" transform="translate(192.75 204.89) rotate(162)"/>
          </g>
          <g id="_Ripetizione_radiale_-40" data-name="&amp;lt;Ripetizione radiale&amp;gt;">
            <rect class="cls-1" x="69.84" y="116.3" width="2.76" height="7.12" transform="translate(160.31 227.09) rotate(171)"/>
          </g>
        </g>
      </g>
    </g>
    <g>
      <path class="cls-1" d="M437.7,28.52c0-.39.31-.74.7-.74h8.77c7.56,0,13.74,6.14,13.74,13.66s-6.18,13.74-13.74,13.74h-8.77c-.39,0-.7-.35-.7-.74v-25.92ZM446.54,52.48c6.42,0,11.08-4.58,11.08-11.04s-4.66-11-11.08-11h-5.87v22.04h5.87Z"/>
      <path class="cls-1" d="M467.72,28.52c0-.39.31-.74.75-.74h15.42c.44,0,.75.35.75.74v1.14c0,.39-.31.74-.75.74h-13.15v9.55h11.23c.4,0,.75.35.75.74v1.14c0,.43-.35.74-.75.74h-11.23v9.98h13.15c.44,0,.75.35.75.74v1.14c0,.39-.31.74-.75.74h-15.42c-.44,0-.75-.35-.75-.74v-25.92Z"/>
      <path class="cls-1" d="M491.68,28.52c0-.39.31-.74.75-.74h8.65c4.81,0,8.77,3.91,8.77,8.65s-3.96,8.81-8.73,8.81h-6.46v9.2c0,.39-.35.74-.75.74h-1.49c-.43,0-.75-.35-.75-.74v-25.92ZM500.88,42.34c3.21,0,5.95-2.62,5.95-5.99,0-3.17-2.74-5.6-5.95-5.6h-6.22v11.59h6.22Z"/>
      <path class="cls-1" d="M510.86,54.16l11.9-26.35c.12-.23.31-.43.67-.43h.39c.36,0,.55.2.67.43l11.82,26.35c.24.51-.08,1.02-.66,1.02h-1.57c-.35,0-.59-.24-.66-.43l-2.9-6.46h-13.9l-2.86,6.46c-.08.2-.31.43-.66.43h-1.57c-.59,0-.9-.51-.66-1.02ZM529.45,45.86c-1.92-4.27-3.79-8.57-5.71-12.84h-.31l-5.72,12.84h11.75Z"/>
      <path class="cls-1" d="M541.35,28.52c0-.39.31-.74.75-.74h10.14c4.7,0,8.54,3.68,8.54,8.34,0,3.6-2.39,6.62-5.8,7.99l5.37,9.94c.27.51,0,1.14-.67,1.14h-1.99c-.35,0-.55-.2-.62-.35l-5.21-10.37h-7.48v9.98c0,.39-.35.74-.74.74h-1.53c-.43,0-.75-.35-.75-.74v-25.92ZM552.04,41.87c3.01,0,5.63-2.51,5.63-5.72,0-2.97-2.62-5.52-5.63-5.52h-7.6v11.23h7.6Z"/>
      <path class="cls-1" d="M571.88,30.4h-6.81c-.43,0-.75-.35-.75-.74v-1.14c0-.39.31-.74.75-.74h16.6c.43,0,.74.35.74.74v1.14c0,.39-.31.74-.74.74h-6.82v24.04c0,.39-.35.74-.74.74h-1.49c-.39,0-.74-.35-.74-.74v-24.04Z"/>
      <path class="cls-1" d="M590.05,27.93c.08-.31.39-.55.71-.55h.63c.27,0,.59.2.66.43l7.75,21.57h.2l7.63-21.57c.08-.23.39-.43.66-.43h.63c.31,0,.62.24.7.55l5.05,26.31c.12.55-.12.94-.71.94h-1.57c-.31,0-.62-.27-.7-.55l-3.49-20.16h-.15l-7.2,20.67c-.08.23-.44.43-.67.43h-.7c-.24,0-.59-.2-.67-.43l-7.28-20.67h-.15l-3.41,20.16c-.04.27-.39.55-.71.55h-1.57c-.59,0-.82-.39-.7-.94l5.05-26.31Z"/>
      <path class="cls-1" d="M621.48,28.52c0-.39.31-.74.75-.74h15.42c.44,0,.75.35.75.74v1.14c0,.39-.31.74-.75.74h-13.15v9.55h11.23c.4,0,.75.35.75.74v1.14c0,.43-.35.74-.75.74h-11.23v9.98h13.15c.44,0,.75.35.75.74v1.14c0,.39-.31.74-.75.74h-15.42c-.44,0-.75-.35-.75-.74v-25.92Z"/>
      <path class="cls-1" d="M645.44,28.09c0-.39.36-.71.74-.71h.98l17.65,22h.08v-20.87c0-.39.31-.74.74-.74h1.37c.39,0,.75.35.75.74v26.35c0,.39-.36.7-.75.7h-.71l-17.97-22.43h-.04v21.3c0,.39-.31.74-.75.74h-1.37c-.39,0-.74-.35-.74-.74v-26.35Z"/>
      <path class="cls-1" d="M680.39,30.4h-6.81c-.43,0-.75-.35-.75-.74v-1.14c0-.39.31-.74.75-.74h16.6c.43,0,.74.35.74.74v1.14c0,.39-.31.74-.74.74h-6.82v24.04c0,.39-.35.74-.74.74h-1.49c-.39,0-.74-.35-.74-.74v-24.04Z"/>
      <path class="cls-1" d="M449.75,68.47c7.83,0,14.1,6.3,14.1,14.13s-6.27,14.05-14.1,14.05-14.05-6.22-14.05-14.05,6.22-14.13,14.05-14.13ZM449.75,93.92c6.23,0,11.36-5.09,11.36-11.32s-5.13-11.39-11.36-11.39-11.31,5.17-11.31,11.39,5.09,11.32,11.31,11.32Z"/>
      <path class="cls-1" d="M470.62,69.61c0-.39.31-.74.74-.74h15.43c.43,0,.74.35.74.74v1.14c0,.39-.31.74-.74.74h-13.16v10.73h11.24c.39,0,.74.35.74.74v1.14c0,.39-.36.74-.74.74h-11.24v10.69c0,.39-.36.74-.74.74h-1.53c-.43,0-.74-.35-.74-.74v-25.92Z"/>
      <path class="cls-1" d="M503.15,69.61c0-.39.31-.74.7-.74h8.77c7.56,0,13.74,6.14,13.74,13.66s-6.18,13.74-13.74,13.74h-8.77c-.39,0-.7-.35-.7-.74v-25.92ZM511.99,93.57c6.42,0,11.08-4.58,11.08-11.04s-4.66-11-11.08-11h-5.87v22.04h5.87Z"/>
      <path class="cls-1" d="M533.17,69.61c0-.39.31-.74.75-.74h15.42c.44,0,.75.35.75.74v1.14c0,.39-.31.74-.75.74h-13.15v9.55h11.23c.4,0,.75.35.75.74v1.14c0,.43-.35.74-.75.74h-11.23v9.98h13.15c.44,0,.75.35.75.74v1.14c0,.39-.31.74-.75.74h-15.42c-.44,0-.75-.35-.75-.74v-25.92Z"/>
      <path class="cls-1" d="M555.36,92.16c.2-.24.39-.51.59-.74.39-.51.82-.82,1.37-.35.27.23,3.13,2.97,6.62,2.97,3.16,0,5.24-2,5.24-4.31,0-2.7-2.35-4.31-6.85-6.19-4.31-1.88-6.89-3.64-6.89-8.11,0-2.66,2.12-6.97,8.34-6.97,3.84,0,6.7,2,6.7,2,.23.12.71.59.23,1.33-.15.23-.31.51-.47.74-.36.55-.74.71-1.37.35-.27-.16-2.74-1.8-5.13-1.8-4.15,0-5.4,2.66-5.4,4.31,0,2.62,1.99,4.15,5.29,5.52,5.29,2.15,8.69,4.15,8.69,8.69,0,4.07-3.88,7.04-8.46,7.04s-7.75-2.7-8.26-3.17c-.31-.27-.71-.59-.24-1.33Z"/>
      <path class="cls-1" d="M578.77,69.61c0-.39.36-.74.75-.74h1.57c.39,0,.74.35.74.74v25.92c0,.39-.35.74-.74.74h-1.57c-.39,0-.75-.35-.75-.74v-25.92Z"/>
      <path class="cls-1" d="M602.73,68.47c3.95,0,6.81,1.37,9.47,3.64.31.31.35.78.04,1.1-.36.35-.79.75-1.1,1.1-.35.39-.58.35-1.02-.04-1.99-1.76-4.81-3.05-7.44-3.05-6.19,0-10.88,5.17-10.88,11.24s4.7,11.31,10.88,11.31c4.31,0,7.05-1.64,7.05-1.64v-5.48h-4.5c-.44,0-.75-.31-.75-.7v-1.45c0-.43.31-.74.75-.74h6.77c.39,0,.71.35.71.74v8.97c0,.2-.16.51-.31.62,0,0-3.99,2.58-9.67,2.58-7.83,0-14.14-6.22-14.14-14.05s6.3-14.13,14.14-14.13Z"/>
      <path class="cls-1" d="M620.03,69.17c0-.39.35-.71.75-.71h.97l17.66,22h.08v-20.87c0-.39.31-.74.75-.74h1.37c.39,0,.74.35.74.74v26.35c0,.39-.35.7-.74.7h-.71l-17.97-22.43h-.04v21.3c0,.39-.31.74-.74.74h-1.37c-.4,0-.75-.35-.75-.74v-26.35Z"/>
    </g>
    <path class="cls-1" d="M410.31,96.63h0c-.42,0-.76-.34-.76-.76V28.33c0-.42.34-.76.76-.76h0c.42,0,.76.34.76.76v67.54c0,.42-.34.76-.76.76Z"/>
  </g>
  <g id="scuola_desig" data-name="scuola desig">
    <g>
      <path class="cls-1" d="M742.03,50.84c.19-.24.39-.51.59-.75.39-.51.82-.82,1.37-.35.27.23,3.13,2.98,6.61,2.98,3.18,0,5.24-2,5.24-4.31,0-2.7-2.34-4.3-6.85-6.18-4.31-1.88-6.89-3.64-6.89-8.11,0-2.66,2.11-6.97,8.34-6.97,3.83,0,6.7,2,6.7,2,.23.12.7.58.23,1.33-.16.23-.31.51-.47.74-.35.55-.75.71-1.37.36-.27-.16-2.74-1.81-5.13-1.81-4.15,0-5.41,2.66-5.41,4.31,0,2.62,2,4.15,5.29,5.52,5.29,2.15,8.69,4.15,8.69,8.69,0,4.07-3.88,7.04-8.46,7.04s-7.76-2.7-8.26-3.16c-.31-.27-.7-.59-.23-1.33Z"/>
      <path class="cls-1" d="M777.57,27.15c3.96,0,6.81,1.37,9.47,3.64.31.31.36.79.04,1.1l-1.05,1.06c-.31.39-.63.35-1.02-.04-2.03-1.77-4.81-2.94-7.48-2.94-6.18,0-10.92,5.21-10.92,11.28s4.74,11.23,10.92,11.23c3.41,0,5.41-1.37,7.48-2.94.4-.31.71-.27.94-.12l1.18,1.06c.31.23.23.78-.04,1.05-2.66,2.59-6.03,3.79-9.52,3.79-7.83,0-14.13-6.22-14.13-14.05s6.3-14.14,14.13-14.14Z"/>
      <path class="cls-1" d="M793.89,28.29c0-.39.36-.75.74-.75h1.53c.43,0,.74.36.74.75v11.43h15.9v-11.43c0-.39.31-.75.74-.75h1.53c.39,0,.74.36.74.75v25.92c0,.39-.35.75-.74.75h-1.53c-.43,0-.74-.36-.74-.75v-11.86h-15.9v11.86c0,.39-.31.75-.74.75h-1.53c-.39,0-.74-.36-.74-.75v-25.92Z"/>
      <path class="cls-1" d="M836.64,27.15c7.83,0,14.1,6.3,14.1,14.14s-6.26,14.05-14.1,14.05-14.05-6.22-14.05-14.05,6.22-14.14,14.05-14.14ZM836.64,52.6c6.23,0,11.35-5.09,11.35-11.31s-5.12-11.39-11.35-11.39-11.31,5.16-11.31,11.39,5.09,11.31,11.31,11.31Z"/>
      <path class="cls-1" d="M869.56,27.15c7.83,0,14.1,6.3,14.1,14.14s-6.27,14.05-14.1,14.05-14.05-6.22-14.05-14.05,6.22-14.14,14.05-14.14ZM869.56,52.6c6.23,0,11.36-5.09,11.36-11.31s-5.13-11.39-11.36-11.39-11.31,5.16-11.31,11.39,5.09,11.31,11.31,11.31Z"/>
      <path class="cls-1" d="M890.42,28.29c0-.39.31-.75.75-.75h1.53c.39,0,.74.36.74.75v24.04h11.28c.43,0,.74.36.74.75v1.14c0,.39-.31.75-.74.75h-13.55c-.43,0-.75-.36-.75-.75v-25.92Z"/>
      <path class="cls-1" d="M755.84,68.24c7.83,0,14.1,6.3,14.1,14.13s-6.27,14.06-14.1,14.06-14.05-6.23-14.05-14.06,6.22-14.13,14.05-14.13ZM755.84,93.69c6.23,0,11.36-5.09,11.36-11.32s-5.13-11.39-11.36-11.39-11.31,5.17-11.31,11.39,5.09,11.32,11.31,11.32Z"/>
      <path class="cls-1" d="M776.71,69.37c0-.39.31-.74.74-.74h15.43c.43,0,.74.35.74.74v1.14c0,.39-.31.74-.74.74h-13.16v10.73h11.24c.39,0,.74.35.74.74v1.14c0,.39-.36.74-.74.74h-11.24v10.69c0,.39-.36.74-.74.74h-1.53c-.43,0-.74-.35-.74-.74v-25.92Z"/>
      <path class="cls-1" d="M809.24,69.37c0-.39.31-.74.7-.74h8.77c7.56,0,13.74,6.14,13.74,13.66s-6.18,13.74-13.74,13.74h-8.77c-.39,0-.7-.35-.7-.74v-25.92ZM818.08,93.33c6.42,0,11.08-4.58,11.08-11.04s-4.66-11-11.08-11h-5.87v22.04h5.87Z"/>
      <path class="cls-1" d="M839.26,69.37c0-.39.31-.74.75-.74h15.42c.44,0,.75.35.75.74v1.14c0,.39-.31.74-.75.74h-13.15v9.56h11.23c.4,0,.75.36.75.74v1.14c0,.44-.35.75-.75.75h-11.23v9.99h13.15c.44,0,.75.35.75.74v1.14c0,.39-.31.74-.75.74h-15.42c-.44,0-.75-.35-.75-.74v-25.92Z"/>
      <path class="cls-1" d="M861.46,91.92c.2-.23.39-.51.59-.74.39-.51.82-.82,1.37-.36.27.23,3.13,2.97,6.62,2.97,3.16,0,5.24-1.99,5.24-4.3,0-2.7-2.35-4.31-6.85-6.19-4.31-1.88-6.89-3.64-6.89-8.11,0-2.66,2.12-6.97,8.34-6.97,3.84,0,6.7,2,6.7,2,.23.12.71.59.23,1.33-.15.23-.31.51-.47.75-.36.55-.74.71-1.37.35-.27-.15-2.74-1.8-5.13-1.8-4.15,0-5.4,2.66-5.4,4.3,0,2.63,1.99,4.15,5.29,5.52,5.29,2.16,8.69,4.15,8.69,8.69,0,4.07-3.88,7.05-8.46,7.05s-7.75-2.7-8.26-3.18c-.31-.27-.71-.59-.24-1.33Z"/>
      <path class="cls-1" d="M884.86,69.37c0-.39.36-.74.75-.74h1.57c.39,0,.74.35.74.74v25.92c0,.39-.35.74-.74.74h-1.57c-.39,0-.75-.35-.75-.74v-25.92Z"/>
      <path class="cls-1" d="M908.82,68.24c3.95,0,6.81,1.37,9.47,3.64.31.31.35.78.04,1.1-.36.36-.79.75-1.1,1.1-.35.4-.58.36-1.02-.04-1.99-1.76-4.81-3.05-7.44-3.05-6.19,0-10.88,5.17-10.88,11.24s4.7,11.31,10.88,11.31c4.31,0,7.05-1.64,7.05-1.64v-5.48h-4.5c-.44,0-.75-.31-.75-.71v-1.45c0-.43.31-.75.75-.75h6.77c.39,0,.71.36.71.75v8.97c0,.2-.16.51-.31.62,0,0-3.99,2.59-9.67,2.59-7.83,0-14.14-6.23-14.14-14.06s6.3-14.13,14.14-14.13Z"/>
      <path class="cls-1" d="M926.12,68.94c0-.39.35-.71.75-.71h.97l17.66,22h.08v-20.87c0-.39.31-.74.75-.74h1.37c.39,0,.74.35.74.74v26.35c0,.39-.35.71-.74.71h-.71l-17.97-22.43h-.04v21.3c0,.39-.31.74-.74.74h-1.37c-.4,0-.75-.35-.75-.74v-26.35Z"/>
    </g>
    <path class="cls-1" d="M716.4,96.4h0c-.42,0-.76-.34-.76-.76V28.1c0-.42.34-.76.76-.76h0c.42,0,.76.34.76.76v67.54c0,.42-.34.76-.76.76Z"/>
  </g>
</svg>