<?xml version="1.0" encoding="UTF-8"?>
<svg id="Layer_2" data-name="Layer 2" xmlns="http://www.w3.org/2000/svg" viewBox="0 0 701.6 201.7">
  <defs>
    <style>
      .cls-1 {
        fill: #fff;
      }
    </style>
  </defs>
  <g id="Layer_1-2" data-name="Layer 1">
    <g>
      <g>
        <path class="cls-1" d="M229.9,130.9c0-.2.2-.4.4-.4h8.4c.2,0,.4.2.4.4v1.7c0,.2-.2.4-.4.4h-6.1v3.9h5.1c.2,0,.4.2.4.4v1.7c0,.2-.2.4-.4.4h-5.1v5.2c0,.2-.2.4-.4.4h-1.9c-.2,0-.4-.2-.4-.4v-13.7h0Z"/>
        <path class="cls-1" d="M250.9,130.3c4.1,0,7.5,3.3,7.5,7.5s-3.3,7.4-7.5,7.4-7.4-3.3-7.4-7.4,3.3-7.5,7.4-7.5ZM250.9,142.5c2.6,0,4.8-2.1,4.8-4.7s-2.2-4.8-4.8-4.8-4.7,2.2-4.7,4.8,2.1,4.7,4.7,4.7Z"/>
        <path class="cls-1" d="M263.8,130.9c0-.2.2-.4.4-.4h2c.2,0,.4.2.4.4v8.5c0,1.8,1.2,3.1,3,3.1s3-1.4,3-3.1v-8.5c0-.2.2-.4.4-.4h2c.2,0,.4.2.4.4v8.6c0,3.1-2.5,5.7-5.8,5.7s-5.8-2.5-5.8-5.7v-8.6h0Z"/>
        <path class="cls-1" d="M281.8,130.6c0-.2.2-.4.4-.4h.5l8.6,9.1h0v-8.5c0-.2.2-.4.4-.4h1.9c.2,0,.4.2.4.4v13.9c0,.2-.2.4-.4.4h-.5l-8.7-9.5h0v8.9c0,.2-.2.4-.4.4h-1.9c-.2,0-.4-.2-.4-.4v-13.9h.1Z"/>
        <path class="cls-1" d="M300.7,130.9c0-.2.2-.4.4-.4h4.9c4,0,7.3,3.3,7.3,7.2s-3.3,7.3-7.3,7.3h-4.9c-.2,0-.4-.2-.4-.4v-13.7h0ZM305.7,142.4c2.7,0,4.7-2,4.7-4.7s-2-4.7-4.7-4.7h-2.4v9.5h2.4v-.1Z"/>
        <path class="cls-1" d="M318.9,130.9c0-.2.2-.4.4-.4h8.4c.2,0,.4.2.4.4v1.7c0,.2-.2.4-.4.4h-6.1v3.4h5.1c.2,0,.4.2.4.4v1.7c0,.2-.2.4-.4.4h-5.1v3.6h6.1c.2,0,.4.2.4.4v1.7c0,.2-.2.4-.4.4h-8.4c-.2,0-.4-.2-.4-.4v-13.7h0Z"/>
        <path class="cls-1" d="M334,130.9c0-.2.2-.4.4-.4h4.9c4,0,7.3,3.3,7.3,7.2s-3.3,7.3-7.3,7.3h-4.9c-.2,0-.4-.2-.4-.4v-13.7h0ZM339,142.4c2.7,0,4.7-2,4.7-4.7s-2-4.7-4.7-4.7h-2.4v9.5h2.4v-.1Z"/>
        <path class="cls-1" d="M359.6,130.9c0-.2.2-.4.4-.4h4.7c2.5,0,4.4,1.7,4.4,3.8s-1.3,2.8-2.3,3.3c1.1.4,2.7,1.5,2.7,3.4s-2,4-4.5,4h-5c-.2,0-.4-.2-.4-.4v-13.7h0ZM364.5,136.5c1.1,0,1.8-.8,1.8-1.9s-.7-1.8-1.8-1.8h-2.2v3.6h2.2v.1ZM364.8,142.5c1,0,1.9-.8,1.9-1.9s-1-1.8-2.1-1.8h-2.3v3.7h2.5Z"/>
        <path class="cls-1" d="M378,138l-4.7-6.9c-.2-.3,0-.6.3-.6h2.1c.2,0,.3.1.3.2l3.3,4.8,3.3-4.8s.2-.2.3-.2h2.1c.3,0,.5.3.3.6l-4.8,6.9v6.6c0,.2-.2.4-.4.4h-1.9c-.2,0-.4-.2-.4-.4v-6.6h.2Z"/>
        <path class="cls-1" d="M397.7,130.9c0-.2.2-.4.4-.4h4.9c2.5,0,4.6,2.1,4.6,4.6s-2.1,4.7-4.6,4.7h-2.6v4.9c0,.2-.2.4-.4.4h-1.9c-.2,0-.4-.2-.4-.4v-13.7h0v-.1ZM402.8,137.2c1.2,0,2.1-.9,2.1-2.2s-1-2-2.1-2h-2.4v4.2h2.4Z"/>
        <path class="cls-1" d="M419.3,130.3c4.1,0,7.5,3.3,7.5,7.5s-3.3,7.4-7.5,7.4-7.4-3.3-7.4-7.4,3.3-7.5,7.4-7.5ZM419.3,142.5c2.6,0,4.8-2.1,4.8-4.7s-2.2-4.8-4.8-4.8-4.7,2.2-4.7,4.8,2.1,4.7,4.7,4.7Z"/>
        <path class="cls-1" d="M432.3,130.9c0-.2.2-.4.4-.4h1.9c.2,0,.4.2.4.4v11.6h5.3c.2,0,.4.2.4.4v1.7c0,.2-.2.4-.4.4h-7.6c-.2,0-.4-.2-.4-.4v-13.7h0Z"/>
        <path class="cls-1" d="M445.7,130.9c0-.2.2-.4.4-.4h1.9c.2,0,.4.2.4.4v13.7c0,.2-.2.4-.4.4h-1.9c-.2,0-.4-.2-.4-.4v-13.7Z"/>
        <path class="cls-1" d="M457,133h-3.2c-.2,0-.4-.2-.4-.4v-1.7c0-.2.2-.4.4-.4h9c.2,0,.4.2.4.4v1.7c0,.2-.2.4-.4.4h-3.2v11.6c0,.2-.2.4-.4.4h-1.9c-.2,0-.4-.2-.4-.4v-11.6h.1Z"/>
        <path class="cls-1" d="M468.4,130.9c0-.2.2-.4.4-.4h8.4c.2,0,.4.2.4.4v1.7c0,.2-.2.4-.4.4h-6.1v3.4h5.1c.2,0,.4.2.4.4v1.7c0,.2-.2.4-.4.4h-5.1v3.6h6.1c.2,0,.4.2.4.4v1.7c0,.2-.2.4-.4.4h-8.4c-.2,0-.4-.2-.4-.4v-13.7h0Z"/>
        <path class="cls-1" d="M489.8,130.3c2.1,0,3.6.7,5,1.9.2.2.2.4,0,.6l-1.3,1.3c-.1.2-.4.2-.5,0-.9-.8-2-1.2-3.2-1.2-2.7,0-4.6,2.2-4.6,4.8s2,4.8,4.6,4.8,2.3-.5,3.2-1.2c.2-.2.4-.1.5,0l1.3,1.3c.2.1.1.4,0,.6-1.4,1.4-3.2,2-5,2-4.1,0-7.5-3.3-7.5-7.4s3.3-7.5,7.5-7.5h0Z"/>
        <path class="cls-1" d="M500.5,130.6c0-.2.2-.4.4-.4h.5l8.6,9.1h0v-8.5c0-.2.2-.4.4-.4h1.9c.2,0,.4.2.4.4v13.9c0,.2-.2.4-.4.4h-.5l-8.7-9.5h0v8.9c0,.2-.2.4-.4.4h-1.9c-.2,0-.4-.2-.4-.4v-13.9h.1Z"/>
        <path class="cls-1" d="M519.4,130.9c0-.2.2-.4.4-.4h1.9c.2,0,.4.2.4.4v13.7c0,.2-.2.4-.4.4h-1.9c-.2,0-.4-.2-.4-.4v-13.7Z"/>
        <path class="cls-1" d="M535.2,130.3c2.1,0,3.6.7,5,1.9.2.2.2.4,0,.6l-1.3,1.3c-.1.2-.4.2-.5,0-.9-.8-2-1.2-3.2-1.2-2.7,0-4.6,2.2-4.6,4.8s2,4.8,4.6,4.8,2.3-.5,3.2-1.2c.2-.2.4-.1.5,0l1.3,1.3c.2.1.1.4,0,.6-1.4,1.4-3.2,2-5,2-4.1,0-7.5-3.3-7.5-7.4s3.3-7.5,7.5-7.5h0Z"/>
        <path class="cls-1" d="M552.2,130.3c4.1,0,7.5,3.3,7.5,7.5s-3.3,7.4-7.5,7.4-7.4-3.3-7.4-7.4,3.3-7.5,7.4-7.5ZM552.2,142.5c2.6,0,4.8-2.1,4.8-4.7s-2.2-4.8-4.8-4.8-4.7,2.2-4.7,4.8,2.1,4.7,4.7,4.7Z"/>
        <path class="cls-1" d="M572.7,130.9c0-.2.2-.4.4-.4h4.9c4,0,7.3,3.3,7.3,7.2s-3.3,7.3-7.3,7.3h-4.9c-.2,0-.4-.2-.4-.4v-13.7h0ZM577.7,142.4c2.7,0,4.7-2,4.7-4.7s-2-4.7-4.7-4.7h-2.4v9.5h2.4v-.1Z"/>
        <path class="cls-1" d="M590.9,130.9c0-.2.2-.4.4-.4h1.9c.2,0,.4.2.4.4v13.7c0,.2-.2.4-.4.4h-1.9c-.2,0-.4-.2-.4-.4v-13.7Z"/>
        <path class="cls-1" d="M609.3,130.6c0-.2.1-.3.4-.3h.3c.2,0,.3,0,.4.2l4.6,9.8h0l4.6-9.8c0-.1.2-.2.4-.2h.3c.2,0,.4.1.4.3l2.4,13.9c0,.3-.1.5-.4.5h-1.9c-.2,0-.4-.2-.4-.3l-1.2-7.8h0l-3.6,8.1c0,.1-.2.2-.4.2h-.4c-.2,0-.3-.1-.4-.2l-3.7-8.1h0l-1.2,7.8c0,.1-.2.3-.4.3h-1.9c-.3,0-.4-.2-.4-.5l2.5-13.9h0Z"/>
        <path class="cls-1" d="M628.8,130.9c0-.2.2-.4.4-.4h1.9c.2,0,.4.2.4.4v13.7c0,.2-.2.4-.4.4h-1.9c-.2,0-.4-.2-.4-.4v-13.7Z"/>
        <path class="cls-1" d="M638.1,130.9c0-.2.2-.4.4-.4h1.9c.2,0,.4.2.4.4v11.6h5.3c.2,0,.4.2.4.4v1.7c0,.2-.2.4-.4.4h-7.6c-.2,0-.4-.2-.4-.4v-13.7h0Z"/>
        <path class="cls-1" d="M650.3,144.4l6.4-13.9c0-.1.2-.2.4-.2h.2c.2,0,.3.1.4.2l6.4,13.9c.1.3,0,.5-.4.5h-1.8c-.3,0-.5-.1-.6-.4l-1-2.2h-6.2l-1,2.2c0,.2-.3.4-.6.4h-1.8c-.3,0-.5-.3-.4-.5h0ZM659.2,140l-2.1-4.6h0l-2,4.6h4.2-.1Z"/>
        <path class="cls-1" d="M668.8,130.6c0-.2.2-.4.4-.4h.5l8.6,9.1h0v-8.5c0-.2.2-.4.4-.4h1.9c.2,0,.4.2.4.4v13.9c0,.2-.2.4-.4.4h-.5l-8.7-9.5h0v8.9c0,.2-.2.4-.4.4h-1.9c-.2,0-.4-.2-.4-.4v-13.9h.1Z"/>
        <path class="cls-1" d="M694.1,130.3c4.1,0,7.5,3.3,7.5,7.5s-3.3,7.4-7.5,7.4-7.4-3.3-7.4-7.4,3.3-7.5,7.4-7.5ZM694.1,142.5c2.6,0,4.8-2.1,4.8-4.7s-2.2-4.8-4.8-4.8-4.7,2.2-4.7,4.8,2.1,4.7,4.7,4.7Z"/>
      </g>
      <g>
        <path class="cls-1" d="M229.7,53.9c0-.7.6-1.4,1.4-1.4h17.7c9,0,16.5,7.3,16.5,16.2s-7.4,16.5-16.4,16.5h-7.7v17.3c0,.7-.7,1.4-1.4,1.4h-8.7c-.8,0-1.4-.7-1.4-1.4v-48.6h0ZM248.2,74.5c3.2,0,5.8-2.5,5.8-5.8s-2.6-5.4-5.8-5.4h-7v11.2s7,0,7,0Z"/>
        <path class="cls-1" d="M299.3,51.7c14.7,0,26.5,11.8,26.5,26.5s-11.8,26.4-26.5,26.4-26.4-11.7-26.4-26.4,11.7-26.5,26.4-26.5ZM299.3,92.9c8.1,0,14.7-6.6,14.7-14.6s-6.6-14.8-14.7-14.8-14.6,6.7-14.6,14.8,6.6,14.6,14.6,14.6Z"/>
        <path class="cls-1" d="M338.3,53.9c0-.7.6-1.4,1.4-1.4h8.7c.7,0,1.4.7,1.4,1.4v39.2h17.5c.8,0,1.4.7,1.4,1.4v8c0,.7-.6,1.4-1.4,1.4h-27.6c-.8,0-1.4-.7-1.4-1.4v-48.6h0Z"/>
        <path class="cls-1" d="M379.6,53.9c0-.7.7-1.4,1.4-1.4h8.8c.7,0,1.4.7,1.4,1.4v48.6c0,.7-.7,1.4-1.4,1.4h-8.8c-.7,0-1.4-.7-1.4-1.4v-48.6Z"/>
        <path class="cls-1" d="M409,90.7c3.8,0,7.1,3.2,7.1,7.1s-3.2,6.9-7.1,6.9-6.9-3.2-6.9-6.9,3.2-7.1,6.9-7.1Z"/>
        <path class="cls-1" d="M429.2,53.9c0-.7.6-1.4,1.3-1.4h16.5c14.2,0,25.8,11.5,25.8,25.6s-11.6,25.8-25.8,25.8h-16.5c-.7,0-1.3-.7-1.3-1.4,0,0,0-48.6,0-48.6ZM445.8,98.8c12.1,0,20.8-8.6,20.8-20.7s-8.7-20.6-20.8-20.6h-11v41.4h11v-.1Z"/>
        <path class="cls-1" d="M487.8,53.9c0-.7.6-1.4,1.4-1.4h29c.8,0,1.4.7,1.4,1.4v2.1c0,.7-.6,1.4-1.4,1.4h-24.7v17.9h21.1c.7,0,1.4.7,1.4,1.4v2.1c0,.8-.7,1.4-1.4,1.4h-21.1v18.7h24.7c.8,0,1.4.7,1.4,1.4v2.1c0,.7-.6,1.4-1.4,1.4h-29c-.8,0-1.4-.7-1.4-1.4v-48.6h0v.1Z"/>
        <path class="cls-1" d="M531.7,96.2c.4-.4.7-1,1.1-1.4.7-1,1.5-1.5,2.6-.7.5.4,5.9,5.6,12.4,5.6s9.8-3.7,9.8-8.1-4.4-8.1-12.9-11.6c-8.1-3.5-12.9-6.8-12.9-15.2s4-13.1,15.7-13.1,12.6,3.7,12.6,3.7c.4.2,1.3,1.1.4,2.5-.3.4-.6,1-.9,1.4-.7,1-1.4,1.3-2.6.7-.5-.3-5.1-3.4-9.6-3.4-7.8,0-10.1,5-10.1,8.1,0,4.9,3.7,7.8,9.9,10.4,9.9,4,16.3,7.8,16.3,16.3s-7.3,13.2-15.9,13.2-14.6-5.1-15.5-5.9c-.6-.5-1.3-1.1-.4-2.5h0Z"/>
        <path class="cls-1" d="M577.8,53.9c0-.7.7-1.4,1.4-1.4h2.9c.7,0,1.4.7,1.4,1.4v48.6c0,.7-.7,1.4-1.4,1.4h-2.9c-.7,0-1.4-.7-1.4-1.4v-48.6Z"/>
        <path class="cls-1" d="M625,51.7c7.4,0,12.8,2.6,17.8,6.8.6.6.7,1.5,0,2.1-.7.7-1.5,1.4-2.1,2.1-.7.7-1.1.7-1.9,0-3.7-3.3-9-5.7-14-5.7-11.6,0-20.4,9.7-20.4,21.1s8.8,21.2,20.4,21.2,13.2-3.1,13.2-3.1v-10.3h-8.4c-.8,0-1.4-.6-1.4-1.3v-2.7c0-.8.6-1.4,1.4-1.4h12.7c.7,0,1.3.7,1.3,1.4v16.8c0,.4-.3,1-.6,1.2,0,0-7.5,4.9-18.2,4.9s-26.5-11.7-26.5-26.4,11.8-26.5,26.5-26.5h0l.2-.2Z"/>
        <path class="cls-1" d="M659.6,53.1c0-.7.7-1.3,1.4-1.3h1.8l33.1,41.3h.2v-39.2c0-.7.6-1.4,1.4-1.4h2.6c.7,0,1.4.7,1.4,1.4v49.4c0,.7-.7,1.3-1.4,1.3h-1.3l-33.7-42.1h0v40c0,.7-.6,1.4-1.4,1.4h-2.6c-.7,0-1.4-.7-1.4-1.4v-49.4h-.1Z"/>
      </g>
      <g>
        <path class="cls-1" d="M61.9,25.1c2.1,4.2,4.6,9.2,7.2,14.5,2.7,5.3,5.5,10.9,8.4,16.5s5.8,11.2,8.5,16.5c2.7,5.2,5.3,10.1,7.5,14.3,2.2,4.2,4.1,7.7,5.3,10.1,0,.2.2.4.3.5h.1c0-.2-.2-.3-.3-.5-1.2-2.5-3-6-5-10.3-2.1-4.2-4.6-9.2-7.2-14.5-2.7-5.3-5.5-10.9-8.4-16.5s-5.8-11.2-8.5-16.5c-2.7-5.2-5.3-10.1-7.5-14.3s-4.1-7.7-5.3-10.1c-1.3-2.4-2.1-3.8-2.1-3.8,0,0,.7,1.4,1.9,3.9s3,6,5,10.3h0l.1-.1Z"/>
        <path class="cls-1" d="M65.9,23.2c1.9,4.3,4.1,9.4,6.4,14.8,2.4,5.4,4.9,11.2,7.5,17,2.6,5.8,5.2,11.5,7.6,16.9,2.5,5.4,4.7,10.4,6.7,14.7,2,4.3,3.7,7.9,4.8,10.4,0,.2.2.4.2.5h.2c0-.2-.2-.3-.2-.5-1.1-2.5-2.6-6.2-4.5-10.5s-4.1-9.4-6.4-14.8c-2.4-5.4-4.9-11.2-7.5-17-2.6-5.8-5.2-11.5-7.6-16.9-2.5-5.4-4.7-10.4-6.7-14.7s-3.7-7.9-4.8-10.4c-1.2-2.5-1.8-3.9-1.8-3.9,0,0,.6,1.4,1.7,4,1.1,2.5,2.6,6.2,4.5,10.5h0l-.1-.1Z"/>
        <path class="cls-1" d="M58,27.2c2.3,4.1,5,8.9,8,14.1,2.9,5.1,6.1,10.6,9.2,16.1,3.2,5.5,6.3,10.9,9.3,16s5.8,9.8,8.2,13.9,4.5,7.4,5.9,9.8c.1.2.2.3.3.5h.1c0-.2-.2-.3-.3-.5-1.3-2.4-3.3-5.9-5.6-10s-5-8.9-8-14.1c-2.9-5.1-6.1-10.6-9.2-16.1-3.2-5.5-6.3-10.9-9.3-16s-5.8-9.8-8.2-13.9c-2.4-4.1-4.5-7.4-5.9-9.8-1.4-2.4-2.3-3.7-2.3-3.7,0,0,.8,1.4,2.1,3.8,1.3,2.4,3.3,5.9,5.6,10h0l.1-.1Z"/>
        <path class="cls-1" d="M50.5,32.1c2.7,3.9,5.9,8.4,9.4,13.2s7.1,9.9,10.8,15c3.7,5.1,7.5,10.2,10.9,15,3.5,4.8,6.8,9.2,9.6,13s5.2,6.9,6.9,9.1c.1.2.2.3.4.5l.1-.1c-.1-.2-.2-.3-.3-.5-1.6-2.3-3.9-5.5-6.6-9.4-2.7-3.9-5.9-8.4-9.4-13.2-3.5-4.8-7.1-9.9-10.8-15s-7.5-10.2-10.9-15c-3.5-4.8-6.8-9.2-9.6-13s-5.2-6.9-6.9-9.1c-1.7-2.2-2.6-3.5-2.6-3.5,0,0,.9,1.3,2.5,3.6s3.9,5.5,6.6,9.4h-.1Z"/>
        <path class="cls-1" d="M47,34.8c2.9,3.7,6.4,8,10.1,12.7,3.7,4.6,7.7,9.5,11.6,14.4,4,4.9,8,9.8,11.7,14.4,3.8,4.6,7.3,8.8,10.3,12.5,3,3.6,5.6,6.7,7.3,8.8.1.2.3.3.4.5l.1-.1c-.1-.2-.2-.3-.4-.5-1.7-2.2-4.1-5.3-7.1-9-2.9-3.7-6.4-8-10.1-12.7-3.7-4.6-7.7-9.5-11.6-14.4-4-4.9-8-9.8-11.7-14.4-3.8-4.6-7.3-8.8-10.3-12.5-3-3.6-5.6-6.7-7.3-8.8-1.8-2.1-2.8-3.3-2.8-3.3,0,0,1,1.2,2.7,3.4s4.1,5.3,7.1,9h0Z"/>
        <path class="cls-1" d="M70,21.4c1.7,4.4,3.6,9.6,5.7,15.1,2.1,5.5,4.3,11.4,6.6,17.3s4.6,11.8,6.7,17.3c2.2,5.5,4.2,10.6,5.9,15,1.8,4.4,3.2,8.1,4.3,10.6,0,.2.2.4.2.5h.2c0-.2-.1-.4-.2-.6-.9-2.6-2.3-6.3-3.9-10.7-1.7-4.4-3.6-9.6-5.7-15.1-2.1-5.5-4.3-11.4-6.6-17.3-2.3-5.9-4.6-11.8-6.7-17.3-2.2-5.5-4.2-10.6-5.9-15-1.8-4.4-3.2-8.1-4.3-10.6-1-2.6-1.6-4-1.6-4,0,0,.5,1.5,1.5,4.1.9,2.6,2.3,6.3,3.9,10.7h-.1Z"/>
        <path class="cls-1" d="M43.6,37.7c3.1,3.5,6.8,7.7,10.7,12.1s8.1,9.1,12.3,13.8c4.2,4.7,8.5,9.3,12.4,13.7,4,4.4,7.7,8.4,10.9,11.9s5.9,6.4,7.8,8.4c.1.2.3.3.4.4l.1-.1c-.1-.2-.3-.3-.4-.5-1.8-2.1-4.4-5-7.5-8.6-3.1-3.5-6.8-7.7-10.7-12.1s-8.1-9.1-12.4-13.8c-4.2-4.7-8.5-9.3-12.4-13.7-4-4.4-7.7-8.4-10.9-11.9s-5.9-6.4-7.8-8.4c-1.9-2-3-3.2-3-3.2,0,0,1,1.2,2.8,3.3s4.4,5,7.5,8.6h0l.2.1Z"/>
        <path class="cls-1" d="M54.2,29.6c2.5,4,5.5,8.7,8.7,13.6,3.2,5,6.6,10.3,10,15.6,3.5,5.3,6.9,10.6,10.1,15.5,3.3,4.9,6.3,9.5,8.9,13.5,2.6,3.9,4.8,7.2,6.4,9.5.1.2.2.3.3.5h.1c-.1-.2-.2-.3-.3-.5-1.5-2.3-3.6-5.7-6.1-9.7s-5.5-8.7-8.7-13.6c-3.2-5-6.6-10.3-10-15.6-3.5-5.3-6.9-10.6-10.1-15.5-3.3-4.9-6.3-9.5-8.9-13.5-2.6-3.9-4.8-7.2-6.4-9.5-1.6-2.3-2.4-3.6-2.4-3.6,0,0,.8,1.3,2.3,3.7,1.5,2.3,3.6,5.7,6.1,9.7v-.1Z"/>
        <path class="cls-1" d="M91.6,16.2c.5,4.7,1,10.2,1.5,16.1.6,5.9,1.2,12.2,1.9,18.4.7,6.3,1.4,12.5,2,18.4.7,5.9,1.3,11.4,1.8,16.1.6,4.7,1,8.6,1.4,11.3v.6h.2v-.6c-.2-2.7-.6-6.7-1-11.4-.5-4.7-1-10.2-1.5-16.1-.6-5.9-1.2-12.2-1.9-18.4-.7-6.3-1.4-12.5-2-18.4-.7-5.9-1.3-11.4-1.8-16.1-.6-4.7-1-8.6-1.4-11.3-.3-2.7-.5-4.3-.5-4.3,0,0,.1,1.6.4,4.3.2,2.7.6,6.7,1,11.4h-.1Z"/>
        <path class="cls-1" d="M96.1,15.8c.2,4.7.4,10.2.7,16.1s.6,12.2.9,18.5c.4,6.3.7,12.6,1,18.5.4,5.9.7,11.4,1,16.1s.6,8.7.8,11.4v.6h.2v-.6c0-2.8-.2-6.7-.4-11.4-.2-4.7-.4-10.2-.7-16.1s-.6-12.2-.9-18.5c-.4-6.3-.7-12.6-1-18.5-.4-5.9-.7-11.4-1-16.1s-.6-8.7-.8-11.4c-.2-2.7-.3-4.3-.3-4.3,0,0,0,1.6.1,4.3,0,2.8.2,6.7.4,11.4h0Z"/>
        <path class="cls-1" d="M87.2,16.8c.7,4.7,1.5,10.1,2.4,16,.9,5.8,1.9,12.1,2.8,18.3,1,6.2,2,12.5,3,18.3,1,5.8,1.9,11.3,2.7,15.9.8,4.7,1.5,8.5,2,11.3,0,.2,0,.4.1.6h.2v-.6c-.4-2.7-.9-6.6-1.6-11.3-.7-4.7-1.5-10.1-2.4-16-.9-5.8-1.9-12.1-2.8-18.3-1-6.2-2-12.5-3-18.3s-1.9-11.3-2.7-15.9c-.8-4.7-1.5-8.5-2-11.3-.5-2.7-.8-4.3-.8-4.3,0,0,.2,1.6.6,4.3.4,2.7.9,6.6,1.6,11.3h-.1Z"/>
        <path class="cls-1" d="M82.8,17.6c.9,4.6,2,10,3.2,15.8,1.2,5.8,2.5,12,3.8,18.1,1.3,6.2,2.7,12.3,3.9,18.1,1.3,5.8,2.5,11.2,3.5,15.8,1.1,4.6,1.9,8.5,2.6,11.1,0,.2,0,.4.1.6h.2c0-.2,0-.4-.1-.6-.5-2.7-1.3-6.6-2.2-11.2s-2-10-3.2-15.8-2.5-12-3.8-18.1c-1.3-6.2-2.7-12.3-3.9-18.1-1.3-5.8-2.5-11.2-3.5-15.8-1.1-4.6-1.9-8.5-2.6-11.1-.6-2.7-1-4.2-1-4.2,0,0,.3,1.5.8,4.3.5,2.7,1.3,6.6,2.2,11.2h0v-.1Z"/>
        <path class="cls-1" d="M74.2,19.9c1.4,4.5,3.1,9.8,4.9,15.4,1.8,5.6,3.7,11.6,5.7,17.6s3.9,12,5.8,17.6c1.9,5.6,3.6,10.8,5.1,15.3s2.8,8.2,3.7,10.8c0,.2.1.4.2.6h.2c0-.2-.1-.4-.2-.6-.8-2.6-2-6.4-3.4-10.9s-3.1-9.8-4.9-15.4c-1.8-5.6-3.7-11.6-5.7-17.6s-3.9-12-5.8-17.6c-1.9-5.6-3.6-10.8-5.1-15.3s-2.8-8.2-3.7-10.8c-.9-2.6-1.4-4.1-1.4-4.1,0,0,.5,1.5,1.2,4.2.8,2.6,2,6.4,3.4,10.9h0v-.1Z"/>
        <path class="cls-1" d="M78.5,18.7c1.2,4.6,2.6,9.9,4,15.7,1.5,5.7,3.1,11.8,4.7,17.9,1.7,6.1,3.3,12.2,4.9,17.9,1.6,5.7,3.1,11,4.3,15.6,1.3,4.6,2.4,8.3,3.1,11,0,.2.1.4.2.6h.2c0-.2,0-.4-.1-.6-.7-2.7-1.6-6.5-2.8-11.1s-2.6-9.9-4-15.7c-1.5-5.7-3.1-11.8-4.7-17.9-1.7-6.1-3.3-12.2-4.9-17.9-1.6-5.7-3.1-11-4.3-15.6-1.3-4.6-2.4-8.3-3.1-11-.8-2.7-1.2-4.2-1.2-4.2,0,0,.4,1.5,1,4.2.7,2.7,1.6,6.5,2.8,11.1h-.1Z"/>
        <path class="cls-1" d="M17.5,83.4c4.6,1,10,2.2,15.8,3.5,5.8,1.2,11.9,2.6,18.1,3.9,6.2,1.3,12.3,2.6,18.1,3.8,5.8,1.2,11.2,2.3,15.8,3.2,4.6.9,8.5,1.7,11.2,2.2.2,0,.4,0,.6.1v-.2c-.2,0-.4,0-.6-.1-2.7-.6-6.5-1.5-11.1-2.6-4.6-1-10-2.2-15.8-3.5-5.8-1.2-11.9-2.6-18.1-3.9-6.2-1.3-12.3-2.6-18.1-3.8-5.8-1.2-11.2-2.3-15.8-3.2-4.6-.9-8.5-1.7-11.2-2.2s-4.3-.8-4.3-.8c0,0,1.5.4,4.2,1s6.5,1.5,11.1,2.6h.1Z"/>
        <path class="cls-1" d="M19.7,74.8c4.5,1.5,9.7,3.3,15.3,5.1,5.6,1.8,11.6,3.8,17.6,5.8,6,1.9,12,3.9,17.6,5.7,5.6,1.8,10.9,3.4,15.4,4.9,4.5,1.4,8.3,2.6,10.9,3.4.2,0,.4.1.6.2v-.2c-.2,0-.4-.1-.6-.2-2.6-.9-6.3-2.2-10.8-3.7s-9.7-3.3-15.3-5.1c-5.6-1.8-11.6-3.8-17.6-5.8-6-1.9-12-3.9-17.6-5.7-5.6-1.8-10.9-3.4-15.4-4.9-4.5-1.4-8.3-2.6-10.9-3.4-2.6-.8-4.2-1.2-4.2-1.2,0,0,1.5.5,4.1,1.4s6.3,2.2,10.8,3.7h.1Z"/>
        <path class="cls-1" d="M18.5,79.1c4.6,1.3,9.9,2.7,15.6,4.3,5.7,1.5,11.8,3.2,17.9,4.9,6.1,1.6,12.2,3.2,17.9,4.7s11.1,2.9,15.7,4c4.6,1.1,8.4,2.1,11.1,2.8.2,0,.4,0,.6.1v-.2c-.2,0-.4-.1-.6-.2-2.7-.8-6.4-1.8-11-3.1-4.6-1.3-9.9-2.7-15.6-4.3-5.7-1.5-11.8-3.2-17.9-4.9-6.1-1.6-12.2-3.2-17.9-4.7s-11.1-2.9-15.7-4c-4.6-1.1-8.4-2.1-11.1-2.8-2.7-.7-4.2-1-4.2-1,0,0,1.5.4,4.2,1.2,2.7.8,6.4,1.8,11,3.1h0v.1Z"/>
        <path class="cls-1" d="M21.2,70.6c4.4,1.7,9.5,3.8,15,5.9s11.4,4.4,17.3,6.7c5.9,2.2,11.8,4.5,17.3,6.6s10.7,4,15.1,5.7c4.4,1.6,8.1,3,10.7,3.9.2,0,.4.1.6.2v-.2c-.2,0-.4-.1-.5-.2-2.6-1-6.2-2.5-10.6-4.3-4.4-1.7-9.5-3.8-15-5.9s-11.4-4.4-17.3-6.7c-5.9-2.2-11.8-4.5-17.3-6.6s-10.7-4-15.1-5.7c-4.4-1.6-8.1-3-10.7-3.9-2.6-.9-4.1-1.5-4.1-1.5,0,0,1.5.6,4,1.6,2.6,1,6.2,2.5,10.6,4.3h0v.1Z"/>
        <path class="cls-1" d="M16.1,92.2c4.7.5,10.2,1.2,16.1,1.8,5.9.6,12.2,1.3,18.4,2,6.3.6,12.5,1.3,18.4,1.9s11.4,1.1,16.1,1.5c4.7.4,8.6.8,11.4,1h.6v-.2h-.6c-2.7-.3-6.7-.8-11.3-1.4-4.7-.5-10.2-1.2-16.1-1.8-5.9-.6-12.2-1.3-18.4-2-6.3-.6-12.5-1.3-18.4-1.9s-11.4-1.1-16.1-1.5c-4.7-.4-8.6-.8-11.4-1-2.7-.2-4.3-.4-4.3-.4,0,0,1.6.2,4.3.5s6.7.8,11.3,1.4h0v.1Z"/>
        <path class="cls-1" d="M22.9,66.5c4.3,2,9.3,4.3,14.7,6.7,5.4,2.4,11.1,5,16.9,7.6,5.8,2.5,11.5,5.1,17,7.5,5.4,2.4,10.5,4.6,14.8,6.4,4.3,1.9,8,3.4,10.5,4.5.2,0,.4.2.5.2v-.1c-.2,0-.4-.2-.5-.3-2.5-1.2-6.1-2.8-10.4-4.8-4.3-2-9.3-4.3-14.7-6.7-5.4-2.4-11.1-5-16.9-7.6-5.8-2.5-11.5-5.1-17-7.5-5.4-2.4-10.5-4.6-14.8-6.4-4.3-1.9-8-3.4-10.5-4.5s-4-1.7-4-1.7c0,0,1.4.7,3.9,1.8,2.5,1.2,6.1,2.8,10.4,4.8l.1.1Z"/>
        <path class="cls-1" d="M100.5,85.1c0,4.7.1,8.7.2,11.4v.6h.1v-.6c0-2.8.1-6.7.2-11.4,0-4.7,0-10.3.2-16.2V31.9c0-5.9-.1-11.4-.2-16.2,0-4.7-.1-8.7-.2-11.4V0v4.3c0,2.8-.1,6.7-.2,11.4,0,4.7,0,10.3-.2,16.2v37c0,5.9.1,11.4.2,16.2h-.1Z"/>
        <path class="cls-1" d="M40.4,40.8c3.3,3.4,7.2,7.3,11.3,11.5,4.2,4.2,8.6,8.7,13.1,13.2,4.5,4.4,9,8.9,13.2,13.1,4.2,4.1,8.2,8,11.5,11.3,3.4,3.3,6.2,6,8.2,8,.2.2.3.3.4.4l.1-.1c-.1-.1-.3-.3-.4-.4-1.9-2-4.7-4.8-8-8.2-3.3-3.4-7.2-7.3-11.3-11.5-4.2-4.2-8.6-8.7-13.1-13.2-4.5-4.4-9-8.9-13.2-13.1-4.2-4.1-8.2-8-11.5-11.3-3.4-3.3-6.2-6-8.2-8-2-1.9-3.1-3-3.1-3,0,0,1.1,1.1,3,3.1s4.7,4.8,8,8.2h0Z"/>
        <path class="cls-1" d="M16.7,87.8c4.7.8,10.1,1.7,15.9,2.7,5.8.9,12.1,2,18.3,3s12.5,1.9,18.3,2.8c5.9.9,11.3,1.7,16,2.4,4.7.7,8.6,1.2,11.3,1.6h.6v-.2c-.2,0-.4,0-.6-.1-2.7-.5-6.6-1.1-11.3-2-4.7-.8-10.1-1.7-15.9-2.7-5.8-.9-12.1-2-18.3-3s-12.5-1.9-18.3-2.8c-5.9-.9-11.3-1.7-16-2.4-4.7-.7-8.6-1.2-11.3-1.6s-4.3-.6-4.3-.6c0,0,1.6.3,4.3.8s6.6,1.1,11.3,2h0v.1Z"/>
        <path class="cls-1" d="M34.5,47.5c3.7,3,7.9,6.5,12.5,10.3,4.6,3.7,9.5,7.7,14.4,11.7s9.8,7.9,14.4,11.6c4.6,3.7,9,7.1,12.7,10.1,3.7,2.9,6.8,5.4,9,7.1.2.1.3.2.5.4l.1-.1c-.2-.1-.3-.3-.5-.4-2.1-1.8-5.1-4.3-8.8-7.3s-7.9-6.5-12.5-10.3c-4.6-3.7-9.5-7.7-14.4-11.7s-9.8-7.9-14.4-11.6c-4.6-3.7-9-7.1-12.7-10.1-3.7-2.9-6.8-5.4-9-7.1-2.2-1.7-3.4-2.7-3.4-2.7,0,0,1.2,1,3.3,2.8s5.1,4.3,8.8,7.3h0Z"/>
        <path class="cls-1" d="M37.3,44.1c3.5,3.2,7.6,6.9,11.9,10.9,4.4,4,9,8.2,13.7,12.4,4.7,4.2,9.4,8.4,13.8,12.3,4.4,3.9,8.6,7.6,12.1,10.7,3.6,3.1,6.5,5.7,8.6,7.5.2.1.3.3.5.4v-.1c-.1-.1-.3-.3-.4-.4-2-1.9-4.9-4.6-8.4-7.8-3.5-3.2-7.6-6.9-11.9-10.9-4.4-4-9-8.2-13.7-12.4-4.7-4.2-9.4-8.4-13.8-12.3-4.4-3.9-8.6-7.6-12.1-10.7-3.6-3.1-6.5-5.7-8.6-7.5s-3.3-2.8-3.3-2.8c0,0,1.1,1.1,3.2,3,2,1.9,4.9,4.6,8.4,7.8h0v-.1Z"/>
        <path class="cls-1" d="M31.8,51c3.8,2.8,8.2,6.1,13,9.6s9.9,7.2,15,10.9c5.1,3.7,10.2,7.4,15,10.8s9.3,6.6,13.2,9.4c3.9,2.7,7.1,5,9.4,6.6.2.1.3.2.5.3l.1-.1c-.2-.1-.3-.2-.5-.4-2.2-1.7-5.4-4-9.1-6.9-3.8-2.8-8.2-6.1-13-9.6s-9.9-7.2-15-10.9c-5.1-3.7-10.2-7.4-15-10.8s-9.3-6.6-13.2-9.4c-3.9-2.7-7.1-5-9.4-6.6-2.3-1.6-3.6-2.5-3.6-2.5,0,0,1.3,1,3.5,2.6,2.2,1.7,5.4,4,9.1,6.9h0v.1Z"/>
        <path class="cls-1" d="M26.9,58.5c4.1,2.4,8.8,5.2,13.9,8.2,5.1,3,10.6,6.2,16,9.3,5.5,3.1,11,6.3,16.1,9.2,5.2,2.9,10,5.6,14.1,8,4.1,2.3,7.6,4.2,10,5.6.2.1.4.2.5.3v-.1c-.2-.1-.3-.2-.5-.3-2.4-1.4-5.8-3.4-9.8-5.9-4.1-2.4-8.8-5.2-13.9-8.2-5.1-3-10.6-6.2-16-9.3-5.5-3.1-11-6.3-16.1-9.2-5.1-2.9-10-5.6-14.1-8-4.1-2.3-7.6-4.2-10-5.6-2.4-1.3-3.8-2.1-3.8-2.1,0,0,1.4.8,3.7,2.3,2.4,1.4,5.8,3.4,9.8,5.9h0l.1-.1Z"/>
        <path class="cls-1" d="M24.8,62.4c4.2,2.2,9.1,4.7,14.3,7.5,5.3,2.7,10.9,5.6,16.5,8.5,5.6,2.8,11.3,5.7,16.5,8.4,5.3,2.6,10.2,5.1,14.5,7.2s7.8,3.8,10.3,5c.2,0,.4.2.5.3v-.1c-.2,0-.3-.2-.5-.3-2.4-1.3-5.9-3.1-10.1-5.3-4.2-2.2-9.1-4.7-14.3-7.5-5.3-2.7-10.9-5.6-16.5-8.5-5.6-2.8-11.3-5.7-16.5-8.4-5.3-2.6-10.2-5.1-14.5-7.2s-7.8-3.8-10.3-5-3.9-1.9-3.9-1.9c0,0,1.4.7,3.8,2.1,2.4,1.3,5.9,3.1,10.1,5.3h0l.1-.1Z"/>
        <path class="cls-1" d="M29.2,54.7c3.9,2.6,8.5,5.7,13.5,8.9,4.9,3.2,10.2,6.7,15.5,10.1s10.6,6.8,15.6,10,9.6,6.1,13.6,8.7c4,2.5,7.3,4.6,9.7,6.1.2.1.3.2.5.3v-.1c-.2-.1-.3-.2-.5-.3-2.3-1.5-5.6-3.7-9.5-6.4-3.9-2.6-8.5-5.7-13.5-8.9-4.9-3.2-10.2-6.7-15.5-10.1s-10.6-6.8-15.6-10-9.6-6.1-13.6-8.7c-4-2.5-7.3-4.6-9.7-6.1-2.4-1.4-3.7-2.3-3.7-2.3,0,0,1.3.9,3.6,2.4s5.6,3.7,9.5,6.4h.1Z"/>
        <path class="cls-1" d="M174.4,58c-4.1,2.3-8.9,5-14.1,8-5.1,2.9-10.6,6.1-16.1,9.2-5.5,3.2-10.9,6.3-16,9.3s-9.8,5.8-13.9,8.2c-4.1,2.4-7.4,4.5-9.8,5.9-.2.1-.4.2-.5.3v.1c.2,0,.4-.2.5-.3,2.4-1.3,5.9-3.3,10-5.6,4.1-2.3,8.9-5,14.1-8,5.1-2.9,10.6-6.1,16.1-9.2,5.5-3.2,10.9-6.3,16-9.3s9.8-5.8,13.9-8.2c4.1-2.4,7.4-4.5,9.8-5.9,2.4-1.4,3.7-2.3,3.7-2.3,0,0-1.4.8-3.8,2.1s-5.9,3.3-10,5.6h0l.1.1Z"/>
        <path class="cls-1" d="M178.5,66c-4.3,1.9-9.4,4.1-14.8,6.4-5.4,2.4-11.2,4.9-17,7.5s-11.5,5.2-16.9,7.6c-5.4,2.5-10.4,4.7-14.7,6.7s-7.9,3.7-10.4,4.8c-.2,0-.4.2-.6.3v.1c.2,0,.4-.2.5-.2,2.5-1.1,6.2-2.6,10.5-4.5s9.4-4.1,14.8-6.4c5.4-2.4,11.2-4.9,17-7.5s11.5-5.2,16.9-7.6c5.4-2.5,10.4-4.7,14.7-6.7,4.3-2,7.9-3.7,10.4-4.8,2.5-1.2,3.9-1.8,3.9-1.8,0,0-1.4.6-4,1.7-2.5,1.1-6.2,2.6-10.5,4.5h0l.2-.1Z"/>
        <path class="cls-1" d="M181.7,74.3c-4.5,1.4-9.8,3.1-15.4,4.9-5.6,1.8-11.6,3.7-17.6,5.7s-12,3.9-17.6,5.8-10.8,3.6-15.3,5.1-8.2,2.8-10.8,3.7c-.2,0-.4.1-.6.2v.2c.2,0,.4-.1.6-.2,2.6-.8,6.4-2,10.9-3.4s9.8-3.1,15.4-4.9c5.6-1.8,11.6-3.7,17.6-5.7s12-3.9,17.6-5.8,10.8-3.6,15.3-5.1,8.2-2.8,10.8-3.7c2.6-.9,4.1-1.4,4.1-1.4,0,0-1.5.5-4.2,1.2-2.6.8-6.4,2-10.9,3.4h.1Z"/>
        <path class="cls-1" d="M180.2,70.1c-4.4,1.7-9.6,3.6-15.1,5.7s-11.4,4.3-17.3,6.6c-5.9,2.3-11.8,4.6-17.3,6.7-5.5,2.2-10.6,4.2-15,5.9-4.4,1.8-8.1,3.2-10.6,4.3-.2,0-.4.2-.5.2v.2c.2,0,.4-.1.6-.2,2.6-.9,6.3-2.3,10.7-3.9,4.4-1.7,9.6-3.6,15.1-5.7s11.4-4.3,17.3-6.6c5.9-2.3,11.8-4.6,17.3-6.7,5.5-2.2,10.6-4.2,15-5.9,4.4-1.8,8.1-3.2,10.6-4.3,2.6-1,4-1.6,4-1.6,0,0-1.5.5-4.1,1.5-2.6.9-6.3,2.3-10.7,3.9v-.1Z"/>
        <path class="cls-1" d="M176.6,61.9c-4.2,2.1-9.2,4.6-14.5,7.2-5.3,2.7-10.9,5.5-16.5,8.4s-11.2,5.8-16.5,8.5c-5.2,2.7-10.1,5.3-14.3,7.5s-7.7,4.1-10.1,5.3c-.2.1-.4.2-.5.3v.1c.2,0,.4-.2.6-.3,2.5-1.2,6-3,10.3-5,4.2-2.1,9.2-4.6,14.5-7.2,5.3-2.7,10.9-5.5,16.5-8.4s11.2-5.8,16.5-8.5c5.2-2.7,10.1-5.3,14.3-7.5s7.7-4.1,10.1-5.3c2.4-1.3,3.8-2.1,3.8-2.1,0,0-1.4.7-3.9,1.9-2.5,1.2-6,3-10.3,5v.1Z"/>
        <path class="cls-1" d="M15.8,96.7c4.7.3,10.2.6,16.1,1,5.9.3,12.2.7,18.5,1s12.6.6,18.5.9,11.4.5,16.1.7c4.7.2,8.7.3,11.4.4h.6v-.2h-.6c-2.8-.2-6.7-.5-11.4-.8s-10.2-.6-16.1-1c-5.9-.3-12.2-.7-18.5-1s-12.6-.6-18.5-.9-11.4-.5-16.1-.7c-4.7-.2-8.7-.3-11.4-.4-2.8,0-4.3-.1-4.3-.1,0,0,1.6.1,4.3.3,2.8.2,6.7.5,11.4.8h0Z"/>
        <path class="cls-1" d="M169.5,50.6c-3.9,2.7-8.4,5.9-13.2,9.4s-9.9,7.1-15,10.8c-5.1,3.7-10.2,7.5-15,10.9-4.8,3.5-9.2,6.8-13,9.6-3.8,2.8-6.9,5.2-9.1,6.9-.2.1-.3.3-.5.4l.1.1c.2-.1.3-.2.5-.4,2.3-1.6,5.5-3.9,9.4-6.6s8.4-5.9,13.2-9.4,9.9-7.1,15-10.8c5.1-3.7,10.2-7.5,15-10.9,4.7-3.5,9.2-6.8,13-9.6,3.8-2.8,6.9-5.2,9.1-6.9,2.2-1.7,3.5-2.6,3.5-2.6,0,0-1.3.9-3.6,2.5s-5.5,3.9-9.4,6.6h0Z"/>
        <path class="cls-1" d="M172.1,54.2c-4,2.5-8.7,5.5-13.6,8.7-5,3.2-10.3,6.6-15.6,10-5.3,3.5-10.6,6.9-15.5,10.1-4.9,3.3-9.5,6.3-13.5,8.9-3.9,2.6-7.2,4.8-9.5,6.4-.2.1-.3.2-.5.3v.1c.2-.1.3-.2.5-.3,2.3-1.5,5.7-3.6,9.7-6.1s8.7-5.5,13.6-8.7c5-3.2,10.3-6.6,15.6-10,5.3-3.5,10.6-6.9,15.5-10.1,4.9-3.3,9.5-6.3,13.5-8.9,3.9-2.6,7.2-4.8,9.5-6.4,2.3-1.6,3.6-2.4,3.6-2.4,0,0-1.3.8-3.7,2.3-2.3,1.5-5.7,3.6-9.7,6.1h.1Z"/>
        <path class="cls-1" d="M100.9,97.1h.2v-.6c.2-2.8.5-6.7.8-11.4.3-4.7.6-10.2,1-16.1.3-5.9.7-12.2,1-18.5.3-6.3.6-12.6.9-18.5.3-5.9.5-11.4.7-16.1s.3-8.7.4-11.4c0-2.8.1-4.3.1-4.3,0,0-.1,1.6-.3,4.3-.2,2.8-.5,6.7-.8,11.4s-.6,10.2-1,16.1c-.3,5.9-.7,12.2-1,18.5-.3,6.3-.6,12.6-.9,18.5-.3,5.9-.5,11.4-.7,16.1s-.3,8.7-.4,11.4v.6h0Z"/>
        <path class="cls-1" d="M154.2,57.1c-4.6,3.7-9.5,7.7-14.4,11.6-4.9,4-9.8,8-14.4,11.7-4.6,3.8-8.8,7.3-12.5,10.3-3.6,3-6.7,5.6-8.8,7.3-.2.1-.3.3-.5.4l.1.1c.2-.1.3-.2.5-.4,2.2-1.7,5.3-4.1,9-7.1,3.7-2.9,8-6.4,12.7-10.1,4.6-3.7,9.5-7.7,14.4-11.6,4.9-4,9.8-8,14.4-11.7,4.6-3.8,8.8-7.3,12.5-10.3,3.6-3,6.7-5.6,8.8-7.3,2.1-1.8,3.3-2.8,3.3-2.8,0,0-1.2,1-3.4,2.7s-5.3,4.1-9,7.1c-3.7,2.9-8,6.4-12.7,10.1h0Z"/>
        <path class="cls-1" d="M185.8,96.1c-4.7.2-10.2.4-16.1.7-5.9.3-12.2.6-18.5.9-6.3.4-12.6.7-18.5,1-5.9.4-11.4.7-16.1,1-4.7.3-8.7.6-11.4.8h-.6v.2h.6c2.8,0,6.7-.2,11.4-.4,4.7-.2,10.2-.4,16.1-.7,5.9-.3,12.2-.6,18.5-.9,6.3-.4,12.6-.7,18.5-1,5.9-.4,11.4-.7,16.1-1s8.7-.6,11.4-.8c2.7-.2,4.3-.3,4.3-.3,0,0-1.6,0-4.3.1-2.8,0-6.7.2-11.4.4h0Z"/>
        <path class="cls-1" d="M183,78.5c-4.6,1.2-9.9,2.6-15.7,4-5.7,1.5-11.8,3.1-17.9,4.7-6.1,1.7-12.2,3.3-17.9,4.9s-11,3.1-15.6,4.3c-4.6,1.3-8.3,2.4-11,3.1-.2,0-.4.1-.6.2v.2c.2,0,.4,0,.6-.1,2.7-.7,6.5-1.6,11.1-2.8,4.6-1.2,9.9-2.6,15.7-4,5.7-1.5,11.8-3.1,17.9-4.7,6.1-1.7,12.2-3.3,17.9-4.9s11-3.1,15.6-4.3c4.6-1.3,8.3-2.4,11-3.1,2.7-.8,4.2-1.2,4.2-1.2,0,0-1.5.4-4.2,1-2.7.7-6.5,1.6-11.1,2.8v-.1Z"/>
        <path class="cls-1" d="M105.1,100.9c2.8,0,6.7.1,11.4.2,4.7,0,10.3,0,16.2.2h37c5.9,0,11.4-.1,16.2-.2,4.7,0,8.7-.1,11.4-.2h4.3-4.3c-2.8,0-6.7-.1-11.4-.2-4.7,0-10.3,0-16.2-.2h-37c-5.9,0-11.4.1-16.2.2-4.7,0-8.7.1-11.4.2h-.6v.1h.6v-.1Z"/>
        <path class="cls-1" d="M184.9,87.2c-4.7.7-10.1,1.5-16,2.4-5.8.9-12.1,1.9-18.3,2.8-6.2,1-12.5,2-18.3,3s-11.3,1.9-15.9,2.7c-4.7.8-8.5,1.5-11.3,2-.2,0-.4,0-.6.1v.2h.6c2.7-.4,6.6-.9,11.3-1.6s10.1-1.5,16-2.4c5.8-.9,12.1-1.9,18.3-2.8,6.2-1,12.5-2,18.3-3s11.3-1.9,15.9-2.7c4.7-.8,8.5-1.5,11.3-2,2.7-.5,4.3-.8,4.3-.8,0,0-1.6.2-4.3.6-2.7.4-6.6.9-11.3,1.6h0v-.1Z"/>
        <path class="cls-1" d="M184,82.9c-4.6.9-10,2-15.8,3.2s-12,2.5-18.1,3.8c-6.2,1.3-12.3,2.7-18.1,3.9-5.8,1.3-11.2,2.5-15.8,3.5-4.6,1.1-8.5,1.9-11.1,2.6-.2,0-.4,0-.6.1v.2c.2,0,.4,0,.6-.1,2.7-.5,6.6-1.3,11.2-2.2,4.6-.9,10-2,15.8-3.2s12-2.5,18.1-3.8c6.2-1.3,12.3-2.7,18.1-3.9,5.8-1.3,11.2-2.5,15.8-3.5,4.6-1.1,8.5-1.9,11.1-2.6,2.7-.6,4.2-1,4.2-1,0,0-1.5.3-4.3.8-2.7.5-6.6,1.3-11.2,2.2h.1Z"/>
        <path class="cls-1" d="M185.5,91.7c-4.7.5-10.2,1-16.1,1.5-5.9.6-12.2,1.2-18.4,1.9-6.3.7-12.5,1.4-18.4,2-5.9.7-11.4,1.3-16.1,1.8-4.7.6-8.6,1-11.4,1.4h-.6v.2h.6c2.7-.2,6.7-.6,11.4-1,4.7-.5,10.2-1,16.1-1.5,5.9-.6,12.2-1.2,18.4-1.9,6.3-.7,12.5-1.4,18.4-2,5.9-.7,11.4-1.3,16.1-1.8,4.7-.6,8.6-1,11.4-1.4,2.7-.3,4.3-.5,4.3-.5,0,0-1.6.1-4.3.4-2.7.2-6.7.6-11.4,1h0v-.1Z"/>
        <path class="cls-1" d="M113.4,52c-1.6,6.1-3.2,12.2-4.7,17.9-1.5,5.7-2.9,11.1-4,15.7s-2.1,8.4-2.8,11.1c0,.2,0,.4-.1.6h.2c0-.2.1-.4.2-.6.8-2.7,1.8-6.4,3.1-11s2.7-9.9,4.3-15.6c1.5-5.7,3.2-11.8,4.9-17.9,1.6-6.1,3.2-12.2,4.7-17.9s2.9-11.1,4-15.7c1.1-4.6,2.1-8.4,2.8-11.1s1-4.2,1-4.2c0,0-.4,1.5-1.2,4.2s-1.8,6.5-3.1,11c-1.3,4.6-2.7,9.9-4.3,15.6-1.5,5.7-3.2,11.8-4.9,17.9h-.1Z"/>
        <path class="cls-1" d="M121.7,35.1c-1.8,5.6-3.8,11.6-5.8,17.6-1.9,6-3.9,12-5.7,17.6s-3.4,10.9-4.9,15.4c-1.4,4.5-2.5,8.3-3.4,10.9,0,.2-.1.4-.2.6h.2c0-.2.1-.4.2-.6.9-2.6,2.2-6.3,3.7-10.8s3.3-9.7,5.1-15.3c1.8-5.6,3.8-11.6,5.8-17.6,1.9-6,3.9-12,5.7-17.6s3.4-10.9,4.9-15.4c1.4-4.5,2.6-8.3,3.4-10.9.8-2.6,1.2-4.2,1.2-4.2,0,0-.5,1.5-1.4,4.1s-2.2,6.3-3.7,10.8-3.3,9.7-5.1,15.3v.1Z"/>
        <path class="cls-1" d="M131.7,39.2c-2.7,5.3-5.6,10.9-8.5,16.5-2.8,5.6-5.7,11.3-8.4,16.5-2.6,5.3-5.1,10.2-7.2,14.5-2.1,4.3-3.8,7.8-5,10.3,0,.2-.2.4-.3.6h.1c0-.2.2-.4.3-.5,1.3-2.4,3.1-5.9,5.3-10.1s4.7-9.1,7.5-14.3c2.7-5.3,5.6-10.9,8.5-16.5,2.8-5.6,5.7-11.3,8.4-16.5,2.6-5.3,5.1-10.2,7.2-14.5,2.1-4.3,3.8-7.8,5-10.3s1.9-3.9,1.9-3.9c0,0-.7,1.4-2.1,3.8-1.3,2.4-3.1,5.9-5.3,10.1s-4.7,9.1-7.5,14.3h.1Z"/>
        <path class="cls-1" d="M128.5,37.6c-2.4,5.4-5,11.1-7.6,16.9-2.5,5.8-5.1,11.5-7.5,17-2.4,5.4-4.6,10.5-6.4,14.8-1.9,4.3-3.4,8-4.5,10.5,0,.2-.2.4-.2.5h.1c0-.2.2-.4.3-.6,1.2-2.5,2.8-6.1,4.8-10.4s4.3-9.3,6.7-14.7c2.4-5.4,5-11.1,7.6-16.9,2.5-5.8,5.1-11.5,7.5-17,2.4-5.4,4.6-10.5,6.4-14.8,1.9-4.3,3.4-8,4.5-10.5s1.7-4,1.7-4c0,0-.7,1.4-1.8,3.9-1.2,2.5-2.8,6.1-4.8,10.4s-4.3,9.3-6.7,14.7h0l-.1.2Z"/>
        <path class="cls-1" d="M103.7,69c-.6,5.9-1.1,11.4-1.5,16.1s-.8,8.6-1,11.4v.6h.2v-.6c.3-2.7.8-6.7,1.4-11.3.5-4.7,1.2-10.2,1.8-16.1s1.3-12.2,2-18.4c.6-6.3,1.3-12.5,1.9-18.4.6-5.9,1.1-11.4,1.5-16.1s.8-8.6,1-11.4c.2-2.7.4-4.3.4-4.3,0,0-.2,1.6-.5,4.3-.3,2.7-.8,6.7-1.4,11.3-.5,4.7-1.2,10.2-1.8,16.1s-1.3,12.2-2,18.4c-.6,6.3-1.3,12.5-1.9,18.4h-.1Z"/>
        <path class="cls-1" d="M110.8,51.4c-1.3,6.2-2.6,12.3-3.8,18.1-1.2,5.8-2.3,11.2-3.2,15.8-.9,4.6-1.7,8.5-2.2,11.2,0,.2,0,.4-.1.6h.2c0-.2,0-.4.1-.6.6-2.7,1.5-6.5,2.6-11.1,1-4.6,2.2-10,3.5-15.8,1.2-5.8,2.6-11.9,3.9-18.1,1.3-6.2,2.6-12.3,3.8-18.1s2.3-11.2,3.2-15.8c.9-4.6,1.7-8.5,2.2-11.2s.8-4.3.8-4.3c0,0-.4,1.5-1,4.2-.6,2.7-1.5,6.5-2.6,11.1-1,4.6-2.2,10-3.5,15.8-1.2,5.8-2.6,11.9-3.9,18.1h0v.1Z"/>
        <path class="cls-1" d="M108.2,50.9c-1,6.2-1.9,12.5-2.8,18.3-.9,5.9-1.7,11.3-2.4,16s-1.2,8.6-1.6,11.3v.6h.2c0-.2,0-.4.1-.6.5-2.7,1.1-6.6,2-11.3.8-4.7,1.7-10.1,2.7-15.9.9-5.8,2-12.1,3-18.3s1.9-12.5,2.8-18.3c.9-5.9,1.7-11.3,2.4-16s1.2-8.6,1.6-11.3c.4-2.7.6-4.3.6-4.3,0,0-.3,1.6-.8,4.3-.5,2.7-1.1,6.6-2,11.3-.8,4.7-1.7,10.1-2.7,15.9-.9,5.8-2,12.1-3,18.3h-.1Z"/>
        <path class="cls-1" d="M151.8,54.4c-4.4,3.9-9.1,8.1-13.8,12.3-4.7,4.2-9.3,8.5-13.7,12.4-4.4,4-8.4,7.7-11.9,10.9-3.5,3.2-6.4,5.9-8.4,7.8-.2.2-.3.3-.5.4l.1.1c.2-.1.3-.3.5-.4,2.1-1.8,5-4.4,8.6-7.5,3.5-3.1,7.7-6.8,12.1-10.7,4.4-3.9,9.1-8.1,13.8-12.3,4.7-4.2,9.4-8.5,13.7-12.4,4.4-4,8.4-7.7,11.9-10.9s6.4-5.9,8.4-7.8c2-1.9,3.2-3,3.2-3,0,0-1.2,1-3.3,2.8s-5,4.4-8.6,7.5c-3.5,3.1-7.7,6.8-12.1,10.7h0v.1Z"/>
        <path class="cls-1" d="M146.7,49.3c-4,4.4-8.2,9-12.4,13.7s-8.4,9.4-12.3,13.8c-3.9,4.4-7.6,8.6-10.7,12.1-3.1,3.6-5.7,6.5-7.5,8.6-.1.2-.3.3-.4.5l.1.1c.1-.2.3-.3.4-.5,1.9-2,4.6-4.9,7.8-8.4s6.9-7.6,10.9-11.9c4-4.4,8.2-9,12.4-13.7s8.4-9.4,12.3-13.8c3.9-4.4,7.6-8.6,10.7-12.1,3.1-3.6,5.7-6.5,7.5-8.6s2.8-3.3,2.8-3.3c0,0-1.1,1.1-3,3.2-1.9,2-4.6,4.9-7.8,8.4s-6.9,7.6-10.9,11.9h.1Z"/>
        <path class="cls-1" d="M149.3,51.8c-4.2,4.2-8.7,8.6-13.2,13.1-4.4,4.5-8.9,9-13.1,13.2-4.1,4.2-8,8.2-11.3,11.5-3.3,3.4-6,6.2-8,8.2-.2.2-.3.3-.4.5l.1.1c.2-.1.3-.3.4-.4,2-1.9,4.8-4.7,8.2-8s7.3-7.2,11.5-11.3c4.2-4.2,8.7-8.6,13.2-13.1,4.4-4.5,8.9-9,13.1-13.2,4.1-4.2,8-8.2,11.3-11.5,3.3-3.4,6-6.2,8-8.2,1.9-2,3-3.1,3-3.1,0,0-1.1,1.1-3.1,3s-4.8,4.7-8.2,8-7.3,7.2-11.5,11.3h0v-.1Z"/>
        <path class="cls-1" d="M143.9,47c-3.7,4.6-7.7,9.5-11.7,14.4s-7.9,9.8-11.6,14.4c-3.7,4.6-7.1,9-10.1,12.7-2.9,3.7-5.3,6.8-7.1,9-.1.2-.3.3-.4.5l.1.1c.1-.2.3-.3.4-.5,1.8-2.1,4.3-5.1,7.3-8.8,3-3.7,6.5-7.9,10.3-12.5,3.7-4.6,7.7-9.5,11.7-14.4s7.9-9.8,11.6-14.4c3.7-4.6,7.1-9,10.1-12.7,2.9-3.7,5.4-6.8,7.1-9,1.7-2.2,2.7-3.4,2.7-3.4,0,0-1,1.2-2.8,3.3s-4.3,5.1-7.3,8.8-6.5,7.9-10.3,12.5h0Z"/>
        <path class="cls-1" d="M138,42.8c-3.2,4.9-6.7,10.2-10.1,15.5-3.4,5.3-6.8,10.6-10,15.6s-6.1,9.6-8.7,13.6c-2.5,4-4.6,7.3-6.1,9.7-.1.2-.2.4-.3.5h.1c.1-.2.2-.3.3-.5,1.5-2.3,3.7-5.6,6.4-9.5,2.6-3.9,5.7-8.5,8.9-13.5,3.2-4.9,6.7-10.2,10.1-15.5,3.4-5.3,6.8-10.6,10-15.6s6.1-9.6,8.7-13.6c2.5-4,4.6-7.3,6.1-9.7,1.4-2.4,2.3-3.7,2.3-3.7,0,0-.9,1.3-2.4,3.6s-3.7,5.6-6.4,9.5c-2.6,3.9-5.7,8.5-8.9,13.5h0v.1Z"/>
        <path class="cls-1" d="M141,44.8c-3.5,4.8-7.2,9.9-10.9,15-3.7,5.1-7.4,10.2-10.8,15-3.4,4.8-6.6,9.3-9.4,13.2-2.7,3.9-5,7.1-6.6,9.4-.1.2-.2.3-.4.5l.1.1c.1-.2.2-.3.4-.5,1.7-2.2,4-5.4,6.9-9.1,2.8-3.8,6.1-8.2,9.6-13s7.2-9.9,10.9-15,7.4-10.2,10.8-15c3.4-4.8,6.6-9.3,9.4-13.2,2.7-3.9,5-7.1,6.6-9.4s2.5-3.6,2.5-3.6c0,0-1,1.3-2.6,3.5-1.7,2.2-4,5.4-6.9,9.1-2.8,3.8-6.1,8.2-9.6,13h0Z"/>
        <path class="cls-1" d="M134.9,40.9c-3,5.1-6.2,10.6-9.3,16-3.1,5.5-6.3,11-9.2,16.1-2.9,5.2-5.6,10-8,14.1-2.3,4.1-4.2,7.6-5.6,10-.1.2-.2.4-.3.5h.1c.1-.2.2-.3.3-.5,1.4-2.4,3.4-5.8,5.9-9.8,2.4-4.1,5.2-8.8,8.2-13.9s6.2-10.6,9.3-16c3.1-5.5,6.3-11,9.2-16.1,2.9-5.2,5.6-10,8-14.1,2.3-4.1,4.2-7.6,5.6-10,1.3-2.4,2.1-3.8,2.1-3.8,0,0-.8,1.4-2.2,3.7-1.4,2.4-3.4,5.8-5.9,9.8-2.4,4.1-5.2,8.8-8.2,13.9h0v.1Z"/>
        <path class="cls-1" d="M125.1,36.3c-2.1,5.5-4.4,11.4-6.7,17.3-2.2,5.9-4.5,11.8-6.6,17.3-2.1,5.5-4,10.7-5.7,15.1-1.6,4.4-3,8.1-3.9,10.7,0,.2-.1.4-.2.6h.2c0-.2.2-.4.2-.5,1-2.6,2.5-6.2,4.3-10.6,1.7-4.4,3.8-9.5,5.9-15,2.1-5.5,4.4-11.4,6.7-17.3,2.2-5.9,4.5-11.8,6.6-17.3s4-10.7,5.7-15.1c1.6-4.4,3-8.1,3.9-10.7s1.5-4.1,1.5-4.1c0,0-.6,1.5-1.6,4-1,2.6-2.5,6.2-4.3,10.6-1.7,4.4-3.8,9.5-5.9,15h-.1Z"/>
        <path class="cls-1" d="M135.7,178.5c-1.9-4.3-4.1-9.4-6.4-14.8-2.4-5.4-4.9-11.2-7.5-17s-5.2-11.5-7.6-16.9c-2.5-5.4-4.7-10.4-6.7-14.7s-3.7-7.9-4.8-10.4c0-.2-.2-.4-.3-.5h-.1c0,.2.2.4.2.5,1.1,2.5,2.6,6.2,4.5,10.5,1.9,4.3,4.1,9.4,6.4,14.8,2.4,5.4,4.9,11.2,7.5,17s5.2,11.5,7.6,16.9c2.5,5.4,4.7,10.4,6.7,14.7s3.7,7.9,4.8,10.4c1.2,2.5,1.8,3.9,1.8,3.9,0,0-.6-1.4-1.7-4-1.1-2.5-2.6-6.2-4.5-10.5h0l.1.1Z"/>
        <path class="cls-1" d="M147.4,172.1c-2.5-4-5.5-8.7-8.7-13.6-3.2-5-6.6-10.3-10-15.6-3.5-5.3-6.9-10.6-10.1-15.5-3.3-4.9-6.3-9.5-8.9-13.5-2.6-3.9-4.8-7.2-6.4-9.5-.1-.2-.2-.3-.3-.5h-.1c.1.2.2.3.3.5,1.5,2.3,3.6,5.7,6.1,9.7s5.5,8.6,8.7,13.6,6.6,10.3,10,15.6c3.5,5.3,6.9,10.6,10.1,15.5,3.3,4.9,6.3,9.5,8.9,13.5,2.6,3.9,4.8,7.2,6.4,9.5,1.6,2.3,2.4,3.6,2.4,3.6,0,0-.8-1.3-2.3-3.7-1.5-2.3-3.6-5.7-6.1-9.7v.1Z"/>
        <path class="cls-1" d="M139.7,176.6c-2.1-4.2-4.6-9.2-7.2-14.5-2.7-5.3-5.5-10.9-8.4-16.5s-5.8-11.2-8.5-16.5c-2.7-5.2-5.3-10.1-7.5-14.3s-4.1-7.7-5.3-10.1c0-.2-.2-.4-.3-.5h-.1c0,.2.2.4.3.5,1.2,2.5,3,6,5,10.3,2.1,4.2,4.6,9.2,7.2,14.5,2.7,5.3,5.5,10.9,8.4,16.5s5.8,11.2,8.5,16.5c2.7,5.2,5.3,10.1,7.5,14.3s4.1,7.7,5.3,10.1c1.3,2.4,2.1,3.8,2.1,3.8,0,0-.7-1.4-1.9-3.9s-3-6-5-10.3h0l-.1.1Z"/>
        <path class="cls-1" d="M101.1,116.6c0-4.7-.1-8.7-.2-11.4v-.6h-.1v.6c0,2.8-.1,6.7-.2,11.4,0,4.7,0,10.3-.2,16.2v37c0,5.9.1,11.4.2,16.2,0,4.7.1,8.7.2,11.4v4.3-4.3c0-2.8.1-6.7.2-11.4,0-4.7,0-10.3.2-16.2v-37c0-5.9-.1-11.4-.2-16.2h.1Z"/>
        <path class="cls-1" d="M158,163.9c-3.1-3.5-6.8-7.7-10.7-12.1-3.9-4.4-8.1-9.1-12.3-13.8s-8.5-9.4-12.4-13.7c-4-4.4-7.7-8.4-10.9-11.9-3.2-3.5-5.9-6.4-7.8-8.4-.2-.2-.3-.3-.4-.4l-.1.1c.1.2.3.3.4.5,1.8,2.1,4.4,5,7.5,8.6,3.1,3.5,6.8,7.7,10.7,12.1s8.1,9.1,12.3,13.8,8.5,9.3,12.4,13.7c4,4.4,7.7,8.4,10.9,11.9s5.9,6.4,7.8,8.4c1.9,2,3,3.2,3,3.2,0,0-1-1.2-2.8-3.3s-4.4-5-7.5-8.6h0l-.1-.1Z"/>
        <path class="cls-1" d="M154.6,166.8c-2.9-3.7-6.4-8-10.1-12.7-3.7-4.6-7.7-9.5-11.6-14.4-4-4.9-8-9.8-11.7-14.4-3.8-4.6-7.3-8.8-10.3-12.5-3-3.6-5.6-6.7-7.3-8.8-.1-.2-.3-.3-.4-.5l-.1.1c.1.2.2.3.4.5,1.7,2.2,4.1,5.3,7.1,9,2.9,3.7,6.4,8,10.1,12.7,3.7,4.6,7.7,9.5,11.6,14.4,4,4.9,8,9.8,11.7,14.4,3.8,4.6,7.3,8.8,10.3,12.5,3,3.6,5.6,6.7,7.3,8.8,1.8,2.1,2.8,3.3,2.8,3.3,0,0-1-1.2-2.7-3.4s-4.1-5.3-7.1-9h0Z"/>
        <path class="cls-1" d="M151.1,169.6c-2.7-3.9-5.9-8.4-9.4-13.2s-7.1-9.9-10.8-15-7.5-10.2-10.9-15c-3.5-4.8-6.8-9.2-9.6-13s-5.2-6.9-6.9-9.1c-.1-.2-.2-.3-.4-.5l-.1.1c.1.2.2.3.3.5,1.6,2.3,3.9,5.5,6.6,9.4,2.7,3.9,5.9,8.4,9.4,13.2s7.1,9.9,10.8,15,7.5,10.2,10.9,15c3.5,4.8,6.8,9.2,9.6,13s5.2,6.9,6.9,9.1c1.7,2.2,2.6,3.5,2.6,3.5,0,0-.9-1.3-2.5-3.6s-3.9-5.5-6.6-9.4h.1Z"/>
        <path class="cls-1" d="M131.6,180.2c-1.7-4.4-3.6-9.6-5.7-15.1-2.1-5.5-4.3-11.4-6.6-17.3-2.3-5.9-4.6-11.8-6.7-17.3-2.2-5.5-4.2-10.6-5.9-15-1.8-4.4-3.2-8.1-4.3-10.6,0-.2-.2-.4-.2-.5h-.2c0,.2.1.4.2.6.9,2.6,2.3,6.3,3.9,10.7,1.7,4.4,3.6,9.6,5.7,15.1,2.1,5.5,4.3,11.4,6.6,17.3,2.3,5.9,4.6,11.8,6.7,17.3,2.2,5.5,4.2,10.6,5.9,15,1.8,4.4,3.2,8.1,4.3,10.6,1,2.6,1.6,4,1.6,4,0,0-.5-1.5-1.5-4.1-.9-2.6-2.3-6.3-3.9-10.7h.1Z"/>
        <path class="cls-1" d="M110,185.5c-.5-4.7-1-10.2-1.5-16.1-.6-5.9-1.2-12.2-1.9-18.4-.7-6.3-1.4-12.5-2-18.4-.7-5.9-1.3-11.4-1.8-16.1-.6-4.7-1-8.6-1.4-11.3v-.6h-.2v.6c.2,2.7.6,6.7,1,11.4.5,4.7,1,10.2,1.5,16.1.6,5.9,1.2,12.2,1.9,18.4.7,6.3,1.4,12.5,2,18.4.7,5.9,1.3,11.4,1.8,16.1.6,4.7,1,8.6,1.4,11.3s.5,4.3.5,4.3c0,0-.1-1.6-.4-4.3-.2-2.7-.6-6.7-1-11.4h.1Z"/>
        <path class="cls-1" d="M105.5,185.9c-.2-4.7-.4-10.2-.7-16.1-.3-5.9-.6-12.2-.9-18.5-.4-6.3-.7-12.6-1-18.5-.4-5.9-.7-11.4-1-16.1-.3-4.7-.6-8.7-.8-11.4v-.6h-.2v.6c0,2.8.2,6.7.4,11.4.2,4.7.4,10.2.7,16.1.3,5.9.6,12.2.9,18.5.4,6.3.7,12.6,1,18.5.4,5.9.7,11.4,1,16.1.3,4.7.6,8.7.8,11.4s.3,4.3.3,4.3c0,0,0-1.6-.1-4.3,0-2.8-.2-6.7-.4-11.4h0Z"/>
        <path class="cls-1" d="M114.4,184.9c-.7-4.7-1.5-10.1-2.4-16-.9-5.8-1.9-12.1-2.8-18.3-1-6.2-2-12.5-3-18.3s-1.9-11.3-2.7-15.9c-.8-4.7-1.5-8.5-2-11.3,0-.2,0-.4-.1-.6h-.2v.6c.4,2.7.9,6.6,1.6,11.3.7,4.7,1.5,10.1,2.4,16,.9,5.8,1.9,12.1,2.8,18.3,1,6.2,2,12.5,3,18.3s1.9,11.3,2.7,15.9c.8,4.7,1.5,8.5,2,11.3.5,2.7.8,4.3.8,4.3,0,0-.2-1.6-.6-4.3-.4-2.7-.9-6.6-1.6-11.3h.1Z"/>
        <path class="cls-1" d="M127.4,181.7c-1.4-4.5-3.1-9.8-4.9-15.4-1.8-5.6-3.7-11.6-5.7-17.6s-3.9-12-5.8-17.6c-1.9-5.6-3.6-10.8-5.1-15.3s-2.8-8.2-3.7-10.8c0-.2-.1-.4-.2-.6h-.2c0,.2.1.4.2.6.8,2.6,2,6.4,3.4,10.9,1.4,4.5,3.1,9.8,4.9,15.4,1.8,5.6,3.7,11.6,5.7,17.6s3.9,12,5.8,17.6c1.9,5.6,3.6,10.8,5.1,15.3s2.8,8.2,3.7,10.8,1.4,4.1,1.4,4.1c0,0-.5-1.5-1.2-4.2-.8-2.6-2-6.4-3.4-10.9h0v.1Z"/>
        <path class="cls-1" d="M161.2,160.9c-3.3-3.4-7.2-7.3-11.3-11.5-4.2-4.2-8.6-8.7-13.1-13.2-4.5-4.4-9-8.9-13.2-13.1-4.2-4.1-8.2-8-11.5-11.3-3.4-3.3-6.2-6-8.2-8-.2-.2-.3-.3-.4-.4l-.1.1c.1.1.3.3.4.4,1.9,2,4.7,4.8,8,8.2,3.3,3.4,7.2,7.3,11.3,11.5,4.2,4.2,8.6,8.7,13.1,13.2,4.5,4.4,9,8.9,13.2,13.1,4.2,4.1,8.2,8,11.5,11.3,3.4,3.3,6.2,6,8.2,8,2,1.9,3.1,3,3.1,3,0,0-1.1-1.1-3-3.1s-4.7-4.8-8-8.2h0Z"/>
        <path class="cls-1" d="M118.8,184.1c-.9-4.6-2-10-3.2-15.8s-2.5-12-3.8-18.1c-1.3-6.2-2.7-12.3-3.9-18.1-1.3-5.8-2.5-11.2-3.5-15.8-1.1-4.6-1.9-8.5-2.6-11.1,0-.2,0-.4-.1-.6h-.2c0,.2,0,.4.1.6.5,2.7,1.3,6.6,2.2,11.2s2,10,3.2,15.8,2.5,12,3.8,18.1c1.3,6.2,2.7,12.3,3.9,18.1,1.3,5.8,2.5,11.2,3.5,15.8,1.1,4.6,1.9,8.5,2.6,11.1.6,2.7,1,4.2,1,4.2,0,0-.3-1.5-.8-4.3-.5-2.7-1.3-6.6-2.2-11.2h0v.1Z"/>
        <path class="cls-1" d="M123.1,183c-1.2-4.6-2.6-9.9-4-15.7-1.5-5.7-3.1-11.8-4.7-17.9-1.7-6.1-3.3-12.2-4.9-17.9-1.6-5.7-3.1-11-4.3-15.6-1.3-4.6-2.4-8.3-3.1-11,0-.2-.1-.4-.2-.6h-.2c0,.2,0,.4.1.6.7,2.7,1.6,6.5,2.8,11.1s2.6,9.9,4,15.7c1.5,5.7,3.1,11.8,4.7,17.9,1.7,6.1,3.3,12.2,4.9,17.9,1.6,5.7,3.1,11,4.3,15.6,1.3,4.6,2.4,8.3,3.1,11,.8,2.7,1.2,4.2,1.2,4.2,0,0-.4-1.5-1-4.2-.7-2.7-1.6-6.5-2.8-11.1h.1Z"/>
        <path class="cls-1" d="M143.6,174.4c-2.3-4.1-5-8.9-8-14.1-2.9-5.1-6.1-10.6-9.2-16.1-3.2-5.5-6.3-10.9-9.3-16s-5.8-9.8-8.2-13.9-4.5-7.4-5.9-9.8c-.1-.2-.2-.3-.3-.5h-.1c0,.2.2.3.3.5,1.3,2.4,3.3,5.9,5.6,10s5,8.9,8,14.1c2.9,5.1,6.1,10.6,9.2,16.1,3.2,5.5,6.3,10.9,9.3,16s5.8,9.8,8.2,13.9c2.4,4.1,4.5,7.4,5.9,9.8,1.4,2.4,2.3,3.7,2.3,3.7,0,0-.8-1.4-2.1-3.8-1.3-2.4-3.3-5.9-5.6-10h0l-.1.1Z"/>
        <path class="cls-1" d="M184.2,118.3c-4.6-1-10-2.2-15.8-3.5-5.8-1.2-11.9-2.6-18.1-3.9-6.2-1.3-12.3-2.6-18.1-3.8-5.8-1.2-11.2-2.3-15.8-3.2-4.6-.9-8.5-1.7-11.2-2.2-.2,0-.4,0-.6-.1v.2c.2,0,.4,0,.6.1,2.7.6,6.5,1.5,11.1,2.6,4.6,1,10,2.2,15.8,3.5,5.8,1.2,11.9,2.6,18.1,3.9,6.2,1.3,12.3,2.6,18.1,3.8s11.2,2.3,15.8,3.2c4.6.9,8.5,1.7,11.2,2.2s4.3.8,4.3.8c0,0-1.5-.4-4.2-1s-6.5-1.5-11.1-2.6h-.1Z"/>
        <path class="cls-1" d="M183.1,122.6c-4.6-1.3-9.9-2.7-15.6-4.3-5.7-1.5-11.8-3.2-17.9-4.9-6.1-1.6-12.2-3.2-17.9-4.7s-11.1-2.9-15.7-4c-4.6-1.1-8.4-2.1-11.1-2.8-.2,0-.4,0-.6-.1v.2c.2,0,.4.1.6.2,2.7.8,6.5,1.8,11,3.1,4.6,1.3,9.9,2.7,15.6,4.3,5.7,1.5,11.8,3.2,17.9,4.9,6.1,1.6,12.2,3.2,17.9,4.7s11.1,2.9,15.7,4c4.6,1.1,8.4,2.1,11.1,2.8s4.2,1,4.2,1c0,0-1.5-.4-4.2-1.2s-6.4-1.8-11-3.1h0v-.1Z"/>
        <path class="cls-1" d="M180.4,131.1c-4.4-1.7-9.5-3.8-15-5.9-5.5-2.1-11.4-4.4-17.3-6.7-5.9-2.2-11.8-4.5-17.3-6.6s-10.7-4-15.1-5.7c-4.4-1.6-8.1-3-10.7-3.9-.2,0-.4-.1-.6-.2v.2c.2,0,.4.1.5.2,2.6,1,6.2,2.5,10.6,4.3,4.4,1.7,9.5,3.8,15,5.9s11.4,4.4,17.3,6.7c5.9,2.2,11.8,4.5,17.3,6.6s10.7,4,15.1,5.7c4.4,1.6,8.1,3,10.7,3.9s4.1,1.5,4.1,1.5c0,0-1.5-.6-4-1.6-2.6-1-6.2-2.5-10.6-4.3h0v-.1Z"/>
        <path class="cls-1" d="M181.9,126.9c-4.5-1.5-9.7-3.3-15.3-5.1s-11.6-3.8-17.6-5.8c-6-1.9-12-3.9-17.6-5.7-5.6-1.8-10.9-3.4-15.4-4.9-4.5-1.4-8.3-2.6-10.9-3.4-.2,0-.4-.1-.6-.2v.2c.2,0,.4.1.6.2,2.6.9,6.3,2.2,10.8,3.7s9.7,3.3,15.3,5.1c5.6,1.8,11.6,3.8,17.6,5.8,6,1.9,12,3.9,17.6,5.7s10.9,3.4,15.4,4.9c4.5,1.4,8.3,2.6,10.9,3.4,2.6.8,4.2,1.2,4.2,1.2,0,0-1.5-.5-4.1-1.4s-6.3-2.2-10.8-3.7h-.1Z"/>
        <path class="cls-1" d="M185.9,105c-4.7-.3-10.2-.6-16.1-1-5.9-.3-12.2-.7-18.5-1s-12.6-.6-18.5-.9-11.4-.5-16.1-.7c-4.7-.2-8.7-.3-11.4-.4h-.6v.2h.6c2.7.2,6.7.5,11.4.8s10.2.6,16.1,1c5.9.3,12.2.7,18.5,1s12.6.6,18.5.9,11.4.5,16.1.7,8.7.3,11.4.4c2.8,0,4.3.1,4.3.1,0,0-1.6-.1-4.3-.3-2.8-.2-6.7-.5-11.4-.8h0Z"/>
        <path class="cls-1" d="M185,113.9c-4.7-.8-10.1-1.7-15.9-2.7-5.8-.9-12.1-2-18.3-3s-12.5-1.9-18.3-2.8c-5.9-.9-11.3-1.7-16-2.4-4.7-.7-8.6-1.2-11.3-1.6h-.6v.2c.2,0,.4,0,.6.1,2.7.5,6.6,1.1,11.3,2,4.7.8,10.1,1.7,15.9,2.7,5.8.9,12.1,2,18.3,3s12.5,1.9,18.3,2.8c5.9.9,11.3,1.7,16,2.4,4.7.7,8.6,1.2,11.3,1.6,2.7.4,4.3.6,4.3.6,0,0-1.5-.3-4.3-.8-2.7-.5-6.6-1.1-11.3-2h0v-.1Z"/>
        <path class="cls-1" d="M185.5,109.5c-4.7-.5-10.2-1.2-16.1-1.8-5.9-.6-12.2-1.3-18.4-2-6.3-.6-12.5-1.3-18.4-1.9s-11.4-1.1-16.1-1.5c-4.7-.4-8.6-.8-11.4-1h-.6v.2h.6c2.7.3,6.7.8,11.4,1.4,4.7.5,10.2,1.2,16.1,1.8,5.9.6,12.2,1.3,18.4,2,6.3.6,12.5,1.3,18.4,1.9s11.4,1.1,16.1,1.5,8.6.8,11.4,1c2.7.2,4.3.4,4.3.4,0,0-1.6-.2-4.3-.5-2.7-.3-6.7-.8-11.4-1.4h0v-.1Z"/>
        <path class="cls-1" d="M178.7,135.2c-4.3-2-9.3-4.3-14.7-6.7s-11.1-5-16.9-7.6c-5.8-2.5-11.5-5.1-17-7.5-5.4-2.4-10.5-4.6-14.8-6.4-4.3-1.9-8-3.4-10.5-4.5-.2,0-.4-.2-.5-.2v.2c.2,0,.3.2.5.2,2.5,1.2,6.1,2.8,10.4,4.8,4.3,2,9.3,4.3,14.7,6.7,5.4,2.4,11.1,5,16.9,7.6,5.8,2.5,11.5,5.1,17,7.5,5.4,2.4,10.5,4.6,14.8,6.4,4.3,1.9,8,3.4,10.5,4.5s4,1.7,4,1.7c0,0-1.4-.7-3.9-1.8-2.5-1.2-6.1-2.8-10.4-4.8h0l-.1-.1Z"/>
        <path class="cls-1" d="M169.9,150.7c-3.8-2.8-8.2-6.1-13-9.6s-9.9-7.2-15-10.9-10.2-7.4-15-10.8c-4.8-3.4-9.3-6.6-13.2-9.4-3.9-2.7-7.1-5-9.4-6.6-.2-.1-.3-.2-.5-.3l-.1.1c.2.1.3.2.5.4,2.2,1.7,5.4,4,9.1,6.9,3.8,2.8,8.2,6.1,13,9.6s9.9,7.2,14.9,10.9c5.1,3.7,10.2,7.4,15,10.8,4.8,3.4,9.3,6.6,13.2,9.4,3.9,2.7,7.1,5,9.4,6.6,2.3,1.6,3.6,2.5,3.6,2.5,0,0-1.3-1-3.5-2.6-2.2-1.7-5.4-4-9.1-6.9h0l.1-.1Z"/>
        <path class="cls-1" d="M164.3,157.6c-3.5-3.2-7.6-6.9-11.9-10.9-4.4-4-9-8.2-13.7-12.4s-9.4-8.4-13.8-12.3c-4.4-3.9-8.6-7.6-12.1-10.7-3.6-3.1-6.5-5.7-8.6-7.5-.2-.1-.3-.3-.5-.4l-.1.1c.1.1.3.3.4.4,2,1.9,4.9,4.6,8.4,7.8,3.5,3.2,7.6,6.9,11.9,10.9,4.4,4,9,8.2,13.7,12.4s9.4,8.4,13.8,12.3c4.4,3.9,8.6,7.6,12.1,10.7,3.6,3.1,6.5,5.7,8.6,7.5s3.3,2.8,3.3,2.8c0,0-1.1-1.1-3.2-3-2-1.9-4.9-4.6-8.4-7.8h0l.1.1Z"/>
        <path class="cls-1" d="M167.2,154.2c-3.7-3-7.9-6.5-12.5-10.3-4.6-3.7-9.5-7.7-14.4-11.7s-9.8-7.9-14.4-11.6c-4.6-3.7-9-7.1-12.7-10.1-3.7-2.9-6.8-5.4-9-7.1-.2-.1-.3-.2-.5-.4l-.1.1c.2.1.3.3.5.4,2.1,1.8,5.1,4.3,8.8,7.3s7.9,6.5,12.5,10.3c4.6,3.7,9.5,7.7,14.4,11.7s9.8,7.9,14.4,11.6c4.6,3.7,9,7.1,12.7,10.1,3.7,2.9,6.8,5.4,9,7.1,2.2,1.7,3.4,2.7,3.4,2.7,0,0-1.2-1-3.3-2.8s-5.1-4.3-8.8-7.3h0Z"/>
        <path class="cls-1" d="M172.4,147c-3.9-2.6-8.5-5.7-13.5-8.9-4.9-3.2-10.2-6.7-15.5-10.1-5.3-3.4-10.6-6.8-15.6-10s-9.6-6.1-13.6-8.7c-4-2.5-7.3-4.6-9.7-6.1-.2-.1-.3-.2-.5-.3v.1c.2.1.3.2.5.3,2.3,1.5,5.6,3.7,9.5,6.4,4,2.6,8.5,5.7,13.5,8.9,4.9,3.2,10.2,6.7,15.5,10.1,5.3,3.4,10.6,6.8,15.6,10s9.6,6.1,13.6,8.7c4,2.5,7.4,4.6,9.7,6.1,2.4,1.4,3.7,2.3,3.7,2.3,0,0-1.3-.9-3.6-2.4-2.3-1.5-5.6-3.7-9.5-6.4h-.1Z"/>
        <path class="cls-1" d="M174.7,143.2c-4.1-2.4-8.8-5.2-13.9-8.2-5.1-3-10.6-6.2-16-9.3-5.5-3.1-11-6.3-16.1-9.2-5.1-2.9-10-5.6-14.1-8-4.1-2.3-7.6-4.2-10-5.6-.2,0-.4-.2-.5-.3v.1c.2,0,.3.2.5.3,2.4,1.4,5.8,3.4,9.8,5.9,4.1,2.4,8.8,5.2,13.9,8.2,5.1,3,10.6,6.2,16,9.3,5.5,3.1,11,6.3,16.1,9.2s10,5.6,14.1,8c4.1,2.3,7.6,4.2,10,5.6,2.4,1.3,3.8,2.1,3.8,2.1,0,0-1.4-.8-3.7-2.3-2.4-1.4-5.8-3.4-9.8-5.9h0l-.1.1Z"/>
        <path class="cls-1" d="M176.8,139.3c-4.2-2.2-9.1-4.7-14.3-7.5-5.3-2.7-10.9-5.6-16.5-8.5-5.6-2.8-11.3-5.7-16.5-8.4-5.3-2.6-10.2-5.1-14.5-7.2s-7.8-3.8-10.3-5c-.2,0-.4-.2-.5-.3v.1c.2,0,.3.2.5.3,2.4,1.3,5.9,3.1,10.1,5.3,4.2,2.2,9.1,4.7,14.3,7.5,5.3,2.7,10.9,5.6,16.5,8.5,5.6,2.8,11.3,5.7,16.5,8.4,5.3,2.6,10.2,5.1,14.5,7.2,4.3,2.1,7.8,3.8,10.3,5s3.9,1.9,3.9,1.9c0,0-1.4-.7-3.8-2.1-2.4-1.3-5.9-3.1-10.1-5.3h0l-.1.1Z"/>
        <path class="cls-1" d="M19.9,127.4c4.5-1.4,9.8-3.1,15.4-4.9,5.6-1.8,11.6-3.7,17.6-5.7s12-3.9,17.6-5.8,10.8-3.6,15.3-5.1,8.2-2.8,10.8-3.7c.2,0,.4-.1.6-.2v-.2c-.2,0-.4.1-.6.2-2.6.8-6.4,2-10.9,3.4s-9.8,3.1-15.4,4.9c-5.6,1.8-11.6,3.7-17.6,5.7-6,2-12,3.9-17.6,5.8-5.6,1.9-10.8,3.6-15.3,5.1s-8.2,2.8-10.8,3.7-4.1,1.4-4.1,1.4c0,0,1.5-.5,4.2-1.2,2.6-.8,6.4-2,10.9-3.4h-.1Z"/>
        <path class="cls-1" d="M25.1,139.7c4.2-2.1,9.2-4.6,14.5-7.2,5.3-2.7,10.9-5.5,16.5-8.4s11.2-5.8,16.5-8.5c5.2-2.7,10.1-5.3,14.3-7.5s7.7-4.1,10.1-5.3c.2,0,.4-.2.5-.3v-.1c-.2,0-.3.2-.5.3-2.5,1.2-6,3-10.3,5-4.2,2.1-9.2,4.6-14.5,7.2-5.3,2.7-10.9,5.5-16.5,8.4-5.6,2.9-11.2,5.8-16.5,8.5-5.2,2.7-10.1,5.3-14.3,7.5s-7.7,4.1-10.1,5.3c-2.4,1.3-3.8,2.1-3.8,2.1,0,0,1.4-.7,3.9-1.9s6-3,10.3-5h0l-.1-.1Z"/>
        <path class="cls-1" d="M21.4,131.6c4.4-1.7,9.6-3.6,15.1-5.7,5.5-2.1,11.4-4.3,17.3-6.6,5.9-2.3,11.8-4.6,17.3-6.7,5.5-2.2,10.6-4.2,15-5.9,4.4-1.8,8.1-3.2,10.6-4.3.2,0,.4-.2.5-.2v-.2c-.2,0-.4.1-.5.2-2.6.9-6.3,2.3-10.7,3.9-4.4,1.7-9.6,3.6-15.1,5.7s-11.4,4.3-17.3,6.6c-5.9,2.3-11.8,4.6-17.3,6.7-5.5,2.2-10.6,4.2-15,5.9-4.4,1.8-8.1,3.2-10.6,4.3-2.6,1-4,1.6-4,1.6,0,0,1.5-.5,4.1-1.5,2.6-.9,6.3-2.3,10.7-3.9h0l-.1.1Z"/>
        <path class="cls-1" d="M27.2,143.7c4.1-2.3,8.9-5,14.1-8,5.1-2.9,10.6-6.1,16.1-9.2,5.5-3.2,10.9-6.3,16-9.3s9.8-5.8,13.9-8.2c4.1-2.4,7.4-4.5,9.8-5.9.2-.1.3-.2.5-.3v-.1c-.2,0-.3.2-.5.3-2.4,1.3-5.9,3.3-10,5.6-4.1,2.3-8.9,5-14.1,8-5.1,2.9-10.6,6.1-16.1,9.2-5.5,3.2-10.9,6.3-16,9.3s-9.8,5.8-13.9,8.2c-4.1,2.4-7.5,4.5-9.8,5.9-2.4,1.4-3.7,2.3-3.7,2.3,0,0,1.4-.8,3.8-2.1,2.4-1.3,5.9-3.3,10-5.6h0l-.1-.1Z"/>
        <path class="cls-1" d="M49.8,147.3c4.4-3.9,9.1-8.1,13.8-12.3s9.3-8.5,13.7-12.4c4.4-4,8.4-7.7,11.9-10.9,3.5-3.2,6.4-5.9,8.4-7.8.2-.1.3-.3.4-.4l-.1-.1c-.2.1-.3.2-.5.4-2.1,1.8-5,4.4-8.6,7.5-3.5,3.1-7.7,6.8-12.1,10.7-4.4,3.9-9.1,8.1-13.8,12.4-4.7,4.2-9.3,8.5-13.7,12.4-4.4,4-8.4,7.7-11.9,10.9s-6.4,5.9-8.4,7.8c-2,1.9-3.2,3-3.2,3,0,0,1.2-1,3.3-2.8s5.1-4.4,8.6-7.5,7.7-6.8,12.1-10.7h0l.1-.2Z"/>
        <path class="cls-1" d="M47.5,144.6c4.6-3.7,9.5-7.7,14.4-11.6,4.9-4,9.8-8,14.4-11.7,4.6-3.8,8.8-7.3,12.5-10.3,3.6-3,6.7-5.6,8.8-7.3.2-.1.3-.3.5-.4l-.1-.1c-.2.1-.3.2-.5.4-2.2,1.7-5.3,4.1-9,7.1-3.7,2.9-8,6.4-12.7,10.1-4.6,3.7-9.5,7.7-14.4,11.6-4.9,4-9.8,8-14.4,11.7-4.6,3.8-8.8,7.3-12.5,10.3-3.6,3-6.7,5.6-8.8,7.3-2.1,1.8-3.3,2.8-3.3,2.8,0,0,1.2-1,3.4-2.7s5.3-4.1,9-7.1c3.7-2.9,8-6.4,12.7-10.1h0Z"/>
        <path class="cls-1" d="M32.1,151.1c3.9-2.7,8.4-5.9,13.2-9.4s9.9-7.1,15-10.8,10.2-7.5,15-10.9c4.8-3.5,9.2-6.8,13-9.6,3.8-2.8,6.9-5.2,9.1-6.9.2-.1.3-.2.5-.4l-.1-.1c-.2.1-.3.2-.5.3-2.3,1.6-5.5,3.9-9.4,6.6s-8.3,5.9-13.2,9.4c-4.8,3.5-9.9,7.1-15,10.8s-10.2,7.5-15,10.9c-4.8,3.5-9.2,6.8-13,9.6s-6.9,5.2-9.1,6.9c-2.2,1.7-3.5,2.6-3.5,2.6,0,0,1.3-.9,3.6-2.5s5.5-3.9,9.4-6.6h0v.1Z"/>
        <path class="cls-1" d="M29.5,147.4c4-2.5,8.6-5.5,13.6-8.7s10.3-6.6,15.6-10c5.3-3.5,10.6-6.9,15.5-10.1,4.9-3.3,9.5-6.3,13.5-8.9,3.9-2.6,7.2-4.8,9.5-6.4.2-.1.3-.2.5-.3v-.1c-.2,0-.3.2-.5.3-2.3,1.5-5.7,3.6-9.7,6.1s-8.6,5.5-13.6,8.7-10.3,6.6-15.6,10c-5.3,3.5-10.6,6.9-15.5,10.1-4.9,3.3-9.5,6.3-13.5,8.9-3.9,2.6-7.2,4.8-9.5,6.4-2.3,1.6-3.6,2.4-3.6,2.4,0,0,1.3-.8,3.7-2.3,2.3-1.5,5.7-3.6,9.7-6.1h-.1Z"/>
        <path class="cls-1" d="M23.1,135.7c4.3-1.9,9.4-4.1,14.8-6.4,5.4-2.4,11.2-4.9,17-7.5s11.5-5.2,16.9-7.6c5.4-2.5,10.4-4.7,14.7-6.7s7.9-3.7,10.4-4.8c.2,0,.4-.2.5-.2v-.2c-.2,0-.3.1-.5.2-2.5,1.1-6.2,2.6-10.5,4.5s-9.4,4.1-14.8,6.4c-5.4,2.4-11.2,4.9-17,7.5s-11.5,5.2-16.9,7.6c-5.4,2.5-10.4,4.7-14.7,6.7s-7.9,3.7-10.4,4.8c-2.5,1.2-3.9,1.8-3.9,1.8,0,0,1.4-.6,4-1.7,2.5-1.1,6.2-2.6,10.5-4.5h0l-.1.1Z"/>
        <path class="cls-1" d="M15.7,101.1c4.7,0,10.3,0,16.2.2h37c5.9,0,11.4-.1,16.2-.2,4.7,0,8.7-.1,11.4-.2h.6v-.2h-.6c-2.8,0-6.7-.1-11.4-.2-4.7,0-10.3,0-16.2-.2H31.9c-5.9,0-11.4.1-16.2.2-4.7,0-8.7.1-11.4.2H0h4.3c2.8,0,6.7.1,11.4.2h0v.2Z"/>
        <path class="cls-1" d="M15.8,105.6c4.7-.2,10.2-.4,16.1-.7,5.9-.3,12.2-.6,18.5-.9,6.3-.4,12.6-.7,18.5-1,5.9-.4,11.4-.7,16.1-1,4.7-.3,8.7-.6,11.4-.8h.6v-.2h-.6c-2.8,0-6.7.2-11.4.4-4.7.2-10.2.4-16.1.7-5.9.3-12.2.6-18.5.9-6.3.4-12.6.7-18.5,1-5.9.4-11.4.7-16.1,1-4.7.3-8.7.6-11.4.8-2.8.2-4.3.3-4.3.3,0,0,1.6,0,4.3-.1,2.8,0,6.7-.2,11.4-.4h0Z"/>
        <path class="cls-1" d="M100.7,104.6h-.2v.6c-.2,2.7-.5,6.7-.8,11.4s-.6,10.2-1,16.1c-.3,5.9-.7,12.2-1,18.5s-.6,12.6-.9,18.5c-.3,5.9-.5,11.4-.7,16.1-.2,4.7-.3,8.7-.4,11.4,0,2.8-.1,4.3-.1,4.3,0,0,.1-1.6.3-4.3.2-2.8.5-6.7.8-11.4s.6-10.2,1-16.1c.3-5.9.7-12.2,1-18.5s.6-12.6.9-18.5c.3-5.9.5-11.4.7-16.1.2-4.7.3-8.7.4-11.4v-.6h0Z"/>
        <path class="cls-1" d="M16.1,110c4.7-.5,10.2-1,16.1-1.5,5.9-.6,12.2-1.2,18.4-1.9,6.3-.7,12.5-1.4,18.4-2,5.9-.7,11.4-1.3,16.1-1.8,4.7-.6,8.6-1,11.3-1.4h.6v-.2h-.6c-2.7.2-6.7.6-11.4,1-4.7.5-10.2,1-16.1,1.5-5.9.6-12.2,1.2-18.4,1.9-6.3.7-12.5,1.4-18.4,2-5.9.7-11.4,1.3-16.1,1.8-4.7.6-8.6,1-11.3,1.4s-4.3.5-4.3.5c0,0,1.6-.1,4.3-.4,2.7-.2,6.7-.6,11.4-1h0v.1Z"/>
        <path class="cls-1" d="M18.6,123.1c4.6-1.2,9.9-2.6,15.7-4,5.7-1.5,11.8-3.1,17.9-4.7,6.1-1.7,12.2-3.3,17.9-4.9s11-3.1,15.6-4.3c4.6-1.3,8.3-2.4,11-3.1.2,0,.4-.1.6-.2v-.2c-.2,0-.4,0-.6.1-2.7.7-6.5,1.6-11.1,2.8-4.6,1.2-9.9,2.6-15.7,4-5.7,1.5-11.8,3.1-17.9,4.7-6.1,1.7-12.2,3.3-17.9,4.9s-11,3.1-15.6,4.3c-4.6,1.3-8.3,2.4-11,3.1-2.7.8-4.2,1.2-4.2,1.2,0,0,1.5-.4,4.2-1,2.7-.7,6.5-1.6,11.1-2.8h0v.1Z"/>
        <path class="cls-1" d="M17.6,118.8c4.6-.9,10-2,15.8-3.2s12-2.5,18.1-3.8c6.2-1.3,12.3-2.7,18.1-3.9,5.8-1.3,11.2-2.5,15.8-3.5,4.6-1.1,8.5-1.9,11.1-2.6.2,0,.4,0,.6-.1v-.2c-.2,0-.4,0-.6.1-2.7.5-6.6,1.3-11.2,2.2-4.6.9-10,2-15.8,3.2s-12,2.5-18.1,3.8c-6.2,1.3-12.3,2.7-18.1,3.9-5.8,1.3-11.2,2.5-15.8,3.5-4.6,1.1-8.5,1.9-11.1,2.6-2.7.6-4.2,1-4.2,1,0,0,1.5-.3,4.3-.8,2.7-.5,6.6-1.3,11.2-2.2h-.1Z"/>
        <path class="cls-1" d="M16.7,114.4c4.7-.7,10.1-1.5,16-2.4,5.8-.9,12.1-1.9,18.3-2.8,6.2-1,12.5-2,18.3-3s11.3-1.9,15.9-2.7c4.7-.8,8.5-1.5,11.3-2,.2,0,.4,0,.6-.1v-.2h-.6c-2.7.4-6.6.9-11.3,1.6s-10.1,1.5-16,2.4c-5.8.9-12.1,1.9-18.3,2.8-6.2,1-12.5,2-18.3,3s-11.3,1.9-15.9,2.7c-4.7.8-8.5,1.5-11.3,2-2.7.5-4.3.8-4.3.8,0,0,1.6-.2,4.3-.6,2.7-.4,6.6-.9,11.3-1.6h0v.1Z"/>
        <path class="cls-1" d="M79.9,166.6c1.8-5.6,3.8-11.6,5.8-17.6,1.9-6,3.9-12,5.7-17.6s3.4-10.9,4.9-15.4c1.4-4.5,2.6-8.3,3.4-10.9,0-.2.1-.4.2-.6h-.2c0,.2-.1.4-.2.5-.9,2.6-2.2,6.3-3.7,10.8s-3.3,9.7-5.1,15.3-3.8,11.6-5.8,17.6c-1.9,6-3.9,12-5.7,17.6s-3.4,10.9-4.9,15.4c-1.4,4.5-2.5,8.3-3.4,10.9-.8,2.6-1.3,4.2-1.3,4.2,0,0,.5-1.5,1.4-4.1s2.2-6.3,3.7-10.8,3.3-9.7,5.1-15.3h.1Z"/>
        <path class="cls-1" d="M73.1,164c2.4-5.4,5-11.1,7.6-16.9,2.5-5.8,5.1-11.5,7.5-17,2.4-5.4,4.6-10.5,6.4-14.8,1.9-4.3,3.4-8,4.5-10.5,0-.2.2-.4.2-.5h-.1c0,.2-.2.3-.2.5-1.2,2.5-2.8,6.1-4.8,10.4-2,4.3-4.3,9.3-6.7,14.7s-5,11.1-7.6,16.9c-2.5,5.8-5.1,11.5-7.5,17-2.4,5.4-4.6,10.5-6.4,14.8-1.9,4.3-3.4,8-4.5,10.5s-1.7,4-1.7,4c0,0,.7-1.4,1.8-3.9,1.2-2.5,2.8-6.1,4.8-10.4,2-4.3,4.3-9.3,6.7-14.7h0v-.1Z"/>
        <path class="cls-1" d="M88.2,149.7c1.6-6.1,3.2-12.2,4.7-17.9s2.9-11.1,4-15.7c1.1-4.6,2.1-8.4,2.8-11.1,0-.2,0-.4.1-.6h-.2c0,.2-.1.4-.2.6-.8,2.7-1.8,6.4-3.1,11-1.3,4.6-2.7,9.9-4.3,15.6-1.5,5.7-3.2,11.8-4.9,17.9-1.6,6.1-3.2,12.2-4.7,17.9s-2.9,11.1-4,15.7c-1.1,4.6-2.1,8.4-2.8,11.1-.7,2.7-1,4.2-1,4.2,0,0,.4-1.5,1.2-4.2s1.8-6.4,3.1-11,2.7-9.9,4.3-15.6c1.5-5.7,3.2-11.8,4.9-17.9h.1Z"/>
        <path class="cls-1" d="M76.5,165.4c2.1-5.5,4.4-11.4,6.7-17.3,2.2-5.9,4.5-11.8,6.6-17.3s4-10.7,5.7-15.1c1.6-4.4,3-8.1,3.9-10.7,0-.2.1-.4.2-.5h-.2c0,.2-.1.3-.2.5-1,2.6-2.5,6.2-4.3,10.6-1.7,4.4-3.8,9.5-5.9,15-2.1,5.5-4.4,11.4-6.7,17.3-2.2,5.9-4.5,11.8-6.6,17.3s-4,10.7-5.7,15.1c-1.6,4.4-3,8.1-3.9,10.7-.9,2.6-1.5,4.1-1.5,4.1,0,0,.6-1.5,1.6-4,1-2.6,2.5-6.2,4.3-10.6,1.7-4.4,3.8-9.5,5.9-15h0l.1-.1Z"/>
        <path class="cls-1" d="M97.9,132.6c.6-5.9,1.1-11.4,1.5-16.1.4-4.7.8-8.6,1-11.4v-.6h-.2v.6c-.3,2.7-.8,6.7-1.4,11.3-.5,4.7-1.2,10.2-1.8,16.1-.6,5.9-1.3,12.2-2,18.4-.6,6.3-1.3,12.5-1.9,18.4-.6,5.9-1.1,11.4-1.5,16.1-.4,4.7-.8,8.6-1,11.4-.2,2.7-.4,4.3-.4,4.3,0,0,.2-1.6.5-4.3s.8-6.7,1.4-11.3c.5-4.7,1.2-10.2,1.8-16.1.6-5.9,1.3-12.2,2-18.4.6-6.3,1.3-12.5,1.9-18.4h.1Z"/>
        <path class="cls-1" d="M93.4,150.7c1-6.2,1.9-12.5,2.8-18.3.9-5.9,1.7-11.3,2.4-16s1.2-8.6,1.6-11.3v-.6h-.2c0,.2,0,.4-.1.6-.5,2.7-1.1,6.6-2,11.3-.8,4.7-1.7,10.1-2.7,15.9-.9,5.8-2,12.1-3,18.3s-1.9,12.5-2.8,18.3c-.9,5.9-1.7,11.3-2.4,16s-1.2,8.6-1.6,11.3c-.4,2.7-.6,4.3-.6,4.3,0,0,.3-1.6.8-4.3s1.1-6.6,2-11.3c.8-4.7,1.7-10.1,2.7-15.9.9-5.8,2-12.1,3-18.3h.1Z"/>
        <path class="cls-1" d="M90.8,150.3c1.3-6.2,2.6-12.3,3.8-18.1s2.3-11.2,3.2-15.8c.9-4.6,1.7-8.5,2.2-11.2,0-.2,0-.4.1-.6h-.2c0,.2,0,.4-.1.6-.6,2.7-1.5,6.5-2.6,11.1-1,4.6-2.2,10-3.5,15.8-1.2,5.8-2.6,11.9-3.9,18.1-1.3,6.2-2.6,12.3-3.8,18.1s-2.3,11.2-3.2,15.8-1.7,8.5-2.2,11.2-.8,4.3-.8,4.3c0,0,.4-1.5,1-4.2s1.5-6.5,2.6-11.1c1-4.6,2.2-10,3.5-15.8s2.6-11.9,3.9-18.1h0v-.1Z"/>
        <path class="cls-1" d="M69.9,162.5c2.7-5.3,5.6-10.9,8.5-16.5,2.8-5.6,5.7-11.3,8.4-16.5,2.6-5.3,5.1-10.2,7.2-14.5,2.1-4.3,3.8-7.8,5-10.3,0-.2.2-.4.3-.5h-.1c0,.2-.2.3-.3.5-1.3,2.4-3.1,5.9-5.3,10.1-2.2,4.2-4.7,9.1-7.5,14.3-2.7,5.3-5.6,10.9-8.5,16.5-2.8,5.6-5.7,11.3-8.4,16.5-2.6,5.3-5.1,10.2-7.2,14.5-2.1,4.3-3.8,7.8-5,10.3s-1.9,3.9-1.9,3.9c0,0,.8-1.4,2.1-3.8,1.3-2.4,3.1-5.9,5.3-10.1,2.2-4.2,4.7-9.1,7.5-14.3h0l-.1-.1Z"/>
        <path class="cls-1" d="M57.7,154.7c3.7-4.6,7.7-9.5,11.7-14.4s7.9-9.8,11.6-14.4c3.7-4.6,7.1-9,10.1-12.7,2.9-3.7,5.4-6.8,7.1-9,.1-.2.2-.3.4-.5l-.1-.1c-.1.2-.2.3-.4.5-1.8,2.1-4.3,5.1-7.3,8.8s-6.5,7.9-10.3,12.5c-3.7,4.6-7.7,9.5-11.7,14.4s-7.9,9.8-11.6,14.4c-3.7,4.6-7.1,9-10.1,12.7-2.9,3.7-5.3,6.8-7.1,9-1.7,2.2-2.7,3.4-2.7,3.4,0,0,1-1.2,2.8-3.3s4.3-5.1,7.3-8.8,6.5-7.9,10.3-12.5h0Z"/>
        <path class="cls-1" d="M52.3,149.9c4.2-4.2,8.7-8.6,13.2-13.1,4.4-4.5,8.9-9,13.1-13.2,4.1-4.2,8-8.2,11.3-11.5,3.3-3.4,6-6.2,8-8.2.1-.2.3-.3.4-.4l-.1-.1c-.1.1-.3.3-.4.4-2,1.9-4.8,4.7-8.2,8-3.4,3.3-7.3,7.2-11.5,11.3-4.2,4.2-8.7,8.6-13.2,13.1-4.4,4.5-8.9,9-13.1,13.2-4.1,4.2-8,8.2-11.3,11.5-3.3,3.4-6,6.2-8,8.2-1.9,2-3,3.1-3,3.1,0,0,1.1-1.1,3.1-3s4.8-4.7,8.2-8,7.3-7.2,11.5-11.3h0Z"/>
        <path class="cls-1" d="M60.6,156.9c3.5-4.8,7.2-9.9,10.9-15s7.4-10.2,10.8-15c3.4-4.8,6.6-9.3,9.4-13.2,2.7-3.9,5-7.1,6.6-9.4.1-.2.2-.3.3-.5l-.1-.1c-.1.2-.2.3-.4.5-1.7,2.2-4,5.4-6.9,9.1-2.8,3.8-6.1,8.2-9.6,13-3.5,4.8-7.2,9.9-10.9,15s-7.4,10.2-10.8,15c-3.4,4.8-6.6,9.3-9.4,13.2-2.7,3.9-5,7.1-6.6,9.4-1.6,2.3-2.5,3.6-2.5,3.6,0,0,1-1.3,2.6-3.5,1.7-2.2,4-5.4,6.9-9.1,2.8-3.8,6.1-8.2,9.6-13h.1Z"/>
        <path class="cls-1" d="M55,152.4c4-4.4,8.2-9,12.4-13.7s8.4-9.4,12.4-13.8c3.9-4.4,7.6-8.6,10.7-12.1,3.1-3.6,5.7-6.5,7.5-8.6.1-.2.3-.3.4-.5l-.1-.1c-.1.1-.3.3-.4.4-1.9,2-4.6,4.9-7.8,8.4-3.2,3.5-6.9,7.6-10.9,11.9-4,4.4-8.2,9-12.4,13.7s-8.4,9.4-12.3,13.8c-3.9,4.4-7.6,8.6-10.7,12.1-3.1,3.6-5.7,6.5-7.5,8.6s-2.8,3.3-2.8,3.3c0,0,1.1-1.1,3-3.2,1.9-2,4.6-4.9,7.8-8.4s6.9-7.6,10.9-11.9h0l-.2.1Z"/>
        <path class="cls-1" d="M66.7,160.8c3-5.1,6.2-10.6,9.3-16,3.1-5.5,6.3-11,9.2-16.1,2.9-5.2,5.6-10,8-14.1,2.3-4.1,4.2-7.6,5.6-10,0-.2.2-.3.3-.5h-.1c0,.2-.2.3-.3.5-1.4,2.4-3.4,5.8-5.9,9.8-2.4,4.1-5.2,8.8-8.2,13.9s-6.1,10.6-9.3,16c-3.1,5.5-6.3,11-9.2,16.1-2.9,5.2-5.6,10-8,14.1-2.3,4.1-4.2,7.6-5.6,10-1.3,2.4-2.1,3.8-2.1,3.8,0,0,.8-1.4,2.2-3.7,1.4-2.4,3.4-5.8,5.9-9.8,2.4-4.1,5.2-8.8,8.2-13.9h0v-.1Z"/>
        <path class="cls-1" d="M63.6,158.9c3.2-4.9,6.7-10.2,10.1-15.5,3.4-5.3,6.8-10.6,10-15.6s6.1-9.6,8.7-13.6c2.5-4,4.6-7.3,6.1-9.7.1-.2.2-.3.3-.5h-.1c-.1.2-.2.3-.3.5-1.5,2.3-3.7,5.6-6.4,9.5-2.6,3.9-5.7,8.5-8.9,13.5-3.2,4.9-6.7,10.2-10.1,15.5-3.4,5.3-6.8,10.6-10,15.6s-6.1,9.6-8.7,13.6c-2.5,4-4.6,7.3-6.1,9.7-1.4,2.4-2.3,3.7-2.3,3.7,0,0,.9-1.3,2.4-3.6s3.7-5.6,6.4-9.5c2.6-3.9,5.7-8.5,8.9-13.5h0v-.1Z"/>
      </g>
    </g>
  </g>
</svg>