<?xml version="1.0" encoding="UTF-8"?>
<svg id="Livello_2" data-name="Livello 2" xmlns="http://www.w3.org/2000/svg" viewBox="0 0 255.12 50.51">
  <defs>
    <style>
      .cls-1 {
        fill: #1e1f1d;
      }
    </style>
  </defs>
  <g id="sfondo">
    <g>
      <g>
        <path class="cls-1" d="M.1,42.78c0-.11.09-.21.21-.21h4.56c.12,0,.21.1.21.21v.92c0,.11-.09.21-.21.21H1.55v2.1h2.76c.11,0,.21.1.21.21v.92c0,.11-.1.21-.21.21H1.55v2.83c0,.11-.1.21-.21.21H.31c-.12,0-.21-.1-.21-.21v-7.41Z"/>
        <path class="cls-1" d="M11.44,42.45c2.24,0,4.03,1.8,4.03,4.04s-1.79,4.02-4.03,4.02-4.02-1.78-4.02-4.02,1.78-4.04,4.02-4.04ZM11.44,49.06c1.41,0,2.57-1.15,2.57-2.56s-1.17-2.58-2.57-2.58-2.56,1.17-2.56,2.58,1.15,2.56,2.56,2.56Z"/>
        <path class="cls-1" d="M18.4,42.78c0-.11.1-.21.21-.21h1.06c.12,0,.21.1.21.21v4.58c0,.95.65,1.7,1.62,1.7s1.63-.75,1.63-1.69v-4.59c0-.11.09-.21.21-.21h1.06c.11,0,.21.1.21.21v4.66c0,1.7-1.35,3.08-3.12,3.08s-3.11-1.38-3.11-3.08v-4.66Z"/>
        <path class="cls-1" d="M28.13,42.66c0-.11.1-.2.21-.2h.28l4.66,4.95h.01v-4.62c0-.11.09-.21.21-.21h1.03c.11,0,.21.1.21.21v7.53c0,.11-.1.2-.21.2h-.27l-4.68-5.14h-.01v4.81c0,.11-.09.21-.21.21h-1.02c-.11,0-.21-.1-.21-.21v-7.53Z"/>
        <path class="cls-1" d="M38.36,42.78c0-.11.09-.21.2-.21h2.65c2.16,0,3.93,1.76,3.93,3.91s-1.77,3.93-3.93,3.93h-2.65c-.11,0-.2-.1-.2-.21v-7.41ZM41.08,49.03c1.45,0,2.52-1.1,2.52-2.56s-1.06-2.55-2.52-2.55h-1.27v5.11h1.27Z"/>
        <path class="cls-1" d="M48.2,42.78c0-.11.09-.21.21-.21h4.56c.12,0,.21.1.21.21v.92c0,.11-.09.21-.21.21h-3.31v1.84h2.76c.11,0,.21.1.21.21v.93c0,.12-.1.21-.21.21h-2.76v1.96h3.31c.12,0,.21.1.21.21v.92c0,.11-.09.21-.21.21h-4.56c-.12,0-.21-.1-.21-.21v-7.41Z"/>
        <path class="cls-1" d="M56.35,42.78c0-.11.09-.21.2-.21h2.65c2.16,0,3.93,1.76,3.93,3.91s-1.77,3.93-3.93,3.93h-2.65c-.11,0-.2-.1-.2-.21v-7.41ZM59.07,49.03c1.46,0,2.52-1.1,2.52-2.56s-1.06-2.55-2.52-2.55h-1.27v5.11h1.27Z"/>
        <path class="cls-1" d="M70.23,42.78c0-.11.09-.21.21-.21h2.56c1.33,0,2.36.9,2.36,2.07,0,.86-.71,1.53-1.23,1.78.59.19,1.45.79,1.45,1.82,0,1.25-1.07,2.16-2.44,2.16h-2.71c-.12,0-.21-.1-.21-.21v-7.41ZM72.87,45.86c.57,0,.96-.45.96-1.01s-.39-.95-.96-.95h-1.2v1.96h1.2ZM73.03,49.08c.56,0,1.01-.44,1.01-1.02s-.56-.97-1.14-.97h-1.22v1.99h1.35Z"/>
        <path class="cls-1" d="M80.17,46.63l-2.55-3.74c-.09-.15,0-.32.18-.32h1.14c.09,0,.14.06.18.1l1.79,2.57,1.79-2.57s.09-.1.18-.1h1.15c.18,0,.27.18.18.32l-2.58,3.73v3.57c0,.11-.1.21-.21.21h-1.03c-.12,0-.21-.1-.21-.21v-3.56Z"/>
        <path class="cls-1" d="M90.82,42.78c0-.11.09-.21.21-.21h2.63c1.38,0,2.51,1.12,2.51,2.47s-1.13,2.52-2.5,2.52h-1.4v2.63c0,.11-.1.21-.21.21h-1.03c-.12,0-.21-.1-.21-.21v-7.41ZM93.57,46.19c.63,0,1.15-.5,1.15-1.16,0-.62-.53-1.09-1.15-1.09h-1.3v2.25h1.3Z"/>
        <path class="cls-1" d="M102.47,42.45c2.24,0,4.03,1.8,4.03,4.04s-1.79,4.02-4.03,4.02-4.02-1.78-4.02-4.02,1.78-4.04,4.02-4.04ZM102.47,49.06c1.41,0,2.58-1.15,2.58-2.56s-1.17-2.58-2.58-2.58-2.56,1.17-2.56,2.58,1.15,2.56,2.56,2.56Z"/>
        <path class="cls-1" d="M109.55,42.78c0-.11.09-.21.21-.21h1.03c.11,0,.21.1.21.21v6.28h2.85c.12,0,.21.1.21.21v.92c0,.11-.09.21-.21.21h-4.1c-.12,0-.21-.1-.21-.21v-7.41Z"/>
        <path class="cls-1" d="M116.77,42.78c0-.11.1-.21.21-.21h1.04c.11,0,.21.1.21.21v7.41c0,.11-.1.21-.21.21h-1.04c-.11,0-.21-.1-.21-.21v-7.41Z"/>
        <path class="cls-1" d="M122.9,43.91h-1.71c-.12,0-.21-.1-.21-.21v-.92c0-.11.09-.21.21-.21h4.89c.12,0,.21.1.21.21v.92c0,.11-.09.21-.21.21h-1.71v6.28c0,.11-.1.21-.21.21h-1.04c-.11,0-.21-.1-.21-.21v-6.28Z"/>
        <path class="cls-1" d="M129.03,42.78c0-.11.09-.21.21-.21h4.56c.12,0,.21.1.21.21v.92c0,.11-.09.21-.21.21h-3.31v1.84h2.76c.11,0,.21.1.21.21v.93c0,.12-.1.21-.21.21h-2.76v1.96h3.31c.12,0,.21.1.21.21v.92c0,.11-.09.21-.21.21h-4.56c-.12,0-.21-.1-.21-.21v-7.41Z"/>
        <path class="cls-1" d="M140.62,42.45c1.13,0,1.95.36,2.71,1.04.1.09.1.22.01.31l-.68.71c-.08.09-.19.09-.28,0-.47-.41-1.1-.66-1.72-.66-1.43,0-2.5,1.2-2.5,2.61s1.07,2.58,2.51,2.58c.67,0,1.24-.26,1.71-.64.09-.08.21-.07.28,0l.69.72c.09.08.07.22-.01.3-.76.74-1.72,1.09-2.72,1.09-2.24,0-4.04-1.78-4.04-4.02s1.8-4.04,4.04-4.04Z"/>
        <path class="cls-1" d="M146.38,42.66c0-.11.1-.2.21-.2h.28l4.66,4.95h.01v-4.62c0-.11.09-.21.21-.21h1.03c.11,0,.21.1.21.21v7.53c0,.11-.1.2-.21.2h-.27l-4.68-5.14h-.01v4.81c0,.11-.09.21-.21.21h-1.02c-.11,0-.21-.1-.21-.21v-7.53Z"/>
        <path class="cls-1" d="M156.61,42.78c0-.11.1-.21.21-.21h1.04c.11,0,.21.1.21.21v7.41c0,.11-.1.21-.21.21h-1.04c-.11,0-.21-.1-.21-.21v-7.41Z"/>
        <path class="cls-1" d="M165.15,42.45c1.13,0,1.95.36,2.71,1.04.1.09.1.22.01.31l-.68.71c-.08.09-.19.09-.28,0-.47-.41-1.1-.66-1.72-.66-1.43,0-2.5,1.2-2.5,2.61s1.07,2.58,2.51,2.58c.67,0,1.24-.26,1.71-.64.09-.08.21-.07.28,0l.69.72c.09.08.07.22-.01.3-.76.74-1.72,1.09-2.72,1.09-2.24,0-4.04-1.78-4.04-4.02s1.8-4.04,4.04-4.04Z"/>
        <path class="cls-1" d="M174.33,42.45c2.24,0,4.03,1.8,4.03,4.04s-1.79,4.02-4.03,4.02-4.02-1.78-4.02-4.02,1.78-4.04,4.02-4.04ZM174.33,49.06c1.41,0,2.58-1.15,2.58-2.56s-1.17-2.58-2.58-2.58-2.56,1.17-2.56,2.58,1.15,2.56,2.56,2.56Z"/>
        <path class="cls-1" d="M185.45,42.78c0-.11.09-.21.2-.21h2.65c2.16,0,3.93,1.76,3.93,3.91s-1.77,3.93-3.93,3.93h-2.65c-.11,0-.2-.1-.2-.21v-7.41ZM188.17,49.03c1.45,0,2.52-1.1,2.52-2.56s-1.06-2.55-2.52-2.55h-1.27v5.11h1.27Z"/>
        <path class="cls-1" d="M195.29,42.78c0-.11.1-.21.21-.21h1.04c.11,0,.21.1.21.21v7.41c0,.11-.1.21-.21.21h-1.04c-.11,0-.21-.1-.21-.21v-7.41Z"/>
        <path class="cls-1" d="M205.22,42.62c.01-.09.08-.17.2-.17h.18c.09,0,.16.04.19.11l2.46,5.28h.03l2.46-5.28c.03-.07.09-.11.19-.11h.18c.12,0,.19.08.2.17l1.32,7.52c.03.16-.06.26-.2.26h-1.02c-.1,0-.19-.09-.21-.17l-.66-4.24h-.03l-1.96,4.4c-.02.07-.09.12-.19.12h-.2c-.1,0-.16-.06-.19-.12l-1.98-4.4h-.03l-.65,4.24c-.01.08-.1.17-.2.17h-1.01c-.14,0-.24-.1-.21-.26l1.33-7.52Z"/>
        <path class="cls-1" d="M215.75,42.78c0-.11.1-.21.21-.21h1.04c.11,0,.21.1.21.21v7.41c0,.11-.1.21-.21.21h-1.04c-.11,0-.21-.1-.21-.21v-7.41Z"/>
        <path class="cls-1" d="M220.82,42.78c0-.11.09-.21.21-.21h1.03c.11,0,.21.1.21.21v6.28h2.85c.12,0,.21.1.21.21v.92c0,.11-.09.21-.21.21h-4.1c-.12,0-.21-.1-.21-.21v-7.41Z"/>
        <path class="cls-1" d="M227.39,50.11l3.48-7.53c.03-.07.09-.12.19-.12h.11c.11,0,.16.06.19.12l3.45,7.53c.07.15-.02.29-.19.29h-.97c-.17,0-.24-.07-.32-.22l-.55-1.21h-3.35l-.55,1.21c-.04.11-.14.22-.32.22h-.97c-.17,0-.26-.15-.19-.29ZM232.23,47.72l-1.12-2.46h-.03l-1.1,2.46h2.25Z"/>
        <path class="cls-1" d="M237.4,42.66c0-.11.1-.2.21-.2h.28l4.66,4.95h.01v-4.62c0-.11.09-.21.21-.21h1.03c.11,0,.21.1.21.21v7.53c0,.11-.1.2-.21.2h-.27l-4.68-5.14h-.01v4.81c0,.11-.09.21-.21.21h-1.02c-.11,0-.21-.1-.21-.21v-7.53Z"/>
        <path class="cls-1" d="M251.09,42.45c2.24,0,4.03,1.8,4.03,4.04s-1.79,4.02-4.03,4.02-4.02-1.78-4.02-4.02,1.78-4.04,4.02-4.04ZM251.09,49.06c1.41,0,2.58-1.15,2.58-2.56s-1.17-2.58-2.58-2.58-2.56,1.17-2.56,2.58,1.15,2.56,2.56,2.56Z"/>
      </g>
      <g>
        <path class="cls-1" d="M0,1.15C0,.75.32.4.75.4h9.57c4.89,0,8.9,3.97,8.9,8.78s-4.01,8.94-8.86,8.94h-4.17v9.34c0,.4-.36.76-.75.76H.75c-.44,0-.75-.36-.75-.76V1.15ZM9.97,12.32c1.71,0,3.14-1.35,3.14-3.14,0-1.67-1.43-2.94-3.14-2.94h-3.77v6.08h3.77Z"/>
        <path class="cls-1" d="M37.62,0c7.95,0,14.3,6.4,14.3,14.34s-6.36,14.26-14.3,14.26-14.26-6.32-14.26-14.26S29.68,0,37.62,0ZM37.62,22.25c4.37,0,7.95-3.58,7.95-7.91s-3.58-7.98-7.95-7.98-7.91,3.62-7.91,7.98,3.58,7.91,7.91,7.91Z"/>
        <path class="cls-1" d="M58.72,1.15c0-.4.32-.76.75-.76h4.73c.4,0,.75.36.75.76v21.22h9.46c.44,0,.75.36.75.75v4.33c0,.4-.32.76-.75.76h-14.94c-.44,0-.75-.36-.75-.76V1.15Z"/>
        <path class="cls-1" d="M81.01,1.15c0-.4.36-.76.75-.76h4.77c.4,0,.75.36.75.76v26.3c0,.4-.36.76-.75.76h-4.77c-.4,0-.75-.36-.75-.76V1.15Z"/>
        <path class="cls-1" d="M96.94,21.06c2.07,0,3.82,1.75,3.82,3.81s-1.75,3.73-3.82,3.73-3.73-1.71-3.73-3.73,1.71-3.81,3.73-3.81Z"/>
        <path class="cls-1" d="M107.86,1.15c0-.4.32-.76.72-.76h8.9c7.67,0,13.94,6.24,13.94,13.87s-6.28,13.94-13.94,13.94h-8.9c-.4,0-.72-.36-.72-.76V1.15ZM116.84,25.47c6.52,0,11.24-4.65,11.24-11.2s-4.73-11.16-11.24-11.16h-5.96v22.37h5.96Z"/>
        <path class="cls-1" d="M139.53,1.15c0-.4.32-.76.75-.76h15.65c.44,0,.76.36.76.76v1.15c0,.4-.32.75-.76.75h-13.35v9.69h11.4c.4,0,.75.36.75.75v1.15c0,.44-.36.75-.75.75h-11.4v10.13h13.35c.44,0,.76.36.76.75v1.15c0,.4-.32.76-.76.76h-15.65c-.44,0-.75-.36-.75-.76V1.15Z"/>
        <path class="cls-1" d="M163.24,24.04c.2-.24.4-.52.59-.75.4-.52.84-.83,1.39-.36.28.24,3.18,3.02,6.71,3.02,3.22,0,5.32-2.03,5.32-4.37,0-2.74-2.38-4.37-6.95-6.28-4.37-1.91-6.99-3.69-6.99-8.22,0-2.7,2.14-7.07,8.46-7.07,3.89,0,6.79,2.03,6.79,2.03.24.12.72.6.24,1.35-.16.24-.32.52-.48.75-.36.56-.76.72-1.39.36-.28-.16-2.78-1.83-5.21-1.83-4.21,0-5.48,2.7-5.48,4.37,0,2.66,2.03,4.21,5.36,5.6,5.36,2.19,8.82,4.21,8.82,8.82,0,4.13-3.93,7.15-8.58,7.15s-7.87-2.74-8.38-3.22c-.32-.28-.72-.6-.24-1.35Z"/>
        <path class="cls-1" d="M188.19,1.15c0-.4.36-.76.75-.76h1.59c.4,0,.75.36.75.76v26.3c0,.4-.36.76-.75.76h-1.59c-.4,0-.75-.36-.75-.76V1.15Z"/>
        <path class="cls-1" d="M213.7,0c4.01,0,6.91,1.39,9.62,3.69.32.32.36.79.04,1.11-.36.36-.8.76-1.11,1.11-.36.4-.6.36-1.03-.04-2.03-1.79-4.89-3.1-7.55-3.1-6.28,0-11.05,5.24-11.05,11.4s4.77,11.48,11.05,11.48c4.37,0,7.15-1.67,7.15-1.67v-5.56h-4.57c-.44,0-.76-.32-.76-.72v-1.47c0-.44.32-.75.76-.75h6.87c.4,0,.72.36.72.75v9.1c0,.2-.16.52-.32.64,0,0-4.05,2.62-9.82,2.62-7.94,0-14.34-6.32-14.34-14.26s6.4-14.34,14.34-14.34Z"/>
        <path class="cls-1" d="M232.45.72c0-.4.36-.72.76-.72h.99l17.92,22.33h.08V1.15c0-.4.32-.76.75-.76h1.39c.4,0,.75.36.75.76v26.74c0,.4-.36.72-.75.72h-.72l-18.24-22.76h-.04v21.61c0,.4-.32.76-.75.76h-1.39c-.4,0-.76-.36-.76-.76V.72Z"/>
      </g>
    </g>
  </g>
</svg>