<?xml version="1.0" encoding="UTF-8"?>
<svg id="Layer_1" xmlns="http://www.w3.org/2000/svg" version="1.1" viewBox="0 0 662 77">
  <!-- Generator: Adobe Illustrator 29.3.0, SVG Export Plug-In . SVG Version: 2.1.0 Build 146)  -->
  <path d="M.2,70.8c0-2.5.7-4.3,2.4-6.6L41.6,10h0c-2,1.8-3.5,2.6-5.7,2.6H1.9V1.1h54.9v4.8c0,2.4-.7,4.3-2.3,6.5L15.4,66.6h.2c1.9-1.8,3.4-2.6,5.5-2.6h35.4v11.6H.1v-4.8h0Z"/>
  <path d="M71.4,75.6V1h47v11.6h-35.2v19.2h28.6v11.3h-28.6v20.9h35.2v11.6h-47Z"/>
  <path d="M125.4,1h57v11.5h-22.6v63.1h-11.8V12.5h-22.7V1Z"/>
  <path d="M248.1,75.6h-8c-3.1,0-5.6-1.7-6.8-4.4l-5.1-11.7h-35.8l-5.1,11.7c-1.2,2.8-3.8,4.4-6.8,4.4h-8L205.1,1h10.4l32.6,74.6h0ZM223.5,48.6l-11-25.1c-1.7-3.9-1.9-5.6-2-7.7h-.5c0,2.1-.3,3.8-1.9,7.7l-11,25.1h26.3Z"/>
  <path d="M257.5,1h47.1v11.6h-35.4v21.1h29.6v11.4h-29.6v30.6h-11.7V1Z"/>
  <path d="M349.7,0c21.7,0,38.5,16.7,38.5,38.3s-16.8,38.2-38.5,38.2-38.4-16.7-38.4-38.2S328.1,0,349.7,0ZM349.8,65c15,0,26.7-11.7,26.7-26.6s-11.7-26.7-26.7-26.7-26.7,11.7-26.7,26.7,11.7,26.6,26.7,26.6Z"/>
  <path d="M465,1v74.6h-9c-1.4,0-2.9-1-4.1-2.7l-38.4-56.5h-.3c1.1,2.8,1.5,5.4,1.5,7.8v51.4h-11.8V1h9.2c3,0,4.9.8,6.9,3.6l35.9,52.7h.2c-1.5-3.3-1.9-5.9-1.9-8.2V1h11.7,0Z"/>
  <path d="M476.6,1h57v11.5h-22.6v63.1h-11.8V12.5h-22.7V1Z"/>
  <path d="M538.8,65.3l2.6-4.4c1.6-2.6,5.4-3.2,8.3-1.2,3.8,2.7,9.4,5.2,13.2,5.4,8.1,0,13.9-3.7,13.9-11.2s-4.2-8.6-13.5-12.2c-14.4-5.2-21-12-21-21.3S551.5,0,564.9,0s15,2.7,19.8,8l-2.1,3.6c-1.9,3.2-5.2,4.3-8.1,2.9-3.3-2.2-7.2-3-9.6-3-6.3,0-10.9,3.3-10.9,8.7s3.9,7.2,12.5,10.2c15,4.7,22.1,12.5,22.1,23.4s-10.5,22.7-25.7,22.7-18.3-5.1-24.1-11.3h0Z"/>
  <path d="M593.9,1.2h25.6v4.7h-10.2v27.5h-5.2V6h-10.2V1.2ZM661.7,1.2v32.3h-5.2V9.9c0-.3,0-.9.3-1.5l-10.6,19.8c-.5,1-1,1.4-2.4,1.4s-1.9-.6-2.3-1.4l-10.6-19.8c.2.5.3,1.2.3,1.5v23.6h-5.2V1.2h3.9c1.4,0,2.3.2,3.3,2l10.3,18.6c.2.4.3,1,.4,1.9.1-1.1.3-1.6.5-1.9l10.1-18.6c.7-1.4,1.5-2,3.5-2h3.8Z"/>
</svg>