<svg width="662" height="77" viewBox="0 0 662 77" fill="none" xmlns="http://www.w3.org/2000/svg">
<path d="M0.150146 70.7601C0.150146 68.3101 0.88011 66.4801 2.55011 64.1901L41.6001 10.0301H41.5501C39.5601 11.8501 38.0101 12.5801 35.8601 12.6301H1.87012V1.06006H56.8201V5.86006C56.8201 8.26006 56.1401 10.1401 54.5201 12.3801L15.4201 66.6001H15.5801C17.5101 64.8301 18.9701 64.05 21.1001 64.05H56.5001V75.6201H0.140137V70.7701L0.150146 70.7601Z" fill="white"/>
<path d="M71.3601 75.6098V1.00977H118.38V12.5798H83.1401V31.8198H111.76V43.1298H83.1401V64.0398H118.38V75.6098H71.3601Z" fill="white"/>
<path d="M125.41 1.00977H182.44V12.5298H159.87V75.6098H148.09V12.5298H125.41V1.00977Z" fill="white"/>
<path d="M248.07 75.6098H240.09C237.01 75.6098 234.46 73.9398 233.26 71.1798L228.16 59.4498H192.39L187.29 71.1798C186.09 73.9398 183.53 75.6098 180.51 75.6098H172.48L205.06 1.00977H215.49L248.08 75.6098H248.07ZM223.46 48.5998L212.51 23.4698C210.79 19.5598 210.58 17.8898 210.53 15.7498H210C209.95 17.8898 209.74 19.5498 208.07 23.4698L197.12 48.5998H223.44H223.46Z" fill="white"/>
<path d="M257.54 1.00977H304.62V12.5798H269.22V33.6998H298.78V45.0598H269.22V75.6098H257.54V1.00977Z" fill="white"/>
<path d="M349.71 0.0600586C371.4 0.0600586 388.24 16.7401 388.24 38.3301C388.24 59.9201 371.41 76.5401 349.71 76.5401C328.01 76.5401 311.29 59.8601 311.29 38.3301C311.29 16.8001 328.08 0.0600586 349.71 0.0600586ZM349.76 64.9701C364.77 64.9701 376.45 53.3001 376.45 38.3301C376.45 23.3601 364.77 11.6401 349.76 11.6401C334.75 11.6401 323.07 23.3101 323.07 38.3301C323.07 53.3501 334.74 64.9701 349.76 64.9701Z" fill="white"/>
<path d="M464.96 1.00977V75.6098H455.99C454.58 75.6098 453.07 74.6198 451.93 72.9498L413.51 16.4398H413.25C414.4 19.2598 414.76 21.8098 414.76 24.2598L414.71 75.6098H402.98V1.00977H412.16C415.13 1.00977 417.1 1.83977 419.04 4.65977L454.9 57.3098H455.11C453.6 53.9698 453.24 51.3698 453.24 49.0698V1.00977H464.97H464.96Z" fill="white"/>
<path d="M476.63 1.00977H533.66V12.5298H511.09V75.6098H499.31V12.5298H476.63V1.00977Z" fill="white"/>
<path d="M538.76 65.2898L541.32 60.9098C542.94 58.3598 546.74 57.6798 549.66 59.6598C553.47 62.3698 559.09 64.8698 562.9 65.0298C571.03 65.1298 576.82 61.3298 576.82 53.8698C576.82 48.8698 572.6 45.2698 563.27 41.6198C548.83 36.4098 542.26 29.6398 542.26 20.2998C542.26 8.35982 551.54 0.0698242 564.89 0.0698242C571.61 0.0698242 579.85 2.77982 584.7 8.04982L582.61 11.6998C580.73 14.9298 577.45 16.0298 574.53 14.5698C571.19 12.3798 567.28 11.5898 564.89 11.5898C558.58 11.5898 554.04 14.8798 554.04 20.2498C554.04 24.4798 557.95 27.4398 566.51 30.4698C581.47 35.2098 588.61 42.9298 588.61 53.8298C588.61 67.2798 578.08 76.5598 562.91 76.5598C553.27 76.5598 544.56 71.4998 538.77 65.2998L538.76 65.2898Z" fill="white"/>
<path d="M593.91 1.21996H619.46V5.95996H609.29V33.49H604.08V5.95996H593.91V1.21996ZM661.68 1.21996V33.49H656.52V9.86995C656.52 9.55995 656.62 8.98995 656.78 8.35995L646.15 28.1199C645.62 29.1099 645.16 29.47 643.8 29.47C642.34 29.47 641.93 28.9 641.51 28.1199L630.88 8.35995C631.03 8.87995 631.19 9.55995 631.19 9.86995V33.49H625.97V1.21996H629.83C631.24 1.21996 632.17 1.42995 633.12 3.24995L643.44 21.81C643.65 22.23 643.75 22.8 643.8 23.69C643.9 22.59 644.12 22.13 644.27 21.81L654.38 3.18996C655.11 1.83996 655.85 1.20996 657.88 1.20996H661.68V1.21996Z" fill="white"/>
</svg>
